<svg width="32" height="33" viewBox="0 0 32 33" fill="none" xmlns="http://www.w3.org/2000/svg">
<path fill-rule="evenodd" clip-rule="evenodd" d="M9.82889 5.74262C11.4656 4.07542 13.6854 3.13879 16 3.13879C18.3146 3.13879 20.5344 4.07542 22.1711 5.74262C23.8078 7.40981 24.7273 9.67102 24.7273 12.0288V15.3625C24.7273 16.7908 25.335 17.672 26.0907 18.5445C26.1781 18.6454 26.2742 18.7531 26.3746 18.8657C26.6785 19.2065 27.0222 19.5919 27.2854 19.9673C27.6641 20.5073 28 21.1835 28 22.0301C28 22.9727 27.4611 23.7058 26.8129 24.2229C26.1645 24.7401 25.2854 25.1478 24.2724 25.467C22.2354 26.1089 19.3894 26.4751 16 26.4751C12.6106 26.4751 9.76462 26.1089 7.7276 25.467C6.71465 25.1478 5.83552 24.7401 5.18709 24.2229C4.53886 23.7058 4 22.9727 4 22.0301C4 21.1835 4.33594 20.5073 4.71456 19.9673C4.97778 19.5919 5.32148 19.2065 5.62543 18.8657C5.72583 18.7531 5.82188 18.6454 5.90927 18.5445C6.66499 17.672 7.27273 16.7908 7.27273 15.3625V12.0288C7.27273 9.67102 8.1922 7.40981 9.82889 5.74262ZM16 5.36129C14.264 5.36129 12.5992 6.06376 11.3717 7.31416C10.1442 8.56456 9.45455 10.2605 9.45455 12.0288V15.3625C9.45455 17.6015 8.42592 18.9983 7.54528 20.0149C7.40358 20.1785 7.27488 20.3229 7.15696 20.4551C6.88688 20.7581 6.67339 20.9976 6.48998 21.2591C6.25497 21.5943 6.18182 21.8209 6.18182 22.0301C6.18171 22.0351 6.1785 22.1908 6.53223 22.473C6.88948 22.758 7.4899 23.0656 8.3724 23.3437C10.1263 23.8964 12.7348 24.2526 16 24.2526C19.2652 24.2526 21.8737 23.8964 23.6276 23.3437C24.5101 23.0656 25.1105 22.758 25.4678 22.473C25.8215 22.1908 25.8183 22.0353 25.8182 22.0302C25.8182 21.821 25.745 21.5943 25.51 21.2591C25.3266 20.9976 25.1131 20.7581 24.843 20.4551C24.7251 20.3229 24.5964 20.1785 24.4547 20.0149C23.5741 18.9983 22.5455 17.6015 22.5455 15.3625V12.0288C22.5455 10.2605 21.8558 8.56456 20.6283 7.31416C19.4008 6.06376 17.736 5.36129 16 5.36129Z" fill="white"/>
<path d="M16 27.5863C14.8971 27.5863 13.8607 27.5485 12.8855 27.4752C13.0934 28.1508 13.5076 28.7412 14.0678 29.1603C14.628 29.5794 15.3049 29.8055 16 29.8055C16.6951 29.8055 17.372 29.5794 17.9322 29.1603C18.4924 28.7412 18.9066 28.1508 19.1145 27.4752C18.1393 27.5485 17.1029 27.5863 16 27.5863Z" fill="white"/>
<path d="M22 6.18799C22 3.97885 23.7909 2.18799 26 2.18799C28.2091 2.18799 30 3.97885 30 6.18799C30 8.39713 28.2091 10.188 26 10.188C23.7909 10.188 22 8.39713 22 6.18799Z" fill="white"/>
<g clip-path="url(#clip0_146_11879)">
<path d="M22 6.18799C22 3.97885 23.7909 2.18799 26 2.18799C28.2091 2.18799 30 3.97885 30 6.18799C30 8.39713 28.2091 10.188 26 10.188C23.7909 10.188 22 8.39713 22 6.18799Z" fill="#C62828"/>
<rect width="80" height="80" transform="translate(-14 -33.812)" fill="#ED3938"/>
</g>
<path d="M26 8.18799C24.8954 8.18799 24 7.29256 24 6.18799H20C20 9.5017 22.6863 12.188 26 12.188V8.18799ZM28 6.18799C28 7.29256 27.1046 8.18799 26 8.18799V12.188C29.3137 12.188 32 9.5017 32 6.18799H28ZM26 4.18799C27.1046 4.18799 28 5.08342 28 6.18799H32C32 2.87428 29.3137 0.187988 26 0.187988V4.18799ZM26 0.187988C22.6863 0.187988 20 2.87428 20 6.18799H24C24 5.08342 24.8954 4.18799 26 4.18799V0.187988Z" fill="white"/>
<defs>
<clipPath id="clip0_146_11879">
<path d="M22 6.18799C22 3.97885 23.7909 2.18799 26 2.18799C28.2091 2.18799 30 3.97885 30 6.18799C30 8.39713 28.2091 10.188 26 10.188C23.7909 10.188 22 8.39713 22 6.18799Z" fill="white"/>
</clipPath>
</defs>
</svg>
