<svg width="130" height="43" viewBox="0 0 130 43" fill="none" xmlns="http://www.w3.org/2000/svg">
<path d="M44.305 18.0173H41.8409V15.1957H50.1241V18.0173H47.6243V27.9422H44.305V18.0173Z" fill="white"/>
<path d="M50.6068 15.1957H53.8218V17.5883H50.6068V15.1957ZM50.6068 18.2855H53.8218V27.9452H50.6068V18.2855Z" fill="white"/>
<path d="M58.0885 23.6576V24.9239C58.0885 25.7939 58.3805 26.2259 58.9645 26.2259C59.2743 26.2259 59.5038 26.1008 59.6527 25.8505C59.8017 25.6002 59.8762 25.1652 59.8762 24.5485H62.7693C62.7455 25.7641 62.4356 26.6639 61.8397 27.2539C61.2438 27.8438 60.2933 28.1388 58.9823 28.1388C57.4479 28.1388 56.3782 27.7664 55.7763 27.0215C55.1745 26.2766 54.8735 24.9775 54.8735 23.1213C54.8735 21.2888 55.1923 19.9838 55.83 19.2031C56.4676 18.4255 57.5164 18.0352 58.9823 18.0352C60.3142 18.0352 61.2945 18.3838 61.9202 19.081C62.5459 19.7782 62.8558 20.976 62.8558 22.6773V23.6606H58.0885V23.6576ZM59.8553 21.4795C59.8553 20.9551 59.7898 20.5797 59.6587 20.3473C59.5276 20.1149 59.2952 19.9987 58.9615 19.9987C58.6397 19.9987 58.4132 20.1149 58.2821 20.3473C58.151 20.5797 58.0855 20.9581 58.0855 21.4795V21.9086H59.8524V21.4795H59.8553Z" fill="white"/>
<path d="M63.7466 18.2854H66.8543V19.4624H66.8901C67.3072 18.5119 68.0878 18.0352 69.229 18.0352C70.0156 18.0352 70.6294 18.2318 71.0763 18.6251C71.5233 19.0184 71.7467 19.6948 71.7467 20.6601V27.9452H68.5318V21.5719C68.5318 21.1667 68.4722 20.8747 68.353 20.6959C68.2338 20.5171 68.0312 20.4277 67.7452 20.4277C67.4592 20.4277 67.2566 20.5171 67.1374 20.6959C67.0182 20.8747 66.9586 21.1667 66.9586 21.5719V27.9452H63.7437V18.2854H63.7466Z" fill="white"/>
<path d="M73.171 15.1957H76.8865L79.0288 23.0528H79.0646V15.1957H82.1693V27.9452H78.5282L76.3144 20.0702H76.2787V27.9452H73.171V15.1957Z" fill="white"/>
<path d="M88.5425 18.0472H91.5429V27.7844C91.5429 30.0459 90.1962 31.1752 87.5086 31.1752C86.7578 31.1752 86.1291 31.1066 85.6166 30.9696C85.1041 30.8325 84.6721 30.5554 84.3145 30.1383C83.957 29.7211 83.7722 29.161 83.7603 28.4608H86.6535C86.6535 28.9613 86.9216 29.2116 87.4579 29.2116C87.7559 29.2116 87.9943 29.1342 88.173 28.9792C88.3518 28.8243 88.4412 28.5025 88.4412 28.0139V26.2291H88.4055C88.0479 27.1945 87.3239 27.6742 86.2274 27.6742C84.3473 27.6742 83.4058 26.0861 83.4058 22.9069C83.4058 21.1341 83.656 19.8797 84.1566 19.1407C84.6572 18.4018 85.3991 18.0323 86.3883 18.0323C87.4818 18.0323 88.1909 18.5627 88.5127 19.6205H88.5485V18.0472H88.5425ZM86.6147 22.8562C86.6147 23.8186 86.6862 24.4652 86.8293 24.793C86.9723 25.1207 87.2106 25.2846 87.5444 25.2846C87.8661 25.2846 88.0956 25.1237 88.2326 24.8019C88.3697 24.4801 88.4382 23.8306 88.4382 22.8562C88.4382 21.9028 88.3667 21.2622 88.2237 20.9285C88.0807 20.5948 87.8542 20.4279 87.5444 20.4279C87.2226 20.4279 86.9872 20.5948 86.8382 20.9285C86.6892 21.2592 86.6147 21.9028 86.6147 22.8562Z" fill="white"/>
<path d="M97.5764 27.9423C97.5168 27.7874 97.4512 27.4239 97.3797 26.8548H97.344C96.9864 27.7129 96.2594 28.139 95.1659 28.139C93.3812 28.139 92.4873 27.2124 92.4873 25.3531C92.4873 24.4473 92.681 23.765 93.0683 23.3002C93.4557 22.8354 94.1529 22.4838 95.1659 22.2454L96.4322 21.9415C96.7779 21.8581 97.0222 21.7359 97.1652 21.575C97.3082 21.4141 97.3797 21.1847 97.3797 20.8868C97.3797 20.2909 97.1056 19.9929 96.5574 19.9929C96.2356 19.9929 96.0062 20.0823 95.8691 20.261C95.732 20.4398 95.6576 20.7795 95.6456 21.2801H92.8597C92.8597 20.6245 92.9789 20.0704 93.2173 19.6115C93.4557 19.1527 93.7715 18.816 94.1708 18.6044C94.57 18.3899 94.9574 18.2409 95.3387 18.1575C95.7201 18.0741 96.1253 18.0323 96.5544 18.0323C97.7909 18.0323 98.7384 18.2588 99.3939 18.7117C100.049 19.1646 100.377 19.972 100.377 21.14V25.8537C100.377 26.8667 100.478 27.561 100.681 27.9423H97.5764ZM96.3816 26.0324C97.049 26.0324 97.3797 25.5021 97.3797 24.4444V23.2853H97.344C97.2844 23.3687 97.2039 23.4283 97.1026 23.4641C97.0013 23.4998 96.8643 23.5386 96.6915 23.5803C96.5186 23.622 96.3726 23.6726 96.2535 23.7322C95.8125 23.9348 95.592 24.352 95.592 24.9837C95.592 25.3054 95.6635 25.5617 95.8065 25.7524C95.9525 25.9371 96.1432 26.0324 96.3816 26.0324Z" fill="white"/>
<path d="M102.061 28.8541C102.263 28.9018 102.502 28.9256 102.776 28.9256C103.133 28.9256 103.401 28.8392 103.58 28.6664C103.759 28.4936 103.845 28.1926 103.845 28.0496C103.845 27.9662 103.798 27.7457 103.702 27.3881L101.092 18.0472L104.432 18.0323L105.451 24.7989H105.487L106.45 18.0472L109.691 18.0502L107.042 28.2105C106.768 29.2921 106.396 30.177 105.919 30.5763C105.442 30.9755 104.76 31.1752 103.866 31.1752C103.151 31.1752 102.552 31.1513 102.064 31.1036V28.8541H102.061Z" fill="white"/>
<path d="M112.272 24.4084H109.271V27.9452H112.272V24.4084Z" fill="white"/>
<path d="M112.984 18.053H116.273L117.215 25.2307H117.25L118.174 18.053L121.52 18.056L119.107 27.9421H115.323L112.984 18.053Z" fill="white"/>
<path d="M122 18.053H125.108V19.4624H125.143C125.56 18.5089 126.341 18.0352 127.482 18.0352C128.269 18.0352 128.883 18.2318 129.33 18.6251C129.777 19.0184 130 19.6977 130 20.6601V27.9452H126.785V21.5719C126.785 21.1667 126.725 20.8747 126.606 20.6989C126.487 20.5201 126.285 20.4307 125.998 20.4307C125.712 20.4307 125.51 20.5201 125.391 20.6989C125.271 20.8777 125.212 21.1696 125.212 21.5719V27.9452H121.997V18.053H122Z" fill="white"/>
<path d="M19.0474 42.9443C18.4843 42.9443 17.9569 42.6702 17.6322 42.2083L11.5449 33.514C11.5062 33.4604 11.4704 33.4008 11.4377 33.3412L11.3334 33.1505L11.2023 33.3233C10.8775 33.7434 10.368 33.9937 9.83765 33.9937H1.72432C1.07776 33.9937 0.490789 33.6362 0.195814 33.0641C-0.102142 32.492 -0.0574485 31.8067 0.312016 31.2764L7.17393 21.4707L0.312016 11.6739C-0.0574485 11.1465 -0.102142 10.4612 0.195814 9.88616C0.493769 9.3111 1.08074 8.95654 1.7273 8.95654H9.84659C10.374 8.95654 10.8805 9.20383 11.2053 9.62097L11.3393 9.79379L11.4436 9.60011C11.4734 9.54648 11.5062 9.48986 11.5509 9.42729L17.6351 0.735941C17.9569 0.27411 18.4843 0 19.0474 0C19.6106 0 20.1409 0.277093 20.4598 0.738923L26.547 9.43027C26.5827 9.48391 26.6185 9.54052 26.6542 9.60011L26.7585 9.78782L26.8926 9.61799C27.2233 9.19489 27.7179 8.95355 28.2543 8.95355H36.3706C37.0171 8.95355 37.6041 9.3111 37.9021 9.88317C38.2 10.4552 38.1553 11.1405 37.7859 11.6709L30.921 21.4707L37.7978 31.2734C38.1702 31.8037 38.2149 32.489 37.917 33.0611C37.619 33.6362 37.035 33.9907 36.3884 33.9907H28.2721C27.7388 33.9907 27.2263 33.7375 26.8986 33.3114L26.7615 33.1297L26.6602 33.3323C26.6334 33.3889 26.5976 33.4455 26.5529 33.511L20.4657 42.2054C20.1409 42.6672 19.6106 42.9443 19.0474 42.9443Z" fill="white"/>
<path d="M14.6853 18.4613H12.2749C12.0544 18.4613 11.8488 18.354 11.7207 18.1723L8.32993 13.3305H6.67926L11.0175 19.522C11.1426 19.7038 11.3512 19.811 11.5717 19.811H16.5773C16.7978 19.811 17.0064 19.9183 17.1315 20.1L25.5577 32.1345C25.7216 32.3669 25.7216 32.6767 25.5577 32.9091L19.4705 41.6035C19.2023 41.9878 18.6332 41.9878 18.3621 41.6035L12.2749 32.9091C12.111 32.6767 12.111 32.3669 12.2749 32.1345L15.5107 27.5162C15.7788 27.1318 16.3479 27.1318 16.6161 27.5132L17.8228 29.2294C17.9867 29.4618 17.9867 29.7717 17.8228 30.0071L16.333 32.1345C16.1691 32.3669 16.1691 32.6767 16.333 32.9091L18.9163 36.5978L21.4996 32.9091C21.6634 32.6767 21.6634 32.3669 21.4996 32.1345L15.4004 23.4252C15.2723 23.2435 15.0667 23.1362 14.8462 23.1362H11.5657C11.3452 23.1362 11.1397 23.2435 11.0115 23.4252L6.67032 29.6227L8.32397 29.6167L11.7147 24.7779C11.8428 24.5992 12.0484 24.4919 12.2689 24.4919H14.1401C14.3605 24.4919 14.5661 24.5992 14.6943 24.7809L14.9624 25.1653C15.1233 25.3977 15.1233 25.7076 14.9624 25.94L10.2577 32.6589C10.1326 32.8406 9.924 32.9479 9.70351 32.9479H1.59316C1.04791 32.9479 0.726114 32.3311 1.03897 31.8842L8.04985 21.8639C8.21373 21.6315 8.21373 21.3217 8.04985 21.0893L1.04195 11.072C0.729094 10.6251 1.04791 10.0083 1.59614 10.0083H9.71543C9.93591 10.0083 10.1415 10.1156 10.2696 10.2973L15.2425 17.4006C15.5524 17.8445 15.2336 18.4613 14.6853 18.4613Z" fill="#ED3938"/>
<path d="M23.1652 24.486H25.5726C25.7931 24.486 25.9987 24.5932 26.1268 24.775L29.5176 29.6168H31.1682L26.83 23.4253C26.7049 23.2435 26.4963 23.1362 26.2758 23.1362H21.2702C21.0497 23.1362 20.8411 23.029 20.716 22.8502L12.2749 10.8068C12.111 10.5744 12.111 10.2646 12.2749 10.0322L18.3621 1.33783C18.6303 0.95347 19.1994 0.95347 19.4675 1.33783L25.5548 10.0322C25.7186 10.2646 25.7186 10.5744 25.5548 10.8068L22.3219 15.4251C22.0508 15.8095 21.4817 15.8095 21.2135 15.4251L20.0098 13.706C19.8459 13.4736 19.8459 13.1637 20.0098 12.9313L21.4936 10.8098C21.6575 10.5774 21.6575 10.2676 21.4936 10.0351L18.9104 6.34348L16.3271 10.0322C16.1632 10.2646 16.1632 10.5744 16.3271 10.8068L22.4411 19.522C22.5692 19.7038 22.7748 19.8111 22.9953 19.8111H26.255C26.4754 19.8111 26.684 19.7038 26.8091 19.522L31.1444 13.3305H29.4937L26.103 18.1723C25.9779 18.3541 25.7693 18.4613 25.5488 18.4613H23.6866C23.4661 18.4613 23.2575 18.3541 23.1324 18.1723L22.8583 17.782C22.6944 17.5496 22.6944 17.2397 22.8583 17.0073L27.56 10.2944C27.6881 10.1156 27.8937 10.0053 28.1142 10.0053H36.2305C36.7758 10.0053 37.0975 10.6221 36.7847 11.069L29.7708 21.0833C29.6069 21.3157 29.6069 21.6256 29.7708 21.858L36.7996 31.8753C37.1154 32.3222 36.7936 32.939 36.2484 32.939H28.1321C27.9116 32.939 27.706 32.8317 27.5779 32.6499L22.605 25.5497C22.2981 25.1028 22.6169 24.486 23.1652 24.486Z" fill="#ED3938"/>
</svg>
