<svg width="25" height="24" viewBox="0 0 25 24" fill="none" xmlns="http://www.w3.org/2000/svg">
<path d="M3.25832 4.57884C3.09595 4.37728 2.80087 4.34546 2.59921 4.50783C2.3976 4.67025 2.36583 4.96533 2.5282 5.16694C2.83124 5.5432 3.27323 5.74964 3.70785 5.84217V5.85966C3.70785 6.1185 3.91772 6.32841 4.1766 6.32841C4.42973 6.32841 4.63593 6.12774 4.64503 5.87686C5.41167 5.76108 5.95251 5.26584 6.03881 4.58592C6.13716 3.81174 5.63226 3.06839 4.81111 2.7781C4.75345 2.7577 4.69823 2.73806 4.64536 2.71908V1.48364C4.76249 1.53005 4.84481 1.59469 4.8885 1.65689C5.03718 1.86882 5.32954 1.9201 5.54147 1.77131C5.75339 1.62262 5.80462 1.33026 5.65588 1.11834C5.45812 0.836488 5.10496 0.599578 4.64536 0.514031V0.46875C4.64536 0.209906 4.43549 0 4.1766 0C3.91772 0 3.70785 0.209906 3.70785 0.46875V0.548062C3.65616 0.56039 3.60384 0.574453 3.55092 0.590438C3.00703 0.754266 2.59659 1.28194 2.55272 1.87359C2.50926 2.45934 2.82042 2.96803 3.38498 3.23423C3.4575 3.26841 3.56808 3.31467 3.70785 3.36961V4.87218C3.52832 4.80956 3.36688 4.71361 3.25832 4.57884ZM5.10881 4.4678C5.08064 4.68956 4.91526 4.84856 4.64536 4.92141V3.72492C5.004 3.90895 5.13947 4.2263 5.10881 4.4678ZM3.48764 1.94287C3.49945 1.78336 3.58772 1.63046 3.70785 1.54477V2.34474C3.54914 2.24686 3.47512 2.112 3.48764 1.94287Z" fill="#C62828"/>
<path d="M6.1239 15.2548H2.35126C2.09236 15.2548 1.88251 15.4646 1.88251 15.7235V23.5312C1.88251 23.7901 2.09236 24 2.35126 24H6.1239C6.38279 24 6.59265 23.7901 6.59265 23.5312V15.7235C6.59265 15.4646 6.38279 15.2548 6.1239 15.2548ZM5.65515 23.0625H2.82V16.1922H5.65515V23.0625Z" fill="#0E9549"/>
<path d="M11.6512 10.1387H7.87847C7.61958 10.1387 7.40973 10.3486 7.40973 10.6074V23.5313C7.40973 23.7902 7.61958 24 7.87847 24H11.6512C11.91 24 12.1199 23.7902 12.1199 23.5313V10.6074C12.1199 10.3486 11.91 10.1387 11.6512 10.1387ZM11.1824 23.0626H8.34723V11.0762H11.1824V23.0626Z" fill="#0E9549"/>
<path d="M22.7057 7.81726H18.933C18.6741 7.81726 18.4642 8.02714 18.4642 8.28602V23.5313C18.4642 23.7902 18.6741 24 18.933 24H22.7057C22.9646 24 23.1744 23.7902 23.1744 23.5313V8.28602C23.1744 8.02714 22.9646 7.81726 22.7057 7.81726ZM22.2369 23.0626H19.4018V8.75474H22.2369V23.0626Z" fill="#0E9549"/>
<path d="M17.1785 11.5315H13.4059C13.147 11.5315 12.9371 11.7414 12.9371 12.0002V23.5313C12.9371 23.7901 13.147 24 13.4059 24H17.1785C17.4374 24 17.6473 23.7901 17.6473 23.5313V12.0002C17.6473 11.7413 17.4374 11.5315 17.1785 11.5315ZM16.7098 23.0625H13.8747V12.4689H16.7098V23.0625Z" fill="#0E9549"/>
<path d="M23.5009 1.11285C23.3963 0.993878 23.2387 0.935566 23.0819 0.95835L20.85 1.28019C20.5938 1.31713 20.4159 1.55478 20.4529 1.81105C20.4899 2.06732 20.7277 2.24544 20.9838 2.20808L21.6359 2.11405L15.6733 7.46722L9.96151 4.8268C9.78527 4.74538 9.57719 4.78096 9.43799 4.91624L3.01323 11.1644C2.82764 11.3449 2.82348 11.6417 3.00399 11.8272C3.09587 11.9218 3.21788 11.9692 3.34008 11.9692C3.45784 11.9692 3.57572 11.9251 3.66685 11.8365L9.86055 5.81301L15.56 8.4477C15.73 8.52626 15.9305 8.49618 16.0699 8.37098L22.2788 2.79678L22.0919 3.46691C22.0224 3.71629 22.1681 3.9748 22.4175 4.04437C22.4597 4.05608 22.502 4.06171 22.5437 4.06171C22.7488 4.06166 22.9372 3.92596 22.9949 3.71877L23.6003 1.54822C23.6429 1.3956 23.6054 1.23186 23.5009 1.11285Z" fill="#0E9549"/>
</svg>
