<svg width="25" height="24" viewBox="0 0 25 24" fill="none" xmlns="http://www.w3.org/2000/svg">
<g clip-path="url(#clip0_443_17540)">
<path d="M24.129 15.4173C23.0536 14.2283 21.2815 13.9723 19.9122 14.8105L17.3531 16.4042C16.9142 15.0637 15.6663 14.1207 14.2282 14.1016L11.6264 14.0486C10.154 13.1845 8.26208 13.5207 7.17423 14.8592C6.89392 15.2041 6.66395 15.5298 6.48785 15.831H5.82044V15.4781C5.82044 15.2192 5.61058 15.0093 5.35169 15.0093H0.71875C0.459859 15.0093 0.25 15.2192 0.25 15.4781V21.015C0.25 21.2739 0.459859 21.4838 0.71875 21.4838H5.35169C5.61058 21.4838 5.82044 21.2739 5.82044 21.015V20.415L12.2558 21.828C12.6928 21.9259 13.137 21.9742 13.5789 21.9742C14.6942 21.9742 15.7946 21.6673 16.7266 21.0791C16.7627 21.0564 20.7259 18.3696 24.0444 16.1198C24.1566 16.0435 24.2305 15.9226 24.2466 15.7878C24.2629 15.6531 24.2199 15.5179 24.129 15.4173ZM4.88294 20.5462H1.1875V15.9468H4.88294V20.5462ZM16.2216 20.2892C15.1293 20.9766 13.7589 21.2041 12.4589 20.9127L5.82044 19.4552V16.7686H6.76586C6.9429 16.7686 7.10486 16.6688 7.1845 16.5106C7.34064 16.2006 7.58195 15.844 7.90174 15.4505C8.71744 14.4469 10.1514 14.2142 11.2372 14.9094C11.3098 14.956 11.3941 14.9816 11.4804 14.9834L14.2123 15.0389C15.2432 15.0526 16.137 15.7242 16.4572 16.681H10.7877C10.5287 16.681 10.3189 16.8909 10.3189 17.1498C10.3189 17.4087 10.5287 17.6186 10.7877 17.6186H17.0425C17.1301 17.6186 17.2159 17.594 17.2903 17.5477L20.4046 15.6082C21.2266 15.105 22.253 15.1521 23.019 15.6821C20.4769 17.4057 16.3814 20.1821 16.2216 20.2892Z" fill="#0E9549"/>
<path d="M3.44696 18.3302C3.18807 18.3302 2.97821 18.54 2.97821 18.799V19.1433C2.97821 19.4023 3.18807 19.6121 3.44696 19.6121C3.70585 19.6121 3.91571 19.4023 3.91571 19.1433V18.799C3.91571 18.54 3.70585 18.3302 3.44696 18.3302Z" fill="#0E9549"/>
<path d="M17.5868 14.1656C20.9337 14.1656 23.6566 11.4427 23.6566 8.09579C23.6566 4.74892 20.9337 2.026 17.5868 2.026C14.2399 2.026 11.517 4.74892 11.517 8.09579C11.517 11.4427 14.2399 14.1656 17.5868 14.1656ZM17.5868 2.96351C20.4168 2.96351 22.7191 5.26587 22.7191 8.09579C22.7191 10.9257 20.4167 13.2281 17.5868 13.2281C14.7569 13.2281 12.4545 10.9258 12.4545 8.09579C12.4545 5.26582 14.7569 2.96351 17.5868 2.96351Z" fill="#C62828"/>
<path d="M17.1542 11.0548V11.1209C17.1542 11.3798 17.364 11.5897 17.6229 11.5897C17.8818 11.5897 18.0917 11.3798 18.0917 11.1209V11.0906C19.1275 10.9594 19.5797 10.2856 19.6561 9.68408C19.763 8.84224 19.2118 8.03312 18.3159 7.71641C18.2373 7.68857 18.1626 7.6619 18.0917 7.6364V6.1303C18.2772 6.18684 18.4057 6.28133 18.4688 6.3712C18.6175 6.58312 18.9098 6.6343 19.1218 6.48561C19.3337 6.33693 19.385 6.04457 19.2362 5.83265C19.0152 5.51769 18.6145 5.25482 18.0917 5.16961V5.07056C18.0917 4.81166 17.8818 4.60181 17.6229 4.60181C17.364 4.60181 17.1542 4.81166 17.1542 5.07056V5.20523C17.083 5.22102 17.0106 5.23992 16.9372 5.26199C16.349 5.43918 15.905 6.01054 15.8575 6.65141C15.8106 7.28423 16.1476 7.83417 16.7589 8.12248C16.8456 8.16336 16.9814 8.21976 17.1542 8.2872V10.0908C16.913 10.0188 16.6915 9.898 16.5477 9.71936C16.3853 9.51776 16.0902 9.486 15.8886 9.6484C15.687 9.8108 15.6552 10.1059 15.8176 10.3075C16.1591 10.7316 16.6633 10.9584 17.1542 11.0548ZM18.726 9.56608C18.6887 9.85968 18.4608 10.0632 18.0917 10.1406V8.6348C18.5813 8.84488 18.7653 9.25656 18.726 9.56608ZM16.7925 6.72084C16.8098 6.48773 16.9612 6.26559 17.1542 6.17971V7.27241C16.833 7.11899 16.7801 6.88799 16.7925 6.72084Z" fill="#C62828"/>
</g>
<defs>
<clipPath id="clip0_443_17540">
<rect width="24" height="24" fill="white" transform="translate(0.25)"/>
</clipPath>
</defs>
</svg>
