<svg width="389" height="308" viewBox="0 0 389 308" fill="none" xmlns="http://www.w3.org/2000/svg">
<path d="M182.6 157L184.9 6.40039C266.6 7.60039 333.2 75.2004 333.2 157C333.2 239.6 265.2 307.6 182.6 307.6C133.4 307.6 87.3001 283.5 59.1001 243.2L182.6 157Z" fill="url(#paint0_radial_1465_26986)"/>
<path d="M182.6 290.6C256.385 290.6 316.2 230.786 316.2 157C316.2 83.2151 256.385 23.4004 182.6 23.4004C108.815 23.4004 49 83.2151 49 157C49 230.786 108.815 290.6 182.6 290.6Z" fill="url(#paint1_linear_1465_26986)"/>
<path opacity="0.46" d="M252.6 50.0996C232.5 36.8996 208.4 29.0996 182.6 29.0996C112.1 29.0996 54.8 86.3996 54.8 156.9C54.8 182.7 62.5001 206.8 75.8001 226.9L252.6 50.0996Z" fill="url(#paint2_linear_1465_26986)"/>
<path d="M320.6 222.7H38.2L0 111H363.6L320.6 222.7Z" fill="url(#paint3_linear_1465_26986)"/>
<path opacity="0.46" d="M235.6 116.8H8L42.3 217H135.4C168.8 183.6 202.2 150.2 235.6 116.8Z" fill="url(#paint4_linear_1465_26986)"/>
<path d="M53.5389 131.622H78.8625C84.728 131.622 89.9305 132.719 94.4699 134.912C99.0092 137.105 102.529 140.216 105.028 144.246C107.527 148.275 108.777 152.993 108.777 158.399C108.777 163.806 107.527 168.524 105.028 172.553C102.529 176.583 99.0092 179.694 94.4699 181.887C89.9305 184.08 84.728 185.177 78.8625 185.177H53.5389V131.622ZM78.2505 173.089C82.8409 173.089 86.5132 171.788 89.2674 169.187C92.0727 166.586 93.4753 162.99 93.4753 158.399C93.4753 153.809 92.0727 150.213 89.2674 147.612C86.5132 145.011 82.8409 143.71 78.2505 143.71H68.6872V173.089H78.2505ZM46.6533 153.35H81.0812V162.684H46.6533V153.35ZM133.7 143.022C140.586 143.022 145.839 144.603 149.461 147.765C153.082 150.876 154.893 155.671 154.893 162.148V185.177H141.351V179.821C139.26 183.851 135.179 185.865 129.11 185.865C125.897 185.865 123.117 185.304 120.771 184.182C118.425 183.06 116.639 181.555 115.415 179.668C114.242 177.73 113.656 175.537 113.656 173.089C113.656 169.161 115.16 166.127 118.17 163.984C121.179 161.791 125.82 160.695 132.094 160.695H140.356C140.101 156.308 137.169 154.115 131.558 154.115C129.569 154.115 127.554 154.447 125.514 155.11C123.474 155.722 121.74 156.589 120.312 157.711L115.415 147.842C117.71 146.311 120.49 145.138 123.755 144.322C127.07 143.455 130.385 143.022 133.7 143.022ZM133.165 176.685C134.848 176.685 136.327 176.277 137.602 175.46C138.877 174.644 139.795 173.446 140.356 171.865V168.269H134.083C129.85 168.269 127.733 169.671 127.733 172.477C127.733 173.752 128.217 174.772 129.186 175.537C130.156 176.302 131.482 176.685 133.165 176.685ZM141.81 138.737L135.307 134.223L128.804 138.737H119.088L129.11 129.404H141.504L151.526 138.737H141.81ZM137.602 121.523H151.832L159.942 131.087H149.996L137.602 121.523ZM207.677 143.71V185.177H193.829V180.739C192.299 182.423 190.463 183.698 188.321 184.565C186.178 185.432 183.909 185.865 181.512 185.865C176.156 185.865 171.872 184.284 168.658 181.122C165.496 177.96 163.915 173.216 163.915 166.892V143.71H178.451V164.52C178.451 167.631 179.038 169.901 180.211 171.329C181.384 172.757 183.093 173.471 185.337 173.471C187.632 173.471 189.494 172.681 190.922 171.1C192.401 169.467 193.141 166.994 193.141 163.678V143.71H207.677ZM267.918 183.494C266.694 184.259 265.189 184.845 263.404 185.253C261.67 185.661 259.808 185.865 257.819 185.865C252.413 185.865 248.256 184.539 245.348 181.887C242.441 179.235 240.988 175.282 240.988 170.028V156.104H234.944V145.24H240.988V134.453H255.524V145.24H265.011V156.104H255.524V169.875C255.524 171.355 255.906 172.528 256.671 173.395C257.487 174.211 258.559 174.619 259.885 174.619C261.568 174.619 263.047 174.185 264.322 173.318L267.918 183.494ZM317.132 143.71V185.177H303.284V180.739C301.754 182.423 299.918 183.698 297.776 184.565C295.634 185.432 293.364 185.865 290.967 185.865C285.611 185.865 281.327 184.284 278.114 181.122C274.951 177.96 273.37 173.216 273.37 166.892V143.71H287.906V164.52C287.906 167.631 288.493 169.901 289.666 171.329C290.839 172.757 292.548 173.471 294.792 173.471C297.087 173.471 298.949 172.681 300.377 171.1C301.856 169.467 302.596 166.994 302.596 163.678V143.71H317.132ZM307.798 143.71H310.399C311.623 143.71 312.643 143.251 313.46 142.333C314.327 141.415 314.76 140.267 314.76 138.89C314.76 138.074 314.607 137.284 314.301 136.519C314.046 135.703 313.689 135.014 313.23 134.453L321.646 131.469C323.431 133.662 324.323 136.34 324.323 139.502C324.323 143.736 323.048 147.026 320.498 149.372C317.948 151.718 314.403 152.891 309.864 152.891H307.798V143.71Z" fill="white"/>
<path d="M255.1 248.9H104.4C97.1999 248.9 91.3999 243.1 91.3999 235.9V212.3C91.3999 205.1 97.1999 199.3 104.4 199.3H255.1C262.3 199.3 268.1 205.1 268.1 212.3V235.9C268.1 243.1 262.3 248.9 255.1 248.9Z" fill="url(#paint5_radial_1465_26986)"/>
<path d="M133.536 229.736H126.432L125.112 233H120.264L127.68 216.2H132.36L139.8 233H134.856L133.536 229.736ZM132.144 226.232L129.984 220.856L127.824 226.232H132.144ZM157.131 216.2V233H153.219L145.803 224.048V233H141.147V216.2H145.059L152.475 225.152V216.2H157.131ZM171.043 219.968H165.883V216.2H180.931V219.968H175.795V233H171.043V219.968ZM190.939 233.336C189.163 233.336 187.563 232.96 186.139 232.208C184.731 231.456 183.619 230.416 182.803 229.088C182.003 227.76 181.603 226.264 181.603 224.6C181.603 222.936 182.003 221.44 182.803 220.112C183.619 218.784 184.731 217.744 186.139 216.992C187.563 216.24 189.163 215.864 190.939 215.864C192.715 215.864 194.307 216.24 195.715 216.992C197.139 217.744 198.251 218.784 199.051 220.112C199.867 221.44 200.275 222.936 200.275 224.6C200.275 226.264 199.867 227.76 199.051 229.088C198.251 230.416 197.139 231.456 195.715 232.208C194.307 232.96 192.715 233.336 190.939 233.336ZM190.939 229.4C191.787 229.4 192.555 229.2 193.243 228.8C193.931 228.4 194.475 227.84 194.875 227.12C195.275 226.384 195.475 225.544 195.475 224.6C195.475 223.656 195.275 222.824 194.875 222.104C194.475 221.368 193.931 220.8 193.243 220.4C192.555 220 191.787 219.8 190.939 219.8C190.091 219.8 189.323 220 188.635 220.4C187.947 220.8 187.403 221.368 187.003 222.104C186.603 222.824 186.403 223.656 186.403 224.6C186.403 225.544 186.603 226.384 187.003 227.12C187.403 227.84 187.947 228.4 188.635 228.8C189.323 229.2 190.091 229.4 190.939 229.4ZM213.786 229.736H206.682L205.362 233H200.514L207.93 216.2H212.61L220.05 233H215.106L213.786 229.736ZM212.394 226.232L210.234 220.856L208.074 226.232H212.394ZM204.858 211.184H209.418L212.634 214.832H209.37L204.858 211.184ZM237.381 216.2V233H233.469L226.053 224.048V233H221.397V216.2H225.309L232.725 225.152V216.2H237.381Z" fill="white"/>
<path d="M336.1 283.2C365.316 283.2 389 259.516 389 230.3C389 201.085 365.316 177.4 336.1 177.4C306.884 177.4 283.2 201.085 283.2 230.3C283.2 259.516 306.884 283.2 336.1 283.2Z" fill="url(#paint6_linear_1465_26986)"/>
<path opacity="0.46" d="M336.1 277.501C310.1 277.501 289 256.401 289 230.401C289 204.401 310.1 183.301 336.1 183.301C362.1 183.301 383.2 204.401 383.2 230.401C383.2 256.301 362.1 277.501 336.1 277.501Z" fill="url(#paint7_linear_1465_26986)"/>
<path d="M313.103 234.27L321.142 261.091L313.556 263.365L307.274 242.406L302.293 243.899L300.536 238.036L313.103 234.27ZM340.249 239.955C341.69 240.303 342.899 240.901 343.877 241.749C344.855 242.598 345.547 243.699 345.953 245.052C346.458 246.738 346.417 248.365 345.829 249.933C345.241 251.502 344.169 252.895 342.614 254.113C341.058 255.331 339.13 256.284 336.831 256.973C334.532 257.662 332.398 257.926 330.429 257.764C328.46 257.603 326.798 257.029 325.445 256.043C324.092 255.057 323.162 253.721 322.657 252.035C322.251 250.681 322.223 249.381 322.574 248.134C322.924 246.888 323.605 245.723 324.617 244.641C323.506 244.278 322.557 243.713 321.77 242.947C321.009 242.172 320.46 241.223 320.124 240.1C319.657 238.541 319.694 237.041 320.236 235.598C320.77 234.129 321.746 232.835 323.164 231.714C324.607 230.585 326.376 229.707 328.471 229.079C330.566 228.451 332.513 228.215 334.314 228.372C336.14 228.52 337.68 229.061 338.934 229.994C340.18 230.901 341.037 232.133 341.504 233.691C341.841 234.815 341.892 235.914 341.656 236.986C341.447 238.051 340.978 239.041 340.249 239.955ZM330.067 234.405C329.122 234.688 328.432 235.173 327.998 235.86C327.556 236.522 327.469 237.299 327.737 238.193C327.997 239.062 328.485 239.667 329.2 240.01C329.933 240.319 330.785 240.328 331.755 240.037C332.726 239.746 333.432 239.27 333.875 238.609C334.309 237.922 334.396 237.144 334.136 236.276C333.868 235.382 333.367 234.78 332.634 234.471C331.894 234.136 331.038 234.114 330.067 234.405ZM335.235 251.647C336.461 251.28 337.344 250.695 337.883 249.893C338.44 249.058 338.565 248.13 338.259 247.108C337.953 246.086 337.341 245.392 336.425 245.027C335.526 244.628 334.463 244.613 333.237 244.98C332.011 245.348 331.119 245.949 330.562 246.784C330.023 247.586 329.907 248.498 330.213 249.519C330.519 250.541 331.122 251.251 332.021 251.65C332.938 252.016 334.009 252.015 335.235 251.647ZM353.145 238.095C351.127 238.699 349.281 238.529 347.605 237.584C345.93 236.638 344.748 235.016 344.059 232.717C343.607 231.21 343.507 229.806 343.757 228.506C344.008 227.206 344.556 226.109 345.402 225.216C346.265 224.289 347.361 223.626 348.69 223.228C350.733 222.615 352.596 222.795 354.279 223.766C355.955 224.711 357.133 226.321 357.814 228.594C358.503 230.893 358.408 232.898 357.529 234.609C356.65 236.32 355.189 237.482 353.145 238.095ZM364.656 218.818L370.173 217.165L359.897 249.475L354.379 251.129L364.656 218.818ZM352.054 234.455C352.744 234.248 353.201 233.777 353.426 233.041C353.651 232.306 353.569 231.286 353.178 229.984C352.788 228.681 352.296 227.784 351.704 227.294C351.111 226.803 350.47 226.661 349.781 226.868C349.116 227.067 348.663 227.551 348.42 228.32C348.195 229.055 348.274 230.062 348.657 231.339C349.04 232.616 349.531 233.513 350.131 234.029C350.749 234.512 351.39 234.654 352.054 234.455ZM375.863 245.066C373.82 245.678 371.96 245.512 370.285 244.566C368.635 243.613 367.466 241.987 366.777 239.688C366.095 237.415 366.194 235.422 367.073 233.711C367.945 231.975 369.389 230.804 371.407 230.199C373.451 229.587 375.314 229.766 376.997 230.737C378.672 231.682 379.851 233.292 380.532 235.565C381.221 237.864 381.126 239.869 380.247 241.58C379.368 243.291 377.907 244.453 375.863 245.066ZM374.772 241.426C375.462 241.219 375.919 240.748 376.144 240.012C376.369 239.277 376.286 238.258 375.896 236.955C375.505 235.652 375.014 234.755 374.422 234.265C373.829 233.774 373.188 233.632 372.498 233.839C371.809 234.046 371.351 234.517 371.126 235.253C370.901 235.988 370.984 237.007 371.375 238.31C371.765 239.613 372.257 240.509 372.849 241C373.441 241.491 374.082 241.632 374.772 241.426Z" fill="white"/>
<path d="M298.591 219.849L301.056 219.11L303.083 225.871L307.242 224.625L307.828 226.58L301.203 228.565L298.591 219.849ZM314.234 222.814L310.548 223.919L310.371 225.818L307.855 226.572L309.09 216.702L311.519 215.974L317.992 223.534L315.426 224.303L314.234 222.814ZM312.967 221.213L311.01 218.759L310.725 221.884L312.967 221.213ZM311.095 215.422C310.871 215.489 310.655 215.509 310.448 215.48C310.246 215.441 310.015 215.379 309.754 215.295C309.564 215.234 309.422 215.195 309.326 215.179C309.239 215.16 309.154 215.163 309.071 215.187C308.905 215.237 308.789 215.335 308.725 215.481C308.66 215.627 308.65 215.807 308.696 216.019L307.538 216.366C307.373 215.755 307.378 215.229 307.553 214.787C307.728 214.346 308.053 214.054 308.526 213.912C308.75 213.845 308.962 213.827 309.161 213.858C309.36 213.888 309.594 213.945 309.863 214.027C310.053 214.088 310.192 214.128 310.279 214.147C310.374 214.163 310.464 214.159 310.547 214.134C310.713 214.085 310.829 213.991 310.897 213.853C310.961 213.707 310.974 213.536 310.933 213.34L312.091 212.993C312.251 213.587 312.243 214.105 312.068 214.547C311.893 214.989 311.569 215.28 311.095 215.422ZM316.078 214.607L318.544 213.868L321.156 222.585L318.691 223.324L316.078 214.607ZM329.65 220.229C328.944 220.441 328.233 220.559 327.517 220.584C326.801 220.609 326.191 220.538 325.689 220.372L325.954 218.311C326.421 218.451 326.936 218.523 327.498 218.527C328.06 218.53 328.59 218.457 329.088 218.308C330.034 218.024 330.436 217.646 330.295 217.173C330.22 216.924 330.028 216.782 329.719 216.748C329.416 216.703 328.946 216.704 328.309 216.75C327.61 216.806 327.018 216.82 326.53 216.794C326.041 216.76 325.585 216.612 325.162 216.35C324.74 216.087 324.438 215.653 324.256 215.047C324.097 214.516 324.099 213.995 324.263 213.484C324.424 212.965 324.753 212.496 325.252 212.075C325.758 211.652 326.431 211.314 327.269 211.063C327.842 210.891 328.426 210.789 329.022 210.755C329.616 210.713 330.162 210.753 330.66 210.875L330.449 212.933C329.484 212.733 328.612 212.751 327.831 212.985C327.342 213.131 327.007 213.313 326.828 213.53C326.646 213.738 326.59 213.958 326.659 214.191C326.729 214.423 326.914 214.558 327.215 214.594C327.515 214.631 327.979 214.623 328.606 214.571C329.312 214.513 329.906 214.503 330.387 214.539C330.875 214.565 331.33 214.709 331.752 214.972C332.18 215.223 332.485 215.652 332.667 216.258C332.824 216.781 332.82 217.298 332.656 217.808C332.493 218.319 332.159 218.79 331.655 219.221C331.149 219.645 330.48 219.981 329.65 220.229ZM338.671 217.526C337.376 217.914 336.262 217.863 335.328 217.374C334.403 216.882 333.746 215.989 333.358 214.694L331.91 209.862L334.375 209.123L335.801 213.88C336.219 215.275 336.98 215.807 338.084 215.476C339.18 215.147 339.519 214.286 339.101 212.891L337.675 208.134L340.104 207.406L341.552 212.238C341.94 213.533 341.879 214.642 341.368 215.564C340.865 216.484 339.967 217.137 338.671 217.526ZM349.537 212.233L345.851 213.338L345.674 215.237L343.158 215.991L344.393 206.121L346.822 205.393L353.295 212.953L350.729 213.722L349.537 212.233ZM348.27 210.632L346.313 208.178L346.028 211.304L348.27 210.632ZM346.459 204.728L345.181 204.31L344.342 205.362L342.761 205.836L343.937 203.828L345.954 203.224L348.041 204.254L346.459 204.728ZM347.525 201.355L349.841 200.661L348.303 202.818L346.671 203.307L347.525 201.355ZM353.385 205.557L350.707 206.359L350.121 204.404L357.929 202.064L358.515 204.019L355.85 204.818L357.877 211.579L355.411 212.318L353.385 205.557Z" fill="white"/>
<path d="M64.9001 80.5998L20.6001 94.8998L22.1001 65.2998L64.9001 80.5998Z" fill="url(#paint8_radial_1465_26986)"/>
<path d="M78.9 55.4L17.3 34.9L48.6001 0L78.9 55.4Z" fill="url(#paint9_radial_1465_26986)"/>
<path d="M104.3 45.5004L86.2 2.30038L116.1 1.40039L104.3 45.5004Z" fill="url(#paint10_radial_1465_26986)"/>
<defs>
<radialGradient id="paint0_radial_1465_26986" cx="0" cy="0" r="1" gradientUnits="userSpaceOnUse" gradientTransform="translate(196.15 157) scale(137.05 267.733)">
<stop stop-color="#94E859"/>
<stop offset="0.453716" stop-color="#56C85E"/>
<stop offset="1" stop-color="#169347"/>
</radialGradient>
<linearGradient id="paint1_linear_1465_26986" x1="182.561" y1="30.6445" x2="182.561" y2="234.388" gradientUnits="userSpaceOnUse">
<stop stop-color="#14BD5E"/>
<stop offset="1" stop-color="#0E8A44"/>
</linearGradient>
<linearGradient id="paint2_linear_1465_26986" x1="153.673" y1="36.0629" x2="153.673" y2="231.065" gradientUnits="userSpaceOnUse">
<stop stop-color="white"/>
<stop offset="1" stop-color="white" stop-opacity="0"/>
</linearGradient>
<linearGradient id="paint3_linear_1465_26986" x1="18.7219" y1="141.407" x2="237.051" y2="474.205" gradientUnits="userSpaceOnUse">
<stop stop-color="#0E9549"/>
<stop offset="1" stop-color="#82D3A6"/>
</linearGradient>
<linearGradient id="paint4_linear_1465_26986" x1="121.798" y1="120.044" x2="121.798" y2="217.198" gradientUnits="userSpaceOnUse">
<stop stop-color="white"/>
<stop offset="1" stop-color="white" stop-opacity="0"/>
</linearGradient>
<radialGradient id="paint5_radial_1465_26986" cx="0" cy="0" r="1" gradientUnits="userSpaceOnUse" gradientTransform="translate(179.75 224.1) scale(88.35 44.0889)">
<stop stop-color="#94E859"/>
<stop offset="0.453716" stop-color="#56C85E"/>
<stop offset="1" stop-color="#169347"/>
</radialGradient>
<linearGradient id="paint6_linear_1465_26986" x1="336.113" y1="182.249" x2="336.113" y2="285.677" gradientUnits="userSpaceOnUse">
<stop stop-color="#F20600"/>
<stop offset="1" stop-color="#CE000A"/>
</linearGradient>
<linearGradient id="paint7_linear_1465_26986" x1="336.114" y1="187.463" x2="336.114" y2="279.678" gradientUnits="userSpaceOnUse">
<stop stop-color="white"/>
<stop offset="1" stop-color="white" stop-opacity="0.94"/>
</linearGradient>
<radialGradient id="paint8_radial_1465_26986" cx="0" cy="0" r="1" gradientUnits="userSpaceOnUse" gradientTransform="translate(42.7501 80.0998) scale(22.15 26.3111)">
<stop stop-color="#FFAAAC"/>
<stop offset="0.453716" stop-color="#E94E52"/>
<stop offset="1" stop-color="#EC1E24"/>
</radialGradient>
<radialGradient id="paint9_radial_1465_26986" cx="0" cy="0" r="1" gradientUnits="userSpaceOnUse" gradientTransform="translate(48.1 27.7) scale(30.8 49.2444)">
<stop stop-color="#FFAAAC"/>
<stop offset="0.453716" stop-color="#E94E52"/>
<stop offset="1" stop-color="#EC1E24"/>
</radialGradient>
<radialGradient id="paint10_radial_1465_26986" cx="0" cy="0" r="1" gradientUnits="userSpaceOnUse" gradientTransform="translate(101.15 23.4504) scale(14.95 39.2)">
<stop stop-color="#FFAAAC"/>
<stop offset="0.453716" stop-color="#E94E52"/>
<stop offset="1" stop-color="#EC1E24"/>
</radialGradient>
</defs>
</svg>
