<svg width="16" height="16" viewBox="0 0 16 16" fill="none" xmlns="http://www.w3.org/2000/svg">
<path d="M14 5.33337C13.0334 5.33337 12.4934 6.29337 12.7134 7.00671L10.3467 9.38004C10.1467 9.32004 9.85335 9.32004 9.65335 9.38004L7.95335 7.68004C8.18002 6.96671 7.64002 6.00004 6.66669 6.00004C5.70002 6.00004 5.15335 6.96004 5.38002 7.68004L2.34002 10.7134C1.62669 10.4934 0.666687 11.0334 0.666687 12C0.666687 12.7334 1.26669 13.3334 2.00002 13.3334C2.96669 13.3334 3.50669 12.3734 3.28669 11.66L6.32002 8.62004C6.52002 8.68004 6.81335 8.68004 7.01335 8.62004L8.71335 10.32C8.48669 11.0334 9.02669 12 10 12C10.9667 12 11.5134 11.04 11.2867 10.32L13.66 7.95337C14.3734 8.17337 15.3334 7.63337 15.3334 6.66671C15.3334 5.93337 14.7334 5.33337 14 5.33337Z" fill="white"/>
<path d="M10 6L10.6267 4.62L12 4L10.6267 3.38L10 2L9.38667 3.38L8 4L9.38667 4.62L10 6Z" fill="white"/>
<path d="M2.33335 7.33333L2.66669 6L4.00002 5.66667L2.66669 5.33333L2.33335 4L2.00002 5.33333L0.666687 5.66667L2.00002 6L2.33335 7.33333Z" fill="white"/>
</svg>
