<svg width="124" height="140" viewBox="0 0 124 140" fill="none" xmlns="http://www.w3.org/2000/svg">
<path d="M123.809 74.3197C123.675 72.7464 122.662 71.4544 121.166 70.9477L109.028 66.8374L120.845 53.2802C121.629 52.3804 121.958 51.1903 121.746 50.0157C121.533 48.841 120.81 47.841 119.76 47.2722L104.515 39.0125C103.519 38.473 102.275 38.8427 101.735 39.8385C101.195 40.8344 101.565 42.0791 102.561 42.6186L117.596 50.7649L105.004 65.212L65.2288 43.6615L72.6092 35.1944C73.4585 35.5062 74.3756 35.6762 75.3316 35.6762C78.2998 35.6762 80.8906 34.0348 82.2477 31.6129L93.6443 37.7877C93.955 37.9559 94.2894 38.0357 94.6194 38.0357C95.3479 38.0357 96.0531 37.6469 96.4247 36.9614C96.9642 35.9655 96.5942 34.7208 95.5983 34.1813L83.2487 27.4906C83.1095 23.2427 79.6131 19.8293 75.3318 19.8293C70.9628 19.8293 67.4084 23.3838 67.4084 27.7528C67.4084 29.6764 68.098 31.4415 69.2421 32.8155L62.0003 41.1237L49.1703 26.4047C47.9589 25.0148 45.9812 24.6575 44.3594 25.5357L39.3442 28.2529C38.7566 23.6058 34.7816 19.9992 29.9776 19.9992C24.7702 19.9992 20.5335 24.2358 20.5335 29.4435C20.5335 32.3228 21.8305 34.9038 23.869 36.6374L4.24041 47.2722C3.19095 47.841 2.46743 48.8407 2.25496 50.0157C2.04305 51.1903 2.37118 52.3804 3.15567 53.28L14.9721 66.8371L2.83438 70.9471C1.3384 71.4538 0.325852 72.7458 0.191867 74.3192C0.0578814 75.8926 0.837183 77.3374 2.22571 78.0896L16.4793 85.8121V93.5529C16.4793 94.6855 17.3972 95.6037 18.5301 95.6037C19.6629 95.6037 20.5809 94.6855 20.5809 93.5529V88.0343L40.5222 98.8385C41.3729 99.2995 42.322 99.5338 43.2747 99.5338C43.8976 99.5338 44.5224 99.4335 45.1217 99.2306L59.9498 94.21V135.013L21.4548 114.156C20.9158 113.864 20.5811 113.301 20.5811 112.688V103.677C20.5811 102.544 19.6632 101.626 18.5303 101.626C17.3975 101.626 16.4795 102.544 16.4795 103.677V112.688C16.4795 114.808 17.637 116.752 19.5008 117.762L59.2517 139.3C60.1125 139.766 61.0567 139.999 62.0009 139.999C62.945 139.999 63.8892 139.766 64.75 139.3L104.501 117.762C106.364 116.752 107.522 114.808 107.522 112.688V85.8118L121.775 78.0894C123.163 77.338 123.943 75.8934 123.809 74.3197ZM66.5339 58.4543C73.7128 60.4722 78.7266 67.0922 78.7266 74.553C78.7266 76.6306 78.3533 78.6469 77.6156 80.5574L62.0003 89.0179L46.385 80.5574C45.6476 78.6469 45.274 76.6306 45.274 74.553C45.274 67.0692 50.307 60.4435 57.5137 58.4406C58.6048 58.1373 59.2435 57.0067 58.9403 55.9157C58.6373 54.8244 57.5061 54.1859 56.4153 54.4888C47.4408 56.9834 41.1727 65.2339 41.1727 74.553C41.1727 75.6768 41.2638 76.7862 41.4388 77.8777L22.8351 67.7979L62.0009 46.5774L101.166 67.7982L82.5627 77.878C82.7377 76.7864 82.8287 75.6771 82.8287 74.5533C82.8287 65.2626 76.5847 57.019 67.6444 54.5058C66.5539 54.199 65.4216 54.835 65.1153 55.9249C64.808 57.0154 65.4432 58.1477 66.5339 58.4543ZM75.3316 23.9315C77.439 23.9315 79.1537 25.6459 79.1537 27.7533C79.1537 29.8607 77.439 31.5755 75.3316 31.5755C73.2242 31.5755 71.5097 29.8607 71.5097 27.7533C71.5097 25.6459 73.2242 23.9315 75.3316 23.9315ZM29.9776 24.1013C32.9233 24.1013 35.3203 26.498 35.3203 29.444C35.3203 32.3898 32.9233 34.7867 29.9776 34.7867C27.0318 34.7867 24.6351 32.39 24.6351 29.444C24.6351 26.498 27.0318 24.1013 29.9776 24.1013ZM28.5305 38.7773C29.0025 38.8503 29.4857 38.8883 29.9776 38.8883C33.7997 38.8883 37.096 36.6048 38.5811 33.3318L46.1789 29.2154L58.7713 43.662L18.9965 65.2126L6.40386 50.7654L28.5305 38.7773ZM43.806 95.3464C43.3674 95.4951 42.8823 95.4533 42.4759 95.2329L19.5161 82.7933C19.5101 82.7901 19.5038 82.7868 19.4978 82.7835L4.56416 74.6924L18.3395 70.0278L56.8917 90.9158L43.806 95.3464ZM103.42 112.689C103.42 113.302 103.085 113.865 102.546 114.157L64.0511 135.014V94.2108L78.8792 99.2314C79.4785 99.4343 80.1034 99.5347 80.7265 99.5347C81.6786 99.5347 82.628 99.3 83.4787 98.8393L103.42 88.0352V112.689H103.42ZM81.5244 95.2329C81.1181 95.4533 80.633 95.4951 80.1944 95.3464L67.109 90.9158L105.661 70.0278L119.436 74.6924L81.5244 95.2329ZM119.851 74.8327C119.85 74.8327 119.85 74.8324 119.85 74.8324L119.851 74.8327Z" fill="#0E9549"/>
<path d="M77.3372 116.125L72.6327 118.674C71.6368 119.213 71.2672 120.458 71.8066 121.454C72.178 122.139 72.8834 122.528 73.6119 122.528C73.9416 122.528 74.2766 122.448 74.587 122.28L79.2915 119.731C80.2873 119.192 80.657 117.947 80.1175 116.951C79.578 115.955 78.3339 115.585 77.3372 116.125Z" fill="#0E9549"/>
<path d="M37.8543 17.2704C38.2549 17.6707 38.7799 17.8711 39.3046 17.8711C39.8293 17.8711 40.3543 17.671 40.7549 17.2704L42.4467 15.5786L44.1384 17.2704C44.539 17.6707 45.064 17.8711 45.5887 17.8711C46.1134 17.8711 46.6384 17.671 47.039 17.2704C47.8399 16.4695 47.8399 15.1709 47.039 14.3703L45.347 12.6783L47.039 10.9862C47.8399 10.1853 47.8399 8.88677 47.039 8.08615C46.2379 7.28525 44.9396 7.28525 44.1387 8.08615L42.4469 9.7779L40.7552 8.08615C39.954 7.28525 38.6557 7.28525 37.8548 8.08615C37.0539 8.88705 37.0539 10.1856 37.8548 10.9862L39.5468 12.6783L37.8548 14.3703C37.0534 15.1709 37.0534 16.4695 37.8543 17.2704Z" fill="#C62828"/>
<path d="M98.5686 30.7046C98.9692 31.1049 99.4942 31.3053 100.019 31.3053C100.544 31.3053 101.069 31.1051 101.469 30.7046L103.161 29.0128L104.853 30.7046C105.253 31.1049 105.778 31.3053 106.303 31.3053C106.828 31.3053 107.353 31.1051 107.753 30.7046C108.554 29.9037 108.554 28.6051 107.753 27.8045L106.061 26.1125L107.753 24.4204C108.554 23.6195 108.554 22.321 107.753 21.5204C106.952 20.7195 105.654 20.7195 104.853 21.5204L103.161 23.2121L101.47 21.5204C100.668 20.7195 99.3701 20.7195 98.5692 21.5204C97.7683 22.3212 97.7683 23.6198 98.5692 24.4204L100.261 26.1125L98.5692 27.8045C97.7677 28.6051 97.7677 29.9037 98.5686 30.7046Z" fill="#C62828"/>
<path d="M87.2466 17.8694C92.1734 17.8694 96.1815 13.8614 96.1815 8.93484C96.1812 4.00805 92.1731 0 87.2466 0C82.3201 0 78.3118 4.00805 78.3118 8.93484C78.3118 13.8614 82.3198 17.8694 87.2466 17.8694ZM87.2466 4.10156C89.9115 4.10156 92.0799 6.26965 92.0799 8.93484C92.0799 11.5998 89.9115 13.7679 87.2466 13.7679C84.5817 13.7679 82.4133 11.5998 82.4133 8.93484C82.4133 6.26965 84.5817 4.10156 87.2466 4.10156Z" fill="#0E9549"/>
<path opacity="0.9" d="M61.8002 82.1922C63.776 82.1922 65.6409 81.537 67.054 80.3454C67.9197 79.6153 68.0299 78.3214 67.2996 77.4557C66.5697 76.5897 65.2758 76.4798 64.4099 77.2099C63.7454 77.7702 62.7949 78.0909 61.7999 78.0909H61.7862C60.7863 78.0879 59.8322 77.7612 59.1681 77.1943C58.7817 76.8645 58.3084 76.7035 57.8378 76.7035C57.2584 76.7035 56.6825 76.9477 56.277 77.4229C55.5417 78.2842 55.644 79.579 56.5053 80.3142C57.9174 81.5195 59.7888 82.1867 61.7745 82.1927C61.7829 82.1922 61.7917 82.1922 61.8002 82.1922Z" fill="#0E9549"/>
<path d="M53.0922 70.6308H53.073C51.9394 70.6142 51.0258 71.5351 51.0176 72.6674C51.01 73.8 51.9312 74.7245 53.0638 74.7324H53.0782C54.204 74.7324 55.1208 73.8235 55.1287 72.6958C55.1367 71.5633 54.225 70.6388 53.0922 70.6308Z" fill="#0E9549"/>
<path d="M70.5264 74.6899C70.5335 74.6913 70.5409 74.6921 70.548 74.6935C70.6071 74.705 70.667 74.7146 70.7277 74.7208C70.7474 74.7228 70.7673 74.7228 70.787 74.7241C70.8327 74.7274 70.8783 74.7318 70.9251 74.7321H70.9396C71.0101 74.7321 71.0798 74.7285 71.1488 74.7214C72.1843 74.6178 72.9925 73.7439 72.9925 72.681C72.9925 71.6321 72.2048 70.7689 71.1889 70.6466C71.1797 70.6455 71.1706 70.6433 71.1613 70.6425C71.1146 70.6376 71.0667 70.6362 71.0189 70.6343C70.997 70.6335 70.9757 70.6308 70.9535 70.6305H70.9429H70.9344H70.9224H70.9199C69.7942 70.6305 68.8869 71.5394 68.879 72.6671C68.8721 73.6632 69.5841 74.4977 70.5264 74.6899Z" fill="#0E9549"/>
</svg>
