<svg width="25" height="24" viewBox="0 0 25 24" fill="none" xmlns="http://www.w3.org/2000/svg">
<path d="M9.52326 21.0469H8.54478C8.2859 21.0469 8.07605 21.2567 8.07605 21.5156C8.07605 21.7745 8.2859 21.9844 8.54478 21.9844H9.52326C9.78214 21.9844 9.99198 21.7745 9.99198 21.5156C9.99198 21.2567 9.78214 21.0469 9.52326 21.0469Z" fill="#C62828"/>
<path d="M21.6633 4.3979H16.5951V2.79469C16.5951 1.25367 15.3414 0 13.8004 0H4.26753C2.72651 0 1.47284 1.25372 1.47284 2.79469V21.2053C1.47284 22.7463 2.72656 24 4.26758 24H13.8005C15.3414 24 16.5952 22.7463 16.5952 21.2053V16.2186H21.6634C22.4154 16.2186 23.0271 15.6067 23.0271 14.8547V5.76174C23.0271 5.00972 22.4153 4.3979 21.6633 4.3979ZM13.8004 23.0625H4.26753C3.24346 23.0625 2.4103 22.2294 2.4103 21.2053V20.1533H15.6576V21.2053C15.6577 22.2294 14.8245 23.0625 13.8004 23.0625ZM15.6577 19.2158H2.41034V2.79469C2.41034 1.77061 3.2435 0.937504 4.26753 0.937504H13.8004C14.8245 0.937504 15.6577 1.77061 15.6577 2.79469V4.3979H9.50935V3.76697C9.50935 3.50808 9.29943 3.29822 9.04055 3.29822C8.78167 3.29822 8.57183 3.50808 8.57183 3.76697V16.8361C8.57183 17.095 8.78167 17.3049 9.04055 17.3049C9.29943 17.3049 9.50935 17.095 9.50935 16.8361V16.2186H15.6577V19.2158ZM9.50935 7.61362H18.4497C18.5968 8.30696 19.1293 8.85968 19.8114 9.0364V11.6599C19.1557 11.8298 18.6382 12.3471 18.4685 13.0029H9.50935V7.61362ZM22.0896 14.8547C22.0896 15.0898 21.8983 15.281 21.6633 15.281H9.50935V13.9403H18.8778C19.1366 13.9403 19.3466 13.7305 19.3466 13.4716C19.3466 12.9568 19.7654 12.5379 20.2802 12.5379C20.539 12.5379 20.7489 12.3281 20.7489 12.0692V8.62704C20.7489 8.36816 20.539 8.15824 20.2802 8.15824C19.7654 8.15824 19.3466 7.73944 19.3466 7.22461C19.3466 7.20656 19.347 7.18861 19.3481 7.1708C19.3552 7.04218 19.309 6.91626 19.2206 6.8227C19.132 6.72914 19.0089 6.67613 18.88 6.67613H9.50935V5.33541H21.6633C21.8983 5.33541 22.0896 5.52666 22.0896 5.76174V14.8547Z" fill="#0E9549"/>
<path d="M13.9573 8.729C13.0865 8.729 12.378 9.4374 12.378 10.3082C12.378 11.179 13.0865 11.8874 13.9573 11.8874C14.8281 11.8874 15.5365 11.179 15.5365 10.3082C15.5365 9.4374 14.8281 8.729 13.9573 8.729ZM13.9573 10.9499C13.6034 10.9499 13.3155 10.662 13.3155 10.3082C13.3155 9.95436 13.6034 9.66644 13.9573 9.66644C14.3111 9.66644 14.599 9.95436 14.599 10.3082C14.599 10.662 14.3111 10.9499 13.9573 10.9499Z" fill="#0E9549"/>
</svg>
