<svg width="25" height="24" viewBox="0 0 25 24" fill="none" xmlns="http://www.w3.org/2000/svg">
<path d="M13.2432 5.48551C13.1655 5.45804 13.0916 5.43164 13.0216 5.40643V3.91205C13.2039 3.96821 13.3303 4.0613 13.3924 4.14995C13.5411 4.36192 13.8335 4.4132 14.0454 4.26446C14.2573 4.11577 14.3086 3.82346 14.1599 3.61149C13.94 3.29799 13.5415 3.03629 13.0216 2.95102V2.85436C13.0216 2.59552 12.8117 2.38562 12.5528 2.38562C12.294 2.38562 12.0841 2.59552 12.0841 2.85436V2.9866C12.0138 3.00226 11.9424 3.02092 11.8699 3.04276C11.2839 3.21938 10.8415 3.78872 10.7941 4.42744C10.7473 5.0582 11.083 5.60631 11.6923 5.89364C11.7783 5.93424 11.913 5.99026 12.0841 6.05705V7.8474C11.8458 7.77577 11.6271 7.65615 11.4849 7.47948C11.3224 7.27782 11.0274 7.24613 10.8258 7.40836C10.6241 7.57079 10.5923 7.86587 10.7547 8.06749C11.0944 8.48949 11.5958 8.71541 12.0841 8.81165V8.87557C12.0841 9.13445 12.2939 9.34437 12.5528 9.34437C12.8116 9.34437 13.0215 9.13445 13.0215 8.87557V8.84733C14.052 8.71605 14.5019 8.04509 14.578 7.4461C14.6847 6.60732 14.1357 5.80107 13.2432 5.48551ZM11.729 4.49692C11.746 4.26704 11.8945 4.04799 12.0841 3.96179V5.04202C11.7687 4.88992 11.7167 4.66196 11.729 4.49692ZM13.648 7.32802C13.6111 7.61841 13.3862 7.81998 13.0216 7.89728V6.405C13.5051 6.61412 13.687 7.02156 13.648 7.32802Z" fill="#C62828"/>
<path d="M5.84473 21.01V12.8122H16.4957C16.7545 12.8122 16.9644 12.6023 16.9644 12.3435C16.9644 12.0846 16.7545 11.8748 16.4957 11.8748H5.37598C5.11714 11.8748 4.90723 12.0846 4.90723 12.3435V21.4787C4.90723 21.7376 5.11714 21.9475 5.37598 21.9475H16.4957C16.7545 21.9475 16.9644 21.7376 16.9644 21.4787C16.9644 21.2199 16.7545 21.01 16.4957 21.01H5.84473Z" fill="#0E9549"/>
<path d="M22.1763 14.5451H21.6593V10.2909C21.6593 10.0321 21.4495 9.82216 21.1906 9.82216H16.8065C17.7974 8.75192 18.3637 7.33758 18.3637 5.84817C18.3637 2.6235 15.7408 0 12.5168 0C9.29282 0 6.66997 2.6235 6.66997 5.84817C6.66997 7.33762 7.23637 8.75192 8.22721 9.82216H4.2404C3.47652 9.82216 2.8551 10.4437 2.8551 11.2077V22.6145C2.8551 23.3784 3.47652 24 4.2404 24H21.1906C21.4495 24 21.6593 23.7901 21.6593 23.5313V19.277H22.1763C22.4351 19.277 22.645 19.0671 22.645 18.8082V15.0138C22.645 14.755 22.4351 14.5451 22.1763 14.5451ZM7.60748 5.84817C7.60748 3.14039 9.80978 0.937504 12.5168 0.937504C15.2239 0.937504 17.4262 3.14039 17.4262 5.84817C17.4262 7.42298 16.6719 8.89792 15.4015 9.82216H9.6321C8.36174 8.89792 7.60748 7.42298 7.60748 5.84817ZM20.7218 23.0625H4.2404C3.99346 23.0625 3.7926 22.8615 3.7926 22.6145V11.2077C3.7926 10.9606 3.99346 10.7597 4.2404 10.7597H20.7219V14.5451H16.4956C16.2368 14.5451 16.0269 14.755 16.0269 15.0138V18.8082C16.0269 19.0671 16.2368 19.277 16.4956 19.277H20.7219V23.0625H20.7218ZM21.7075 18.3395H16.9643V15.4826H21.7075V18.3395Z" fill="#0E9549"/>
<path d="M18.5342 17.3919H19.2919C19.5507 17.3919 19.7606 17.182 19.7606 16.9232C19.7606 16.6643 19.5507 16.4545 19.2919 16.4545H18.5342C18.2754 16.4545 18.0655 16.6643 18.0655 16.9232C18.0655 17.182 18.2753 17.3919 18.5342 17.3919Z" fill="#0E9549"/>
</svg>
