<svg width="44" height="44" viewBox="0 0 44 44" fill="none" xmlns="http://www.w3.org/2000/svg">
<path fill-rule="evenodd" clip-rule="evenodd" d="M22.0002 5.50001C12.8875 5.50001 5.50016 12.8873 5.50016 22C5.50016 31.1127 12.8875 38.5 22.0002 38.5C31.1129 38.5 38.5002 31.1127 38.5002 22C38.5002 12.8873 31.1129 5.50001 22.0002 5.50001ZM1.8335 22C1.8335 10.8623 10.8624 1.83334 22.0002 1.83334C33.1379 1.83334 42.1668 10.8623 42.1668 22C42.1668 33.1378 33.1379 42.1667 22.0002 42.1667C10.8624 42.1667 1.8335 33.1378 1.8335 22Z" fill="#C62828"/>
<path fill-rule="evenodd" clip-rule="evenodd" d="M21.9998 12.8333C23.0124 12.8333 23.8332 13.6542 23.8332 14.6667V22C23.8332 23.0125 23.0124 23.8333 21.9998 23.8333C20.9873 23.8333 20.1665 23.0125 20.1665 22V14.6667C20.1665 13.6542 20.9873 12.8333 21.9998 12.8333Z" fill="#C62828"/>
<path fill-rule="evenodd" clip-rule="evenodd" d="M20.1665 29.3333C20.1665 28.3208 20.9873 27.5 21.9998 27.5H22.0182C23.0307 27.5 23.8515 28.3208 23.8515 29.3333C23.8515 30.3459 23.0307 31.1667 22.0182 31.1667H21.9998C20.9873 31.1667 20.1665 30.3459 20.1665 29.3333Z" fill="#C62828"/>
</svg>
