<svg width="110" height="59" viewBox="0 0 110 59" fill="none" xmlns="http://www.w3.org/2000/svg">
<rect width="110" height="59" rx="4" fill="#C62828"/>
<rect width="110" height="59" rx="4" fill="white" fill-opacity="0.9"/>
<path d="M40.0273 10.5942H12.2217C11.5467 10.5942 10.9995 11.1293 10.9995 11.7894V41.6697C10.9995 42.3298 11.5467 42.8649 12.2217 42.8649H40.0273C40.7023 42.8649 41.2495 42.3298 41.2495 41.6697V11.7894C41.2495 11.1293 40.7023 10.5942 40.0273 10.5942Z" fill="#F5F5F5"/>
<path fill-rule="evenodd" clip-rule="evenodd" d="M30.6744 23.108C30.6744 25.5763 28.6507 27.5554 26.1249 27.5554C23.6 27.5554 21.5753 25.5763 21.5753 23.108C21.5753 20.6398 23.6 18.6616 26.1249 18.6616C28.6507 18.6616 30.6744 20.6398 30.6744 23.108ZM26.125 35.4695C22.3973 35.4695 19.25 34.8771 19.25 32.5912C19.25 30.3045 22.4171 29.733 26.125 29.733C29.8535 29.733 33 30.3254 33 32.6114C33 34.898 29.8329 35.4695 26.125 35.4695Z" fill="#C62828"/>
<path opacity="0.6" d="M89.8333 7.8232H58.6667C56.6416 7.8232 55 9.42855 55 11.4088V14.9945C55 16.9748 56.6416 18.5801 58.6667 18.5801H89.8333C91.8584 18.5801 93.5 16.9748 93.5 14.9945V11.4088C93.5 9.42855 91.8584 7.8232 89.8333 7.8232Z" fill="#C62828"/>
<path opacity="0.6" d="M98.0833 23.9587H58.6667C56.6416 23.9587 55 25.5641 55 27.5444V31.13C55 33.1103 56.6416 34.7156 58.6667 34.7156H98.0833C100.108 34.7156 101.75 33.1103 101.75 31.13V27.5444C101.75 25.5641 100.108 23.9587 98.0833 23.9587Z" fill="#C62828"/>
<path opacity="0.6" d="M89.8333 40.0938H58.6667C56.6416 40.0938 55 41.6991 55 43.6794V47.265C55 49.2453 56.6416 50.8507 58.6667 50.8507H89.8333C91.8584 50.8507 93.5 49.2453 93.5 47.265V43.6794C93.5 41.6991 91.8584 40.0938 89.8333 40.0938Z" fill="#C62828"/>
</svg>
