<svg width="40" height="40" viewBox="0 0 40 40" fill="none" xmlns="http://www.w3.org/2000/svg">
<path fill-rule="evenodd" clip-rule="evenodd" d="M19.345 3.93543C19.7467 3.68819 20.2535 3.68819 20.6552 3.93543L36.9052 13.9354C37.3815 14.2285 37.6052 14.8023 37.4529 15.3404C37.3006 15.8785 36.8094 16.25 36.2501 16.25H3.75011C3.19086 16.25 2.69966 15.8785 2.54736 15.3404C2.39505 14.8023 2.6187 14.2285 3.09498 13.9354L19.345 3.93543ZM8.16641 13.75H31.8338L20.0001 6.46772L8.16641 13.75Z" fill="#0E9549"/>
<path fill-rule="evenodd" clip-rule="evenodd" d="M8.75 13.75C9.44036 13.75 10 14.3096 10 15V27.5C10 28.1904 9.44036 28.75 8.75 28.75C8.05964 28.75 7.5 28.1904 7.5 27.5V15C7.5 14.3096 8.05964 13.75 8.75 13.75Z" fill="#0E9549"/>
<path fill-rule="evenodd" clip-rule="evenodd" d="M16.25 13.75C16.9404 13.75 17.5 14.3096 17.5 15V27.5C17.5 28.1904 16.9404 28.75 16.25 28.75C15.5596 28.75 15 28.1904 15 27.5V15C15 14.3096 15.5596 13.75 16.25 13.75Z" fill="#0E9549"/>
<path fill-rule="evenodd" clip-rule="evenodd" d="M23.75 13.75C24.4404 13.75 25 14.3096 25 15V27.5C25 28.1904 24.4404 28.75 23.75 28.75C23.0596 28.75 22.5 28.1904 22.5 27.5V15C22.5 14.3096 23.0596 13.75 23.75 13.75Z" fill="#0E9549"/>
<path fill-rule="evenodd" clip-rule="evenodd" d="M31.25 13.75C31.9404 13.75 32.5 14.3096 32.5 15V27.5C32.5 28.1904 31.9404 28.75 31.25 28.75C30.5596 28.75 30 28.1904 30 27.5V15C30 14.3096 30.5596 13.75 31.25 13.75Z" fill="#0E9549"/>
<path fill-rule="evenodd" clip-rule="evenodd" d="M3.75 27.5C3.75 26.8096 4.30964 26.25 5 26.25H35C35.6904 26.25 36.25 26.8096 36.25 27.5C36.25 28.1904 35.6904 28.75 35 28.75H5C4.30964 28.75 3.75 28.1904 3.75 27.5Z" fill="#0E9549"/>
<path fill-rule="evenodd" clip-rule="evenodd" d="M1.25 32.5C1.25 31.8096 1.80964 31.25 2.5 31.25H37.5C38.1904 31.25 38.75 31.8096 38.75 32.5C38.75 33.1904 38.1904 33.75 37.5 33.75H2.5C1.80964 33.75 1.25 33.1904 1.25 32.5Z" fill="#0E9549"/>
</svg>
