<svg width="18" height="18" viewBox="0 0 18 18" fill="none" xmlns="http://www.w3.org/2000/svg">
<path d="M11.5 2.33341V8.16675H3.30835L2.81669 8.65842L2.33335 9.14175V2.33341H11.5ZM12.3334 0.666748H1.50002C1.04169 0.666748 0.666687 1.04175 0.666687 1.50008V13.1667L4.00002 9.83342H12.3334C12.7917 9.83342 13.1667 9.45842 13.1667 9.00008V1.50008C13.1667 1.04175 12.7917 0.666748 12.3334 0.666748ZM16.5 4.00008H14.8334V11.5001H4.00002V13.1667C4.00002 13.6251 4.37502 14.0001 4.83335 14.0001H14L17.3334 17.3334V4.83342C17.3334 4.37508 16.9584 4.00008 16.5 4.00008Z" fill="#C62828"/>
</svg>
