<svg width="56" height="56" viewBox="0 0 56 56" fill="none" xmlns="http://www.w3.org/2000/svg">
<path d="M28 0C12.544 0 0 12.544 0 28C0 43.456 12.544 56 28 56C43.456 56 56 43.456 56 28C56 12.544 43.456 0 28 0ZM28 8.4C32.648 8.4 36.4 12.152 36.4 16.8C36.4 21.448 32.648 25.2 28 25.2C23.352 25.2 19.6 21.448 19.6 16.8C19.6 12.152 23.352 8.4 28 8.4ZM28 48.16C21 48.16 14.812 44.576 11.2 39.144C11.284 33.572 22.4 30.52 28 30.52C33.572 30.52 44.716 33.572 44.8 39.144C41.188 44.576 35 48.16 28 48.16Z" fill="#0E9549"/>
</svg>
