<svg width="117" height="64" viewBox="0 0 117 64" fill="none" xmlns="http://www.w3.org/2000/svg">
<rect x="0.875" y="5" width="110" height="59" rx="4" fill="#E6F4EC"/>
<path d="M40.9022 15.5942H13.0966C12.4216 15.5942 11.8744 16.1294 11.8744 16.7894V46.6697C11.8744 47.3298 12.4216 47.865 13.0966 47.865H40.9022C41.5772 47.865 42.1244 47.3298 42.1244 46.6697V16.7894C42.1244 16.1294 41.5772 15.5942 40.9022 15.5942Z" fill="#F5F5F5"/>
<path fill-rule="evenodd" clip-rule="evenodd" d="M31.5494 28.1081C31.5494 30.5763 29.5257 32.5555 26.9999 32.5555C24.475 32.5555 22.4503 30.5763 22.4503 28.1081C22.4503 25.6399 24.475 23.6616 26.9999 23.6616C29.5257 23.6616 31.5494 25.6399 31.5494 28.1081ZM27 40.4696C23.2723 40.4696 20.125 39.8771 20.125 37.5912C20.125 35.3045 23.2921 34.733 27 34.733C30.7285 34.733 33.875 35.3255 33.875 37.6114C33.875 39.8981 30.7079 40.4696 27 40.4696Z" fill="#0E9549"/>
<path opacity="0.6" d="M90.7083 12.8232H59.5417C57.5166 12.8232 55.875 14.4286 55.875 16.4089V19.9945C55.875 21.9748 57.5166 23.5801 59.5417 23.5801H90.7083C92.7334 23.5801 94.375 21.9748 94.375 19.9945V16.4089C94.375 14.4286 92.7334 12.8232 90.7083 12.8232Z" fill="#0E9549"/>
<path opacity="0.6" d="M98.9583 28.9587H59.5417C57.5166 28.9587 55.875 30.5641 55.875 32.5444V36.13C55.875 38.1103 57.5166 39.7156 59.5417 39.7156H98.9583C100.983 39.7156 102.625 38.1103 102.625 36.13V32.5444C102.625 30.5641 100.983 28.9587 98.9583 28.9587Z" fill="#0E9549"/>
<path opacity="0.6" d="M90.7083 45.0938H59.5417C57.5166 45.0938 55.875 46.6991 55.875 48.6794V52.265C55.875 54.2453 57.5166 55.8507 59.5417 55.8507H90.7083C92.7334 55.8507 94.375 54.2453 94.375 52.265V48.6794C94.375 46.6991 92.7334 45.0938 90.7083 45.0938Z" fill="#0E9549"/>
<path d="M108.125 1.33337C104.445 1.33337 101.458 4.32004 101.458 8.00004C101.458 11.68 104.445 14.6667 108.125 14.6667C111.805 14.6667 114.792 11.68 114.792 8.00004C114.792 4.32004 111.805 1.33337 108.125 1.33337ZM106.792 11.3334L103.458 8.00004L104.398 7.06004L106.792 9.44671L111.852 4.38671L112.792 5.33337L106.792 11.3334Z" fill="#0E9549"/>
</svg>
