<svg width="16" height="12" viewBox="0 0 16 12" fill="none" xmlns="http://www.w3.org/2000/svg">
<path d="M14 3.33334C13.0334 3.33334 12.4934 4.29334 12.7134 5.00668L10.3467 7.38001C10.1467 7.32001 9.85335 7.32001 9.65335 7.38001L7.95335 5.68001C8.18002 4.96668 7.64002 4.00001 6.66669 4.00001C5.70002 4.00001 5.15335 4.96001 5.38002 5.68001L2.34002 8.71334C1.62669 8.49334 0.666687 9.03334 0.666687 10C0.666687 10.7333 1.26669 11.3333 2.00002 11.3333C2.96669 11.3333 3.50669 10.3733 3.28669 9.66001L6.32002 6.62001C6.52002 6.68001 6.81335 6.68001 7.01335 6.62001L8.71335 8.32001C8.48669 9.03334 9.02669 10 10 10C10.9667 10 11.5134 9.04001 11.2867 8.32001L13.66 5.95334C14.3734 6.17334 15.3334 5.63334 15.3334 4.66668C15.3334 3.93334 14.7334 3.33334 14 3.33334Z" fill="white"/>
<path d="M10 4L10.6267 2.62L12 2L10.6267 1.38L10 0L9.38667 1.38L8 2L9.38667 2.62L10 4Z" fill="white"/>
<path d="M2.33335 5.33333L2.66669 4L4.00002 3.66667L2.66669 3.33333L2.33335 2L2.00002 3.33333L0.666687 3.66667L2.00002 4L2.33335 5.33333Z" fill="white"/>
</svg>
