<svg width="72" height="80" viewBox="0 0 72 80" fill="none" xmlns="http://www.w3.org/2000/svg">
<path d="M19.5461 31.0366C19.5461 31.0366 5.98459 39.3093 2.53348 52.1856C-0.911393 65.0556 2.07251 69.1919 2.07251 71.0358C2.07251 72.8735 0.00432718 74.9417 1.61152 75.8636C3.21872 76.7856 9.42947 73.104 11.0367 74.7112C12.6439 76.3184 17.4717 80 37.0134 80C56.5551 80 62.2987 74.7112 64.5974 75.8636C66.896 77.0099 69.4252 77.7013 70.8019 76.7856C72.1786 75.8636 68.7337 71.2663 68.7337 69.1981C68.7337 67.13 70.1104 54.0295 63.6754 43.6824C57.2404 33.3353 49.8834 30.5819 48.9677 28.2832C48.0457 25.9846 58.6233 7.59526 57.9319 5.52709C57.2404 3.45892 52.4126 5.29659 51.2664 3.91989C50.1139 2.54318 49.4287 0.699273 47.8215 0.244524C46.2143 -0.216454 36.7892 0.0140479 34.9515 0.705515C33.1138 1.39698 32.1918 4.38088 30.1237 4.38088C28.0555 4.38088 24.3801 0.705499 22.7667 0.47501C21.1595 0.244521 16.7927 0.244537 14.7245 0.705515C12.6563 1.16649 9.2052 2.31271 6.90654 3.46515C4.60788 4.6176 10.8124 16.7961 14.9487 20.0168C19.0851 23.2249 20.2313 29.4294 19.5461 31.0366Z" fill="#0E9549"/>
<path d="M19.5461 31.0366C19.5461 31.0366 5.98459 39.3093 2.53348 52.1856C-0.911393 65.0556 2.07251 69.1919 2.07251 71.0358C2.07251 72.8735 0.00432718 74.9417 1.61152 75.8636C3.21872 76.7856 9.42947 73.104 11.0367 74.7112C12.6439 76.3184 17.4717 80 37.0134 80C56.5551 80 62.2987 74.7112 64.5974 75.8636C66.896 77.0099 69.4252 77.7013 70.8019 76.7856C72.1786 75.8636 68.7337 71.2663 68.7337 69.1981C68.7337 67.13 70.1104 54.0295 63.6754 43.6824C57.2404 33.3353 49.8834 30.5819 48.9677 28.2832C48.0457 25.9846 58.6233 7.59526 57.9319 5.52709C57.2404 3.45892 52.4126 5.29659 51.2664 3.91989C50.1139 2.54318 49.4287 0.699273 47.8215 0.244524C46.2143 -0.216454 36.7892 0.0140479 34.9515 0.705515C33.1138 1.39698 32.1918 4.38088 30.1237 4.38088C28.0555 4.38088 24.3801 0.705499 22.7667 0.47501C21.1595 0.244521 16.7927 0.244537 14.7245 0.705515C12.6563 1.16649 9.2052 2.31271 6.90654 3.46515C4.60788 4.6176 10.8124 16.7961 14.9487 20.0168C19.0851 23.2249 20.2313 29.4294 19.5461 31.0366Z" fill="white" fill-opacity="0.4"/>
<path d="M27.3209 32.3387C27.0281 32.1892 26.7291 32.0646 26.4114 31.9961C26.7104 32.1207 27.0156 32.2391 27.3209 32.3387Z" fill="#0E9549"/>
<path d="M70.8021 76.7794C72.1788 75.8574 68.734 71.2601 68.734 69.1919C68.734 67.1238 70.1107 54.0233 63.6757 43.6762C57.2407 33.3291 49.8837 30.5757 48.968 28.277C48.046 25.9783 58.6236 7.58904 57.9321 5.52087C57.2407 3.4527 52.4128 5.29039 51.2666 3.91369C50.1142 2.53698 49.429 0.693071 47.8218 0.238323C47.0057 0.00783346 44.1775 -0.048236 41.3494 0.0389761C42.8756 0.960932 44.0405 2.61173 44.5638 4.35597C45.3424 6.9661 45.031 9.75689 44.788 12.4729C44.707 13.3637 44.7444 14.4663 45.5293 14.8899C45.9778 15.1329 46.5572 15.0706 46.9932 15.3385C47.5414 15.6811 47.666 16.4162 47.6972 17.064C47.9463 22.222 45.3923 27.4236 41.1687 30.3888C37.2068 33.1671 31.8993 33.8897 27.3269 32.3386C29.8685 33.6281 31.5318 37.3657 34.2852 36.6556C35.0763 36.45 35.7678 35.8707 36.5839 35.8831C37.2815 35.8956 37.8858 36.3504 38.4963 36.6805C40.1658 37.5776 42.1654 37.6274 43.9097 38.3562C47.1801 39.7267 49.0614 43.346 49.3791 46.8781C49.703 50.4102 48.7437 53.9236 47.8031 57.3373C49.3916 56.5275 51.4348 57.8232 51.9643 59.5301C52.4876 61.2369 51.902 63.0871 51.0797 64.6756C48.5942 69.4785 43.8785 73.0729 38.5897 74.1879C33.3009 75.303 27.5325 73.9201 23.3214 70.5188C23.0535 72.3316 20.8857 73.322 19.0791 73.0355C17.2726 72.7489 15.7526 71.5778 14.2638 70.5126C12.775 69.4473 11.0992 68.4195 9.26777 68.4942C8.10287 68.5378 6.9878 69.03 5.8229 69.0362C4.11603 69.0424 2.65213 68.0457 1.20067 67.0116C1.55574 69.0611 2.079 70.2509 2.079 71.0234C2.079 72.8611 0.0108339 74.9292 1.61803 75.8512C3.22522 76.7731 9.43597 73.0916 11.0432 74.6988C12.6504 76.3059 17.4782 79.9875 37.0199 79.9875C56.5617 79.9875 62.3052 74.6987 64.6039 75.8512C66.8963 77.0099 69.4254 77.7013 70.8021 76.7794Z" fill="#0E9549"/>
<path d="M70.8021 76.7794C72.1788 75.8574 68.734 71.2601 68.734 69.1919C68.734 67.1238 70.1107 54.0233 63.6757 43.6762C57.2407 33.3291 49.8837 30.5757 48.968 28.277C48.046 25.9783 58.6236 7.58904 57.9321 5.52087C57.2407 3.4527 52.4128 5.29039 51.2666 3.91369C50.1142 2.53698 49.429 0.693071 47.8218 0.238323C47.0057 0.00783346 44.1775 -0.048236 41.3494 0.0389761C42.8756 0.960932 44.0405 2.61173 44.5638 4.35597C45.3424 6.9661 45.031 9.75689 44.788 12.4729C44.707 13.3637 44.7444 14.4663 45.5293 14.8899C45.9778 15.1329 46.5572 15.0706 46.9932 15.3385C47.5414 15.6811 47.666 16.4162 47.6972 17.064C47.9463 22.222 45.3923 27.4236 41.1687 30.3888C37.2068 33.1671 31.8993 33.8897 27.3269 32.3386C29.8685 33.6281 31.5318 37.3657 34.2852 36.6556C35.0763 36.45 35.7678 35.8707 36.5839 35.8831C37.2815 35.8956 37.8858 36.3504 38.4963 36.6805C40.1658 37.5776 42.1654 37.6274 43.9097 38.3562C47.1801 39.7267 49.0614 43.346 49.3791 46.8781C49.703 50.4102 48.7437 53.9236 47.8031 57.3373C49.3916 56.5275 51.4348 57.8232 51.9643 59.5301C52.4876 61.2369 51.902 63.0871 51.0797 64.6756C48.5942 69.4785 43.8785 73.0729 38.5897 74.1879C33.3009 75.303 27.5325 73.9201 23.3214 70.5188C23.0535 72.3316 20.8857 73.322 19.0791 73.0355C17.2726 72.7489 15.7526 71.5778 14.2638 70.5126C12.775 69.4473 11.0992 68.4195 9.26777 68.4942C8.10287 68.5378 6.9878 69.03 5.8229 69.0362C4.11603 69.0424 2.65213 68.0457 1.20067 67.0116C1.55574 69.0611 2.079 70.2509 2.079 71.0234C2.079 72.8611 0.0108339 74.9292 1.61803 75.8512C3.22522 76.7731 9.43597 73.0916 11.0432 74.6988C12.6504 76.3059 17.4782 79.9875 37.0199 79.9875C56.5617 79.9875 62.3052 74.6987 64.6039 75.8512C66.8963 77.0099 69.4254 77.7013 70.8021 76.7794Z" fill="white" fill-opacity="0.2"/>
<path d="M37.5619 0.263367C36.372 0.375497 35.4127 0.518775 34.9455 0.693199C33.8055 1.12303 33.0206 2.42498 32.0986 3.3594C32.1236 3.53382 32.1422 3.70824 32.1672 3.88267C32.8337 9.03441 33.494 14.1862 34.1606 19.3379C34.4222 21.3438 34.6901 23.387 35.5248 25.2247C38.4153 17.332 38.1163 8.69802 37.5619 0.263367Z" fill="#3EAA6D"/>
<path d="M17.9019 0.356695C20.4435 6.44285 22.9851 12.529 25.5267 18.6152C26.4113 20.7332 27.3145 22.8885 28.7722 24.6577C29.7315 17.5001 27.8876 10.3176 27.1837 3.11633C25.4955 2.02618 23.7451 0.605861 22.7608 0.462584C21.7828 0.325537 19.7831 0.275712 17.9019 0.356695Z" fill="#3EAA6D"/>
<path d="M60.5608 19.2006C58.0129 18.9327 55.4838 19.3875 53.2848 20.733C51.7524 21.6737 50.8616 23.2497 50.1576 24.913C49.3852 23.1625 47.7468 21.6052 46.4137 20.5898C43.7351 18.5527 40.3027 16.9269 37.2689 19.1944C34.0359 21.6114 35.9234 25.7415 38.6332 27.5792C39.4742 28.1523 40.5954 28.6444 41.8226 29.0057C41.779 29.0182 41.7354 29.0369 41.6918 29.0493C37.8794 29.0556 34.1418 28.8749 30.3044 28.3828C25.9376 27.8284 21.8947 25.4923 17.4842 25.5048C17.0233 25.5048 16.7928 26.19 17.2413 26.408C20.3311 27.9467 23.776 29.5477 27.3517 30.7437C24.1871 30.5693 21.1222 30.046 18.9046 29.0431C17.9265 28.6008 16.8613 29.7533 17.7085 30.5942C21.7826 34.6184 30.13 34.1076 35.3814 34.0204C38.8886 33.9644 45.7597 32.8181 49.3976 30.046C49.0426 31.1175 48.5131 32.1267 47.915 33.1608C47.1239 34.5188 46.0711 35.8394 46.2019 37.484C46.2705 38.3312 47.1488 38.6676 47.7967 38.1443C49.2606 36.9482 49.9209 34.7493 50.6311 33.0486C50.9052 32.3883 51.0858 31.7155 51.2104 31.0365C52.936 33.6155 54.9418 36.5994 57.6766 37.8577C58.6857 38.325 59.5828 37.1912 58.8539 36.3378C57.7264 35.0171 56.3061 33.9706 55.0727 32.7558C54.35 32.0457 53.671 31.2982 53.0045 30.5444C54.6864 30.669 56.4182 30.5506 57.8572 30.4697C60.6791 30.3139 65.0086 29.8903 66.3417 26.9064C68.005 23.1376 64.0057 19.5619 60.5608 19.2006ZM49.0426 26.352C47.0554 26.3021 45.0744 26.7195 43.0561 26.4205C41.698 26.2212 40.3338 25.7789 39.2437 24.9254C37.3997 23.4927 37.6925 21.2189 39.8853 20.3904C41.6108 19.7363 44.0964 21.356 45.4419 22.2343C46.8747 23.175 48.4632 24.6202 49.055 26.3395C49.055 26.3458 49.0488 26.352 49.0426 26.352ZM62.0558 26.2523C58.6421 27.6539 55.11 26.8192 51.6153 26.6198C53.7458 23.9661 55.8638 22.3465 59.8693 22.5832C61.6385 22.6891 64.7594 25.1372 62.0558 26.2523Z" fill="#C62828"/>
<path d="M43.9656 58.8077C43.3987 56.3221 41.4178 55.2382 39.1316 54.553C39.225 51.7871 39.2935 49.0212 39.3122 46.2429C39.6985 46.5481 40.066 46.8783 40.4086 47.2583C40.8571 47.7566 41.7729 47.2396 41.5486 46.598C41.0814 45.2836 40.2965 44.2993 39.3122 43.5767C39.2998 42.5488 39.2873 41.5272 39.2499 40.4993C39.225 39.7456 38.1037 39.7456 38.0788 40.4993C38.0539 41.278 38.0352 42.0505 38.0103 42.8292C36.2972 42.0692 34.2352 41.901 32.2543 42.1938C32.2356 41.3528 32.2169 40.518 32.2044 39.6895C32.192 38.8548 31.0271 38.8984 30.9399 39.6895C30.834 40.6364 30.7343 41.5895 30.6346 42.5426C26.193 43.7885 22.8416 47.2707 25.9875 51.1143C27.0714 52.4349 28.2737 53.3818 29.5694 54.1044C29.2891 57.7238 29.0586 61.3493 28.8966 64.9624C27.7006 64.4204 26.573 63.623 25.4455 62.6201C24.6793 61.9411 23.3088 62.5827 23.6452 63.6666C24.4114 66.1086 26.4298 67.4417 28.7658 68.0521C28.716 69.4662 28.6786 70.8803 28.6537 72.2882C28.635 73.2849 30.155 73.4967 30.3917 72.5249C30.7218 71.1793 30.9959 69.8151 31.2327 68.4384C32.6467 68.5256 34.0608 68.4197 35.3005 68.1767C35.5995 68.1207 35.911 68.0335 36.2287 67.9338C36.2972 68.6689 36.4093 69.4102 36.5837 70.1452C36.8765 71.36 38.7329 71.0734 38.7267 69.8525C38.7267 68.8495 38.7391 67.8466 38.7516 66.8436C41.8538 65.1679 44.7318 62.1591 43.9656 58.8077ZM29.8061 51.1455C27.7068 49.6006 26.3239 47.495 29.3638 45.6324C29.694 45.4331 30.0304 45.2586 30.373 45.1091C30.1674 47.115 29.9805 49.1271 29.8061 51.1455ZM37.9355 45.3334C37.8421 48.2675 37.7113 51.1953 37.4745 54.1231C35.7739 53.7307 34.0484 53.413 32.709 52.815C32.6094 52.7713 32.5035 52.7215 32.3976 52.6717C32.41 49.9245 32.3664 47.1898 32.3103 44.4862C34.2415 44.1 36.21 44.4177 37.9355 45.3334ZM31.6438 65.7161C32.0799 62.3024 32.2854 58.8201 32.3602 55.3316C33.9175 55.8674 35.5559 56.2536 37.2254 56.6834C36.8765 59.4555 36.3159 62.2339 36.185 65.006C35.9109 65.1306 35.6431 65.2364 35.4126 65.305C34.0546 65.7099 32.8087 65.8282 31.6438 65.7161ZM38.8388 63.3489C38.8949 61.287 38.9696 59.225 39.0444 57.1693C39.0942 57.1818 39.144 57.1942 39.1876 57.2067C43.3115 58.4027 41.3991 61.3368 38.8388 63.3489Z" fill="#FFC107"/>
<path d="M19.546 36.4127C17.2535 36.3691 14.5126 38.9169 12.8992 40.3684C10.4946 42.5237 9.08674 45.084 9.57886 48.3545C9.79689 49.7935 12.0083 50.323 12.9116 49.2328C14.388 47.445 15.5778 45.4578 17.0479 43.67C18.3561 42.0752 20.8292 39.8887 20.8417 37.7084C20.8417 36.9858 20.2437 36.4251 19.546 36.4127Z" fill="#0E9549"/>
<path d="M19.546 36.4127C17.2535 36.3691 14.5126 38.9169 12.8992 40.3684C10.4946 42.5237 9.08674 45.084 9.57886 48.3545C9.79689 49.7935 12.0083 50.323 12.9116 49.2328C14.388 47.445 15.5778 45.4578 17.0479 43.67C18.3561 42.0752 20.8292 39.8887 20.8417 37.7084C20.8417 36.9858 20.2437 36.4251 19.546 36.4127Z" fill="white" fill-opacity="0.85"/>
<path d="M9.34839 52.8584C8.9061 52.5033 8.42644 52.4037 7.90939 52.6715C7.55432 52.8584 7.20546 53.2322 6.98743 53.5623C6.95628 53.6059 6.9376 53.6371 6.93137 53.6558C6.92514 53.662 6.92515 53.662 6.91892 53.6682C6.65105 53.9735 6.52023 54.2725 6.44547 54.6587C6.33957 55.2069 6.42679 55.7426 6.83793 56.1538C7.20547 56.5213 7.82841 56.7269 8.33299 56.5462C8.68184 56.4216 9.01201 56.2971 9.27988 56.0292C9.57889 55.7302 9.72838 55.3128 9.86543 54.9204C10.0835 54.2787 9.89658 53.3007 9.34839 52.8584Z" fill="#0E9549"/>
<path d="M9.34839 52.8584C8.9061 52.5033 8.42644 52.4037 7.90939 52.6715C7.55432 52.8584 7.20546 53.2322 6.98743 53.5623C6.95628 53.6059 6.9376 53.6371 6.93137 53.6558C6.92514 53.662 6.92515 53.662 6.91892 53.6682C6.65105 53.9735 6.52023 54.2725 6.44547 54.6587C6.33957 55.2069 6.42679 55.7426 6.83793 56.1538C7.20547 56.5213 7.82841 56.7269 8.33299 56.5462C8.68184 56.4216 9.01201 56.2971 9.27988 56.0292C9.57889 55.7302 9.72838 55.3128 9.86543 54.9204C10.0835 54.2787 9.89658 53.3007 9.34839 52.8584Z" fill="white" fill-opacity="0.85"/>
<path d="M14.3196 10.3238C13.5347 9.07787 12.8744 7.81951 12.3822 6.43658C12.0147 5.40872 10.4137 5.23429 10.1272 6.43658C9.7721 7.92541 10.2642 9.489 10.7314 10.8969C11.2672 12.4978 11.7717 14.1237 13.3104 15.027C14.033 15.4506 15.2478 15.1017 15.3973 14.1798C15.6402 12.6535 15.117 11.5883 14.3196 10.3238Z" fill="#0E9549"/>
<path d="M14.3196 10.3238C13.5347 9.07787 12.8744 7.81951 12.3822 6.43658C12.0147 5.40872 10.4137 5.23429 10.1272 6.43658C9.7721 7.92541 10.2642 9.489 10.7314 10.8969C11.2672 12.4978 11.7717 14.1237 13.3104 15.027C14.033 15.4506 15.2478 15.1017 15.3973 14.1798C15.6402 12.6535 15.117 11.5883 14.3196 10.3238Z" fill="white" fill-opacity="0.85"/>
<path d="M18.0326 17.6062C17.7274 17.4255 17.4097 17.1203 17.1916 16.84C16.8926 16.4537 16.2385 16.5223 15.9208 16.84C15.5408 17.22 15.6218 17.7246 15.9208 18.1108C16.4316 18.7586 17.0857 18.958 17.8769 18.7898C18.4437 18.6714 18.4873 17.8803 18.0326 17.6062Z" fill="#0E9549"/>
<path d="M18.0326 17.6062C17.7274 17.4255 17.4097 17.1203 17.1916 16.84C16.8926 16.4537 16.2385 16.5223 15.9208 16.84C15.5408 17.22 15.6218 17.7246 15.9208 18.1108C16.4316 18.7586 17.0857 18.958 17.8769 18.7898C18.4437 18.6714 18.4873 17.8803 18.0326 17.6062Z" fill="white" fill-opacity="0.85"/>
</svg>
