<svg width="20" height="14" viewBox="0 0 20 14" fill="none" xmlns="http://www.w3.org/2000/svg">
<path d="M15.8333 3.66658L12.5 6.99992H15C15 9.75825 12.7583 11.9999 9.99998 11.9999C9.15831 11.9999 8.35831 11.7916 7.66665 11.4166L6.44998 12.6333C7.47498 13.2833 8.69165 13.6666 9.99998 13.6666C13.6833 13.6666 16.6666 10.6833 16.6666 6.99992H19.1666L15.8333 3.66658ZM4.99998 6.99992C4.99998 4.24159 7.24165 1.99992 9.99998 1.99992C10.8416 1.99992 11.6416 2.20825 12.3333 2.58325L13.55 1.36659C12.525 0.716585 11.3083 0.333252 9.99998 0.333252C6.31665 0.333252 3.33331 3.31658 3.33331 6.99992H0.833313L4.16665 10.3333L7.49998 6.99992H4.99998Z" fill="#0E9549"/>
</svg>
