<svg width="38" height="34" viewBox="0 0 38 34" fill="none" xmlns="http://www.w3.org/2000/svg">
<path d="M33.6667 4.33332H27.855L24.5 0.666656H13.5L10.145 4.33332H4.33333C2.31667 4.33332 0.666666 5.98332 0.666666 7.99999V30C0.666666 32.0167 2.31667 33.6667 4.33333 33.6667H33.6667C35.6833 33.6667 37.3333 32.0167 37.3333 30V7.99999C37.3333 5.98332 35.6833 4.33332 33.6667 4.33332ZM33.6667 30H4.33333V7.99999H11.7583L15.1133 4.33332H22.8867L26.2417 7.99999H33.6667V30ZM19 9.83332C13.94 9.83332 9.83333 13.94 9.83333 19C9.83333 24.06 13.94 28.1667 19 28.1667C24.06 28.1667 28.1667 24.06 28.1667 19C28.1667 13.94 24.06 9.83332 19 9.83332ZM19 24.5C15.975 24.5 13.5 22.025 13.5 19C13.5 15.975 15.975 13.5 19 13.5C22.025 13.5 24.5 15.975 24.5 19C24.5 22.025 22.025 24.5 19 24.5Z" fill="#262626"/>
<path d="M33.6667 4.33332H27.855L24.5 0.666656H13.5L10.145 4.33332H4.33333C2.31667 4.33332 0.666666 5.98332 0.666666 7.99999V30C0.666666 32.0167 2.31667 33.6667 4.33333 33.6667H33.6667C35.6833 33.6667 37.3333 32.0167 37.3333 30V7.99999C37.3333 5.98332 35.6833 4.33332 33.6667 4.33332ZM33.6667 30H4.33333V7.99999H11.7583L15.1133 4.33332H22.8867L26.2417 7.99999H33.6667V30ZM19 9.83332C13.94 9.83332 9.83333 13.94 9.83333 19C9.83333 24.06 13.94 28.1667 19 28.1667C24.06 28.1667 28.1667 24.06 28.1667 19C28.1667 13.94 24.06 9.83332 19 9.83332ZM19 24.5C15.975 24.5 13.5 22.025 13.5 19C13.5 15.975 15.975 13.5 19 13.5C22.025 13.5 24.5 15.975 24.5 19C24.5 22.025 22.025 24.5 19 24.5Z" fill="white" fill-opacity="0.1"/>
</svg>
