<svg width="52" height="52" viewBox="0 0 52 52" fill="none" xmlns="http://www.w3.org/2000/svg">
<path d="M26 52C40.3594 52 52 40.3594 52 26C52 11.6406 40.3594 0 26 0C11.6406 0 0 11.6406 0 26C0 40.3594 11.6406 52 26 52Z" fill="#1D9752"/>
<path d="M26.6562 31.8235C27.8045 32.9718 27.8045 34.9402 26.6562 36.0885L24.2777 38.467C23.1294 39.6153 21.1609 39.6153 20.0127 38.467L9.59626 27.9686C8.448 26.8203 8.448 24.8519 9.59626 23.7036L11.9748 21.3251C13.1231 20.1768 15.0915 20.1768 16.2398 21.3251L26.6562 31.8235Z" fill="white"/>
<path d="M35.7603 13.6972C36.9086 12.5489 38.8771 12.5489 40.0253 13.6972L42.4039 16.0757C43.5521 17.224 43.5521 19.1925 42.4039 20.3407L24.3597 38.3029C23.2115 39.4511 21.243 39.4511 20.0947 38.3029L17.7162 35.9243C16.5679 34.7761 16.5679 32.8076 17.7162 31.6593L35.7603 13.6972Z" fill="white"/>
</svg>
