<svg width="52" height="52" viewBox="0 0 52 52" fill="none" xmlns="http://www.w3.org/2000/svg">
<path d="M26 52C40.3594 52 52 40.3594 52 26C52 11.6406 40.3594 0 26 0C11.6406 0 0 11.6406 0 26C0 40.3594 11.6406 52 26 52Z" fill="#C70404"/>
<path d="M38.3029 31.7414C39.4511 32.8896 39.4511 34.8581 38.3029 36.0064L36.0063 38.3029C34.8581 39.4512 32.8896 39.4512 31.7414 38.3029L13.6972 20.2587C12.5489 19.1105 12.5489 17.142 13.6972 15.9937L16.0757 13.6152C17.224 12.4669 19.1925 12.4669 20.3407 13.6152L38.3029 31.7414Z" fill="white"/>
<path d="M28.7886 22.1451L22.1451 28.7886L31.7413 38.3028C32.8896 39.4511 34.858 39.4511 36.0063 38.3028L38.3849 35.9243C39.5331 34.776 39.5331 32.8076 38.3849 31.6593L28.7886 22.1451Z" fill="white"/>
<path d="M31.7414 13.697C32.8896 12.5488 34.8581 12.5488 36.0063 13.697L38.3849 16.0756C39.5332 17.2239 39.5332 19.1923 38.3849 20.3406L20.2587 38.3027C19.1104 39.451 17.142 39.451 15.9937 38.3027L13.6972 36.0062C12.5489 34.8579 12.5489 32.8895 13.6972 31.7412L31.7414 13.697Z" fill="white"/>
</svg>
