<svg width="16" height="18" viewBox="0 0 16 18" fill="none" xmlns="http://www.w3.org/2000/svg">
<path d="M12.8417 2.72508C12.775 2.72508 12.7083 2.70841 12.65 2.67508C11.05 1.85008 9.66667 1.50008 8.00834 1.50008C6.35834 1.50008 4.79167 1.89175 3.36667 2.67508C3.16667 2.78341 2.91667 2.70841 2.80001 2.50841C2.69167 2.30841 2.76667 2.05008 2.96667 1.94175C4.51667 1.10008 6.21667 0.666748 8.00834 0.666748C9.78334 0.666748 11.3333 1.05841 13.0333 1.93341C13.2417 2.04175 13.3167 2.29175 13.2083 2.49175C13.1333 2.64175 12.9917 2.72508 12.8417 2.72508ZM0.916674 7.10008C0.833341 7.10008 0.750008 7.07508 0.675008 7.02508C0.483341 6.89175 0.441674 6.63341 0.575008 6.44175C1.40001 5.27508 2.45001 4.35841 3.70001 3.71675C6.31667 2.36675 9.66667 2.35841 12.2917 3.70841C13.5417 4.35008 14.5917 5.25841 15.4167 6.41675C15.55 6.60008 15.5083 6.86675 15.3167 7.00008C15.125 7.13341 14.8667 7.09175 14.7333 6.90008C13.9833 5.85008 13.0333 5.02508 11.9083 4.45008C9.51667 3.22508 6.45834 3.22508 4.07501 4.45841C2.94167 5.04175 1.99167 5.87508 1.24167 6.92508C1.17501 7.04175 1.05001 7.10008 0.916674 7.10008ZM6.12501 17.1584C6.01667 17.1584 5.90834 17.1167 5.83334 17.0334C5.10834 16.3084 4.71667 15.8417 4.15834 14.8334C3.58334 13.8084 3.28334 12.5584 3.28334 11.2167C3.28334 8.74175 5.40001 6.72508 8.00001 6.72508C10.6 6.72508 12.7167 8.74175 12.7167 11.2167C12.7167 11.4501 12.5333 11.6334 12.3 11.6334C12.0667 11.6334 11.8833 11.4501 11.8833 11.2167C11.8833 9.20008 10.1417 7.55841 8.00001 7.55841C5.85834 7.55841 4.11667 9.20008 4.11667 11.2167C4.11667 12.4167 4.38334 13.5251 4.89167 14.4251C5.42501 15.3834 5.79167 15.7917 6.43334 16.4417C6.59167 16.6084 6.59167 16.8667 6.43334 17.0334C6.34167 17.1167 6.23334 17.1584 6.12501 17.1584ZM12.1 15.6167C11.1083 15.6167 10.2333 15.3667 9.51667 14.8751C8.27501 14.0334 7.53334 12.6667 7.53334 11.2167C7.53334 10.9834 7.71667 10.8001 7.95001 10.8001C8.18334 10.8001 8.36667 10.9834 8.36667 11.2167C8.36667 12.3917 8.96667 13.5001 9.98334 14.1834C10.575 14.5834 11.2667 14.7751 12.1 14.7751C12.3 14.7751 12.6333 14.7501 12.9667 14.6917C13.1917 14.6501 13.4083 14.8001 13.45 15.0334C13.4917 15.2584 13.3417 15.4751 13.1083 15.5167C12.6333 15.6084 12.2167 15.6167 12.1 15.6167ZM10.425 17.3334C10.3917 17.3334 10.35 17.3251 10.3167 17.3167C8.99167 16.9501 8.12501 16.4584 7.21667 15.5667C6.05001 14.4084 5.40834 12.8667 5.40834 11.2167C5.40834 9.86675 6.55834 8.76675 7.97501 8.76675C9.39167 8.76675 10.5417 9.86675 10.5417 11.2167C10.5417 12.1084 11.3167 12.8334 12.275 12.8334C13.2333 12.8334 14.0083 12.1084 14.0083 11.2167C14.0083 8.07508 11.3 5.52508 7.96667 5.52508C5.60001 5.52508 3.43334 6.84175 2.45834 8.88341C2.13334 9.55841 1.96667 10.3501 1.96667 11.2167C1.96667 11.8667 2.02501 12.8917 2.52501 14.2251C2.60834 14.4417 2.50001 14.6834 2.28334 14.7584C2.06667 14.8417 1.82501 14.7251 1.75001 14.5167C1.34167 13.4251 1.14167 12.3417 1.14167 11.2167C1.14167 10.2167 1.33334 9.30841 1.70834 8.51675C2.81667 6.19175 5.27501 4.68341 7.96667 4.68341C11.7583 4.68341 14.8417 7.60841 14.8417 11.2084C14.8417 12.5584 13.6917 13.6584 12.275 13.6584C10.8583 13.6584 9.70834 12.5584 9.70834 11.2084C9.70834 10.3167 8.93334 9.59175 7.97501 9.59175C7.01667 9.59175 6.24167 10.3167 6.24167 11.2084C6.24167 12.6334 6.79167 13.9667 7.80001 14.9667C8.59167 15.7501 9.35001 16.1834 10.525 16.5084C10.75 16.5667 10.875 16.8001 10.8167 17.0167C10.775 17.2084 10.6 17.3334 10.425 17.3334Z" fill="#0E9549"/>
</svg>
