<svg width="16" height="16" viewBox="0 0 16 16" fill="none" xmlns="http://www.w3.org/2000/svg">
<path fill-rule="evenodd" clip-rule="evenodd" d="M2.97631 10.3096C3.60143 9.68444 4.44928 9.33325 5.33333 9.33325H10.6667C11.5507 9.33325 12.3986 9.68444 13.0237 10.3096C13.6488 10.9347 14 11.7825 14 12.6666V13.9999C14 14.3681 13.7015 14.6666 13.3333 14.6666C12.9651 14.6666 12.6667 14.3681 12.6667 13.9999V12.6666C12.6667 12.1362 12.456 11.6274 12.0809 11.2524C11.7058 10.8773 11.1971 10.6666 10.6667 10.6666H5.33333C4.8029 10.6666 4.29419 10.8773 3.91912 11.2524C3.54405 11.6274 3.33333 12.1362 3.33333 12.6666V13.9999C3.33333 14.3681 3.03486 14.6666 2.66667 14.6666C2.29848 14.6666 2 14.3681 2 13.9999V12.6666C2 11.7825 2.35119 10.9347 2.97631 10.3096Z" fill="#D9D9D9"/>
<path fill-rule="evenodd" clip-rule="evenodd" d="M8.00008 2.66659C6.89551 2.66659 6.00008 3.56202 6.00008 4.66658C6.00008 5.77115 6.89551 6.66658 8.00008 6.66658C9.10465 6.66658 10.0001 5.77115 10.0001 4.66658C10.0001 3.56202 9.10465 2.66659 8.00008 2.66659ZM4.66675 4.66658C4.66675 2.82564 6.15913 1.33325 8.00008 1.33325C9.84103 1.33325 11.3334 2.82564 11.3334 4.66658C11.3334 6.50753 9.84103 7.99992 8.00008 7.99992C6.15913 7.99992 4.66675 6.50753 4.66675 4.66658Z" fill="#D9D9D9"/>
</svg>
