<svg width="256" height="129" viewBox="0 0 256 129" fill="none" xmlns="http://www.w3.org/2000/svg">
<rect x="0.5" width="255" height="128.67" rx="8" fill="#E6F4EC"/>
<path opacity="0.6" d="M208.75 23.2134H136.5C131.806 23.2134 128 26.4138 128 30.3617V37.51C128 41.4579 131.806 44.6583 136.5 44.6583H208.75C213.444 44.6583 217.25 41.4579 217.25 37.51V30.3617C217.25 26.4138 213.444 23.2134 208.75 23.2134Z" fill="#0E9549"/>
<path opacity="0.6" d="M227.875 55.3813H136.5C131.806 55.3813 128 58.5818 128 62.5297V69.678C128 73.6259 131.806 76.8263 136.5 76.8263H227.875C232.569 76.8263 236.375 73.6259 236.375 69.678V62.5297C236.375 58.5818 232.569 55.3813 227.875 55.3813Z" fill="#0E9549"/>
<path opacity="0.6" d="M208.75 87.5479H136.5C131.806 87.5479 128 90.7483 128 94.6962V101.844C128 105.792 131.806 108.993 136.5 108.993H208.75C213.444 108.993 217.25 105.792 217.25 101.844V94.6962C217.25 90.7483 213.444 87.5479 208.75 87.5479Z" fill="#0E9549"/>
<path d="M90.6032 19.8975H28.8319C27.2671 19.8975 25.9985 20.9643 25.9985 22.2802V60.0499C25.9985 61.3659 27.2671 62.4327 28.8319 62.4327H90.6032C92.168 62.4327 93.4366 61.3659 93.4366 60.0499V22.2802C93.4366 20.9643 92.168 19.8975 90.6032 19.8975Z" fill="#F5F5F5"/>
<path d="M46.4696 28.3809C46.4696 28.6348 46.3628 28.8874 46.1427 29.0894C42.7857 32.1861 40.9373 36.1596 40.9373 40.279C40.9373 44.3984 42.7857 48.3719 46.1442 51.4685C46.6097 51.8992 46.5713 52.5644 46.0625 52.9558C45.552 53.3472 44.7596 53.3164 44.294 52.887C40.5151 49.4004 38.4346 44.9232 38.4346 40.279C38.4346 35.6348 40.5151 31.1576 44.294 27.671C44.7596 27.2416 45.5503 27.2107 46.0625 27.6022C46.3328 27.8099 46.4696 28.0946 46.4696 28.3809Z" fill="#0E9549"/>
<path d="M54.6456 26.5991C54.6456 26.9372 54.4521 27.2711 54.0917 27.4732C48.9196 30.3943 45.8314 35.1817 45.8314 40.279C45.8314 45.3765 48.9196 50.1637 54.0917 53.085C54.6673 53.4091 54.8207 54.0643 54.4337 54.5455C54.0484 55.0283 53.2708 55.1573 52.6969 54.8332C46.8326 51.5206 43.3306 46.0794 43.3306 40.279C43.3306 34.4788 46.8326 29.0376 52.6986 25.7249C53.2725 25.4009 54.0499 25.5285 54.4354 26.0125C54.5772 26.1922 54.6456 26.3956 54.6456 26.5991Z" fill="#0E9549"/>
<path d="M78.4756 43.6028C78.4756 43.8736 78.3522 44.1444 78.1053 44.3506C77.83 44.5807 71.2849 49.9728 64.9834 49.9728C58.4432 49.9728 53.1228 45.6246 53.1228 40.2788C53.1228 34.9332 58.4432 30.585 64.9834 30.585C65.674 30.585 66.2346 31.0564 66.2346 31.6373C66.2346 32.2181 65.674 32.6895 64.9834 32.6895C59.8231 32.6895 55.6253 36.0935 55.6253 40.2788C55.6253 44.4643 59.8231 47.8681 64.9834 47.8681C70.2672 47.8681 76.2833 42.9055 76.3434 42.8549C76.834 42.4452 77.6265 42.448 78.1137 42.862C78.3555 43.0668 78.4756 43.3347 78.4756 43.6028Z" fill="#0E9549"/>
<path d="M78.4763 36.9552C78.4763 39.4863 72.7504 45.354 66.3737 45.9223C64.1198 46.1229 61.8141 45.5196 60.2057 44.3101C58.8076 43.2578 58.0318 41.8364 58.0218 40.3085V40.2791C58.0218 38.789 58.7175 37.3803 59.9839 36.3084C61.3069 35.1887 63.0837 34.5728 64.9857 34.5728H65.8016C67.8119 34.5728 69.4469 33.2567 69.4469 31.6376C69.4469 30.0184 67.8119 28.7009 65.8016 28.7009H65.5162C57.7249 28.7009 51.2432 33.4475 50.7626 39.5074C50.5074 42.6671 51.8055 45.6977 54.4048 48.0366C57.1042 50.464 60.9615 51.8559 64.9857 51.8559C68.2957 51.8559 71.5208 50.913 74.0667 49.2012C74.6073 48.8393 75.3931 48.9122 75.8252 49.3668C76.2573 49.82 76.1689 50.4822 75.6284 50.847C72.6402 52.8549 68.8597 53.9619 64.984 53.9619C60.2692 53.9619 55.7462 52.3259 52.5763 49.4762C49.4964 46.708 47.9649 43.119 48.2635 39.3699C48.8324 32.2086 56.4102 26.5977 65.5145 26.5977H65.7999C69.1901 26.5977 71.9479 28.8594 71.9479 31.6389C71.9479 34.4184 69.1901 36.6788 65.7999 36.6788H64.984C63.7528 36.6788 62.6082 37.0745 61.7574 37.7929C60.9598 38.4662 60.5228 39.3488 60.5228 40.2791C60.5228 40.2861 60.5228 40.2917 60.5228 40.2987C60.5294 41.4844 61.2618 42.2827 61.8741 42.7428C62.9635 43.5637 64.5487 43.9706 66.1102 43.8316C71.3122 43.3672 75.9753 38.3401 75.9753 36.9566C75.9753 36.3757 76.5359 35.9043 77.2267 35.9043C77.9173 35.9043 78.4763 36.3743 78.4763 36.9552Z" fill="#0E9549"/>
<path d="M76.0281 33.0504C76.0281 36.8163 70.5558 41.4141 64.1676 41.4141C63.4768 41.4141 62.9163 40.9426 62.9163 40.3618C62.9163 39.7809 63.4768 39.3095 64.1676 39.3095C69.1193 39.3095 73.5255 35.8088 73.5255 33.0504C73.5255 32.4695 74.0861 31.998 74.7769 31.998C75.4675 31.998 76.0281 32.4695 76.0281 33.0504Z" fill="#0E9549"/>
<path d="M90.6032 65.9771H28.8319C27.2671 65.9771 25.9985 67.0439 25.9985 68.3598V106.13C25.9985 107.446 27.2671 108.513 28.8319 108.513H90.6032C92.168 108.513 93.4366 107.446 93.4366 106.13V68.3598C93.4366 67.0439 92.168 65.9771 90.6032 65.9771Z" fill="#F5F5F5"/>
<path d="M46.4696 74.461C46.4696 74.715 46.3628 74.9676 46.1427 75.1695C42.7857 78.2662 40.9373 82.2397 40.9373 86.3591C40.9373 90.4786 42.7857 94.4521 46.1442 97.5486C46.6097 97.9794 46.5713 98.6445 46.0625 99.036C45.552 99.4274 44.7596 99.3965 44.294 98.9672C40.5151 95.4805 38.4346 91.0033 38.4346 86.3591C38.4346 81.7149 40.5151 77.2378 44.294 73.751C44.7596 73.3217 45.5503 73.2908 46.0625 73.6823C46.3328 73.89 46.4696 74.1748 46.4696 74.461Z" fill="#0E9549"/>
<path d="M54.6456 72.6791C54.6456 73.0173 54.4521 73.3512 54.0917 73.5532C48.9196 76.4745 45.8314 81.2617 45.8314 86.3592C45.8314 91.4566 48.9196 96.2439 54.0917 99.1651C54.6673 99.4892 54.8207 100.144 54.4337 100.626C54.0484 101.108 53.2708 101.237 52.6969 100.913C46.8326 97.6007 43.3306 92.1595 43.3306 86.3592C43.3306 80.5588 46.8326 75.1178 52.6986 71.805C53.2725 71.4809 54.0499 71.6086 54.4354 72.0927C54.5772 72.2722 54.6456 72.4757 54.6456 72.6791Z" fill="#0E9549"/>
<path d="M78.4756 89.6828C78.4756 89.9536 78.3522 90.2244 78.1053 90.4307C77.83 90.6608 71.2849 96.0528 64.9834 96.0528C58.4432 96.0528 53.1228 91.7047 53.1228 86.359C53.1228 81.0132 58.4432 76.665 64.9834 76.665C65.674 76.665 66.2346 77.1365 66.2346 77.7174C66.2346 78.2983 65.674 78.7697 64.9834 78.7697C59.8231 78.7697 55.6253 82.1735 55.6253 86.359C55.6253 90.5443 59.8231 93.9482 64.9834 93.9482C70.2672 93.9482 76.2833 88.9855 76.3434 88.935C76.834 88.5253 77.6265 88.5281 78.1137 88.942C78.3555 89.1468 78.4756 89.4149 78.4756 89.6828Z" fill="#0E9549"/>
<path d="M78.4763 83.0359C78.4763 85.567 72.7504 91.4344 66.3737 92.0027C64.1198 92.2033 61.8141 91.6 60.2057 90.3906C58.8076 89.3384 58.0318 87.9171 58.0218 86.3892V86.3598C58.0218 84.8697 58.7175 83.4611 59.9839 82.3891C61.3069 81.2695 63.0837 80.6536 64.9857 80.6536H65.8016C67.8119 80.6536 69.4469 79.3375 69.4469 77.7185C69.4469 76.0993 67.8119 74.7819 65.8016 74.7819H65.5162C57.7249 74.7819 51.2432 79.5283 50.7626 85.588C50.5074 88.7477 51.8055 91.7782 54.4048 94.1171C57.1042 96.5443 60.9615 97.936 64.9857 97.936C68.2957 97.936 71.5208 96.9932 74.0667 95.2816C74.6073 94.9196 75.3931 94.9926 75.8252 95.4471C76.2573 95.9003 76.1689 96.5625 75.6284 96.9273C72.6402 98.9351 68.8597 100.042 64.984 100.042C60.2692 100.042 55.7462 98.4062 52.5763 95.5566C49.4964 92.7884 47.9649 89.1994 48.2635 85.4505C48.8324 78.2895 56.4102 72.6787 65.5145 72.6787H65.7999C69.1901 72.6787 71.9479 74.9405 71.9479 77.7199C71.9479 80.4993 69.1901 82.7595 65.7999 82.7595H64.984C63.7528 82.7595 62.6082 83.1552 61.7574 83.8735C60.9598 84.547 60.5228 85.4294 60.5228 86.3598C60.5228 86.3667 60.5228 86.3724 60.5228 86.3793C60.5294 87.5649 61.2618 88.3632 61.8741 88.8234C62.9635 89.6442 64.5487 90.051 66.1102 89.9122C71.3122 89.4477 75.9753 84.4207 75.9753 83.0373C75.9753 82.4564 76.5359 81.985 77.2267 81.985C77.9173 81.985 78.4763 82.4551 78.4763 83.0359Z" fill="#0E9549"/>
<path d="M76.0281 79.1305C76.0281 82.8963 70.5558 87.4943 64.1676 87.4943C63.4768 87.4943 62.9163 87.0228 62.9163 86.4419C62.9163 85.861 63.4768 85.3896 64.1676 85.3896C69.1193 85.3896 73.5255 81.8889 73.5255 79.1305C73.5255 78.5496 74.0861 78.0781 74.7769 78.0781C75.4675 78.0781 76.0281 78.5496 76.0281 79.1305Z" fill="#0E9549"/>
</svg>
