<svg width="256" height="129" viewBox="0 0 256 129" fill="none" xmlns="http://www.w3.org/2000/svg">
<rect x="0.5" width="255" height="129" rx="8" fill="#E6F4EC"/>
<path d="M93.2902 23.1636H28.8319C27.2671 23.1636 25.9985 24.3336 25.9985 25.7768V91.1083C25.9985 92.5516 27.2671 93.7216 28.8319 93.7216H93.2902C94.855 93.7216 96.1235 92.5516 96.1235 91.1083V25.7768C96.1235 24.3336 94.855 23.1636 93.2902 23.1636Z" fill="#F5F5F5"/>
<path fill-rule="evenodd" clip-rule="evenodd" d="M71.6087 50.5242C71.6087 55.9209 66.9174 60.2482 61.0622 60.2482C55.209 60.2482 50.5156 55.9209 50.5156 50.5242C50.5156 45.1276 55.209 40.8022 61.0622 40.8022C66.9174 40.8022 71.6087 45.1276 71.6087 50.5242ZM61.0625 77.5518C52.4211 77.5518 45.125 76.2565 45.125 71.2585C45.125 66.2588 52.467 65.0093 61.0625 65.0093C69.7059 65.0093 77 66.3046 77 71.3026C77 76.3023 69.658 77.5518 61.0625 77.5518Z" fill="#0E9549"/>
<path opacity="0.6" d="M208.75 17.105H136.5C131.806 17.105 128 20.615 128 24.9448V32.7845C128 37.1143 131.806 40.6243 136.5 40.6243H208.75C213.444 40.6243 217.25 37.1143 217.25 32.7845V24.9448C217.25 20.615 213.444 17.105 208.75 17.105Z" fill="#0E9549"/>
<path opacity="0.6" d="M227.875 52.3843H136.5C131.806 52.3843 128 55.8943 128 60.2241V68.0638C128 72.3936 131.806 75.9036 136.5 75.9036H227.875C232.569 75.9036 236.375 72.3936 236.375 68.0638V60.2241C236.375 55.8943 232.569 52.3843 227.875 52.3843Z" fill="#0E9549"/>
<path opacity="0.6" d="M208.75 87.6626H136.5C131.806 87.6626 128 91.1726 128 95.5024V103.342C128 107.672 131.806 111.182 136.5 111.182H208.75C213.444 111.182 217.25 107.672 217.25 103.342V95.5024C217.25 91.1726 213.444 87.6626 208.75 87.6626Z" fill="#0E9549"/>
</svg>
