<svg width="256" height="141" viewBox="0 0 256 141" fill="none" xmlns="http://www.w3.org/2000/svg">
<rect x="0.5" y="0.669678" width="255" height="140" rx="8" fill="#E6F4EC"/>
<path d="M189.586 3.29517H66.4139C63.4238 3.29517 60.9998 5.52958 60.9998 8.28587V133.053C60.9998 135.81 63.4238 138.044 66.4139 138.044H189.586C192.576 138.044 195 135.81 195 133.053V8.28587C195 5.52958 192.576 3.29517 189.586 3.29517Z" fill="#F5F5F5"/>
<path fill-rule="evenodd" clip-rule="evenodd" d="M148.155 55.5478C148.155 65.8541 139.191 74.1182 128.002 74.1182C116.817 74.1182 107.849 65.8541 107.849 55.5478C107.849 45.2416 116.817 36.9812 128.002 36.9812C139.191 36.9812 148.155 45.2416 148.155 55.5478ZM128.003 107.164C111.49 107.164 97.5481 104.69 97.5481 95.1453C97.5481 85.5971 111.578 83.2108 128.003 83.2108C144.519 83.2108 158.457 85.6847 158.457 95.2296C158.457 104.778 144.428 107.164 128.003 107.164Z" fill="#0E9549"/>
</svg>
