<svg width="20" height="22" viewBox="0 0 20 22" fill="none" xmlns="http://www.w3.org/2000/svg">
<path fill-rule="evenodd" clip-rule="evenodd" d="M7.02154 7.97099H12.9024V13.3195C15.0824 13.6744 17.1356 14.3842 19.0368 15.4235C19.6451 14.08 20 12.5844 20 11.0128C20 5.28405 15.5133 0.645264 9.98732 0.645264C4.46134 0.645264 0 5.28405 0 11.0128C0 12.5844 0.329526 14.08 0.937891 15.4235C2.81368 14.3842 4.89227 13.6744 7.07224 13.3195V7.97099H7.02154Z" fill="#005993"/>
<path fill-rule="evenodd" clip-rule="evenodd" d="M9.96194 21.3546C13.46 21.3546 16.5272 19.5042 18.327 16.6651C15.8175 15.2963 12.9784 14.5105 9.96194 14.5105C6.94547 14.5105 4.10643 15.271 1.59692 16.6651C3.37132 19.4788 6.46384 21.3546 9.96194 21.3546Z" fill="#D71D4B"/>
</svg>
