<svg width="33" height="32" viewBox="0 0 33 32" fill="none" xmlns="http://www.w3.org/2000/svg">
<g clip-path="url(#clip0_698_8944)">
<path d="M16.5894 13.9176C15.4426 13.9176 14.5066 14.8535 14.5066 16.0004C14.5066 17.1473 15.4426 18.0832 16.5894 18.0832C17.7363 18.0832 18.6722 17.1473 18.6722 16.0004C18.6722 14.8535 17.7363 13.9176 16.5894 13.9176ZM22.8363 16.0004C22.8363 15.1379 22.8441 14.2832 22.7957 13.4223C22.7472 12.4223 22.5191 11.5348 21.7879 10.8035C21.0551 10.0707 20.1691 9.84417 19.1691 9.79573C18.3066 9.74729 17.4519 9.7551 16.591 9.7551C15.7285 9.7551 14.8738 9.74729 14.0129 9.79573C13.0129 9.84417 12.1254 10.0723 11.3941 10.8035C10.6613 11.5364 10.4347 12.4223 10.3863 13.4223C10.3379 14.2848 10.3457 15.1395 10.3457 16.0004C10.3457 16.8614 10.3379 17.7176 10.3863 18.5785C10.4347 19.5785 10.6629 20.466 11.3941 21.1973C12.1269 21.9301 13.0129 22.1567 14.0129 22.2051C14.8754 22.2535 15.7301 22.2457 16.591 22.2457C17.4535 22.2457 18.3082 22.2535 19.1691 22.2051C20.1691 22.1567 21.0566 21.9285 21.7879 21.1973C22.5207 20.4645 22.7472 19.5785 22.7957 18.5785C22.8457 17.7176 22.8363 16.8629 22.8363 16.0004ZM16.5894 19.2051C14.816 19.2051 13.3847 17.7739 13.3847 16.0004C13.3847 14.227 14.816 12.7957 16.5894 12.7957C18.3629 12.7957 19.7941 14.227 19.7941 16.0004C19.7941 17.7739 18.3629 19.2051 16.5894 19.2051ZM19.9254 13.4129C19.5113 13.4129 19.1769 13.0785 19.1769 12.6645C19.1769 12.2504 19.5113 11.916 19.9254 11.916C20.3394 11.916 20.6738 12.2504 20.6738 12.6645C20.6739 12.7628 20.6547 12.8602 20.6171 12.951C20.5795 13.0419 20.5244 13.1245 20.4549 13.194C20.3853 13.2635 20.3028 13.3186 20.2119 13.3562C20.1211 13.3938 20.0237 13.413 19.9254 13.4129Z" fill="white"/>
</g>
<rect x="1.08984" y="0.5" width="31" height="31" rx="15.5" stroke="white"/>
<defs>
<clipPath id="clip0_698_8944">
<rect x="0.589844" width="32" height="32" rx="16" fill="white"/>
</clipPath>
</defs>
</svg>
