<svg width="33" height="32" viewBox="0 0 33 32" fill="none" xmlns="http://www.w3.org/2000/svg">
<g clip-path="url(#clip0_698_8937)">
<path d="M22.894 14.7693C22.976 15.2086 23.0207 15.6679 23.0207 16.1473C23.0207 19.8966 20.5114 22.5626 16.7214 22.5626C15.8595 22.5629 15.006 22.3933 14.2096 22.0636C13.4133 21.7339 12.6897 21.2505 12.0803 20.641C11.4708 20.0316 10.9874 19.308 10.6577 18.5117C10.328 17.7153 10.1584 16.8618 10.1587 15.9999C10.1584 15.138 10.328 14.2845 10.6577 13.4882C10.9874 12.6919 11.4708 11.9683 12.0803 11.3588C12.6897 10.7494 13.4133 10.266 14.2096 9.93627C15.006 9.60656 15.8595 9.43699 16.7214 9.43726C18.4934 9.43726 19.974 10.0893 21.11 11.1479L19.26 12.9979V12.9933C18.5714 12.3373 17.6974 12.0006 16.7214 12.0006C14.556 12.0006 12.796 13.8299 12.796 15.9959C12.796 18.1613 14.556 19.9946 16.7214 19.9946C18.686 19.9946 20.0234 18.8713 20.298 17.3286H16.7214V14.7693H22.8947H22.894Z" fill="white"/>
</g>
<rect x="1.08984" y="0.5" width="31" height="31" rx="15.5" stroke="white"/>
<defs>
<clipPath id="clip0_698_8937">
<rect x="0.589844" width="32" height="32" rx="16" fill="white"/>
</clipPath>
</defs>
</svg>
