<svg width="304" height="85" viewBox="0 0 304 85" fill="none" xmlns="http://www.w3.org/2000/svg">
<g clip-path="url(#clip0_443_18214)">
<path d="M96.5097 23.1384L82.6399 9.28062C81.9583 8.60051 81.0344 8.21851 80.0711 8.21851C79.1078 8.21851 78.1839 8.60051 77.5023 9.28062L48.4162 38.3379L70.9699 60.8721L65.6653 66.1758L43.1116 43.6416L33.6338 53.0926C32.9531 53.7737 32.5708 54.6968 32.5708 55.6592C32.5708 56.6217 32.9531 57.5448 33.6338 58.2259L59.2998 83.8697C59.6371 84.2069 60.0375 84.4744 60.4783 84.6569C60.9191 84.8394 61.3915 84.9333 61.8686 84.9333C62.3457 84.9333 62.8182 84.8394 63.259 84.6569C63.6997 84.4744 64.1002 84.2069 64.4374 83.8697L96.506 51.8288C96.9423 51.3934 97.2884 50.8763 97.5245 50.3071C97.7607 49.7379 97.8822 49.1278 97.8822 48.5117V26.4519C97.8822 25.2093 97.3886 24.0175 96.5097 23.1384Z" fill="#FAA819"/>
<path d="M47.3033 20.5994L45.3447 18.624C47.8074 16.1724 51.1421 14.7959 54.6184 14.7959C58.0948 14.7959 61.4295 16.1724 63.8922 18.624L61.9187 20.5957C59.9782 18.6634 57.35 17.5787 54.6103 17.5794C51.8705 17.5801 49.2429 18.6661 47.3033 20.5994Z" fill="#0661AB"/>
<path d="M66.9636 15.5776C63.6895 12.3133 59.253 10.48 54.6277 10.48C50.0024 10.48 45.5659 12.3133 42.2918 15.5776L40.3184 13.6058C44.116 9.82028 49.2614 7.69434 54.6258 7.69434C59.9903 7.69434 65.1357 9.82028 68.9333 13.6058L66.9636 15.5776Z" fill="#0661AB"/>
<path d="M72.3944 10.1479C70.062 7.81473 67.2922 5.96379 64.2433 4.70092C61.1945 3.43806 57.9264 2.78805 54.6259 2.78805C51.3255 2.78805 48.0574 3.43806 45.0085 4.70092C41.9597 5.96379 39.1899 7.81473 36.8575 10.1479L34.884 8.17616C37.4755 5.58389 40.5529 3.52741 43.9404 2.12431C47.3279 0.721217 50.9589 -0.000976562 54.6259 -0.000976562C58.2929 -0.000976562 61.924 0.721217 65.3115 2.12431C68.6989 3.52741 71.7764 5.58389 74.3678 8.17616L72.3944 10.1479Z" fill="#0661AB"/>
<path d="M76.7642 53.9673L31.0633 8.30586C30.6922 7.93717 30.1901 7.73022 29.6667 7.73022C29.1433 7.73022 28.6412 7.93717 28.2701 8.30586L0.563925 35.9733C0.194919 36.3441 -0.012207 36.8458 -0.012207 37.3687C-0.012207 37.8916 0.194919 38.3933 0.563925 38.7641L46.2648 84.4256C46.636 84.7943 47.1381 85.0012 47.6614 85.0012C48.1848 85.0012 48.6869 84.7943 49.0581 84.4256L76.7494 56.7582C77.1204 56.3893 77.3302 55.8887 77.3329 55.3658C77.3357 54.8429 77.1313 54.3401 76.7642 53.9673ZM65.6654 66.1758L18.9259 19.4766L24.2342 14.1766L70.9737 60.8758L65.6654 66.1758Z" fill="#0661AB"/>
<path d="M163.073 24.2131C163.856 24.2131 164.579 24.7543 164.037 25.8958L142.07 71.5313C141.769 72.1317 141.346 72.7952 140.686 72.7952H140.041C139.38 72.7952 138.958 72.1354 138.657 71.5313L116.671 25.8365C116.129 24.7543 116.853 24.2131 117.635 24.2131H127.566C128.226 24.2131 128.649 24.7543 129.131 25.7179L140.382 50.7279L151.574 25.7179C152.056 24.7543 152.475 24.2131 153.139 24.2131H163.066H163.073Z" fill="#0661AB"/>
<path d="M181.005 24.2131H171.857C171.698 24.2085 171.539 24.2364 171.392 24.2952C171.244 24.3539 171.109 24.4422 170.997 24.5546C170.884 24.667 170.796 24.8013 170.737 24.949C170.678 25.0968 170.65 25.255 170.655 25.414V71.0495C170.651 71.2163 170.682 71.382 170.744 71.5368C170.807 71.6915 170.9 71.832 171.018 71.9498C171.136 72.0676 171.277 72.1602 171.432 72.222C171.587 72.2839 171.753 72.3137 171.92 72.3096H181.068C181.392 72.2944 181.697 72.1549 181.921 71.9202C182.145 71.6855 182.27 71.3737 182.269 71.0495V25.4177C182.254 25.0932 182.114 24.7872 181.878 24.5634C181.643 24.3397 181.33 24.2155 181.005 24.2168V24.2131Z" fill="#0661AB"/>
<path d="M181.005 6.65283H171.857C171.697 6.64822 171.539 6.67623 171.39 6.73514C171.242 6.79404 171.107 6.88259 170.994 6.99538C170.881 7.10816 170.793 7.24279 170.734 7.39102C170.675 7.53925 170.647 7.69794 170.651 7.85738V16.4486C170.647 16.6156 170.677 16.7818 170.739 16.937C170.802 17.0921 170.895 17.2331 171.013 17.3513C171.131 17.4695 171.272 17.5624 171.427 17.6245C171.583 17.6866 171.749 17.7165 171.916 17.7124H181.068C181.393 17.698 181.7 17.5585 181.925 17.3229C182.15 17.0873 182.274 16.774 182.273 16.4486V7.85738C182.259 7.53225 182.119 7.22529 181.883 7.00077C181.648 6.77624 181.334 6.65156 181.008 6.65283H181.005Z" fill="#FAA819"/>
<path d="M245.512 24.2131C245.838 24.2118 246.151 24.336 246.386 24.5597C246.622 24.7835 246.762 25.0895 246.777 25.414V71.0495C246.778 71.3743 246.653 71.6867 246.428 71.9215C246.203 72.1562 245.897 72.2953 245.572 72.3096H236.365C236.198 72.3137 236.032 72.2839 235.877 72.222C235.722 72.1602 235.581 72.0676 235.463 71.9498C235.344 71.832 235.251 71.6915 235.189 71.5368C235.127 71.382 235.096 71.2163 235.1 71.0495V47.6628L220.722 69.0629C220.579 69.338 220.363 69.5679 220.097 69.727C219.831 69.8861 219.526 69.968 219.216 69.9636H218.734C218.434 69.9589 218.141 69.8725 217.887 69.7138C217.632 69.5551 217.426 69.3301 217.291 69.0629L203.269 47.7184V71.0458C203.269 71.37 203.144 71.6818 202.921 71.9165C202.697 72.1512 202.391 72.2907 202.067 72.3059H192.86C192.693 72.31 192.527 72.2802 192.372 72.2183C192.217 72.1565 192.076 72.0639 191.958 71.9461C191.84 71.8283 191.746 71.6878 191.684 71.5331C191.622 71.3783 191.591 71.2126 191.595 71.0458V25.4177C191.59 25.2587 191.618 25.1005 191.677 24.9528C191.736 24.805 191.824 24.6707 191.937 24.5583C192.049 24.4459 192.184 24.3576 192.332 24.2989C192.479 24.2401 192.638 24.2122 192.797 24.2168H201.581C202.123 24.2168 202.482 24.5171 202.846 25.0582L218.971 49.9496L235.46 25.0582C235.831 24.5171 236.12 24.2168 236.725 24.2168H245.509L245.512 24.2131Z" fill="#0661AB"/>
<path d="M279.517 23.813C274.675 23.813 269.942 25.2476 265.915 27.9355C261.889 30.6234 258.751 34.4437 256.898 38.9135C255.045 43.3832 254.56 48.3016 255.505 53.0467C256.45 57.7918 258.782 62.1504 262.205 65.5714C265.629 68.9924 269.992 71.3221 274.741 72.266C279.49 73.2098 284.413 72.7254 288.886 70.874C293.36 69.0225 297.184 65.8872 299.874 61.8646C302.564 57.8419 304 53.1125 304 48.2745C304 41.7869 301.421 35.565 296.829 30.9776C292.238 26.3902 286.011 23.813 279.517 23.813ZM279.454 61.3873C272.655 61.3873 266.816 55.1348 266.816 48.2152C266.816 41.2955 272.655 35.1691 279.454 35.1691C286.309 35.1691 292.092 41.303 292.092 48.2152C292.092 55.1274 286.306 61.3725 279.451 61.3725L279.454 61.3873Z" fill="#0661AB"/>
</g>
<defs>
<clipPath id="clip0_443_18214">
<rect width="304" height="85" fill="white"/>
</clipPath>
</defs>
</svg>
