<svg width="30" height="30" viewBox="0 0 30 30" fill="none" xmlns="http://www.w3.org/2000/svg">
<path d="M26.49 15.27C26.49 14.48 26.42 13.73 26.3 13H15V17.51H21.47C21.18 18.99 20.33 20.24 19.07 21.09V24.09H22.93C25.19 22 26.49 18.92 26.49 15.27Z" fill="#4285F4"/>
<path d="M15 26.9998C18.24 26.9998 20.95 25.9198 22.93 24.0898L19.07 21.0898C17.99 21.8098 16.62 22.2498 15 22.2498C11.87 22.2498 9.22004 20.1398 8.27004 17.2898H4.29004V20.3798C6.26004 24.2998 10.31 26.9998 15 26.9998Z" fill="#34A853"/>
<path d="M8.27 17.2904C8.02 16.5704 7.89 15.8004 7.89 15.0004C7.89 14.2004 8.03 13.4304 8.27 12.7104V9.62036H4.29C3.47 11.2404 3 13.0604 3 15.0004C3 16.9404 3.47 18.7604 4.29 20.3804L8.27 17.2904Z" fill="#FBBC05"/>
<path d="M15 7.75C16.77 7.75 18.35 8.36 19.6 9.55L23.02 6.13C20.95 4.19 18.24 3 15 3C10.31 3 6.26004 5.7 4.29004 9.62L8.27004 12.71C9.22004 9.86 11.87 7.75 15 7.75Z" fill="#EA4335"/>
</svg>
