<svg width="14" height="10" viewBox="0 0 14 10" fill="none" xmlns="http://www.w3.org/2000/svg">
<path d="M4.3335 3.33341H9.66683V4.66675H4.3335V3.33341ZM12.4002 4.00008H13.6668C13.6668 2.16008 12.1735 0.666748 10.3335 0.666748H7.66683V1.93341H10.3335C11.4735 1.93341 12.4002 2.86008 12.4002 4.00008ZM1.60016 4.00008C1.60016 2.86008 2.52683 1.93341 3.66683 1.93341H6.3335V0.666748H3.66683C1.82683 0.666748 0.333496 2.16008 0.333496 4.00008C0.333496 5.84008 1.82683 7.33341 3.66683 7.33341H6.3335V6.06675H3.66683C2.52683 6.06675 1.60016 5.14008 1.60016 4.00008ZM11.6668 4.00008H10.3335V6.00008H8.3335V7.33341H10.3335V9.33341H11.6668V7.33341H13.6668V6.00008H11.6668V4.00008Z" fill="#8C8C8C"/>
</svg>
