<svg width="20" height="14" viewBox="0 0 20 14" fill="none" xmlns="http://www.w3.org/2000/svg">
<path d="M15.8333 8.66659V1.99992C15.8333 1.08325 15.0833 0.333252 14.1666 0.333252H2.49998C1.58331 0.333252 0.833313 1.08325 0.833313 1.99992V8.66659C0.833313 9.58325 1.58331 10.3333 2.49998 10.3333H14.1666C15.0833 10.3333 15.8333 9.58325 15.8333 8.66659ZM14.1666 8.66659H2.49998V1.99992H14.1666V8.66659ZM8.33331 2.83325C6.94998 2.83325 5.83331 3.94992 5.83331 5.33325C5.83331 6.71659 6.94998 7.83325 8.33331 7.83325C9.71665 7.83325 10.8333 6.71659 10.8333 5.33325C10.8333 3.94992 9.71665 2.83325 8.33331 2.83325ZM19.1666 2.83325V11.9999C19.1666 12.9166 18.4166 13.6666 17.5 13.6666H3.33331C3.33331 12.8333 3.33331 12.9166 3.33331 11.9999H17.5V2.83325C18.4166 2.83325 18.3333 2.83325 19.1666 2.83325Z" fill="#0E9549"/>
</svg>
