<svg width="20" height="20" viewBox="0 0 20 20" fill="none" xmlns="http://www.w3.org/2000/svg">
<path d="M16.098 13.6699C15.6091 13.1806 15.0379 12.7813 14.4105 12.4902C15.2953 11.7734 15.8597 10.6797 15.8597 9.4531C15.8597 7.28903 14.055 5.51364 11.891 5.54685C9.76012 5.58005 8.04332 7.31638 8.04332 9.4531C8.04332 10.6797 8.60973 11.7734 9.49254 12.4902C8.86501 12.7811 8.29375 13.1804 7.80504 13.6699C6.73864 14.7383 6.13317 16.1484 6.0941 17.6523C6.09358 17.6732 6.09724 17.6939 6.10486 17.7133C6.11248 17.7327 6.1239 17.7504 6.13846 17.7653C6.15303 17.7803 6.17043 17.7921 6.18964 17.8002C6.20886 17.8083 6.2295 17.8125 6.25035 17.8125H7.3441C7.42809 17.8125 7.4984 17.7461 7.50035 17.6621C7.53746 16.5293 7.99645 15.4687 8.80309 14.664C9.21586 14.2491 9.70684 13.9201 10.2476 13.6961C10.7884 13.4722 11.3682 13.3577 11.9535 13.3593C13.1429 13.3593 14.2621 13.8222 15.1039 14.664C15.9086 15.4687 16.3675 16.5293 16.4066 17.6621C16.4086 17.7461 16.4789 17.8125 16.5629 17.8125H17.6566C17.6775 17.8125 17.6981 17.8083 17.7173 17.8002C17.7365 17.7921 17.7539 17.7803 17.7685 17.7653C17.7831 17.7504 17.7945 17.7327 17.8021 17.7133C17.8097 17.6939 17.8134 17.6732 17.8129 17.6523C17.7738 16.1484 17.1683 14.7383 16.098 13.6699ZM11.9535 11.9531C11.2855 11.9531 10.6566 11.6933 10.1859 11.2207C9.94968 10.9863 9.76308 10.7068 9.63724 10.3987C9.51141 10.0907 9.44891 9.76043 9.45348 9.4277C9.45934 8.78708 9.7152 8.16794 10.1625 7.70895C10.6312 7.22849 11.2582 6.96091 11.9281 6.9531C12.5902 6.94724 13.2328 7.20505 13.7054 7.66794C14.1898 8.14255 14.4554 8.77731 14.4554 9.4531C14.4554 10.1211 14.1957 10.748 13.723 11.2207C13.4911 11.4537 13.2153 11.6384 12.9116 11.7641C12.6079 11.8898 12.2822 11.9541 11.9535 11.9531ZM7.0609 9.96872C7.04332 9.7988 7.03356 9.62692 7.03356 9.4531C7.03356 9.14255 7.06285 8.83981 7.11754 8.54489C7.13121 8.47458 7.0941 8.40231 7.02965 8.37302C6.76403 8.25388 6.51989 8.08981 6.30895 7.88278C6.06039 7.64178 5.8648 7.35161 5.73466 7.0308C5.60452 6.70998 5.54268 6.36555 5.55309 6.0195C5.57067 5.39255 5.82262 4.79685 6.26207 4.34763C6.74449 3.85349 7.39293 3.58395 8.08239 3.59177C8.70543 3.59763 9.30699 3.83786 9.76207 4.26364C9.91637 4.40817 10.0492 4.56833 10.1605 4.7402C10.1996 4.80075 10.2757 4.82614 10.3422 4.8027C10.6859 4.68356 11.0492 4.59958 11.4222 4.56052C11.5316 4.5488 11.5941 4.43161 11.5453 4.33395C10.9105 3.07809 9.61364 2.21091 8.11364 2.18747C5.94762 2.15427 4.14293 3.92966 4.14293 6.09177C4.14293 7.31833 4.70739 8.41208 5.59215 9.12888C4.97106 9.41599 4.39879 9.81247 3.9027 10.3086C2.83239 11.3769 2.22692 12.7871 2.18785 14.2929C2.18733 14.3138 2.19099 14.3345 2.19861 14.3539C2.20623 14.3733 2.21765 14.391 2.23221 14.406C2.24678 14.4209 2.26418 14.4327 2.28339 14.4408C2.30261 14.4489 2.32325 14.4531 2.3441 14.4531H3.43981C3.52379 14.4531 3.5941 14.3867 3.59606 14.3027C3.63317 13.1699 4.09215 12.1093 4.89879 11.3047C5.47301 10.7304 6.17614 10.332 6.94371 10.1386C7.01989 10.1191 7.07067 10.0468 7.0609 9.96872V9.96872Z" fill="#C62828"/>
</svg>
