<svg width="16" height="16" viewBox="0 0 16 16" fill="none" xmlns="http://www.w3.org/2000/svg">
<path fill-rule="evenodd" clip-rule="evenodd" d="M4.38411 5.17992C4.56089 5.39206 4.53223 5.70734 4.32009 5.88412L1.78102 8.00001L4.32009 10.1159C4.53223 10.2927 4.56089 10.608 4.38411 10.8201C4.20733 11.0322 3.89205 11.0609 3.67991 10.8841L0.679908 8.38412C0.565912 8.28913 0.5 8.1484 0.5 8.00001C0.5 7.85162 0.565912 7.7109 0.679908 7.6159L3.67991 5.1159C3.89205 4.93912 4.20733 4.96778 4.38411 5.17992Z" fill="#8C8C8C"/>
<path fill-rule="evenodd" clip-rule="evenodd" d="M11.6159 5.17992C11.7927 4.96778 12.108 4.93912 12.3201 5.1159L15.3201 7.6159C15.4341 7.7109 15.5 7.85162 15.5 8.00001C15.5 8.1484 15.4341 8.28913 15.3201 8.38412L12.3201 10.8841C12.108 11.0609 11.7927 11.0322 11.6159 10.8201C11.4391 10.608 11.4678 10.2927 11.6799 10.1159L14.219 8.00001L11.6799 5.88412C11.4678 5.70734 11.4391 5.39206 11.6159 5.17992Z" fill="#8C8C8C"/>
<path fill-rule="evenodd" clip-rule="evenodd" d="M10.1709 2.03024C10.4304 2.12461 10.5643 2.41149 10.4699 2.67101L6.46991 13.671C6.37554 13.9305 6.08866 14.0644 5.82914 13.97C5.56963 13.8757 5.43575 13.5888 5.53012 13.3293L9.53012 2.32926C9.62449 2.06975 9.91137 1.93587 10.1709 2.03024Z" fill="#8C8C8C"/>
</svg>
