<svg width="22" height="22" viewBox="0 0 22 22" fill="none" xmlns="http://www.w3.org/2000/svg">
<path d="M7.75 11C7.75 12.7983 9.20167 14.25 11 14.25C12.7983 14.25 14.25 12.7983 14.25 11C14.25 9.20167 12.7983 7.75 11 7.75C9.20167 7.75 7.75 9.20167 7.75 11Z" fill="#F7F7F7"/>
<path d="M6.66669 8.83332V6.66666H3.51419C5.00919 4.07749 7.80419 2.33332 11 2.33332C15.03 2.33332 18.4209 5.10666 19.385 8.83332H21.6167C20.6092 3.89332 16.2434 0.166656 11 0.166656C7.45752 0.166656 4.30502 1.87832 2.33335 4.51082V2.33332H0.166687V8.83332H6.66669Z" fill="#F7F7F7"/>
<path d="M15.3334 13.1667V15.3333H18.4859C16.9909 17.9225 14.1959 19.6667 11 19.6667C6.97003 19.6667 3.5792 16.8933 2.61503 13.1667H0.383362C1.39086 18.1067 5.7567 21.8333 11 21.8333C14.5425 21.8333 17.695 20.1217 19.6667 17.4892V19.6667H21.8334V13.1667H15.3334Z" fill="#F7F7F7"/>
</svg>
