<svg width="16" height="18" viewBox="0 0 16 18" fill="none" xmlns="http://www.w3.org/2000/svg">
<path d="M13 12.4001C12.3667 12.4001 11.8 12.6501 11.3667 13.0417L5.425 9.58342C5.46667 9.39175 5.5 9.20008 5.5 9.00008C5.5 8.80008 5.46667 8.60842 5.425 8.41675L11.3 4.99175C11.75 5.40841 12.3417 5.66675 13 5.66675C14.3833 5.66675 15.5 4.55008 15.5 3.16675C15.5 1.78341 14.3833 0.666748 13 0.666748C11.6167 0.666748 10.5 1.78341 10.5 3.16675C10.5 3.36675 10.5333 3.55841 10.575 3.75008L4.7 7.17508C4.25 6.75842 3.65833 6.50008 3 6.50008C1.61667 6.50008 0.5 7.61675 0.5 9.00008C0.5 10.3834 1.61667 11.5001 3 11.5001C3.65833 11.5001 4.25 11.2417 4.7 10.8251L10.6333 14.2917C10.5917 14.4667 10.5667 14.6501 10.5667 14.8334C10.5667 16.1751 11.6583 17.2667 13 17.2667C14.3417 17.2667 15.4333 16.1751 15.4333 14.8334C15.4333 13.4917 14.3417 12.4001 13 12.4001ZM13 2.33341C13.4583 2.33341 13.8333 2.70841 13.8333 3.16675C13.8333 3.62508 13.4583 4.00008 13 4.00008C12.5417 4.00008 12.1667 3.62508 12.1667 3.16675C12.1667 2.70841 12.5417 2.33341 13 2.33341ZM3 9.83342C2.54167 9.83342 2.16667 9.45842 2.16667 9.00008C2.16667 8.54175 2.54167 8.16675 3 8.16675C3.45833 8.16675 3.83333 8.54175 3.83333 9.00008C3.83333 9.45842 3.45833 9.83342 3 9.83342ZM13 15.6834C12.5417 15.6834 12.1667 15.3084 12.1667 14.8501C12.1667 14.3917 12.5417 14.0167 13 14.0167C13.4583 14.0167 13.8333 14.3917 13.8333 14.8501C13.8333 15.3084 13.4583 15.6834 13 15.6834Z" fill="#CC8400"/>
</svg>
