<svg width="32" height="32" viewBox="0 0 32 32" fill="none" xmlns="http://www.w3.org/2000/svg">
<path d="M20 18.7199C19.4933 18.7199 19.04 18.9199 18.6933 19.2333L13.94 16.4666C13.9733 16.3133 14 16.1599 14 15.9999C14 15.8399 13.9733 15.6866 13.94 15.5333L18.64 12.7933C19 13.1266 19.4733 13.3333 20 13.3333C21.1067 13.3333 22 12.4399 22 11.3333C22 10.2266 21.1067 9.33325 20 9.33325C18.8933 9.33325 18 10.2266 18 11.3333C18 11.4933 18.0267 11.6466 18.06 11.7999L13.36 14.5399C13 14.2066 12.5267 13.9999 12 13.9999C10.8933 13.9999 10 14.8933 10 15.9999C10 17.1066 10.8933 17.9999 12 17.9999C12.5267 17.9999 13 17.7933 13.36 17.4599L18.1067 20.2333C18.0733 20.3733 18.0533 20.5199 18.0533 20.6666C18.0533 21.7399 18.9267 22.6133 20 22.6133C21.0733 22.6133 21.9467 21.7399 21.9467 20.6666C21.9467 19.5933 21.0733 18.7199 20 18.7199Z" fill="#0E9549"/>
</svg>
