<svg width="20" height="20" viewBox="0 0 20 20" fill="none" xmlns="http://www.w3.org/2000/svg">
<path fill-rule="evenodd" clip-rule="evenodd" d="M8.96447 2.29772C9.90215 1.36004 11.1739 0.833252 12.5 0.833252H15C15.4602 0.833252 15.8333 1.20635 15.8333 1.66659V4.99992C15.8333 5.46016 15.4602 5.83325 15 5.83325H12.5V7.49992H15C15.2566 7.49992 15.4989 7.61814 15.6568 7.82041C15.8148 8.02267 15.8707 8.28641 15.8085 8.53536L14.9751 11.8687C14.8824 12.2397 14.5491 12.4999 14.1667 12.4999H12.5V18.3333C12.5 18.7935 12.1269 19.1666 11.6667 19.1666H8.33333C7.8731 19.1666 7.5 18.7935 7.5 18.3333V12.4999H5.83333C5.3731 12.4999 5 12.1268 5 11.6666V8.33325C5 7.87301 5.3731 7.49992 5.83333 7.49992H7.5V5.83325C7.5 4.50717 8.02678 3.2354 8.96447 2.29772ZM12.5 2.49992C11.6159 2.49992 10.7681 2.85111 10.143 3.47623C9.51786 4.10135 9.16667 4.9492 9.16667 5.83325V8.33325C9.16667 8.79349 8.79357 9.16658 8.33333 9.16658H6.66667V10.8333H8.33333C8.79357 10.8333 9.16667 11.2063 9.16667 11.6666V17.4999H10.8333V11.6666C10.8333 11.2063 11.2064 10.8333 11.6667 10.8333H13.516L13.9327 9.16658H11.6667C11.2064 9.16658 10.8333 8.79349 10.8333 8.33325V5.83325C10.8333 5.39122 11.0089 4.9673 11.3215 4.65474C11.634 4.34218 12.058 4.16658 12.5 4.16658H14.1667V2.49992H12.5Z" fill="#165CC6"/>
</svg>
