<svg width="20" height="20" viewBox="0 0 20 20" fill="none" xmlns="http://www.w3.org/2000/svg">
<path fill-rule="evenodd" clip-rule="evenodd" d="M9.20239 2.53577C10.2969 1.44129 11.7813 0.826416 13.3291 0.826416C14.877 0.826416 16.3614 1.44129 17.4559 2.53577C18.5504 3.63026 19.1653 5.1147 19.1653 6.66253C19.1653 8.21006 18.5506 9.69423 17.4565 10.7886C17.4563 10.7889 17.4561 10.7891 17.4559 10.7893L11.8401 16.4217C11.6838 16.5786 11.4714 16.6667 11.25 16.6667H4.16665C3.70641 16.6667 3.33331 16.2936 3.33331 15.8334V8.75003C3.33331 8.52902 3.42111 8.31706 3.57739 8.16078L9.20239 2.53577ZM13.3291 2.49308C12.2233 2.49308 11.1628 2.93236 10.3809 3.71429L4.99998 9.09521V15H10.9041L16.2765 9.61165L16.2774 9.61077C17.0593 8.82885 17.4986 7.76834 17.4986 6.66253C17.4986 5.55672 17.0593 4.49621 16.2774 3.71429C15.4955 2.93236 14.435 2.49308 13.3291 2.49308Z" fill="#0E9549"/>
<path fill-rule="evenodd" clip-rule="evenodd" d="M13.9226 6.07733C14.248 6.40277 14.248 6.9304 13.9226 7.25584L2.2559 18.9225C1.93047 19.2479 1.40283 19.2479 1.07739 18.9225C0.751954 18.5971 0.751954 18.0694 1.07739 17.744L12.7441 6.07733C13.0695 5.75189 13.5971 5.75189 13.9226 6.07733Z" fill="#0E9549"/>
<path fill-rule="evenodd" clip-rule="evenodd" d="M6.66669 12.5001C6.66669 12.0398 7.03978 11.6667 7.50002 11.6667H14.5834C15.0436 11.6667 15.4167 12.0398 15.4167 12.5001C15.4167 12.9603 15.0436 13.3334 14.5834 13.3334H7.50002C7.03978 13.3334 6.66669 12.9603 6.66669 12.5001Z" fill="#0E9549"/>
</svg>
