<svg width="38" height="32" viewBox="0 0 38 32" fill="none" xmlns="http://www.w3.org/2000/svg">
<path d="M37.0808 8.6928L31.8173 3.46913C31.5581 3.20994 31.1992 3.07037 30.8403 3.07037C30.4814 3.07037 30.1226 3.20994 29.8634 3.46913L18.8179 14.4149L27.3712 22.9084L25.3574 24.9021L16.8042 16.4087L13.2154 19.9775C12.9562 20.2367 12.8167 20.5757 12.8167 20.9545C12.8167 21.3133 12.9562 21.6722 13.2154 21.9314L22.9649 31.6012C23.0846 31.7208 23.2441 31.8205 23.4036 31.9002C23.5631 31.9601 23.7425 31.9999 23.9219 31.9999C24.1014 31.9999 24.2808 31.9601 24.4403 31.9002C24.5998 31.8404 24.7593 31.7208 24.8789 31.6012L37.0409 19.519C37.2004 19.3595 37.34 19.1601 37.4197 18.9408C37.4995 18.7214 37.5593 18.5021 37.5593 18.2629V9.94887C37.5992 9.47037 37.3998 9.03174 37.0808 8.6928Z" fill="#FAA819"/>
<path d="M18.4 7.73577L17.6624 6.99808C18.5994 6.08094 19.8555 5.56256 21.1913 5.56256C22.5072 5.56256 23.7832 6.08094 24.7203 6.99808L23.9627 7.73577C23.225 6.99807 22.2281 6.59932 21.1913 6.59932C20.1346 6.59932 19.1377 7.01801 18.4 7.73577Z" fill="#0661AB"/>
<path d="M25.8561 5.8404C24.62 4.60427 22.9253 3.92639 21.1708 3.92639C19.4163 3.92639 17.7415 4.6242 16.4854 5.8404L15.7278 5.10271C17.1633 3.6672 19.1172 2.86969 21.1508 2.86969C23.1845 2.86969 25.1384 3.6672 26.5739 5.10271L25.8561 5.8404Z" fill="#0661AB"/>
<path d="M27.9291 3.80815C27.0518 2.9309 25.9951 2.23308 24.8388 1.75457C23.6824 1.27607 22.4462 1.03682 21.1902 1.03682C19.9341 1.03682 18.698 1.27607 17.5416 1.75457C16.3852 2.23308 15.3285 2.9309 14.4512 3.80815L13.6936 3.07046C14.6705 2.09352 15.8469 1.31595 17.1229 0.797568C18.3989 0.259251 19.7945 6.10352e-05 21.1702 6.10352e-05C22.5659 6.10352e-05 23.9416 0.279188 25.2176 0.797568C26.4936 1.33589 27.6699 2.09352 28.6469 3.07046L27.9291 3.80815Z" fill="#0661AB"/>
<path d="M29.5847 20.3161L12.2389 3.10993C12.0993 2.97037 11.9 2.89062 11.7006 2.89062C11.5012 2.89062 11.3018 2.97037 11.1623 3.10993L0.655105 13.5373C0.515541 13.6769 0.435791 13.8763 0.435791 14.0557C0.435791 14.2352 0.515541 14.4345 0.655105 14.5741L18.0009 31.7803C18.1404 31.9199 18.3398 31.9996 18.5392 31.9996C18.7386 31.9996 18.938 31.9199 19.0775 31.7803L29.5847 21.3529C29.7242 21.2133 29.804 21.0339 29.804 20.8345C29.804 20.6551 29.7242 20.4557 29.5847 20.3161ZM25.3579 24.9218L7.61335 7.31678L9.62706 5.32302L27.3716 22.928L25.3579 24.9218Z" fill="#0661AB"/>
</svg>
