<svg width="44" height="44" viewBox="0 0 44 44" fill="none" xmlns="http://www.w3.org/2000/svg">
<path fill-rule="evenodd" clip-rule="evenodd" d="M22 5.49992C12.8873 5.49992 5.49998 12.8872 5.49998 21.9999C5.49998 31.1126 12.8873 38.4999 22 38.4999C31.1127 38.4999 38.5 31.1126 38.5 21.9999C38.5 12.8872 31.1127 5.49992 22 5.49992ZM1.83331 21.9999C1.83331 10.8622 10.8622 1.83325 22 1.83325C33.1377 1.83325 42.1666 10.8622 42.1666 21.9999C42.1666 33.1377 33.1377 42.1666 22 42.1666C10.8622 42.1666 1.83331 33.1377 1.83331 21.9999Z" fill="#C62828"/>
<path fill-rule="evenodd" clip-rule="evenodd" d="M22 12.8333C23.0125 12.8333 23.8334 13.6541 23.8334 14.6666V21.9999C23.8334 23.0124 23.0125 23.8333 22 23.8333C20.9875 23.8333 20.1667 23.0124 20.1667 21.9999V14.6666C20.1667 13.6541 20.9875 12.8333 22 12.8333Z" fill="#C62828"/>
<path fill-rule="evenodd" clip-rule="evenodd" d="M20.1667 29.3333C20.1667 28.3208 20.9875 27.5 22 27.5H22.0184C23.0309 27.5 23.8517 28.3208 23.8517 29.3333C23.8517 30.3459 23.0309 31.1667 22.0184 31.1667H22C20.9875 31.1667 20.1667 30.3459 20.1667 29.3333Z" fill="#C62828"/>
</svg>
