<svg width="200" height="190" viewBox="0 0 200 190" fill="none" xmlns="http://www.w3.org/2000/svg">
<g opacity="0.41">
<g opacity="0.41">
<g opacity="0.41">
<g opacity="0.41">
<path d="M199.39 119.545C199.577 116.352 199.494 113.142 199.135 109.967C197.445 95.0429 189.786 80.9682 178.519 71.0393C174.499 67.4957 169.924 64.3246 167.308 59.6461C162.902 51.7705 163.236 42.7209 157.769 34.945C152.293 27.1604 144.318 21.0912 135.32 17.9722C108.492 8.67571 70.9378 23.8117 74.3168 56.1328C74.3298 56.2498 74.3428 56.4187 74.3558 56.631C74.8063 63.3456 69.5343 68.9902 62.8283 69.1505C38.0752 69.7396 16.7704 88.8221 12.2132 112.995C9.28041 128.542 14.0803 145.58 25.4518 156.575C33.9382 164.784 45.327 169.293 56.7245 172.391C79.5715 178.603 103.614 179.907 127.172 177.529C149.221 175.306 172.48 168.964 186.741 152C194.344 142.959 198.702 131.354 199.39 119.545Z" fill="#0E9549"/>
<path d="M199.39 119.545C199.577 116.352 199.494 113.142 199.135 109.967C197.445 95.0429 189.786 80.9682 178.519 71.0393C174.499 67.4957 169.924 64.3246 167.308 59.6461C162.902 51.7705 163.236 42.7209 157.769 34.945C152.293 27.1604 144.318 21.0912 135.32 17.9722C108.492 8.67571 70.9378 23.8117 74.3168 56.1328C74.3298 56.2498 74.3428 56.4187 74.3558 56.631C74.8063 63.3456 69.5343 68.9902 62.8283 69.1505C38.0752 69.7396 16.7704 88.8221 12.2132 112.995C9.28041 128.542 14.0803 145.58 25.4518 156.575C33.9382 164.784 45.327 169.293 56.7245 172.391C79.5715 178.603 103.614 179.907 127.172 177.529C149.221 175.306 172.48 168.964 186.741 152C194.344 142.959 198.702 131.354 199.39 119.545Z" fill="white" fill-opacity="0.85"/>
</g>
</g>
</g>
</g>
<g opacity="0.31">
<g opacity="0.31">
<path d="M91.7078 10.8199C92.215 7.68101 90.0815 4.72528 86.9426 4.21813C83.8037 3.71097 80.8479 5.84445 80.3408 8.98339C79.8336 12.1223 81.9671 15.0781 85.106 15.5852C88.245 16.0924 91.2007 13.9589 91.7078 10.8199Z" fill="#0E9549"/>
<path d="M91.7078 10.8199C92.215 7.68101 90.0815 4.72528 86.9426 4.21813C83.8037 3.71097 80.8479 5.84445 80.3408 8.98339C79.8336 12.1223 81.9671 15.0781 85.106 15.5852C88.245 16.0924 91.2007 13.9589 91.7078 10.8199Z" fill="white" fill-opacity="0.85"/>
</g>
</g>
<g opacity="0.31">
<g opacity="0.31">
<path d="M163.838 9.36447C165.479 9.36447 166.809 8.03397 166.809 6.39271C166.809 4.75146 165.479 3.42096 163.838 3.42096C162.196 3.42096 160.866 4.75146 160.866 6.39271C160.866 8.03397 162.196 9.36447 163.838 9.36447Z" fill="#0E9549"/>
<path d="M163.838 9.36447C165.479 9.36447 166.809 8.03397 166.809 6.39271C166.809 4.75146 165.479 3.42096 163.838 3.42096C162.196 3.42096 160.866 4.75146 160.866 6.39271C160.866 8.03397 162.196 9.36447 163.838 9.36447Z" fill="white" fill-opacity="0.85"/>
</g>
</g>
<g opacity="0.31">
<g opacity="0.31">
<path d="M62.8143 23.7578C63.3464 21.6244 62.0483 19.4636 59.9149 18.9315C57.7814 18.3994 55.6206 19.6976 55.0886 21.831C54.5565 23.9644 55.8546 26.1252 57.988 26.6573C60.1214 27.1894 62.2822 25.8912 62.8143 23.7578Z" fill="#0E9549"/>
<path d="M62.8143 23.7578C63.3464 21.6244 62.0483 19.4636 59.9149 18.9315C57.7814 18.3994 55.6206 19.6976 55.0886 21.831C54.5565 23.9644 55.8546 26.1252 57.988 26.6573C60.1214 27.1894 62.2822 25.8912 62.8143 23.7578Z" fill="white" fill-opacity="0.85"/>
</g>
</g>
<g opacity="0.31">
<g opacity="0.31">
<path d="M13.0362 176.264C18.0437 176.264 22.1031 172.204 22.1031 167.197C22.1031 162.189 18.0437 158.13 13.0362 158.13C8.02874 158.13 3.96936 162.189 3.96936 167.197C3.96936 172.204 8.02874 176.264 13.0362 176.264Z" fill="#0E9549"/>
<path d="M13.0362 176.264C18.0437 176.264 22.1031 172.204 22.1031 167.197C22.1031 162.189 18.0437 158.13 13.0362 158.13C8.02874 158.13 3.96936 162.189 3.96936 167.197C3.96936 172.204 8.02874 176.264 13.0362 176.264Z" fill="white" fill-opacity="0.85"/>
</g>
</g>
<path opacity="0.47" d="M196.921 25.7438C199.507 20.71 197.519 14.5326 192.485 11.9507C187.451 9.3645 177.778 9.55511 175.192 14.5889C172.606 19.6227 180.356 23.9417 183.514 28.6376C187.924 35.1876 194.339 30.7776 196.921 25.7438Z" fill="#ECF1F7"/>
<g opacity="0.47">
<path d="M174.91 180.461C178.554 182.814 183.41 181.765 185.762 178.126C188.114 174.487 188.699 167.097 185.06 164.745C181.417 162.393 177.54 167.972 173.719 170.026C168.395 172.889 171.271 178.109 174.91 180.461Z" fill="#0E9549"/>
<path d="M174.91 180.461C178.554 182.814 183.41 181.765 185.762 178.126C188.114 174.487 188.699 167.097 185.06 164.745C181.417 162.393 177.54 167.972 173.719 170.026C168.395 172.889 171.271 178.109 174.91 180.461Z" fill="white" fill-opacity="0.85"/>
</g>
<g opacity="0.47">
<path d="M26.2532 2.64555C22.2461 -1.07565 15.982 -0.841717 12.2651 3.16106C8.54395 7.16816 6.19167 16.2134 10.1988 19.9346C14.2059 23.6558 20.249 17.578 25.4431 15.8668C32.6775 13.4842 30.256 6.36674 26.2532 2.64555Z" fill="#0E9549"/>
<path d="M26.2532 2.64555C22.2461 -1.07565 15.982 -0.841717 12.2651 3.16106C8.54395 7.16816 6.19167 16.2134 10.1988 19.9346C14.2059 23.6558 20.249 17.578 25.4431 15.8668C32.6775 13.4842 30.256 6.36674 26.2532 2.64555Z" fill="white" fill-opacity="0.85"/>
</g>
<g opacity="0.47">
<path d="M4.1687 45.892C0.599131 53.6463 -0.379902 62.5832 1.33557 70.9396C3.34995 80.7646 9.46674 88.311 7.34406 98.7901C6.05312 105.175 5.72822 111.089 5.07409 117.405C3.72684 130.375 12.1483 141.803 22.597 147.976C31.0834 152.988 41.0297 154.868 50.7854 154.734C59.5664 154.612 68.33 152.992 76.8381 150.813C85.0386 148.712 93.0528 145.944 101.647 146.819C108.795 147.547 115.233 150.636 121.891 152.94C137.785 158.442 157.032 159.217 171.566 150.843C180.893 145.467 187.421 136.743 190.315 127.355C192.628 119.857 192.923 112.843 191.19 105.184C189.41 97.3215 186.403 89.3983 187.335 81.2065C187.984 75.4969 190.597 69.9909 190.116 64.264C189.799 60.4605 188.123 56.8909 186.074 53.6722C178.597 41.9109 166.073 34.0353 152.83 29.6989C140.367 25.6139 127.51 22.6594 114.535 23.6428C87.7028 25.6745 82.2358 21.4118 54.8142 15.5463C37.1136 11.7601 17.312 25.2586 6.95418 40.8928C5.89717 42.487 4.96579 44.1592 4.1687 45.892Z" fill="#0E9549"/>
<path d="M4.1687 45.892C0.599131 53.6463 -0.379902 62.5832 1.33557 70.9396C3.34995 80.7646 9.46674 88.311 7.34406 98.7901C6.05312 105.175 5.72822 111.089 5.07409 117.405C3.72684 130.375 12.1483 141.803 22.597 147.976C31.0834 152.988 41.0297 154.868 50.7854 154.734C59.5664 154.612 68.33 152.992 76.8381 150.813C85.0386 148.712 93.0528 145.944 101.647 146.819C108.795 147.547 115.233 150.636 121.891 152.94C137.785 158.442 157.032 159.217 171.566 150.843C180.893 145.467 187.421 136.743 190.315 127.355C192.628 119.857 192.923 112.843 191.19 105.184C189.41 97.3215 186.403 89.3983 187.335 81.2065C187.984 75.4969 190.597 69.9909 190.116 64.264C189.799 60.4605 188.123 56.8909 186.074 53.6722C178.597 41.9109 166.073 34.0353 152.83 29.6989C140.367 25.6139 127.51 22.6594 114.535 23.6428C87.7028 25.6745 82.2358 21.4118 54.8142 15.5463C37.1136 11.7601 17.312 25.2586 6.95418 40.8928C5.89717 42.487 4.96579 44.1592 4.1687 45.892Z" fill="white" fill-opacity="0.85"/>
</g>
<g opacity="0.81">
<path d="M22.6273 57.9782C22.0771 64.1687 24.1651 70.5497 22.4193 76.6795C20.3313 84.0222 14.2795 89.5195 11.8146 96.728C8.17137 107.376 8.34465 119.311 12.772 129.69C14.9033 134.694 18.018 139.338 22.272 142.552C28.8307 147.508 37.4211 148.595 45.5046 147.967C57.5302 147.031 70.223 141.824 82.3136 143.245C88.9849 144.029 91.0253 151.251 94.4692 156.016C98.368 161.405 103.675 165.637 109.545 168.453C120.353 173.643 133.327 174.132 144.374 169.428C156.17 164.403 166.45 152.139 165.774 138.263C165.462 131.843 162.893 125.471 164.08 119.163C165.575 111.249 171.536 104.036 175.859 97.5901C180.633 90.4683 183.522 81.9775 184.085 73.3135C184.09 73.2139 184.098 73.1186 184.103 73.0189C184.991 58.0735 175.56 44.4407 161.338 39.7621L131.075 29.8072C100.374 19.705 69.6902 20.0429 41.4585 34.8626C35.3504 38.0683 25.3997 47.6247 23.3507 54.2137C22.9608 55.457 22.7399 56.7133 22.6273 57.9782Z" fill="#0E9549"/>
<path d="M22.6273 57.9782C22.0771 64.1687 24.1651 70.5497 22.4193 76.6795C20.3313 84.0222 14.2795 89.5195 11.8146 96.728C8.17137 107.376 8.34465 119.311 12.772 129.69C14.9033 134.694 18.018 139.338 22.272 142.552C28.8307 147.508 37.4211 148.595 45.5046 147.967C57.5302 147.031 70.223 141.824 82.3136 143.245C88.9849 144.029 91.0253 151.251 94.4692 156.016C98.368 161.405 103.675 165.637 109.545 168.453C120.353 173.643 133.327 174.132 144.374 169.428C156.17 164.403 166.45 152.139 165.774 138.263C165.462 131.843 162.893 125.471 164.08 119.163C165.575 111.249 171.536 104.036 175.859 97.5901C180.633 90.4683 183.522 81.9775 184.085 73.3135C184.09 73.2139 184.098 73.1186 184.103 73.0189C184.991 58.0735 175.56 44.4407 161.338 39.7621L131.075 29.8072C100.374 19.705 69.6902 20.0429 41.4585 34.8626C35.3504 38.0683 25.3997 47.6247 23.3507 54.2137C22.9608 55.457 22.7399 56.7133 22.6273 57.9782Z" fill="white" fill-opacity="0.85"/>
</g>
<path opacity="0.58" d="M194.383 157.493C195.459 157.493 196.332 156.62 196.332 155.544C196.332 154.467 195.459 153.594 194.383 153.594C193.306 153.594 192.433 154.467 192.433 155.544C192.433 156.62 193.306 157.493 194.383 157.493Z" fill="#0E9549"/>
<path opacity="0.58" d="M104.329 5.56097C105.406 5.56097 106.278 4.6882 106.278 3.61157C106.278 2.53495 105.406 1.66217 104.329 1.66217C103.252 1.66217 102.38 2.53495 102.38 3.61157C102.38 4.6882 103.252 5.56097 104.329 5.56097Z" fill="#0E9549"/>
<path opacity="0.58" d="M33.9079 175.471C34.9845 175.471 35.8573 174.598 35.8573 173.521C35.8573 172.445 34.9845 171.572 33.9079 171.572C32.8313 171.572 31.9585 172.445 31.9585 173.521C31.9585 174.598 32.8313 175.471 33.9079 175.471Z" fill="#0E9549"/>
<path opacity="0.58" d="M156.95 183.234C157.787 183.234 158.466 182.555 158.466 181.718C158.466 180.88 157.787 180.201 156.95 180.201C156.112 180.201 155.434 180.88 155.434 181.718C155.434 182.555 156.112 183.234 156.95 183.234Z" fill="#EF929C"/>
<path opacity="0.58" d="M25.3002 37.4619C25.6591 37.4619 25.95 37.171 25.95 36.8121C25.95 36.4532 25.6591 36.1623 25.3002 36.1623C24.9413 36.1623 24.6504 36.4532 24.6504 36.8121C24.6504 37.171 24.9413 37.4619 25.3002 37.4619Z" fill="#0E9549"/>
<path opacity="0.58" d="M163.716 17.4307C163.448 18.6956 162.205 19.5014 160.94 19.2328C159.675 18.9642 158.869 17.7209 159.137 16.456C159.406 15.191 160.649 14.3853 161.914 14.6539C163.184 14.9224 163.989 16.1657 163.716 17.4307Z" fill="#EF929C"/>
<path opacity="0.58" d="M38.6125 6.66998C38.5085 7.16382 38.019 7.48006 37.5208 7.37609C37.027 7.27212 36.7107 6.78261 36.8147 6.28443C36.9187 5.79058 37.4082 5.47434 37.9064 5.57831C38.4045 5.68661 38.7208 6.17613 38.6125 6.66998Z" fill="#EF929C"/>
<path opacity="0.58" d="M184.93 2.8145C184.839 3.23471 184.428 3.50329 184.003 3.41665C183.579 3.33001 183.314 2.91414 183.401 2.4896C183.492 2.0694 183.903 1.80081 184.328 1.88745C184.753 1.97843 185.021 2.3943 184.93 2.8145Z" fill="#0E9549"/>
<path opacity="0.58" d="M19.8592 188.926C19.7682 189.346 19.3567 189.615 18.9322 189.528C18.5076 189.442 18.2434 189.026 18.33 188.601C18.421 188.181 18.8325 187.912 19.2571 187.999C19.6816 188.09 19.9502 188.506 19.8592 188.926Z" fill="#0E9549"/>
<g opacity="0.66">
<g opacity="0.66">
<g opacity="0.66">
<g opacity="0.66">
<path opacity="0.66" d="M76.0149 72.4428L72.5666 72.1786C72.3023 69.5837 71.4793 67.1361 70.2057 64.9701L72.8308 62.7175C74.1608 61.5781 74.3124 59.5768 73.1731 58.2468C72.0338 56.9169 70.0324 56.7653 68.7024 57.9046L66.0773 60.1572C64.1322 58.5717 61.8362 57.3848 59.3107 56.7306L59.5749 53.2824C59.7092 51.5366 58.4009 50.0117 56.6551 49.8774C54.9093 49.7431 53.3845 51.0514 53.2502 52.7972L52.9859 56.2454C50.3911 56.5097 47.9435 57.3328 45.7775 58.6064L43.5248 55.9812C42.3855 54.6513 40.3841 54.4997 39.0542 55.639C37.7243 56.7783 37.5727 58.7797 38.712 60.1096L40.9646 62.7348C39.3791 64.6799 38.1921 66.9758 37.538 69.5014L34.0897 69.2371C32.3439 69.1028 30.8191 70.4111 30.6848 72.1569C30.5505 73.9027 31.8587 75.4276 33.6045 75.5619L37.0528 75.8261C37.3171 78.421 38.1402 80.8686 39.4138 83.0346L36.7886 85.2872C35.4586 86.4265 35.307 88.4279 36.4463 89.7578C37.5857 91.0878 39.587 91.2394 40.917 90.1001L43.5422 87.8474C45.4872 89.4329 47.7832 90.6199 50.3088 91.274L50.0445 94.7223C49.9102 96.4681 51.2185 97.993 52.9643 98.1273C54.7101 98.2616 56.2349 96.9533 56.3692 95.2075L56.6335 91.7592C59.2284 91.495 61.6759 90.6719 63.8419 89.3983L66.0946 92.0235C67.2339 93.3534 69.2353 93.505 70.5652 92.3657C71.8951 91.2264 72.0467 89.225 70.9074 87.8951L68.6548 85.2699C70.2403 83.3248 71.4273 81.0288 72.0814 78.5033L75.5297 78.7675C77.2755 78.9018 78.8003 77.5936 78.9346 75.8478C79.0689 74.102 77.7607 72.5771 76.0149 72.4428ZM53.8307 86.8857C46.7175 86.3442 41.3892 80.1365 41.935 73.019C42.4765 65.9058 48.6843 60.5774 55.8017 61.1233C62.9149 61.6648 68.2433 67.8725 67.6974 74.99C67.1516 82.1075 60.9438 87.4315 53.8307 86.8857Z" fill="white"/>
</g>
</g>
<g opacity="0.66">
<g opacity="0.66">
<path opacity="0.66" d="M149.676 169.662C149.26 169.662 148.845 169.562 148.463 169.363C147.835 169.038 147.376 168.488 147.164 167.816L146.544 165.862C144.941 166.027 143.352 165.888 141.805 165.455L140.861 167.275C140.189 168.566 138.591 169.073 137.3 168.401C136.672 168.076 136.212 167.526 136 166.855C135.788 166.183 135.849 165.468 136.173 164.84L137.118 163.021C135.87 162.007 134.844 160.781 134.055 159.382L132.101 160.001C130.711 160.443 129.225 159.668 128.783 158.281C128.571 157.61 128.631 156.895 128.956 156.267C129.281 155.639 129.831 155.18 130.503 154.967L132.457 154.348C132.292 152.75 132.431 151.155 132.864 149.609L131.044 148.664C130.416 148.34 129.957 147.789 129.745 147.118C129.532 146.446 129.593 145.732 129.918 145.104C130.243 144.475 130.793 144.016 131.465 143.804C132.136 143.592 132.851 143.652 133.479 143.977L135.298 144.922C136.312 143.674 137.538 142.647 138.937 141.859L138.318 139.905C137.88 138.515 138.651 137.029 140.038 136.587C140.709 136.375 141.424 136.435 142.052 136.76C142.68 137.085 143.139 137.635 143.352 138.307L143.971 140.26C145.574 140.096 147.164 140.234 148.71 140.668L149.655 138.848C150.326 137.557 151.925 137.05 153.216 137.722C154.506 138.393 155.013 139.992 154.342 141.283L153.397 143.102C154.645 144.116 155.672 145.342 156.46 146.741L158.414 146.122C159.085 145.909 159.8 145.97 160.428 146.295C161.056 146.62 161.516 147.17 161.728 147.841C162.165 149.232 161.394 150.718 160.008 151.16L158.054 151.779C158.219 153.378 158.08 154.972 157.647 156.518L159.467 157.463C160.758 158.134 161.264 159.733 160.593 161.024C160.268 161.652 159.718 162.111 159.046 162.323C158.375 162.536 157.66 162.475 157.032 162.15L155.213 161.206C154.195 162.453 152.973 163.48 151.574 164.268L152.193 166.222C152.405 166.894 152.345 167.613 152.02 168.236C151.695 168.865 151.145 169.324 150.473 169.536C150.213 169.618 149.945 169.662 149.676 169.662ZM147.151 164.909L147.987 167.552C148.13 168.002 148.442 168.375 148.862 168.592C149.282 168.808 149.763 168.852 150.218 168.709C150.668 168.566 151.041 168.254 151.257 167.834C151.474 167.413 151.517 166.932 151.374 166.478L150.538 163.835L150.859 163.666C152.392 162.86 153.705 161.756 154.762 160.382L154.983 160.097L157.444 161.375C157.864 161.591 158.345 161.634 158.799 161.491C159.25 161.349 159.623 161.037 159.839 160.616C160.29 159.75 159.952 158.676 159.081 158.221L156.62 156.943L156.729 156.596C157.244 154.942 157.392 153.235 157.166 151.515L157.119 151.155L159.761 150.319C160.693 150.025 161.212 149.024 160.918 148.088C160.775 147.638 160.463 147.265 160.043 147.049C159.623 146.832 159.142 146.789 158.687 146.932L156.044 147.768L155.875 147.447C155.07 145.914 153.965 144.601 152.592 143.544L152.306 143.323L153.584 140.862C154.034 139.992 153.696 138.917 152.826 138.467C151.955 138.016 150.881 138.354 150.43 139.225L149.152 141.686L148.806 141.577C147.151 141.062 145.444 140.919 143.724 141.14L143.365 141.187L142.528 138.545C142.386 138.094 142.074 137.722 141.653 137.505C141.233 137.289 140.752 137.245 140.297 137.388C139.366 137.683 138.846 138.683 139.141 139.619L139.977 142.262L139.656 142.431C138.123 143.236 136.81 144.341 135.753 145.714L135.532 146L133.072 144.722C132.652 144.506 132.171 144.462 131.716 144.605C131.265 144.748 130.893 145.06 130.676 145.48C130.46 145.901 130.416 146.381 130.559 146.836C130.702 147.287 131.014 147.659 131.434 147.876L133.895 149.154L133.786 149.501C133.271 151.155 133.124 152.862 133.349 154.582L133.397 154.942L130.754 155.778C130.304 155.921 129.931 156.232 129.714 156.653C129.498 157.073 129.454 157.554 129.597 158.009C129.892 158.94 130.893 159.46 131.828 159.165L134.471 158.329L134.64 158.65C135.446 160.183 136.55 161.496 137.924 162.553L138.209 162.774L136.932 165.234C136.715 165.655 136.672 166.135 136.815 166.59C136.958 167.041 137.269 167.413 137.69 167.63C138.56 168.08 139.635 167.738 140.085 166.872L141.363 164.411L141.71 164.52C143.365 165.035 145.071 165.178 146.787 164.957L147.151 164.909ZM145.245 162.492C143.754 162.492 142.273 162.133 140.908 161.427C138.673 160.266 137.023 158.303 136.26 155.903C135.498 153.503 135.719 150.947 136.88 148.712C138.041 146.477 140.003 144.826 142.403 144.064C144.807 143.301 147.359 143.522 149.594 144.683C151.829 145.844 153.48 147.807 154.242 150.207C155.005 152.607 154.784 155.162 153.623 157.398C152.462 159.633 150.499 161.284 148.099 162.046C147.168 162.345 146.202 162.492 145.245 162.492ZM145.266 144.484C144.396 144.484 143.525 144.618 142.671 144.887C140.488 145.576 138.708 147.075 137.655 149.106C136.602 151.138 136.399 153.456 137.092 155.639C137.781 157.822 139.279 159.603 141.311 160.655C143.343 161.708 145.665 161.907 147.844 161.219C150.027 160.53 151.808 159.031 152.86 156.999C153.913 154.967 154.117 152.65 153.423 150.467C152.735 148.283 151.236 146.503 149.204 145.45C147.965 144.809 146.622 144.484 145.266 144.484Z" fill="white"/>
</g>
</g>
<g opacity="0.66">
<g opacity="0.66">
<path opacity="0.66" d="M172.424 153.49C172.263 153.49 172.099 153.477 171.934 153.456C170.076 153.187 168.785 151.454 169.058 149.6L169.474 146.75C167.377 146 165.479 144.874 163.825 143.388L161.516 145.108C160.788 145.649 159.891 145.879 158.99 145.749C158.089 145.619 157.296 145.147 156.75 144.419C155.629 142.916 155.94 140.78 157.444 139.658L159.753 137.938C158.8 135.928 158.258 133.788 158.137 131.566L155.286 131.15C153.428 130.882 152.137 129.149 152.41 127.295C152.54 126.394 153.012 125.601 153.74 125.055C154.468 124.514 155.364 124.284 156.265 124.414L159.116 124.83C159.865 122.733 160.992 120.836 162.477 119.181L160.758 116.876C160.216 116.148 159.986 115.252 160.116 114.351C160.246 113.45 160.719 112.657 161.451 112.111C162.178 111.57 163.075 111.34 163.976 111.47C164.877 111.6 165.67 112.072 166.216 112.804L167.936 115.109C169.946 114.156 172.086 113.614 174.308 113.493L174.724 110.642C174.993 108.784 176.73 107.493 178.579 107.766C179.481 107.896 180.273 108.368 180.819 109.096C181.361 109.824 181.59 110.72 181.46 111.622L181.044 114.472C183.141 115.221 185.038 116.348 186.693 117.834L189.002 116.114C190.505 114.992 192.641 115.299 193.763 116.807C194.885 118.31 194.573 120.446 193.07 121.568L190.765 123.288C191.718 125.298 192.26 127.438 192.381 129.66L195.232 130.076C197.09 130.344 198.377 132.077 198.108 133.931C197.84 135.79 196.102 137.081 194.253 136.808L191.402 136.396C190.653 138.493 189.522 140.39 188.041 142.045L189.76 144.354C190.882 145.857 190.57 147.993 189.067 149.115C188.339 149.657 187.443 149.886 186.542 149.756C185.641 149.626 184.848 149.154 184.302 148.422L182.582 146.117C180.572 147.07 178.432 147.612 176.21 147.733L175.794 150.584C175.543 152.269 174.083 153.49 172.424 153.49ZM163.877 142.262L164.141 142.509C165.856 144.112 167.853 145.303 170.084 146.048L170.427 146.161L169.911 149.721C169.712 151.103 170.674 152.394 172.055 152.594C173.437 152.793 174.728 151.831 174.928 150.449L175.443 146.888L175.807 146.875C178.155 146.797 180.412 146.226 182.509 145.173L182.833 145.013L184.986 147.898C185.389 148.439 185.983 148.794 186.654 148.89C187.326 148.989 187.993 148.816 188.534 148.413C189.656 147.577 189.886 145.983 189.05 144.865L186.897 141.98L187.144 141.716C188.747 140.005 189.938 138.003 190.683 135.772L190.796 135.43L194.357 135.946C195.743 136.145 197.029 135.183 197.229 133.801C197.428 132.419 196.466 131.129 195.084 130.929L191.523 130.414L191.51 130.05C191.433 127.702 190.861 125.445 189.808 123.348L189.648 123.023L192.533 120.87C193.655 120.034 193.884 118.444 193.048 117.322C192.645 116.781 192.052 116.426 191.381 116.33C190.709 116.231 190.042 116.404 189.5 116.807L186.615 118.96L186.351 118.713C184.636 117.11 182.639 115.919 180.408 115.174L180.065 115.061L180.581 111.5C180.676 110.829 180.507 110.162 180.104 109.62C179.697 109.079 179.108 108.723 178.437 108.628C177.05 108.424 175.764 109.391 175.564 110.772L175.049 114.333L174.685 114.346C172.337 114.424 170.08 114.996 167.983 116.049L167.658 116.209L165.505 113.324C165.103 112.782 164.509 112.427 163.838 112.332C163.166 112.237 162.499 112.406 161.958 112.808C161.416 113.211 161.061 113.805 160.966 114.476C160.87 115.148 161.039 115.815 161.442 116.356L163.595 119.242L163.348 119.506C161.745 121.221 160.554 123.218 159.809 125.449L159.696 125.791L156.135 125.276C155.464 125.181 154.797 125.35 154.255 125.753C153.714 126.155 153.359 126.749 153.263 127.42C153.064 128.802 154.026 130.093 155.408 130.292L158.968 130.808L158.981 131.172C159.059 133.52 159.631 135.777 160.684 137.873L160.844 138.198L157.959 140.351C157.418 140.754 157.062 141.348 156.967 142.019C156.872 142.691 157.041 143.358 157.444 143.899C157.846 144.441 158.44 144.796 159.111 144.891C159.783 144.987 160.45 144.818 160.992 144.415L163.877 142.262ZM175.265 143.133C171.445 143.133 167.667 141.395 165.211 138.103C161.078 132.567 162.222 124.7 167.758 120.567C170.44 118.566 173.741 117.73 177.05 118.21C180.364 118.691 183.288 120.433 185.29 123.114C187.291 125.796 188.127 129.097 187.646 132.406C187.165 135.72 185.424 138.645 182.743 140.646C180.499 142.322 177.873 143.133 175.265 143.133ZM175.226 118.943C172.731 118.943 170.314 119.74 168.278 121.26C163.123 125.107 162.062 132.428 165.908 137.583C169.755 142.738 177.076 143.8 182.231 139.953C184.727 138.09 186.347 135.365 186.797 132.285C187.243 129.201 186.464 126.129 184.601 123.634C182.738 121.139 180.013 119.514 176.933 119.068C176.357 118.986 175.79 118.943 175.226 118.943Z" fill="white"/>
</g>
</g>
</g>
</g>
<g opacity="0.81">
<path opacity="0.81" d="M116.411 155.232H107.513C107.275 155.232 107.08 155.037 107.08 154.799C107.08 154.56 107.275 154.365 107.513 154.365H116.411C116.649 154.365 116.844 154.56 116.844 154.799C116.844 155.041 116.649 155.232 116.411 155.232Z" fill="white"/>
<path opacity="0.81" d="M116.411 164.485H107.513C107.275 164.485 107.08 164.29 107.08 164.052C107.08 163.813 107.275 163.619 107.513 163.619H116.411C116.649 163.619 116.844 163.813 116.844 164.052C116.844 164.29 116.649 164.485 116.411 164.485Z" fill="white"/>
<g opacity="0.81">
<g opacity="0.81">
<g opacity="0.81">
<path opacity="0.81" d="M123.13 173.825H68.1697C67.5199 173.825 66.9957 173.296 66.9957 172.651V144.125C66.9957 143.475 67.5242 142.951 68.1697 142.951H123.13C123.78 142.951 124.304 143.479 124.304 144.125V172.651C124.304 173.301 123.775 173.825 123.13 173.825ZM68.1697 143.817C68.0008 143.817 67.8621 143.956 67.8621 144.125V172.651C67.8621 172.82 68.0008 172.958 68.1697 172.958H123.13C123.299 172.958 123.437 172.82 123.437 172.651V144.125C123.437 143.956 123.299 143.817 123.13 143.817H68.1697Z" fill="white"/>
<path opacity="0.66" d="M123.13 173.825H68.1697C67.5199 173.825 66.9957 173.296 66.9957 172.651V144.125C66.9957 143.475 67.5242 142.951 68.1697 142.951H123.13C123.78 142.951 124.304 143.479 124.304 144.125V172.651C124.304 173.301 123.775 173.825 123.13 173.825ZM68.1697 143.817C68.0008 143.817 67.8621 143.956 67.8621 144.125V172.651C67.8621 172.82 68.0008 172.958 68.1697 172.958H123.13C123.299 172.958 123.437 172.82 123.437 172.651V144.125C123.437 143.956 123.299 143.817 123.13 143.817H68.1697Z" fill="white"/>
</g>
</g>
<path opacity="0.81" d="M116.411 150.744H74.0049C73.7666 150.744 73.5717 150.549 73.5717 150.311C73.5717 150.072 73.7666 149.877 74.0049 149.877H116.411C116.649 149.877 116.844 150.072 116.844 150.311C116.844 150.549 116.649 150.744 116.411 150.744Z" fill="white"/>
<path opacity="0.81" d="M116.411 159.724H74.0049C73.7666 159.724 73.5717 159.529 73.5717 159.291C73.5717 159.053 73.7666 158.858 74.0049 158.858H116.411C116.649 158.858 116.844 159.053 116.844 159.291C116.844 159.529 116.649 159.724 116.411 159.724Z" fill="white"/>
<path opacity="0.81" d="M96.8692 155.232H74.0049C73.7666 155.232 73.5717 155.037 73.5717 154.799C73.5717 154.56 73.7666 154.365 74.0049 154.365H96.8692C97.1074 154.365 97.3024 154.56 97.3024 154.799C97.3024 155.041 97.1074 155.232 96.8692 155.232Z" fill="white"/>
<path opacity="0.81" d="M96.8692 164.485H74.0049C73.7666 164.485 73.5717 164.29 73.5717 164.052C73.5717 163.813 73.7666 163.619 74.0049 163.619H96.8692C97.1074 163.619 97.3024 163.813 97.3024 164.052C97.3024 164.29 97.1074 164.485 96.8692 164.485Z" fill="white"/>
<path opacity="0.81" d="M89.4225 168.769H74.0049C73.7666 168.769 73.5717 168.574 73.5717 168.336C73.5717 168.098 73.7666 167.903 74.0049 167.903H89.4225C89.6607 167.903 89.8557 168.098 89.8557 168.336C89.8557 168.574 89.6651 168.769 89.4225 168.769Z" fill="white"/>
</g>
</g>
<g opacity="0.81">
<path opacity="0.81" d="M31.2697 127.498H21.2671C21.0288 127.498 20.8339 127.303 20.8339 127.065C20.8339 126.827 21.0288 126.632 21.2671 126.632H31.2697C31.5079 126.632 31.7029 126.827 31.7029 127.065C31.7029 127.303 31.5079 127.498 31.2697 127.498Z" fill="white"/>
<path opacity="0.81" d="M31.2697 117.101H21.2671C21.0288 117.101 20.8339 116.907 20.8339 116.668C20.8339 116.43 21.0288 116.235 21.2671 116.235H31.2697C31.5079 116.235 31.7029 116.43 31.7029 116.668C31.7029 116.907 31.5079 117.101 31.2697 117.101Z" fill="white"/>
<g opacity="0.81">
<g opacity="0.81">
<g opacity="0.81">
<path opacity="0.81" d="M75.5817 140.33H13.6254C12.9756 140.33 12.4514 139.801 12.4514 139.156V106.913C12.4514 106.263 12.9799 105.739 13.6254 105.739H75.5817C76.2315 105.739 76.7557 106.267 76.7557 106.913V139.156C76.7557 139.801 76.2272 140.33 75.5817 140.33ZM13.6254 106.601C13.4564 106.601 13.3178 106.739 13.3178 106.908V139.151C13.3178 139.32 13.4564 139.459 13.6254 139.459H75.5817C75.7507 139.459 75.8893 139.32 75.8893 139.151V106.908C75.8893 106.739 75.7507 106.601 75.5817 106.601H13.6254Z" fill="white"/>
<path opacity="0.66" d="M75.5817 140.33H13.6254C12.9756 140.33 12.4514 139.801 12.4514 139.156V106.913C12.4514 106.263 12.9799 105.739 13.6254 105.739H75.5817C76.2315 105.739 76.7557 106.267 76.7557 106.913V139.156C76.7557 139.801 76.2272 140.33 75.5817 140.33ZM13.6254 106.601C13.4564 106.601 13.3178 106.739 13.3178 106.908V139.151C13.3178 139.32 13.4564 139.459 13.6254 139.459H75.5817C75.7507 139.459 75.8893 139.32 75.8893 139.151V106.908C75.8893 106.739 75.7507 106.601 75.5817 106.601H13.6254Z" fill="white"/>
</g>
</g>
<path opacity="0.81" d="M68.9278 132.541H21.2671C21.0288 132.541 20.8339 132.346 20.8339 132.108C20.8339 131.869 21.0288 131.674 21.2671 131.674H68.9278C69.166 131.674 69.361 131.869 69.361 132.108C69.361 132.35 69.166 132.541 68.9278 132.541Z" fill="white"/>
<path opacity="0.81" d="M68.9278 122.451H21.2671C21.0288 122.451 20.8339 122.257 20.8339 122.018C20.8339 121.78 21.0288 121.585 21.2671 121.585H68.9278C69.166 121.585 69.361 121.78 69.361 122.018C69.361 122.257 69.166 122.451 68.9278 122.451Z" fill="white"/>
<path opacity="0.81" d="M68.9278 127.498H43.2303C42.9921 127.498 42.7971 127.303 42.7971 127.065C42.7971 126.827 42.9921 126.632 43.2303 126.632H68.9278C69.166 126.632 69.361 126.827 69.361 127.065C69.361 127.303 69.166 127.498 68.9278 127.498Z" fill="white"/>
<path opacity="0.81" d="M68.9278 117.101H43.2303C42.9921 117.101 42.7971 116.907 42.7971 116.668C42.7971 116.43 42.9921 116.235 43.2303 116.235H68.9278C69.166 116.235 69.361 116.43 69.361 116.668C69.361 116.907 69.166 117.101 68.9278 117.101Z" fill="white"/>
<path opacity="0.81" d="M68.9277 112.284H51.5997C51.3614 112.284 51.1665 112.089 51.1665 111.851C51.1665 111.613 51.3614 111.418 51.5997 111.418H68.9277C69.166 111.418 69.3609 111.613 69.3609 111.851C69.3609 112.089 69.166 112.284 68.9277 112.284Z" fill="white"/>
</g>
</g>
<path opacity="0.14" d="M147.744 157.835L100.343 129.734C99.9623 129.508 99.8366 129.014 100.062 128.633L138.327 64.095C138.552 63.7138 139.046 63.5882 139.427 63.8134L186.823 91.9152C187.205 92.1404 187.33 92.6343 187.105 93.0155L148.84 157.554C148.615 157.935 148.125 158.061 147.744 157.835Z" fill="#115C26"/>
<path d="M146.51 155.249L99.1089 127.147C98.7277 126.922 98.602 126.428 98.8273 126.047L137.092 61.5088C137.317 61.1276 137.811 61.002 138.192 61.2273L185.593 89.329C185.974 89.5542 186.1 90.0481 185.875 90.4293L147.61 154.968C147.385 155.349 146.891 155.474 146.51 155.249Z" fill="#F7A9B4"/>
<path opacity="0.14" d="M160.125 154.456L105.932 144.467C105.494 144.384 105.208 143.969 105.286 143.531L118.889 69.744C118.971 69.3064 119.387 69.0205 119.824 69.0985L174.018 79.0881C174.455 79.1704 174.741 79.5863 174.663 80.0238L161.061 153.811C160.978 154.248 160.563 154.539 160.125 154.456Z" fill="#115C26"/>
<path d="M117.88 66.8935L103.986 142.255L159.755 152.536L173.648 77.1751L117.88 66.8935Z" fill="white"/>
<path opacity="0.39" d="M158.968 152.381L104.775 142.392C104.338 142.309 104.052 141.894 104.134 141.456L117.736 67.669C117.819 67.2314 118.235 66.9455 118.672 67.0235L172.866 77.0131C173.303 77.0954 173.589 77.5113 173.507 77.9488L159.904 151.736C159.822 152.173 159.406 152.464 158.968 152.381Z" fill="#F7A9B4"/>
<path d="M165.211 86.041C165.185 86.041 165.159 86.0366 165.133 86.0323L151.569 83.5328C151.335 83.4894 151.179 83.2642 151.223 83.0302C151.266 82.7963 151.491 82.6404 151.73 82.6837L165.293 85.1832C165.527 85.2266 165.683 85.4518 165.64 85.6858C165.596 85.8937 165.414 86.041 165.211 86.041Z" fill="white"/>
<path d="M164.409 90.373C164.383 90.373 164.357 90.3687 164.331 90.3643L150.768 87.8648C150.534 87.8215 150.378 87.5962 150.421 87.3623C150.465 87.1283 150.69 86.9724 150.928 87.0157L164.492 89.5153C164.726 89.5586 164.882 89.7839 164.838 90.0178C164.799 90.2301 164.617 90.373 164.409 90.373Z" fill="white"/>
<path d="M163.543 95.0862C163.517 95.0862 163.491 95.0819 163.465 95.0775L149.902 92.578C149.668 92.5347 149.512 92.3094 149.555 92.0755C149.598 91.8415 149.819 91.6856 150.062 91.7289L163.625 94.2285C163.859 94.2718 164.015 94.4971 163.972 94.731C163.929 94.9389 163.747 95.0862 163.543 95.0862Z" fill="white"/>
<path opacity="0.14" d="M142.555 99.089L119.313 94.8046C118.841 94.718 118.529 94.2631 118.616 93.7953L123.225 68.7996C123.312 68.3274 123.767 68.0155 124.234 68.1022L147.476 72.3865C147.948 72.4731 148.26 72.928 148.173 73.3959L143.564 98.3915C143.477 98.8637 143.027 99.1756 142.555 99.089Z" fill="#115C26"/>
<path d="M141.701 97.6377L119.543 93.5526C119.071 93.466 118.759 93.0111 118.845 92.5433L123.208 68.8776C123.294 68.4054 123.749 68.0935 124.217 68.1801L146.375 72.2652C146.847 72.3518 147.159 72.8067 147.073 73.2745L142.71 96.9403C142.624 97.4125 142.173 97.7244 141.701 97.6377Z" fill="#20A459"/>
<g opacity="0.07">
<path d="M146.661 75.5099L122.796 71.1129L123.212 68.8559C123.294 68.3967 123.736 68.0935 124.196 68.1801L146.432 72.2782C146.874 72.3605 147.164 72.785 147.081 73.2226L146.661 75.5099Z" fill="#0E9549"/>
<path d="M146.661 75.5099L122.796 71.1129L123.212 68.8559C123.294 68.3967 123.736 68.0935 124.196 68.1801L146.432 72.2782C146.874 72.3605 147.164 72.785 147.081 73.2226L146.661 75.5099Z" fill="white" fill-opacity="0.85"/>
</g>
<path d="M129.476 82.883C129.307 82.883 129.138 82.8656 128.965 82.8353L128.636 82.7747C126.881 82.4498 125.716 80.7603 126.041 79.0058L126.873 74.4832C126.938 74.128 127.28 73.8984 127.631 73.9634C127.986 74.0284 128.216 74.3662 128.151 74.7215L127.319 79.2441C127.124 80.2924 127.821 81.3061 128.874 81.5011L129.203 81.5617C130.018 81.7133 130.806 81.1718 130.958 80.3531L133.067 68.9079C133.223 68.0675 132.665 67.2531 131.82 67.0971L131.257 66.9932C130.36 66.8286 129.502 67.422 129.333 68.3144L129.281 68.596C129.216 68.9512 128.874 69.1808 128.523 69.1159C128.172 69.0509 127.938 68.713 128.003 68.3578L128.055 68.0762C128.35 66.4777 129.892 65.4163 131.491 65.7109L132.054 65.8149C133.6 66.1008 134.627 67.591 134.341 69.1375L132.231 80.5827C131.984 81.9343 130.802 82.883 129.476 82.883Z" fill="#115C26"/>
<path d="M131.729 73.2702C131.716 73.2702 131.703 73.2702 131.69 73.2659L123.03 71.6717C122.913 71.6501 122.835 71.5374 122.857 71.4205C122.879 71.3035 122.991 71.2212 123.108 71.2472L131.768 72.8414C131.885 72.863 131.963 72.9757 131.941 73.0926C131.924 73.1966 131.833 73.2702 131.729 73.2702Z" fill="white"/>
<path d="M158.206 118.037C158.18 118.037 158.154 118.037 158.128 118.028L116.679 110.387C116.446 110.343 116.29 110.118 116.333 109.88C116.376 109.646 116.597 109.49 116.84 109.533L158.288 117.175C158.522 117.218 158.678 117.444 158.635 117.678C158.596 117.89 158.414 118.037 158.206 118.037Z" fill="white"/>
<path d="M155.243 134.113C155.217 134.113 155.191 134.113 155.165 134.105L113.716 126.463C113.482 126.42 113.326 126.194 113.37 125.956C113.413 125.722 113.638 125.562 113.877 125.61L155.325 133.251C155.559 133.295 155.715 133.52 155.672 133.758C155.633 133.966 155.451 134.113 155.243 134.113Z" fill="white"/>
<path d="M134.87 122.044C134.844 122.044 134.818 122.044 134.792 122.036L115.198 118.423C114.964 118.379 114.808 118.154 114.851 117.92C114.895 117.686 115.12 117.526 115.358 117.574L134.952 121.187C135.186 121.23 135.342 121.455 135.298 121.693C135.259 121.901 135.077 122.044 134.87 122.044Z" fill="white"/>
<path d="M137.568 107.398C137.542 107.398 137.516 107.398 137.49 107.389L117.897 103.776C117.663 103.733 117.507 103.508 117.55 103.274C117.594 103.04 117.819 102.884 118.057 102.927L137.651 106.54C137.885 106.583 138.041 106.809 137.997 107.047C137.958 107.25 137.776 107.398 137.568 107.398Z" fill="white"/>
<path d="M156.737 126.012C156.711 126.012 156.685 126.012 156.659 126.004L137.989 122.564C137.755 122.521 137.599 122.296 137.642 122.057C137.685 121.823 137.906 121.667 138.149 121.711L156.82 125.15C157.054 125.194 157.21 125.419 157.166 125.657C157.123 125.865 156.941 126.012 156.737 126.012Z" fill="white"/>
<path d="M152.349 40.8625H129.312C128.514 40.8625 127.869 40.217 127.869 39.4199V31.7133C127.869 30.9162 128.514 30.2708 129.312 30.2708H152.349C153.146 30.2708 153.792 30.9162 153.792 31.7133V39.4199C153.792 40.217 153.146 40.8625 152.349 40.8625Z" fill="#20A459"/>
<path d="M169.703 52.4116H137.477C136.68 52.4116 136.035 51.7662 136.035 50.9691V39.5109C136.035 38.7138 136.68 38.0684 137.477 38.0684H169.703C170.5 38.0684 171.146 38.7138 171.146 39.5109V50.9691C171.146 51.7662 170.5 52.4116 169.703 52.4116Z" fill="#F7A9B4"/>
<path d="M144.617 49.3792H180.304C181.382 49.3792 182.262 50.2629 182.262 51.3373V62.2669C182.262 63.3456 181.378 64.225 180.304 64.225H144.617C143.538 64.225 142.658 63.3413 142.658 62.2669V51.3373C142.654 50.2586 143.538 49.3792 144.617 49.3792Z" fill="white"/>
<path opacity="0.74" d="M144.617 49.3792H180.304C181.382 49.3792 182.262 50.2629 182.262 51.3373V62.2669C182.262 63.3456 181.378 64.225 180.304 64.225H144.617C143.538 64.225 142.658 63.3413 142.658 62.2669V51.3373C142.654 50.2586 143.538 49.3792 144.617 49.3792Z" fill="#0E9549"/>
<path d="M169.69 58.5414C168.741 58.5414 167.97 57.7703 167.97 56.8216C167.97 55.8729 168.741 55.1018 169.69 55.1018C170.639 55.1018 171.41 55.8729 171.41 56.8216C171.41 57.7703 170.639 58.5414 169.69 58.5414ZM169.69 55.535C168.98 55.535 168.404 56.1112 168.404 56.8216C168.404 57.5321 168.98 58.1082 169.69 58.1082C170.401 58.1082 170.977 57.5321 170.977 56.8216C170.977 56.1112 170.401 55.535 169.69 55.535Z" fill="white"/>
<path d="M162.59 58.5414C161.641 58.5414 160.87 57.7703 160.87 56.8216C160.87 55.8729 161.641 55.1018 162.59 55.1018C163.539 55.1018 164.31 55.8729 164.31 56.8216C164.31 57.7703 163.539 58.5414 162.59 58.5414ZM162.59 55.535C161.88 55.535 161.303 56.1112 161.303 56.8216C161.303 57.5321 161.88 58.1082 162.59 58.1082C163.3 58.1082 163.877 57.5321 163.877 56.8216C163.877 56.1112 163.3 55.535 162.59 55.535Z" fill="white"/>
<path d="M155.975 58.5414C155.026 58.5414 154.255 57.7703 154.255 56.8216C154.255 55.8729 155.026 55.1018 155.975 55.1018C156.924 55.1018 157.695 55.8729 157.695 56.8216C157.695 57.7703 156.924 58.5414 155.975 58.5414ZM155.975 55.535C155.265 55.535 154.688 56.1112 154.688 56.8216C154.688 57.5321 155.265 58.1082 155.975 58.1082C156.686 58.1082 157.262 57.5321 157.262 56.8216C157.262 56.1112 156.681 55.535 155.975 55.535Z" fill="white"/>
<path d="M57.8075 31.3104H113.101C114.215 31.3104 115.12 32.2115 115.12 33.3291V114.771C115.12 118.613 112.005 121.728 108.163 121.728H69.7682C61.5807 121.728 54.9441 115.091 54.9441 106.904V34.1695C54.9441 32.5884 56.2264 31.3104 57.8075 31.3104Z" fill="white"/>
<path opacity="0.39" d="M55.6458 31.3104H114.033C114.63 31.3104 115.116 31.7956 115.116 32.3934V115.091C115.116 118.756 112.148 121.724 108.483 121.724H68.4469C60.9872 121.724 54.9397 115.676 54.9397 108.216V32.0122C54.944 31.6223 55.2603 31.3104 55.6458 31.3104Z" fill="#0E9549"/>
<path opacity="0.39" d="M60.7663 31.3104H114.262C114.734 31.3104 115.116 31.6916 115.116 32.1638V115.321C115.116 118.86 112.248 121.728 108.709 121.728H73.5673C66.2332 121.728 60.2854 115.785 60.2854 108.446V31.7869C60.2897 31.5227 60.502 31.3104 60.7663 31.3104Z" fill="#115C26"/>
<path d="M68.6852 121.711V121.728H117.017C122.58 121.728 127.089 117.218 127.089 111.656V107.831H78.2113V111.656C78.2113 117.032 73.9962 121.425 68.6852 121.711Z" fill="#0E4D20"/>
<g opacity="0.28">
<path opacity="0.28" d="M75.0922 121.711V121.728H118.122C123.073 121.728 127.089 117.218 127.089 111.656V107.831H83.5742V111.656C83.5742 117.032 79.8184 121.425 75.0922 121.711Z" fill="#115C26"/>
</g>
<path d="M105.984 97.4039H71.2324C70.9941 97.4039 70.7992 97.2089 70.7992 96.9707C70.7992 96.7324 70.9941 96.5375 71.2324 96.5375H105.984C106.222 96.5375 106.417 96.7324 106.417 96.9707C106.417 97.2133 106.222 97.4039 105.984 97.4039Z" fill="white"/>
<path d="M106.711 82.7747H70.5825C70.3442 82.7747 70.1493 82.5797 70.1493 82.3415C70.1493 82.1032 70.3442 81.9083 70.5825 81.9083H106.711C106.95 81.9083 107.145 82.1032 107.145 82.3415C107.145 82.5797 106.954 82.7747 106.711 82.7747Z" fill="white"/>
<path d="M88.608 90.0828H70.145C69.9067 90.0828 69.7118 89.8878 69.7118 89.6496C69.7118 89.4113 69.9067 89.2164 70.145 89.2164H88.608C88.8463 89.2164 89.0412 89.4113 89.0412 89.6496C89.0412 89.8878 88.8463 90.0828 88.608 90.0828Z" fill="white"/>
<path d="M87.2088 90.0828H71.5443C71.306 90.0828 71.1111 89.8878 71.1111 89.6496C71.1111 89.4113 71.306 89.2164 71.5443 89.2164H87.2088C87.4471 89.2164 87.642 89.4113 87.642 89.6496C87.642 89.8878 87.4471 90.0828 87.2088 90.0828Z" fill="white"/>
<path d="M94.6165 67.1274H70.8338C70.5956 67.1274 70.4006 66.9325 70.4006 66.6942C70.4006 66.456 70.5956 66.261 70.8338 66.261H94.6165C94.8548 66.261 95.0497 66.456 95.0497 66.6942C95.0497 66.9368 94.8591 67.1274 94.6165 67.1274Z" fill="white"/>
<path d="M105.641 67.1274H98.3983C98.16 67.1274 97.9651 66.9325 97.9651 66.6942C97.9651 66.456 98.16 66.261 98.3983 66.261H105.641C105.88 66.261 106.075 66.456 106.075 66.6942C106.075 66.9368 105.884 67.1274 105.641 67.1274Z" fill="white"/>
<path d="M106.711 74.4399H80.9577C80.7195 74.4399 80.5245 74.2449 80.5245 74.0067C80.5245 73.7684 80.7195 73.5735 80.9577 73.5735H106.711C106.95 73.5735 107.145 73.7684 107.145 74.0067C107.145 74.2449 106.954 74.4399 106.711 74.4399Z" fill="white"/>
<path d="M78.4148 74.4399H70.5825C70.3442 74.4399 70.1493 74.2449 70.1493 74.0067C70.1493 73.7684 70.3442 73.5735 70.5825 73.5735H78.4148C78.653 73.5735 78.848 73.7684 78.848 74.0067C78.848 74.2449 78.653 74.4399 78.4148 74.4399Z" fill="white"/>
<path d="M105.984 60.9414H71.2324C70.9941 60.9414 70.7992 60.7464 70.7992 60.5082C70.7992 60.2699 70.9941 60.075 71.2324 60.075H105.984C106.222 60.075 106.417 60.2699 106.417 60.5082C106.417 60.7464 106.222 60.9414 105.984 60.9414Z" fill="white"/>
<path d="M105.984 46.3079H71.2324C70.9941 46.3079 70.7992 46.1129 70.7992 45.8747C70.7992 45.6364 70.9941 45.4415 71.2324 45.4415H105.984C106.222 45.4415 106.417 45.6364 106.417 45.8747C106.417 46.1129 106.222 46.3079 105.984 46.3079Z" fill="white"/>
<path d="M83.9858 53.6159H70.8338C70.5956 53.6159 70.4006 53.421 70.4006 53.1827C70.4006 52.9445 70.5956 52.7495 70.8338 52.7495H83.9858C84.2241 52.7495 84.419 52.9445 84.419 53.1827C84.419 53.4253 84.2284 53.6159 83.9858 53.6159Z" fill="white"/>
<path d="M105.719 53.6159H90.0549C89.8166 53.6159 89.6217 53.421 89.6217 53.1827C89.6217 52.9445 89.8166 52.7495 90.0549 52.7495H105.719C105.958 52.7495 106.153 52.9445 106.153 53.1827C106.153 53.4253 105.958 53.6159 105.719 53.6159Z" fill="white"/>
<path opacity="0.21" d="M152.446 104.236C163.153 93.5293 163.153 76.1699 152.446 65.4629C141.739 54.7559 124.38 54.7559 113.673 65.4629C102.966 76.1699 102.966 93.5293 113.673 104.236C124.38 114.943 141.739 114.943 152.446 104.236Z" fill="white"/>
<path opacity="0.76" d="M111.576 86.8207C110.619 86.8207 109.844 86.0453 109.844 85.0879C109.844 71.2558 121.098 60.0056 134.926 60.0056C135.883 60.0056 136.659 60.781 136.659 61.7384C136.659 62.6958 135.883 63.4712 134.926 63.4712C123.004 63.4712 113.309 73.1706 113.309 85.0879C113.309 86.0453 112.534 86.8207 111.576 86.8207Z" fill="white"/>
<path opacity="0.58" d="M133.063 113.138C117.468 113.138 104.779 100.449 104.779 84.854C104.779 69.2588 117.468 56.5704 133.063 56.5704C148.658 56.5704 161.347 69.2588 161.347 84.854C161.347 100.449 148.658 113.138 133.063 113.138ZM133.063 58.2988C118.421 58.2988 106.512 70.2119 106.512 84.8497C106.512 99.4875 118.425 111.401 133.063 111.401C147.701 111.401 159.614 99.4875 159.614 84.8497C159.614 70.2119 147.701 58.2988 133.063 58.2988Z" fill="#115C26"/>
<path d="M158.262 104.495C158.301 104.456 158.349 104.422 158.392 104.387C162.568 98.9807 165.055 92.2054 165.055 84.8497C165.055 67.1795 150.729 52.8535 133.059 52.8535C115.388 52.8535 101.062 67.1795 101.062 84.8497C101.062 102.52 115.388 116.846 133.059 116.846C140.388 116.846 147.133 114.372 152.527 110.227L156.226 106.527L158.262 104.495ZM133.063 112.271C117.918 112.271 105.646 99.9944 105.646 84.854C105.646 69.7093 117.923 57.4368 133.063 57.4368C148.203 57.4368 160.48 69.7137 160.48 84.854C160.48 99.9944 148.203 112.271 133.063 112.271Z" fill="#115C26"/>
<path d="M133.063 117.279C115.181 117.279 100.634 102.732 100.634 84.8497C100.634 66.9672 115.181 52.4203 133.063 52.4203C150.946 52.4203 165.492 66.9672 165.492 84.8497C165.492 92.0841 163.157 98.933 158.739 104.651L158.657 104.734C158.613 104.764 158.592 104.781 158.574 104.799L152.795 110.569C147.081 114.961 140.259 117.279 133.063 117.279ZM133.063 53.291C115.661 53.291 101.5 67.448 101.5 84.854C101.5 102.26 115.657 116.417 133.063 116.417C140.059 116.417 146.692 114.164 152.245 109.906L157.959 104.192C157.998 104.153 158.041 104.114 158.089 104.084C162.369 98.5258 164.626 91.8762 164.626 84.854C164.626 67.448 150.465 53.291 133.063 53.291ZM133.063 112.704C117.706 112.704 105.213 100.211 105.213 84.854C105.213 69.497 117.706 57.0035 133.063 57.0035C148.42 57.0035 160.914 69.497 160.914 84.854C160.914 100.211 148.42 112.704 133.063 112.704ZM133.063 57.8656C118.183 57.8656 106.079 69.9692 106.079 84.8497C106.079 99.7301 118.183 111.834 133.063 111.834C147.943 111.834 160.047 99.7301 160.047 84.8497C160.047 69.9736 147.939 57.8656 133.063 57.8656Z" fill="#115C26"/>
<path d="M157.47 109.499L156.231 108.26C155.754 107.783 155.754 107.008 156.231 106.531L152.531 110.231L152.47 110.292C151.994 110.768 151.994 111.543 152.47 112.02L153.978 113.528C154.472 112.696 155.923 111.063 157.47 109.499Z" fill="#0E9549"/>
<path d="M156.231 106.527C155.754 107.004 155.754 107.779 156.231 108.256L157.47 109.494C158.968 107.983 160.545 106.536 161.433 105.934L159.991 104.491C159.553 104.053 158.869 104.023 158.392 104.383C158.349 104.417 158.301 104.448 158.262 104.491L156.231 106.527Z" fill="#0E9549"/>
<path opacity="0.43" d="M156.231 106.527C155.754 107.004 155.754 107.779 156.231 108.256L157.47 109.494C158.968 107.983 160.545 106.536 161.433 105.934L159.991 104.491C159.553 104.053 158.869 104.023 158.392 104.383C158.349 104.417 158.301 104.448 158.262 104.491L156.231 106.527Z" fill="#115C26"/>
<path d="M184.649 128.447L162.118 105.669C162.035 105.587 161.789 105.695 161.433 105.938C160.545 106.54 158.968 107.983 157.47 109.499C155.923 111.063 154.472 112.691 153.974 113.528C153.813 113.8 153.748 113.987 153.822 114.056L176.353 136.834C178.644 139.151 182.357 139.151 184.649 136.834C186.94 134.516 186.94 130.765 184.649 128.447Z" fill="#20A459"/>
<path opacity="0.14" d="M184.649 128.447L162.118 105.669C161.815 105.362 159.246 107.662 157.041 109.936C155.165 111.868 182.357 139.147 184.649 136.834C186.94 134.516 186.94 130.765 184.649 128.447Z" fill="#115C26"/>
<path d="M101.448 100.168H27.3838C23.0562 100.168 19.5472 96.6587 19.5472 92.331C19.5472 88.0034 23.0562 84.4944 27.3838 84.4944H101.448C105.776 84.4944 109.285 88.0034 109.285 92.331C109.28 96.663 105.776 100.168 101.448 100.168Z" fill="white"/>
<path d="M101.448 100.168H89.4008L89.3445 84.4988H101.448C105.776 84.4988 109.285 88.0077 109.285 92.3354C109.28 96.663 105.776 100.168 101.448 100.168Z" fill="#20A459"/>
<path d="M98.3984 95.0819C96.5097 95.0819 94.9718 93.544 94.9718 91.6553C94.9718 89.7665 96.5097 88.2286 98.3984 88.2286C100.287 88.2286 101.825 89.7665 101.825 91.6553C101.825 92.5693 101.47 93.4314 100.82 94.0768C100.175 94.7223 99.3125 95.0819 98.3984 95.0819ZM98.3984 89.0907C96.9862 89.0907 95.8382 90.2387 95.8382 91.6509C95.8382 93.0632 96.9862 94.2111 98.3984 94.2111C99.0829 94.2111 99.724 93.9469 100.209 93.4617C100.694 92.9765 100.959 92.3354 100.959 91.6509C100.959 90.243 99.8107 89.0907 98.3984 89.0907Z" fill="white"/>
<path d="M103.22 96.9359C103.107 96.9359 102.999 96.8926 102.912 96.8103L100.192 94.0898C100.023 93.9209 100.023 93.648 100.192 93.479C100.361 93.3101 100.634 93.3101 100.803 93.479L103.523 96.1995C103.692 96.3685 103.692 96.6414 103.523 96.8103C103.441 96.8926 103.333 96.9359 103.22 96.9359Z" fill="white"/>
<path d="M102.505 116.356H65.6398C63.0579 116.356 60.9698 114.264 60.9698 111.686V108.624C60.9698 106.033 58.8688 103.936 56.2826 103.936H39.2535C36.663 103.936 34.5663 106.037 34.5663 108.624V120.727V134.642V157.289C34.5663 159.702 36.52 161.656 38.9329 161.656H102.509C104.922 161.656 106.876 159.702 106.876 157.289V120.727C106.872 118.314 104.914 116.356 102.505 116.356Z" fill="#F28393"/>
<path d="M98.4417 116.356H61.5764C58.9945 116.356 56.9065 114.264 56.9065 111.686V108.624C56.9065 106.033 54.8055 103.936 52.2193 103.936H35.1902C32.5996 103.936 30.5029 106.037 30.5029 108.624V120.727V134.642V157.289C30.5029 159.702 32.4567 161.656 34.8696 161.656H98.4417C100.855 161.656 102.808 159.702 102.808 157.289V120.727C102.808 118.314 100.855 116.356 98.4417 116.356Z" fill="#F28393"/>
<path opacity="0.12" d="M98.4417 116.356H61.5764C58.9945 116.356 56.9065 114.264 56.9065 111.686V108.624C56.9065 106.033 54.8055 103.936 52.2193 103.936H35.1902C32.5996 103.936 30.5029 106.037 30.5029 108.624V120.727V134.642V157.289C30.5029 159.702 32.4567 161.656 34.8696 161.656H98.4417C100.855 161.656 102.808 159.702 102.808 157.289V120.727C102.808 118.314 100.855 116.356 98.4417 116.356Z" fill="white"/>
<path opacity="0.12" d="M89.0933 116.356H57.3007C55.0741 116.356 53.2719 114.264 53.2719 111.686V108.624C53.2719 106.033 51.4612 103.936 49.2302 103.936H34.5447C32.3137 103.936 30.5029 106.037 30.5029 108.624V120.727V134.642V157.289C30.5029 159.702 32.1881 161.656 34.2674 161.656H89.0933C91.1727 161.656 92.8578 159.702 92.8578 157.289V120.727C92.8578 118.314 91.1727 116.356 89.0933 116.356Z" fill="white"/>
<path d="M33.9078 121.221C33.6695 121.221 33.4746 121.026 33.4746 120.788V110.157C33.4746 108.511 34.8132 107.172 36.4594 107.172H49.0048C49.2431 107.172 49.438 107.367 49.438 107.606C49.438 107.844 49.2431 108.039 49.0048 108.039H36.4594C35.2897 108.039 34.341 108.988 34.341 110.157V120.788C34.341 121.031 34.1461 121.221 33.9078 121.221Z" fill="white"/>
</svg>
