<svg width="228" height="141" viewBox="0 0 228 141" fill="none" xmlns="http://www.w3.org/2000/svg">
<path d="M24.3855 35.2305C21.1525 60.6623 34.1982 86.7347 54.809 101.982C75.4198 117.23 102.542 122.248 127.921 118.61C146.038 116.014 164.007 108.911 176.776 95.8008C189.545 82.6907 196.276 62.9933 191.133 45.4297C189.189 38.797 185.372 32.3689 179.315 29.0374C169.643 23.7198 157.704 27.6199 147.41 31.6071C137.116 35.5943 125.196 39.5209 115.501 34.245C108.049 30.1934 104.225 21.8512 98.7671 15.3625C89.485 4.32941 74.404 -1.53015 60.1038 0.345972C58.3148 0.580961 56.5486 0.933443 54.8128 1.39963C39.6029 5.48162 28.1036 17.9777 24.7834 33.3733L24.3855 35.2305Z" fill="#B0C9B7"/>
<path d="M12.4146 45.1889L46.6294 22.3022C48.787 20.859 51.706 21.4381 53.1493 23.5957L89.4765 77.9035C90.9197 80.0611 90.3406 82.9801 88.183 84.4234L53.9682 107.31C51.8106 108.753 48.8916 108.174 47.4484 106.017L11.1212 51.7088C9.67793 49.5512 10.257 46.6322 12.4146 45.1889Z" fill="white" stroke="#E8E8E8" stroke-width="0.6"/>
<path d="M68.9627 79.0048C69.6333 79.1015 70.0945 79.7289 69.9867 80.3977C69.8814 81.051 69.2718 81.4992 68.6168 81.4048L50.4696 78.7891C49.7991 78.6924 49.3378 78.065 49.4456 77.3962C49.5509 76.7429 50.1606 76.2947 50.8155 76.3891L68.9627 79.0048Z" fill="#D1CCCC" stroke="#E8E8E8" stroke-width="0.6"/>
<path d="M59.9367 69.807C60.0439 69.1439 60.6628 68.689 61.3277 68.7846C62.0092 68.8826 62.4781 69.5203 62.3683 70.2L59.4954 87.9877C59.3881 88.6525 58.7674 89.1082 58.101 89.0117C57.4189 88.913 56.9501 88.2745 57.0602 87.5941L59.9367 69.807Z" fill="#D1CCCC" stroke="#E8E8E8" stroke-width="0.6"/>
<mask id="path-5-inside-1_1426_29277" fill="white">
<path d="M40.4078 41.8183C40.4382 41.8637 36.178 44.767 30.8908 48.3032C25.6035 51.8394 21.2942 54.6706 21.2638 54.6252C21.2335 54.5797 25.4936 51.6764 30.7809 48.1402C36.0681 44.6002 40.3775 41.7728 40.4078 41.8183Z"/>
</mask>
<path d="M40.4078 41.8183C40.4382 41.8637 36.178 44.767 30.8908 48.3032C25.6035 51.8394 21.2942 54.6706 21.2638 54.6252C21.2335 54.5797 25.4936 51.6764 30.7809 48.1402C36.0681 44.6002 40.3775 41.7728 40.4078 41.8183Z" fill="#D1CCCC"/>
<path d="M30.7809 48.1402L31.1144 48.639L31.1147 48.6388L30.7809 48.1402ZM39.9086 42.1511C39.7351 41.8908 39.8345 41.6369 39.8518 41.5943C39.8814 41.5213 39.9186 41.4723 39.93 41.4573C39.9581 41.4207 39.9834 41.3973 39.9859 41.3949C39.9974 41.3841 40.0019 41.3811 39.9896 41.3909C39.969 41.4073 39.9306 41.4365 39.8702 41.4807C39.7517 41.5674 39.5714 41.6953 39.3334 41.8616C38.8586 42.1934 38.166 42.6695 37.3055 43.2559C35.5852 44.4282 33.1999 46.037 30.5572 47.8045L31.2244 48.8019C33.869 47.0332 36.2573 45.4223 37.9813 44.2475C38.843 43.6603 39.5402 43.1811 40.0208 42.8453C40.2605 42.6777 40.4494 42.5438 40.5787 42.4492C40.6423 42.4027 40.6974 42.3614 40.7385 42.3285C40.757 42.3138 40.7844 42.2915 40.8105 42.2667C40.8203 42.2574 40.8509 42.2284 40.8822 42.1876C40.8953 42.1706 40.9336 42.1198 40.9638 42.0454C40.9816 42.0014 41.081 41.7464 40.9071 41.4854L39.9086 42.1511ZM30.5572 47.8045C27.9145 49.572 25.5168 51.1628 23.7766 52.3058C22.9062 52.8775 22.2017 53.3361 21.7138 53.6485C21.4692 53.8051 21.2822 53.9229 21.1568 53.9994C21.093 54.0384 21.0513 54.0628 21.0284 54.0755C21.0145 54.0832 21.019 54.0801 21.0334 54.0737C21.0366 54.0722 21.068 54.0578 21.1126 54.0458C21.1308 54.0409 21.1905 54.0252 21.2694 54.0257C21.3159 54.026 21.5892 54.0315 21.7631 54.2923L20.7646 54.958C20.939 55.2195 21.2132 55.2254 21.2612 55.2257C21.3417 55.2262 21.4034 55.2102 21.4242 55.2046C21.4739 55.1912 21.5124 55.174 21.5248 55.1685C21.5576 55.1537 21.5887 55.1369 21.6094 55.1255C21.6554 55.1 21.7147 55.0648 21.7819 55.0238C21.9186 54.9403 22.1145 54.8168 22.3608 54.6591C22.8547 54.3429 23.5637 53.8813 24.4353 53.3088C26.1792 52.1635 28.5798 50.5706 31.2244 48.8019L30.5572 47.8045ZM21.7631 54.2923C21.9366 54.5526 21.8372 54.8065 21.8199 54.8492C21.7903 54.9221 21.7531 54.9711 21.7416 54.9861C21.7136 55.0227 21.6883 55.0461 21.6857 55.0485C21.6743 55.0594 21.6698 55.0623 21.6821 55.0525C21.7026 55.0361 21.7411 55.0069 21.8015 54.9627C21.92 54.8761 22.1002 54.7481 22.3382 54.5818C22.8131 54.25 23.5057 53.7739 24.3661 53.1875C26.0865 52.0153 28.4718 50.4064 31.1144 48.639L30.4473 47.6415C27.8027 49.4102 25.4144 51.0211 23.6904 52.1959C22.8287 52.7831 22.1315 53.2623 21.6509 53.5982C21.4112 53.7657 21.2223 53.8996 21.093 53.9942C21.0294 54.0407 20.9743 54.082 20.9331 54.1149C20.9147 54.1297 20.8873 54.1519 20.8612 54.1767C20.8513 54.186 20.8207 54.215 20.7894 54.2558C20.7764 54.2728 20.7381 54.3236 20.7079 54.398C20.69 54.4421 20.5906 54.697 20.7646 54.958L21.7631 54.2923ZM31.1147 48.6388C33.7573 46.8695 36.1549 45.2787 37.895 44.1363C38.7654 43.5648 39.4698 43.1066 39.9577 42.7945C40.2022 42.6381 40.3893 42.5204 40.5146 42.444C40.5784 42.4051 40.62 42.3807 40.643 42.368C40.6568 42.3604 40.6523 42.3634 40.6379 42.3699C40.6347 42.3713 40.6033 42.3858 40.5587 42.3978C40.5405 42.4026 40.4808 42.4183 40.4019 42.4177C40.3554 42.4174 40.0824 42.4117 39.9086 42.1511L40.9071 41.4854C40.7328 41.2241 40.4588 41.2181 40.4108 41.2177C40.3304 41.2171 40.2687 41.2331 40.2479 41.2387C40.1982 41.252 40.1596 41.2693 40.1472 41.2748C40.1144 41.2895 40.0833 41.3063 40.0626 41.3177C40.0166 41.3432 39.9573 41.3783 39.8901 41.4193C39.7533 41.5027 39.5574 41.626 39.3111 41.7836C38.8172 42.0995 38.1081 42.5608 37.2364 43.1331C35.4925 44.278 33.0918 45.8709 30.4471 47.6416L31.1147 48.6388Z" fill="#E8E8E8" mask="url(#path-5-inside-1_1426_29277)"/>
<mask id="path-7-inside-2_1426_29277" fill="white">
<path d="M56.0505 37.8928C56.0808 37.9383 48.9932 42.7328 40.2228 48.5962C31.4486 54.4633 24.3156 59.1821 24.2853 59.1366C24.2549 59.0911 31.3387 54.3003 40.1129 48.4294C48.8833 42.5661 56.0201 37.8473 56.0505 37.8928Z"/>
</mask>
<path d="M56.0505 37.8928C56.0808 37.9383 48.9932 42.7328 40.2228 48.5962C31.4486 54.4633 24.3156 59.1821 24.2853 59.1366C24.2549 59.0911 31.3387 54.3003 40.1129 48.4294C48.8833 42.5661 56.0201 37.8473 56.0505 37.8928Z" fill="#D1CCCC"/>
<path d="M40.2228 48.5962L39.8893 48.0974L39.8893 48.0974L40.2228 48.5962ZM40.1129 48.4294L39.7794 47.9306L39.7792 47.9307L40.1129 48.4294ZM55.5512 38.2256C55.4054 38.0069 55.4547 37.7902 55.4767 37.7183C55.5017 37.6363 55.5386 37.5797 55.5524 37.5593C55.5836 37.5131 55.614 37.4827 55.62 37.4766C55.6311 37.4654 55.6397 37.4576 55.6431 37.4547C55.6471 37.4511 55.6496 37.449 55.6501 37.4487C55.6507 37.4481 55.6484 37.45 55.6417 37.4552C55.6353 37.4601 55.6267 37.4667 55.6155 37.475C55.5695 37.5093 55.4957 37.5624 55.3927 37.6352C55.188 37.7798 54.8819 37.9919 54.4839 38.2653C53.6884 38.8116 52.5326 39.5974 51.1008 40.5658C48.2375 42.5023 44.2739 45.1661 39.8893 48.0974L40.5563 49.095C44.9421 46.1629 48.9075 43.4978 51.773 41.5598C53.2056 40.5909 54.3642 39.8032 55.1632 39.2545C55.5623 38.9804 55.8736 38.7646 56.0849 38.6154C56.1899 38.5413 56.2738 38.481 56.3326 38.4372C56.3607 38.4163 56.3902 38.3938 56.4152 38.3731C56.4252 38.3648 56.4487 38.3452 56.4734 38.3202C56.4824 38.3111 56.5149 38.2783 56.5473 38.2302C56.5617 38.2088 56.5991 38.1515 56.6243 38.0688C56.6465 37.9963 56.6957 37.7791 56.5497 37.56L55.5512 38.2256ZM39.8893 48.0974C35.5027 51.0306 31.5268 53.6765 28.6441 55.5832C27.2025 56.5366 26.0353 57.3046 25.2269 57.8311C24.8224 58.0946 24.5097 58.2964 24.298 58.4304C24.1915 58.4978 24.1143 58.5457 24.0651 58.5751C24.0531 58.5823 24.0438 58.5877 24.0368 58.5917C24.0294 58.596 24.0268 58.5974 24.0276 58.597C24.028 58.5967 24.031 58.5951 24.0358 58.5928C24.0398 58.5908 24.0503 58.5858 24.0649 58.5798C24.0728 58.5766 24.1127 58.56 24.1674 58.5489C24.1917 58.5439 24.2582 58.5314 24.3439 58.5397C24.4192 58.547 24.6385 58.5848 24.7845 58.8038L23.786 59.4694C23.9322 59.6887 24.152 59.7267 24.228 59.7341C24.3143 59.7425 24.3818 59.7298 24.4071 59.7247C24.464 59.7131 24.5069 59.6955 24.5188 59.6907C24.5513 59.6774 24.5784 59.6632 24.5899 59.657C24.6185 59.6418 24.6506 59.6231 24.6806 59.6052C24.7435 59.5676 24.8313 59.513 24.9398 59.4444C25.1583 59.3061 25.4763 59.1008 25.8819 58.8366C26.6938 58.3078 27.8638 57.538 29.3061 56.5841C32.191 54.6759 36.1687 52.0289 40.5563 49.0949L39.8893 48.0974ZM24.7845 58.8038C24.9302 59.0224 24.8811 59.239 24.8591 59.3109C24.8341 59.393 24.7971 59.4496 24.7833 59.4701C24.7522 59.5163 24.7217 59.5467 24.7157 59.5528C24.7046 59.564 24.696 59.5718 24.6926 59.5747C24.6886 59.5783 24.686 59.5804 24.6856 59.5808C24.6849 59.5813 24.6872 59.5794 24.694 59.5742C24.7003 59.5693 24.709 59.5628 24.7201 59.5544C24.7661 59.5202 24.8398 59.4671 24.9428 59.3944C25.1475 59.2499 25.4534 59.0379 25.8513 58.7646C26.6465 58.2185 27.802 57.4329 29.2336 56.4645C32.0964 54.528 36.06 51.8632 40.4466 48.9281L39.7792 47.9307C35.3916 50.8666 31.4262 53.5326 28.5612 55.4706C27.1289 56.4394 25.9707 57.2269 25.172 57.7754C24.773 58.0494 24.4619 58.265 24.2507 58.4141C24.1458 58.4882 24.0618 58.5485 24.0031 58.5922C23.975 58.6131 23.9455 58.6356 23.9206 58.6563C23.9105 58.6646 23.887 58.6842 23.8623 58.7092C23.8533 58.7182 23.8208 58.7511 23.7884 58.7992C23.7739 58.8206 23.7366 58.878 23.7113 58.9607C23.6892 59.0333 23.64 59.2504 23.786 59.4694L24.7845 58.8038ZM40.4464 48.9282C44.831 45.9969 48.8069 43.352 51.6901 41.4458C53.1319 40.4926 54.2995 39.7247 55.1081 39.1983C55.5128 38.9348 55.8257 38.733 56.0374 38.5991C56.144 38.5316 56.2213 38.4838 56.2705 38.4543C56.2825 38.4472 56.2918 38.4417 56.2988 38.4377C56.3062 38.4335 56.3088 38.4321 56.308 38.4325C56.3075 38.4327 56.3046 38.4343 56.2998 38.4367C56.2958 38.4386 56.2853 38.4437 56.2707 38.4496C56.2628 38.4529 56.2229 38.4694 56.1683 38.4805C56.144 38.4855 56.0775 38.498 55.9919 38.4897C55.9166 38.4824 55.6972 38.4447 55.5512 38.2256L56.5497 37.56C56.4034 37.3406 56.1836 37.3027 56.1077 37.2953C56.0214 37.2869 55.954 37.2995 55.9286 37.3047C55.8717 37.3163 55.8289 37.3339 55.817 37.3387C55.7845 37.352 55.7574 37.3662 55.7459 37.3723C55.7173 37.3875 55.6852 37.4062 55.6552 37.4241C55.5922 37.4617 55.5045 37.5163 55.3959 37.585C55.1773 37.7232 54.8591 37.9285 54.4534 38.1926C53.6412 38.7214 52.4708 39.4911 51.0283 40.4448C48.1429 42.3524 44.1652 44.9986 39.7794 47.9306L40.4464 48.9282Z" fill="#E8E8E8" mask="url(#path-7-inside-2_1426_29277)"/>
<mask id="path-9-inside-3_1426_29277" fill="white">
<path d="M59.1842 42.5775C59.2146 42.623 52.127 47.4176 43.3566 53.2809C34.5824 59.148 27.4494 63.8668 27.419 63.8213C27.3887 63.7758 34.4725 58.9851 43.2467 53.1141C52.0171 47.2546 59.1539 42.5321 59.1842 42.5775Z"/>
</mask>
<path d="M59.1842 42.5775C59.2146 42.623 52.127 47.4176 43.3566 53.2809C34.5824 59.148 27.4494 63.8668 27.419 63.8213C27.3887 63.7758 34.4725 58.9851 43.2467 53.1141C52.0171 47.2546 59.1539 42.5321 59.1842 42.5775Z" fill="#D1CCCC"/>
<path d="M43.3566 53.2809L43.0231 52.7821L43.0231 52.7821L43.3566 53.2809ZM43.2467 53.1141L42.9134 52.6152L42.913 52.6155L43.2467 53.1141ZM58.685 42.9104C58.5392 42.6916 58.5885 42.4749 58.6104 42.403C58.6355 42.321 58.6724 42.2645 58.6862 42.244C58.7174 42.1978 58.7478 42.1674 58.7538 42.1613C58.7649 42.1501 58.7735 42.1423 58.7769 42.1394C58.7809 42.1359 58.7834 42.1337 58.7838 42.1334C58.7845 42.1328 58.7822 42.1347 58.7755 42.14C58.7691 42.1449 58.7605 42.1514 58.7493 42.1597C58.7033 42.194 58.6295 42.2471 58.5265 42.3199C58.3218 42.4645 58.0157 42.6766 57.6176 42.95C56.8222 43.4963 55.6664 44.2822 54.2346 45.2505C51.3713 47.187 47.4077 49.8508 43.0231 52.7821L43.6901 53.7797C48.0759 50.8476 52.0413 48.1825 54.9068 46.2445C56.3394 45.2756 57.498 44.4879 58.297 43.9392C58.6961 43.6651 59.0074 43.4494 59.2187 43.3001C59.3237 43.226 59.4076 43.1657 59.4664 43.1219C59.4945 43.101 59.524 43.0785 59.549 43.0578C59.559 43.0495 59.5825 43.0299 59.6072 43.005C59.6161 42.9959 59.6487 42.963 59.6811 42.9149C59.6955 42.8935 59.7329 42.8362 59.7581 42.7535C59.7803 42.681 59.8295 42.4638 59.6835 42.2447L58.685 42.9104ZM43.0231 52.7821C38.6365 55.7153 34.6606 58.3612 31.7779 60.2679C30.3363 61.2213 29.169 61.9894 28.3607 62.5159C27.9562 62.7793 27.6435 62.9811 27.4318 63.1151C27.3252 63.1826 27.2481 63.2304 27.1989 63.2598C27.1869 63.267 27.1776 63.2724 27.1706 63.2764C27.1632 63.2807 27.1605 63.2821 27.1613 63.2817C27.1618 63.2814 27.1648 63.2798 27.1696 63.2775C27.1736 63.2755 27.1841 63.2705 27.1987 63.2645C27.2066 63.2613 27.2465 63.2447 27.3012 63.2336C27.3254 63.2286 27.392 63.2161 27.4777 63.2244C27.553 63.2317 27.7723 63.2695 27.9183 63.4885L26.9198 64.1541C27.066 64.3734 27.2858 64.4114 27.3618 64.4188C27.4481 64.4272 27.5156 64.4146 27.5409 64.4094C27.5978 64.3978 27.6407 64.3802 27.6526 64.3754C27.6851 64.3621 27.7122 64.3479 27.7237 64.3417C27.7523 64.3266 27.7844 64.3079 27.8144 64.2899C27.8773 64.2523 27.965 64.1978 28.0736 64.1291C28.2921 63.9908 28.6101 63.7855 29.0157 63.5214C29.8275 62.9926 30.9976 62.2227 32.4399 61.2688C35.3248 59.3607 39.3025 56.7136 43.6901 53.7797L43.0231 52.7821ZM27.9183 63.4885C28.064 63.7071 28.0148 63.9237 27.9929 63.9957C27.9679 64.0777 27.9309 64.1343 27.9171 64.1548C27.886 64.201 27.8555 64.2314 27.8495 64.2375C27.8384 64.2487 27.8297 64.2565 27.8264 64.2595C27.8224 64.263 27.8198 64.2651 27.8194 64.2655C27.8187 64.2661 27.821 64.2641 27.8278 64.2589C27.8341 64.254 27.8427 64.2475 27.8539 64.2392C27.8999 64.2049 27.9736 64.1518 28.0766 64.0791C28.2813 63.9346 28.5872 63.7226 28.9851 63.4493C29.7803 62.9033 30.9357 62.1176 32.3673 61.1492C35.2302 59.2127 39.1938 56.5479 43.5804 53.6128L42.913 52.6155C38.5254 55.5513 34.56 58.2173 31.695 60.1553C30.2627 61.1241 29.1045 61.9116 28.3058 62.4601C27.9068 62.7341 27.5957 62.9497 27.3845 63.0988C27.2796 63.1729 27.1956 63.2332 27.1369 63.277C27.1088 63.2978 27.0793 63.3203 27.0543 63.341C27.0443 63.3493 27.0208 63.3689 26.9961 63.3939C26.9871 63.403 26.9546 63.4359 26.9221 63.4839C26.9077 63.5054 26.8704 63.5627 26.8451 63.6454C26.823 63.718 26.7738 63.9351 26.9198 64.1541L27.9183 63.4885ZM43.58 53.613C47.9647 50.6836 51.9407 48.0386 54.824 46.1319C56.2658 45.1784 57.4334 44.4102 58.242 43.8834C58.6467 43.6198 58.9596 43.4179 59.1714 43.2838C59.278 43.2164 59.3552 43.1684 59.4045 43.139C59.4165 43.1318 59.4258 43.1264 59.4328 43.1224C59.4401 43.1181 59.4428 43.1167 59.442 43.1171C59.4415 43.1174 59.4386 43.1189 59.4338 43.1213C59.4298 43.1232 59.4193 43.1283 59.4047 43.1343C59.3968 43.1375 59.357 43.154 59.3023 43.1652C59.2781 43.1702 59.2115 43.1827 59.1259 43.1744C59.0506 43.1672 58.8311 43.1295 58.685 42.9104L59.6835 42.2447C59.5372 42.0252 59.3172 41.9873 59.2413 41.98C59.155 41.9717 59.0875 41.9843 59.0622 41.9895C59.0053 42.0011 58.9624 42.0187 58.9506 42.0235C58.9181 42.0368 58.891 42.051 58.8795 42.0571C58.8509 42.0723 58.8188 42.091 58.7888 42.109C58.7259 42.1466 58.6381 42.2012 58.5295 42.2699C58.3109 42.4083 57.9928 42.6137 57.5871 42.878C56.7749 43.407 55.6045 44.1771 54.162 45.131C51.2767 47.0391 47.299 49.6851 42.9134 52.6152L43.58 53.613Z" fill="#E8E8E8" mask="url(#path-9-inside-3_1426_29277)"/>
<mask id="path-11-inside-4_1426_29277" fill="white">
<path d="M62.318 47.2663C62.3484 47.3118 55.2608 52.1064 46.4904 57.9697C37.7162 63.8369 30.5832 68.5556 30.5528 68.5101C30.5225 68.4646 37.6063 63.6739 46.3805 57.8029C55.1509 51.9396 62.2877 47.2209 62.318 47.2663Z"/>
</mask>
<path d="M62.318 47.2663C62.3484 47.3118 55.2608 52.1064 46.4904 57.9697C37.7162 63.8369 30.5832 68.5556 30.5528 68.5101C30.5225 68.4646 37.6063 63.6739 46.3805 57.8029C55.1509 51.9396 62.2877 47.2209 62.318 47.2663Z" fill="#D1CCCC"/>
<path d="M46.4904 57.9697L46.1569 57.4709L46.1569 57.471L46.4904 57.9697ZM46.3805 57.8029L46.047 57.3042L46.0468 57.3043L46.3805 57.8029ZM61.8188 47.5992C61.673 47.3804 61.7223 47.1637 61.7442 47.0918C61.7693 47.0098 61.8062 46.9533 61.82 46.9328C61.8511 46.8866 61.8816 46.8562 61.8876 46.8501C61.8987 46.8389 61.9073 46.8312 61.9106 46.8282C61.9146 46.8247 61.9172 46.8225 61.9176 46.8222C61.9183 46.8216 61.916 46.8236 61.9092 46.8288C61.9029 46.8337 61.8943 46.8402 61.8831 46.8486C61.8371 46.8828 61.7633 46.9359 61.6603 47.0087C61.4555 47.1533 61.1495 47.3654 60.7514 47.6388C59.956 48.1851 58.8002 48.971 57.3683 49.9393C54.5051 51.8758 50.5415 54.5397 46.1569 57.4709L46.8239 58.4685C51.2097 55.5364 55.1751 52.8713 58.0406 50.9333C59.4732 49.9645 60.6318 49.1767 61.4308 48.628C61.8299 48.3539 62.1411 48.1382 62.3525 47.9889C62.4574 47.9148 62.5414 47.8545 62.6002 47.8107C62.6283 47.7898 62.6578 47.7673 62.6827 47.7466C62.6928 47.7383 62.7163 47.7187 62.741 47.6938C62.7499 47.6847 62.7825 47.6518 62.8149 47.6038C62.8293 47.5824 62.8667 47.525 62.8919 47.4424C62.914 47.3698 62.9633 47.1526 62.8173 46.9335L61.8188 47.5992ZM46.1569 57.471C41.7703 60.4042 37.7944 63.05 34.9117 64.9567C33.4701 65.9102 32.3028 66.6782 31.4945 67.2047C31.09 67.4682 30.7773 67.6699 30.5656 67.8039C30.459 67.8714 30.3819 67.9192 30.3326 67.9486C30.3207 67.9558 30.3113 67.9613 30.3044 67.9653C30.297 67.9695 30.2943 67.9709 30.2951 67.9705C30.2956 67.9702 30.2986 67.9687 30.3034 67.9663C30.3074 67.9644 30.3179 67.9593 30.3325 67.9533C30.3404 67.9501 30.3803 67.9335 30.435 67.9224C30.4592 67.9175 30.5258 67.9049 30.6114 67.9132C30.6868 67.9205 30.9061 67.9583 31.0521 68.1773L30.0536 68.8429C30.1998 69.0623 30.4196 69.1002 30.4956 69.1076C30.5819 69.116 30.6493 69.1034 30.6747 69.0982C30.7316 69.0866 30.7745 69.069 30.7863 69.0642C30.8189 69.0509 30.8459 69.0367 30.8575 69.0306C30.8861 69.0154 30.9182 68.9967 30.9482 68.9787C31.0111 68.9412 31.0988 68.8866 31.2074 68.8179C31.4259 68.6796 31.7439 68.4744 32.1495 68.2102C32.9613 67.6814 34.1314 66.9115 35.5737 65.9576C38.4586 64.0495 42.4363 61.4024 46.8239 58.4685L46.1569 57.471ZM31.0521 68.1773C31.1978 68.3959 31.1486 68.6125 31.1267 68.6845C31.1016 68.7665 31.0647 68.8231 31.0509 68.8436C31.0197 68.8898 30.9893 68.9203 30.9833 68.9263C30.9722 68.9376 30.9635 68.9453 30.9602 68.9483C30.9562 68.9518 30.9536 68.9539 30.9532 68.9543C30.9525 68.9549 30.9548 68.9529 30.9616 68.9477C30.9679 68.9428 30.9765 68.9363 30.9877 68.928C31.0337 68.8937 31.1074 68.8406 31.2104 68.7679C31.4151 68.6234 31.7209 68.4114 32.1189 68.1381C32.9141 67.5921 34.0695 66.8064 35.5011 65.8381C38.364 63.9015 42.3276 61.2367 46.7141 58.3016L46.0468 57.3043C41.6592 60.2401 37.6938 62.9061 34.8288 64.8441C33.3965 65.813 32.2383 66.6005 31.4396 67.1489C31.0406 67.4229 30.7295 67.6385 30.5183 67.7876C30.4133 67.8617 30.3294 67.922 30.2707 67.9658C30.2426 67.9867 30.2131 68.0092 30.1881 68.0298C30.1781 68.0381 30.1546 68.0577 30.1299 68.0827C30.1209 68.0918 30.0884 68.1247 30.0559 68.1728C30.0415 68.1942 30.0042 68.2516 29.9789 68.3342C29.9568 68.4068 29.9076 68.624 30.0536 68.8429L31.0521 68.1773ZM46.7139 58.3017C51.0986 55.3705 55.0745 52.7255 57.9577 50.8193C59.3995 49.8661 60.5671 49.0982 61.3757 48.5718C61.7804 48.3083 62.0932 48.1066 62.305 47.9726C62.4116 47.9052 62.4888 47.8573 62.5381 47.8279C62.5501 47.8207 62.5594 47.8153 62.5663 47.8113C62.5737 47.807 62.5764 47.8056 62.5756 47.806C62.5751 47.8063 62.5722 47.8079 62.5674 47.8102C62.5634 47.8122 62.5529 47.8172 62.5382 47.8232C62.5303 47.8264 62.4905 47.8429 62.4358 47.8541C62.4116 47.859 62.345 47.8715 62.2594 47.8632C62.1842 47.8559 61.9648 47.8182 61.8188 47.5992L62.8173 46.9335C62.671 46.7142 62.4512 46.6762 62.3753 46.6688C62.289 46.6605 62.2216 46.6731 62.1962 46.6782C62.1393 46.6898 62.0964 46.7074 62.0846 46.7122C62.0521 46.7255 62.025 46.7397 62.0135 46.7458C61.9848 46.761 61.9528 46.7797 61.9227 46.7977C61.8598 46.8352 61.772 46.8898 61.6635 46.9585C61.4449 47.0968 61.1267 47.302 60.721 47.5661C59.9088 48.0949 58.7384 48.8646 57.2959 49.8183C54.4105 51.726 50.4328 54.3721 46.047 57.3042L46.7139 58.3017Z" fill="#E8E8E8" mask="url(#path-11-inside-4_1426_29277)"/>
<mask id="path-13-inside-5_1426_29277" fill="white">
<path d="M65.4533 51.9546C65.4836 52.0001 58.396 56.7947 49.6256 62.658C40.8515 68.5251 33.7184 73.2439 33.6881 73.1984C33.6578 73.1529 40.7415 68.3622 49.5157 62.4912C58.2861 56.6279 65.423 51.9092 65.4533 51.9546Z"/>
</mask>
<path d="M65.4533 51.9546C65.4836 52.0001 58.396 56.7947 49.6256 62.658C40.8515 68.5251 33.7184 73.2439 33.6881 73.1984C33.6578 73.1529 40.7415 68.3622 49.5157 62.4912C58.2861 56.6279 65.423 51.9092 65.4533 51.9546Z" fill="#D1CCCC"/>
<path d="M49.6256 62.658L49.2922 62.1592L49.2921 62.1592L49.6256 62.658ZM49.5157 62.4912L49.1823 61.9924L49.1821 61.9926L49.5157 62.4912ZM64.9541 52.2875C64.8082 52.0687 64.8575 51.852 64.8795 51.7801C64.9045 51.6981 64.9414 51.6416 64.9552 51.6211C64.9864 51.5749 65.0168 51.5445 65.0228 51.5384C65.0339 51.5272 65.0426 51.5195 65.0459 51.5165C65.0499 51.513 65.0525 51.5108 65.0529 51.5105C65.0536 51.5099 65.0512 51.5118 65.0445 51.5171C65.0381 51.522 65.0295 51.5285 65.0183 51.5369C64.9723 51.5711 64.8986 51.6242 64.7955 51.697C64.5908 51.8416 64.2848 52.0537 63.8867 52.3271C63.0912 52.8734 61.9354 53.6593 60.5036 54.6276C57.6403 56.5641 53.6768 59.2279 49.2922 62.1592L49.9591 63.1568C54.3449 60.2247 58.3103 57.5596 61.1759 55.6216C62.6085 54.6527 63.767 53.865 64.566 53.3163C64.9652 53.0422 65.2764 52.8265 65.4877 52.6772C65.5927 52.6031 65.6767 52.5428 65.7355 52.499C65.7635 52.4781 65.793 52.4556 65.818 52.4349C65.8281 52.4266 65.8515 52.407 65.8762 52.3821C65.8852 52.373 65.9177 52.3401 65.9501 52.2921C65.9646 52.2706 66.0019 52.2133 66.0272 52.1306C66.0493 52.0581 66.0986 51.8409 65.9525 51.6218L64.9541 52.2875ZM49.2921 62.1592C44.9056 65.0924 40.9297 67.7383 38.0469 69.645C36.6054 70.5984 35.4381 71.3665 34.6298 71.893C34.2253 72.1565 33.9125 72.3582 33.7008 72.4922C33.5943 72.5597 33.5171 72.6075 33.4679 72.6369C33.4559 72.6441 33.4466 72.6496 33.4396 72.6536C33.4323 72.6578 33.4296 72.6592 33.4304 72.6588C33.4309 72.6585 33.4338 72.657 33.4387 72.6546C33.4427 72.6526 33.4532 72.6476 33.4678 72.6416C33.4757 72.6384 33.5155 72.6218 33.5702 72.6107C33.5945 72.6057 33.6611 72.5932 33.7467 72.6015C33.822 72.6088 34.0413 72.6466 34.1873 72.8656L33.1889 73.5312C33.3351 73.7505 33.5548 73.7885 33.6308 73.7959C33.7171 73.8043 33.7846 73.7917 33.8099 73.7865C33.8669 73.7749 33.9098 73.7573 33.9216 73.7525C33.9541 73.7392 33.9812 73.725 33.9927 73.7189C34.0214 73.7037 34.0534 73.685 34.0835 73.667C34.1463 73.6294 34.2341 73.5749 34.3426 73.5062C34.5611 73.3679 34.8792 73.1626 35.2847 72.8985C36.0966 72.3697 37.2666 71.5998 38.7089 70.6459C41.5938 68.7378 45.5715 66.0907 49.9592 63.1568L49.2921 62.1592ZM34.1873 72.8656C34.3331 73.0842 34.2839 73.3008 34.2619 73.3728C34.2369 73.4548 34.2 73.5114 34.1862 73.5319C34.155 73.5781 34.1246 73.6086 34.1186 73.6146C34.1075 73.6258 34.0988 73.6336 34.0955 73.6366C34.0915 73.6401 34.0889 73.6422 34.0885 73.6426C34.0878 73.6432 34.0901 73.6412 34.0968 73.636C34.1032 73.6311 34.1118 73.6246 34.123 73.6163C34.1689 73.582 34.2427 73.5289 34.3457 73.4562C34.5503 73.3117 34.8562 73.0997 35.2541 72.8264C36.0493 72.2804 37.2048 71.4947 38.6364 70.5263C41.4992 68.5898 45.4628 65.925 49.8494 62.9899L49.1821 61.9926C44.7944 64.9284 40.8291 67.5944 37.964 69.5324C36.5317 70.5013 35.3735 71.2888 34.5748 71.8372C34.1759 72.1112 33.8647 72.3268 33.6535 72.4759C33.5486 72.55 33.4647 72.6103 33.4059 72.6541C33.3779 72.675 33.3483 72.6975 33.3234 72.7181C33.3133 72.7264 33.2899 72.746 33.2652 72.771C33.2562 72.7801 33.2236 72.813 33.1912 72.861C33.1767 72.8825 33.1394 72.9398 33.1142 73.0225C33.092 73.0951 33.0429 73.3122 33.1889 73.5312L34.1873 72.8656ZM49.8492 62.99C54.2338 60.0587 58.2097 57.4138 61.0929 55.5076C62.5347 54.5544 63.7024 53.7865 64.511 53.2601C64.9156 52.9966 65.2285 52.7949 65.4403 52.6609C65.5469 52.5935 65.6241 52.5456 65.6733 52.5162C65.6853 52.509 65.6946 52.5036 65.7016 52.4996C65.709 52.4953 65.7117 52.4939 65.7109 52.4943C65.7104 52.4946 65.7074 52.4961 65.7026 52.4985C65.6986 52.5004 65.6881 52.5055 65.6735 52.5115C65.6656 52.5147 65.6258 52.5312 65.5711 52.5424C65.5469 52.5473 65.4803 52.5598 65.3947 52.5515C65.3194 52.5442 65.1001 52.5065 64.9541 52.2875L65.9525 51.6218C65.8063 51.4024 65.5864 51.3645 65.5105 51.3571C65.4243 51.3488 65.3568 51.3614 65.3315 51.3665C65.2746 51.3781 65.2317 51.3957 65.2199 51.4005C65.1873 51.4138 65.1603 51.428 65.1487 51.4341C65.1201 51.4493 65.088 51.468 65.058 51.4859C64.9951 51.5235 64.9073 51.5781 64.7987 51.6468C64.5801 51.7851 64.2619 51.9903 63.8562 52.2544C63.0441 52.7832 61.8737 53.5529 60.4311 54.5066C57.5457 56.4143 53.568 59.0604 49.1823 61.9924L49.8492 62.99Z" fill="#E8E8E8" mask="url(#path-13-inside-5_1426_29277)"/>
<path d="M161.429 82.593L188.833 64.2623C190.991 62.819 193.91 63.3981 195.353 65.5557L224.97 109.833C226.414 111.99 225.834 114.909 223.677 116.353L196.273 134.683C194.116 136.127 191.197 135.547 189.753 133.39L160.136 89.1128C158.693 86.9552 159.272 84.0362 161.429 82.593Z" fill="white" stroke="#E8E8E8" stroke-width="0.6"/>
<path d="M208.221 111.453C208.758 111.531 209.127 112.033 209.04 112.569C208.956 113.092 208.468 113.45 207.944 113.375L192.704 111.179C192.168 111.101 191.799 110.6 191.885 110.065C191.968 109.541 192.457 109.182 192.981 109.258L208.221 111.453Z" fill="#D1CCCC" stroke="#E8E8E8" stroke-width="0.6"/>
<path d="M200.697 103.688C200.782 103.157 201.279 102.792 201.811 102.869C202.357 102.948 202.732 103.459 202.645 104.003L200.231 118.941C200.145 119.473 199.649 119.838 199.115 119.762C198.568 119.683 198.192 119.171 198.28 118.626L200.697 103.688Z" fill="#D1CCCC" stroke="#E8E8E8" stroke-width="0.6"/>
<mask id="path-18-inside-6_1426_29277" fill="white">
<path d="M184.247 80.1738C184.277 80.2193 180.703 82.6639 176.261 85.6316C171.819 88.6031 168.196 90.9719 168.165 90.9264C168.135 90.881 171.709 88.4363 176.151 85.4648C180.593 82.4972 184.216 80.1283 184.247 80.1738Z"/>
</mask>
<path d="M184.247 80.1738C184.277 80.2193 180.703 82.6639 176.261 85.6316C171.819 88.6031 168.196 90.9719 168.165 90.9264C168.135 90.881 171.709 88.4363 176.151 85.4648C180.593 82.4972 184.216 80.1283 184.247 80.1738Z" fill="#D1CCCC"/>
<path d="M176.261 85.6316L175.928 85.1327L175.927 85.1329L176.261 85.6316ZM176.151 85.4648L175.818 84.9659L175.817 84.9661L176.151 85.4648ZM183.748 80.5066C183.6 80.2855 183.652 80.0668 183.674 79.9967C183.699 79.9155 183.736 79.8598 183.75 79.8402C183.78 79.7955 183.809 79.7666 183.813 79.7622C183.829 79.7466 183.838 79.7397 183.829 79.7473C183.815 79.7584 183.786 79.7811 183.736 79.8182C183.639 79.8905 183.49 79.9977 183.291 80.1379C182.894 80.4175 182.314 80.8182 181.592 81.3116C180.15 82.2978 178.147 83.6497 175.928 85.1327L176.594 86.1305C178.817 84.6458 180.822 83.2915 182.27 82.3022C182.993 81.8078 183.578 81.4033 183.982 81.1189C184.183 80.9772 184.343 80.8628 184.453 80.7811C184.506 80.7412 184.555 80.7038 184.593 80.6727C184.609 80.6591 184.637 80.6356 184.665 80.6079C184.675 80.5974 184.709 80.5636 184.742 80.5152C184.756 80.4937 184.794 80.4364 184.82 80.3539C184.842 80.2826 184.894 80.0628 184.746 79.841L183.748 80.5066ZM175.927 85.1329C173.708 86.6178 171.693 87.9517 170.23 88.9082C169.499 89.3867 168.907 89.7696 168.497 90.0295C168.291 90.1598 168.135 90.2569 168.031 90.319C167.978 90.3509 167.946 90.3692 167.931 90.3774C167.92 90.3829 167.93 90.3771 167.95 90.3687C167.956 90.3664 167.994 90.3504 168.047 90.3394C168.07 90.3345 168.136 90.3218 168.221 90.3295C168.295 90.3362 168.517 90.3723 168.664 90.5936L167.666 91.2593C167.814 91.4813 168.037 91.5178 168.112 91.5246C168.198 91.5325 168.266 91.5195 168.291 91.5142C168.349 91.5023 168.393 91.4843 168.407 91.4786C168.443 91.4638 168.475 91.4469 168.494 91.4369C168.537 91.4139 168.59 91.383 168.648 91.3487C168.765 91.2784 168.932 91.1746 169.14 91.0429C169.557 90.7785 170.154 90.392 170.887 89.9125C172.354 88.9531 174.372 87.6168 176.595 86.1303L175.927 85.1329ZM168.664 90.5936C168.812 90.8147 168.76 91.0335 168.738 91.1035C168.713 91.1847 168.676 91.2404 168.662 91.2601C168.632 91.3048 168.603 91.3336 168.599 91.338C168.583 91.3536 168.574 91.3605 168.583 91.353C168.597 91.3418 168.626 91.3191 168.676 91.282C168.773 91.2097 168.922 91.1025 169.121 90.9622C169.518 90.6826 170.098 90.2818 170.82 89.7881C172.263 88.8013 174.265 87.4485 176.485 85.9635L175.817 84.9661C173.595 86.4526 171.589 87.8079 170.142 88.7976C169.419 89.2923 168.834 89.6968 168.43 89.9813C168.229 90.123 168.069 90.2374 167.959 90.3192C167.906 90.3591 167.857 90.3964 167.819 90.4275C167.803 90.4411 167.775 90.4647 167.747 90.4924C167.737 90.5029 167.703 90.5366 167.67 90.585C167.656 90.6066 167.618 90.6639 167.592 90.7464C167.57 90.8177 167.518 91.0374 167.666 91.2593L168.664 90.5936ZM176.484 85.9637C178.704 84.4806 180.719 83.1477 182.182 82.1916C182.913 81.7134 183.505 81.3306 183.915 81.0708C184.121 80.9404 184.277 80.8434 184.381 80.7812C184.434 80.7493 184.466 80.7311 184.481 80.7229C184.492 80.7173 184.482 80.7231 184.462 80.7315C184.456 80.7339 184.418 80.7498 184.365 80.7609C184.342 80.7657 184.276 80.7784 184.191 80.7707C184.117 80.764 183.895 80.728 183.748 80.5066L184.746 79.841C184.598 79.6189 184.375 79.5825 184.3 79.5757C184.214 79.5678 184.146 79.5807 184.121 79.586C184.063 79.598 184.019 79.616 184.005 79.6216C183.969 79.6365 183.937 79.6534 183.918 79.6634C183.875 79.6863 183.822 79.7172 183.764 79.7515C183.647 79.8218 183.48 79.9256 183.272 80.0573C182.856 80.3216 182.258 80.7079 181.525 81.1871C180.058 82.1461 178.04 83.4814 175.818 84.9659L176.484 85.9637Z" fill="#E8E8E8" mask="url(#path-18-inside-6_1426_29277)"/>
<mask id="path-20-inside-7_1426_29277" fill="white">
<path d="M197.38 76.8779C197.41 76.9234 191.464 80.9561 184.096 85.8833C176.728 90.8105 170.732 94.7674 170.701 94.7219C170.671 94.6764 176.618 90.6475 183.986 85.7165C191.354 80.7894 197.35 76.8324 197.38 76.8779Z"/>
</mask>
<path d="M197.38 76.8779C197.41 76.9234 191.464 80.9561 184.096 85.8833C176.728 90.8105 170.732 94.7674 170.701 94.7219C170.671 94.6764 176.618 90.6475 183.986 85.7165C191.354 80.7894 197.35 76.8324 197.38 76.8779Z" fill="#D1CCCC"/>
<path d="M183.986 85.7165L183.652 85.2178L183.652 85.2179L183.986 85.7165ZM196.881 77.2107C196.758 77.027 196.775 76.8422 196.793 76.7537C196.812 76.6658 196.846 76.6034 196.862 76.5773C196.894 76.5222 196.927 76.4858 196.935 76.4773C196.948 76.4632 196.959 76.4532 196.963 76.4489C196.969 76.4438 196.973 76.4404 196.974 76.4391C196.978 76.4359 196.973 76.44 196.954 76.4549C196.917 76.4824 196.858 76.5261 196.772 76.5875C196.601 76.7089 196.346 76.8873 196.012 77.1176C195.346 77.5776 194.377 78.2388 193.176 79.0533C190.773 80.6822 187.445 82.9214 183.762 85.3846L184.429 86.3821C188.114 83.918 191.444 81.6773 193.849 80.0466C195.051 79.2314 196.024 78.568 196.694 78.1051C197.029 77.8739 197.291 77.6913 197.469 77.5642C197.557 77.5013 197.629 77.4489 197.68 77.4099C197.704 77.3916 197.732 77.3698 197.757 77.3485C197.767 77.3401 197.792 77.318 197.819 77.2886C197.829 77.2775 197.865 77.2389 197.898 77.1821C197.914 77.1552 197.948 77.0921 197.967 77.0036C197.986 76.9145 198.002 76.7292 197.879 76.5451L196.881 77.2107ZM183.762 85.3846C180.079 87.8477 176.739 90.068 174.316 91.6666C173.105 92.466 172.124 93.1092 171.445 93.5494C171.104 93.7698 170.842 93.9378 170.665 94.0487C170.576 94.1047 170.512 94.1433 170.473 94.1662C170.452 94.1787 170.446 94.1813 170.451 94.1792C170.452 94.1782 170.457 94.1759 170.464 94.1728C170.47 94.1702 170.483 94.1642 170.501 94.1576C170.512 94.1537 170.558 94.1365 170.622 94.1278C170.652 94.1237 170.723 94.1159 170.811 94.1323C170.901 94.1489 171.078 94.2052 171.201 94.3891L170.202 95.0547C170.325 95.239 170.502 95.2955 170.592 95.3122C170.682 95.3288 170.754 95.3209 170.784 95.3167C170.85 95.3078 170.899 95.2898 170.913 95.2846C170.951 95.2709 170.981 95.2557 170.992 95.2499C171.022 95.2352 171.052 95.2176 171.078 95.2023C171.134 95.1699 171.21 95.1233 171.302 95.0658C171.487 94.9498 171.756 94.7777 172.097 94.5565C172.781 94.1136 173.765 93.4682 174.977 92.6682C177.402 91.0678 180.745 88.8461 184.429 86.3821L183.762 85.3846ZM171.201 94.3891C171.323 94.5728 171.307 94.7576 171.288 94.8462C171.269 94.9341 171.235 94.9966 171.22 95.0227C171.188 95.0778 171.154 95.1142 171.146 95.1227C171.133 95.1368 171.123 95.1468 171.118 95.1511C171.113 95.1562 171.109 95.1596 171.107 95.1609C171.103 95.1641 171.108 95.16 171.128 95.1451C171.164 95.1176 171.224 95.0739 171.31 95.0127C171.48 94.8913 171.735 94.7131 172.069 94.4829C172.735 94.0232 173.704 93.3623 174.906 92.548C177.308 90.9195 180.636 88.6803 184.319 86.2152L183.652 85.2179C179.967 87.6838 176.638 89.9245 174.233 91.5546C173.03 92.3695 172.058 93.0326 171.387 93.4952C171.053 93.7262 170.791 93.9087 170.613 94.0356C170.525 94.0985 170.453 94.1509 170.401 94.1898C170.377 94.2081 170.349 94.2299 170.325 94.2512C170.315 94.2595 170.289 94.2817 170.262 94.3111C170.252 94.3222 170.217 94.3607 170.184 94.4176C170.168 94.4445 170.133 94.5077 170.114 94.5962C170.095 94.6854 170.079 94.8707 170.202 95.0547L171.201 94.3891ZM184.319 86.2153C188.003 83.7522 191.343 81.5318 193.765 79.9333C194.977 79.1338 195.957 78.4906 196.637 78.0504C196.977 77.8301 197.239 77.662 197.416 77.5511C197.506 77.4951 197.569 77.4565 197.608 77.4336C197.63 77.4212 197.635 77.4185 197.631 77.4207C197.629 77.4216 197.624 77.4239 197.618 77.427C197.612 77.4297 197.598 77.4356 197.58 77.4422C197.57 77.4461 197.523 77.4634 197.46 77.472C197.43 77.4761 197.359 77.484 197.27 77.4675C197.181 77.4509 197.004 77.3947 196.881 77.2107L197.879 76.5451C197.756 76.3608 197.579 76.3043 197.489 76.2876C197.4 76.2711 197.328 76.2789 197.297 76.2831C197.232 76.2921 197.182 76.31 197.168 76.3152C197.131 76.3289 197.1 76.3441 197.089 76.3499C197.06 76.3647 197.029 76.3823 197.003 76.3975C196.947 76.43 196.872 76.4765 196.78 76.534C196.594 76.65 196.326 76.8221 195.984 77.0433C195.301 77.4863 194.316 78.1317 193.104 78.9317C190.679 80.532 187.337 82.7537 183.652 85.2178L184.319 86.2153Z" fill="#E8E8E8" mask="url(#path-20-inside-7_1426_29277)"/>
<mask id="path-22-inside-8_1426_29277" fill="white">
<path d="M200.014 80.8123C200.045 80.8578 194.098 84.8905 186.73 89.8177C179.362 94.7449 173.366 98.7018 173.336 98.6563C173.305 98.6109 179.252 94.5819 186.62 89.651C193.988 84.7276 199.984 80.7706 200.014 80.8123Z"/>
</mask>
<path d="M200.014 80.8123C200.045 80.8578 194.098 84.8905 186.73 89.8177C179.362 94.7449 173.366 98.7018 173.336 98.6563C173.305 98.6109 179.252 94.5819 186.62 89.651C193.988 84.7276 199.984 80.7706 200.014 80.8123Z" fill="#D1CCCC"/>
<path d="M200.014 80.8123L200.514 80.4795L200.507 80.4693L200.5 80.4594L200.014 80.8123ZM186.62 89.651L186.287 89.1521L186.286 89.1523L186.62 89.651ZM199.515 81.1452C199.393 80.9614 199.409 80.7766 199.428 80.6881C199.446 80.6002 199.481 80.5378 199.496 80.5117C199.528 80.4566 199.562 80.4202 199.569 80.4118C199.582 80.3976 199.593 80.3876 199.598 80.3833C199.603 80.3782 199.607 80.3748 199.608 80.3735C199.612 80.3704 199.607 80.3744 199.588 80.3893C199.552 80.4168 199.492 80.4606 199.406 80.5219C199.236 80.6433 198.98 80.8217 198.647 81.052C197.98 81.512 197.011 82.1732 195.81 82.9878C193.407 84.6166 190.08 86.8559 186.396 89.319L187.063 90.3165C190.748 87.8524 194.078 85.6117 196.483 83.981C197.686 83.1658 198.658 82.5024 199.329 82.0395C199.663 81.8083 199.925 81.6257 200.103 81.4986C200.191 81.4357 200.263 81.3833 200.314 81.3444C200.338 81.3261 200.367 81.3042 200.391 81.2829C200.401 81.2746 200.427 81.2524 200.454 81.223C200.464 81.2119 200.499 81.1734 200.532 81.1166C200.548 81.0896 200.582 81.0265 200.601 80.938C200.62 80.8489 200.636 80.6636 200.514 80.4795L199.515 81.1452ZM186.396 89.319C182.713 91.7821 179.373 94.0024 176.951 95.601C175.739 96.4004 174.758 97.0437 174.079 97.4838C173.739 97.7042 173.476 97.8722 173.299 97.9831C173.21 98.0391 173.147 98.0778 173.107 98.1007C173.086 98.1131 173.081 98.1158 173.085 98.1136C173.087 98.1126 173.091 98.1103 173.098 98.1072C173.104 98.1046 173.117 98.0986 173.135 98.092C173.146 98.0881 173.193 98.0709 173.256 98.0622C173.286 98.0581 173.357 98.0503 173.446 98.0668C173.535 98.0833 173.712 98.1396 173.835 98.3235L172.836 98.9892C172.959 99.1734 173.137 99.2299 173.227 99.2466C173.316 99.2632 173.388 99.2554 173.419 99.2511C173.484 99.2422 173.533 99.2242 173.547 99.2191C173.585 99.2053 173.615 99.1901 173.627 99.1843C173.656 99.1696 173.687 99.152 173.713 99.1367C173.768 99.1043 173.844 99.0577 173.936 99.0003C174.121 98.8842 174.39 98.7121 174.731 98.4909C175.415 98.048 176.399 97.4026 177.612 96.6026C180.037 95.0023 183.379 92.7805 187.063 90.3165L186.396 89.319ZM173.835 98.3235C173.957 98.5072 173.941 98.6921 173.922 98.7806C173.904 98.8686 173.869 98.931 173.854 98.9571C173.822 99.0122 173.788 99.0486 173.78 99.0571C173.767 99.0712 173.757 99.0812 173.752 99.0856C173.747 99.0906 173.743 99.094 173.741 99.0954C173.738 99.0985 173.742 99.0945 173.762 99.0795C173.798 99.0521 173.858 99.0084 173.944 98.9471C174.114 98.8257 174.37 98.6475 174.703 98.4173C175.369 97.9576 176.339 97.2967 177.54 96.4824C179.943 94.854 183.27 92.6147 186.954 90.1496L186.286 89.1523C182.602 91.6182 179.272 93.8589 176.867 95.489C175.664 96.304 174.692 96.967 174.022 97.4296C173.687 97.6606 173.425 97.8431 173.247 97.9701C173.159 98.0329 173.087 98.0853 173.036 98.1242C173.012 98.1425 172.984 98.1643 172.959 98.1856C172.949 98.194 172.924 98.2161 172.897 98.2455C172.886 98.2566 172.851 98.2952 172.818 98.352C172.802 98.3789 172.768 98.4421 172.749 98.5306C172.73 98.6198 172.714 98.8051 172.836 98.9892L173.835 98.3235ZM186.953 90.1498C190.637 87.6886 193.977 85.4692 196.399 83.8705C197.611 83.0711 198.592 82.4276 199.271 81.9868C199.612 81.7662 199.874 81.5977 200.051 81.4863C200.141 81.4301 200.205 81.3911 200.244 81.3677C200.266 81.3551 200.272 81.3519 200.269 81.3535C200.267 81.3543 200.263 81.3564 200.257 81.3593C200.252 81.3617 200.24 81.3673 200.223 81.3737C200.213 81.3774 200.17 81.3941 200.112 81.4039C200.084 81.4084 200.017 81.4181 199.933 81.4065C199.852 81.3956 199.665 81.3516 199.529 81.1652L200.5 80.4594C200.364 80.2727 200.176 80.2286 200.095 80.2176C200.01 80.2059 199.942 80.2156 199.914 80.2203C199.853 80.2304 199.807 80.2479 199.794 80.2529C199.759 80.2664 199.731 80.2809 199.72 80.2866C199.691 80.3011 199.661 80.3183 199.636 80.3336C199.58 80.366 199.505 80.4125 199.413 80.4701C199.228 80.5863 198.96 80.7586 198.618 80.98C197.935 81.4234 196.951 82.0689 195.738 82.8689C193.313 84.4692 189.971 86.69 186.287 89.1521L186.953 90.1498Z" fill="#E8E8E8" mask="url(#path-22-inside-8_1426_29277)"/>
<mask id="path-24-inside-9_1426_29277" fill="white">
<path d="M202.648 84.7491C202.679 84.7946 196.732 88.8273 189.364 93.7545C181.996 98.6817 176 102.639 175.969 102.593C175.939 102.548 181.886 98.5187 189.254 93.5878C196.618 88.6606 202.618 84.7037 202.648 84.7491Z"/>
</mask>
<path d="M202.648 84.7491C202.679 84.7946 196.732 88.8273 189.364 93.7545C181.996 98.6817 176 102.639 175.969 102.593C175.939 102.548 181.886 98.5187 189.254 93.5878C196.618 88.6606 202.618 84.7037 202.648 84.7491Z" fill="#D1CCCC"/>
<path d="M189.254 93.5878L188.92 93.0891L188.92 93.0891L189.254 93.5878ZM202.149 85.082C202.026 84.8982 202.043 84.7134 202.061 84.6249C202.08 84.537 202.114 84.4746 202.13 84.4485C202.162 84.3934 202.195 84.357 202.203 84.3486C202.216 84.3344 202.227 84.3244 202.231 84.3201C202.237 84.315 202.241 84.3116 202.242 84.3103C202.246 84.3072 202.241 84.3112 202.222 84.3261C202.186 84.3536 202.126 84.3974 202.04 84.4587C201.87 84.5801 201.614 84.7585 201.281 84.9888C200.614 85.4488 199.645 86.11 198.444 86.9246C196.041 88.5534 192.713 90.7927 189.03 93.2558L189.697 94.2533C193.382 91.7892 196.712 89.5485 199.117 87.9178C200.319 87.1026 201.292 86.4392 201.962 85.9763C202.297 85.7451 202.559 85.5625 202.737 85.4354C202.825 85.3725 202.897 85.3201 202.948 85.2812C202.972 85.2629 203 85.241 203.025 85.2197C203.035 85.2114 203.06 85.1892 203.087 85.1598C203.098 85.1487 203.133 85.1102 203.166 85.0534C203.182 85.0264 203.216 84.9633 203.235 84.8748C203.254 84.7857 203.27 84.6004 203.147 84.4163L202.149 85.082ZM189.03 93.2558C185.347 95.7189 182.007 97.9392 179.584 99.5378C178.373 100.337 177.392 100.98 176.713 101.421C176.373 101.641 176.11 101.809 175.933 101.92C175.844 101.976 175.78 102.015 175.741 102.037C175.72 102.05 175.714 102.053 175.719 102.05C175.721 102.049 175.725 102.047 175.732 102.044C175.738 102.041 175.751 102.035 175.769 102.029C175.78 102.025 175.826 102.008 175.89 101.999C175.92 101.995 175.991 101.987 176.079 102.004C176.169 102.02 176.346 102.076 176.469 102.26L175.47 102.926C175.593 103.11 175.771 103.167 175.861 103.183C175.95 103.2 176.022 103.192 176.053 103.188C176.118 103.179 176.167 103.161 176.181 103.156C176.219 103.142 176.249 103.127 176.26 103.121C176.29 103.106 176.32 103.089 176.347 103.074C176.402 103.041 176.478 102.995 176.57 102.937C176.755 102.821 177.024 102.649 177.365 102.428C178.049 101.985 179.033 101.339 180.245 100.539C182.67 98.9391 186.013 96.7173 189.697 94.2533L189.03 93.2558ZM176.469 102.26C176.591 102.444 176.575 102.629 176.556 102.717C176.537 102.805 176.503 102.868 176.488 102.894C176.456 102.949 176.422 102.985 176.414 102.994C176.401 103.008 176.391 103.018 176.386 103.022C176.381 103.027 176.377 103.031 176.375 103.032C176.372 103.035 176.376 103.031 176.396 103.016C176.432 102.989 176.492 102.945 176.578 102.884C176.748 102.763 177.003 102.584 177.337 102.354C178.003 101.894 178.972 101.234 180.174 100.419C182.576 98.7908 185.904 96.5515 189.588 94.0864L188.92 93.0891C185.235 95.555 181.906 97.7957 179.501 99.4258C178.298 100.241 177.326 100.904 176.655 101.366C176.321 101.597 176.059 101.78 175.881 101.907C175.793 101.97 175.721 102.022 175.669 102.061C175.645 102.079 175.617 102.101 175.593 102.122C175.583 102.131 175.557 102.153 175.53 102.182C175.52 102.193 175.485 102.232 175.452 102.289C175.436 102.316 175.401 102.379 175.382 102.467C175.363 102.557 175.347 102.742 175.47 102.926L176.469 102.26ZM189.587 94.0864C193.269 91.6233 196.609 89.4031 199.032 87.8045C200.243 87.0051 201.225 86.3619 201.904 85.9217C202.245 85.7014 202.507 85.5333 202.684 85.4224C202.774 85.3664 202.837 85.3278 202.876 85.3049C202.898 85.2924 202.903 85.2898 202.899 85.292C202.897 85.2929 202.892 85.2952 202.885 85.2983C202.88 85.3009 202.866 85.3069 202.848 85.3135C202.838 85.3174 202.791 85.3346 202.728 85.3433C202.698 85.3474 202.627 85.3552 202.538 85.3387C202.449 85.3222 202.272 85.2659 202.149 85.082L203.147 84.4163C203.025 84.232 202.847 84.1755 202.757 84.1588C202.668 84.1423 202.596 84.1501 202.565 84.1543C202.5 84.1633 202.451 84.1812 202.436 84.1864C202.399 84.2001 202.369 84.2153 202.357 84.2211C202.328 84.2358 202.297 84.2534 202.271 84.2687C202.215 84.3011 202.14 84.3477 202.048 84.4051C201.862 84.5212 201.594 84.6933 201.252 84.9145C200.568 85.3574 199.583 86.0028 198.371 86.8029C195.945 88.4032 192.603 90.625 188.92 93.0891L189.587 94.0864Z" fill="#E8E8E8" mask="url(#path-24-inside-9_1426_29277)"/>
<mask id="path-26-inside-10_1426_29277" fill="white">
<path d="M205.28 88.6877C205.31 88.7332 199.363 92.7659 191.995 97.6931C184.627 102.62 178.631 106.577 178.601 106.532C178.57 106.486 184.517 102.457 191.885 97.5263C199.253 92.5991 205.249 88.6422 205.28 88.6877Z"/>
</mask>
<path d="M205.28 88.6877C205.31 88.7332 199.363 92.7659 191.995 97.6931C184.627 102.62 178.631 106.577 178.601 106.532C178.57 106.486 184.517 102.457 191.885 97.5263C199.253 92.5991 205.249 88.6422 205.28 88.6877Z" fill="#D1CCCC"/>
<path d="M191.885 97.5263L191.552 97.0276L191.551 97.0277L191.885 97.5263ZM204.78 89.0205C204.658 88.8368 204.674 88.652 204.693 88.5635C204.711 88.4756 204.746 88.4131 204.761 88.3871C204.793 88.332 204.827 88.2956 204.834 88.2871C204.847 88.273 204.858 88.263 204.863 88.2586C204.868 88.2536 204.872 88.2502 204.874 88.2488C204.877 88.2457 204.873 88.2497 204.853 88.2647C204.817 88.2922 204.757 88.3359 204.671 88.3972C204.501 88.5187 204.245 88.6971 203.912 88.9273C203.246 89.3874 202.276 90.0486 201.075 90.8631C198.672 92.492 195.345 94.7312 191.662 97.1943L192.329 98.1918C196.013 95.7278 199.343 93.4871 201.748 91.8564C202.951 91.0412 203.923 90.3777 204.594 89.9149C204.928 89.6837 205.19 89.501 205.368 89.374C205.456 89.3111 205.528 89.2587 205.58 89.2197C205.604 89.2014 205.632 89.1796 205.656 89.1583C205.666 89.1499 205.692 89.1278 205.719 89.0984C205.729 89.0873 205.764 89.0487 205.797 88.9919C205.813 88.965 205.848 88.9019 205.866 88.8134C205.885 88.7243 205.901 88.539 205.779 88.3549L204.78 89.0205ZM191.662 97.1943C187.978 99.6575 184.638 101.878 182.216 103.476C181.004 104.276 180.023 104.919 179.344 105.359C179.004 105.58 178.742 105.748 178.564 105.859C178.475 105.914 178.412 105.953 178.372 105.976C178.351 105.988 178.346 105.991 178.35 105.989C178.352 105.988 178.357 105.986 178.363 105.983C178.369 105.98 178.382 105.974 178.4 105.967C178.411 105.963 178.458 105.946 178.521 105.938C178.551 105.933 178.622 105.926 178.711 105.942C178.8 105.959 178.977 106.015 179.1 106.199L178.101 106.865C178.224 107.049 178.402 107.105 178.492 107.122C178.581 107.139 178.653 107.131 178.684 107.126C178.749 107.118 178.798 107.1 178.813 107.094C178.85 107.081 178.88 107.065 178.892 107.06C178.921 107.045 178.952 107.027 178.978 107.012C179.033 106.98 179.109 106.933 179.201 106.876C179.386 106.76 179.655 106.587 179.996 106.366C180.68 105.923 181.664 105.278 182.877 104.478C185.302 102.878 188.644 100.656 192.329 98.1918L191.662 97.1943ZM179.1 106.199C179.222 106.383 179.206 106.567 179.187 106.656C179.169 106.744 179.134 106.806 179.119 106.832C179.087 106.888 179.053 106.924 179.046 106.932C179.033 106.947 179.022 106.957 179.017 106.961C179.012 106.966 179.008 106.969 179.007 106.971C179.003 106.974 179.007 106.97 179.027 106.955C179.063 106.927 179.123 106.884 179.209 106.822C179.379 106.701 179.635 106.523 179.968 106.293C180.635 105.833 181.604 105.172 182.805 104.358C185.208 102.729 188.535 100.49 192.219 98.025L191.551 97.0277C187.867 99.4936 184.537 101.734 182.132 103.364C180.93 104.179 179.957 104.842 179.287 105.305C178.952 105.536 178.69 105.718 178.512 105.845C178.424 105.908 178.352 105.961 178.301 106C178.277 106.018 178.249 106.04 178.224 106.061C178.214 106.069 178.189 106.091 178.162 106.121C178.151 106.132 178.116 106.171 178.083 106.227C178.067 106.254 178.033 106.317 178.014 106.406C177.995 106.495 177.979 106.68 178.101 106.865L179.1 106.199ZM192.219 98.0251C195.902 95.5619 199.242 93.3416 201.664 91.7431C202.876 90.9436 203.857 90.3004 204.536 89.8602C204.876 89.6399 205.139 89.4718 205.316 89.3609C205.405 89.3049 205.469 89.2663 205.508 89.2434C205.529 89.2309 205.535 89.2283 205.53 89.2305C205.528 89.2314 205.524 89.2337 205.517 89.2368C205.511 89.2394 205.498 89.2454 205.48 89.252C205.469 89.2559 205.422 89.2732 205.359 89.2818C205.329 89.2859 205.258 89.2937 205.169 89.2773C205.08 89.2607 204.903 89.2045 204.78 89.0205L205.779 88.3549C205.656 88.1706 205.478 88.1141 205.388 88.0974C205.299 88.0809 205.227 88.0887 205.196 88.0929C205.131 88.1019 205.082 88.1198 205.068 88.125C205.03 88.1387 205 88.1539 204.988 88.1597C204.959 88.1745 204.928 88.1921 204.902 88.2073C204.847 88.2398 204.771 88.2863 204.679 88.3438C204.494 88.4598 204.225 88.6319 203.884 88.8531C203.2 89.296 202.216 89.9415 201.004 90.7415C198.578 92.3418 195.236 94.5635 191.552 97.0276L192.219 98.0251Z" fill="#E8E8E8" mask="url(#path-26-inside-10_1426_29277)"/>
<path d="M101.612 3.3535L131.764 19.479C134.053 20.7031 134.916 23.551 133.692 25.8399L107.719 74.4033C106.495 76.6922 103.647 77.5554 101.358 76.3312L71.2068 60.2058C68.9179 58.9816 68.0547 56.1337 69.2788 53.8448L95.2513 5.28144C96.4754 2.99252 99.3233 2.12935 101.612 3.3535Z" fill="white" stroke="#E8E8E8" stroke-width="0.6"/>
<path d="M98.2201 59.8581C98.4114 60.3869 98.1319 60.9698 97.5998 61.1518C97.0808 61.3293 96.5153 61.0582 96.3286 60.5424L90.9403 45.6497C90.7491 45.1211 91.028 44.5383 91.5596 44.3557C92.0792 44.1772 92.6459 44.4484 92.8328 44.9651L98.2201 59.8581Z" fill="#D1CCCC" stroke="#E8E8E8" stroke-width="0.6"/>
<path d="M101.611 49.2652C102.139 49.0842 102.715 49.36 102.905 49.8852C103.1 50.4235 102.816 51.0172 102.274 51.2027L87.5498 56.2458C87.0214 56.4268 86.4454 56.151 86.2552 55.6258C86.0602 55.0875 86.3445 54.4938 86.8862 54.3083L101.611 49.2652Z" fill="#D1CCCC" stroke="#E8E8E8" stroke-width="0.6"/>
<mask id="path-31-inside-11_1426_29277" fill="white">
<path d="M114.987 22.9595C114.956 23.0163 111.003 20.9621 106.159 18.3696C101.312 15.7772 97.4117 13.6319 97.4421 13.5751C97.4724 13.5182 101.426 15.5725 106.269 18.165C111.117 20.7574 115.017 22.9026 114.987 22.9595Z"/>
</mask>
<path d="M114.987 22.9595C114.956 23.0163 111.003 20.9621 106.159 18.3696C101.312 15.7772 97.4117 13.6319 97.4421 13.5751C97.4724 13.5182 101.426 15.5725 106.269 18.165C111.117 20.7574 115.017 22.9026 114.987 22.9595Z" fill="#D1CCCC"/>
<path d="M106.159 18.3696L106.443 17.8406L106.442 17.8405L106.159 18.3696ZM106.269 18.165L105.986 18.694L105.986 18.694L106.269 18.165ZM114.457 22.6771C114.567 22.472 114.749 22.4021 114.833 22.38C114.919 22.3575 114.989 22.36 115.017 22.3616C115.077 22.3651 115.121 22.3773 115.129 22.3794C115.154 22.3862 115.167 22.392 115.156 22.3877C115.141 22.3817 115.107 22.3673 115.049 22.3405C114.937 22.2885 114.768 22.206 114.544 22.0941C114.098 21.8712 113.453 21.5405 112.655 21.1257C111.06 20.2966 108.863 19.1361 106.443 17.8406L105.876 18.8986C108.3 20.1956 110.501 21.3585 112.101 22.1904C112.901 22.6062 113.553 22.9404 114.008 23.1676C114.234 23.2808 114.416 23.3697 114.545 23.4294C114.608 23.4584 114.667 23.4847 114.715 23.5039C114.736 23.5122 114.774 23.5266 114.816 23.538C114.832 23.5424 114.883 23.5559 114.948 23.5596C114.978 23.5614 115.05 23.5637 115.137 23.5408C115.223 23.5184 115.406 23.4478 115.516 23.2418L114.457 22.6771ZM106.442 17.8405C104.02 16.545 101.835 15.3618 100.261 14.4958C99.473 14.0625 98.8401 13.7099 98.4072 13.4626C98.1899 13.3385 98.0273 13.2435 97.9219 13.1791C97.8676 13.1459 97.8369 13.126 97.8236 13.1167C97.814 13.1101 97.8261 13.1178 97.8456 13.1349C97.8517 13.1401 97.8864 13.17 97.9226 13.2181C97.9394 13.2403 97.9802 13.297 98.0091 13.3807C98.0375 13.4627 98.0807 13.6527 97.9715 13.8574L96.9127 13.2927C96.803 13.4984 96.8462 13.6895 96.875 13.7729C96.9045 13.858 96.9462 13.9163 96.9644 13.9405C97.0035 13.9924 97.043 14.027 97.0557 14.0381C97.0884 14.0668 97.1213 14.0901 97.1399 14.1029C97.1827 14.1326 97.2374 14.1671 97.2963 14.2031C97.4173 14.277 97.5923 14.3792 97.8121 14.5047C98.2534 14.7567 98.8929 15.113 99.6824 15.5472C101.262 16.4162 103.451 17.6017 105.876 18.8987L106.442 17.8405ZM97.9715 13.8574C97.8621 14.0625 97.6798 14.1325 97.5956 14.1545C97.5098 14.177 97.4398 14.1746 97.412 14.173C97.3519 14.1695 97.3077 14.1573 97.3 14.1552C97.275 14.1484 97.2619 14.1426 97.2726 14.1469C97.2878 14.1529 97.3214 14.1673 97.3792 14.1941C97.4914 14.2461 97.6608 14.3286 97.8848 14.4405C98.331 14.6634 98.976 14.9941 99.7739 15.4089C101.369 16.238 103.566 17.3985 105.986 18.694L106.552 17.636C104.129 16.339 101.928 15.1761 100.327 14.3442C99.5277 13.9284 98.876 13.5942 98.4211 13.367C98.1945 13.2538 98.0123 13.1649 97.8836 13.1052C97.8209 13.0762 97.7618 13.0498 97.7133 13.0307C97.6923 13.0224 97.6547 13.008 97.6127 12.9966C97.5964 12.9922 97.5456 12.9787 97.4807 12.975C97.4505 12.9732 97.3787 12.9709 97.2914 12.9938C97.2057 13.0162 97.0225 13.0868 96.9127 13.2927L97.9715 13.8574ZM105.986 18.694C108.409 19.9895 110.594 21.1728 112.168 22.0388C112.956 22.472 113.589 22.8247 114.022 23.072C114.239 23.196 114.401 23.2911 114.507 23.3555C114.561 23.3887 114.592 23.4086 114.605 23.4179C114.615 23.4245 114.603 23.4168 114.583 23.3997C114.577 23.3944 114.542 23.3646 114.506 23.3165C114.489 23.2943 114.449 23.2376 114.42 23.1539C114.391 23.0718 114.348 22.8819 114.457 22.6771L115.516 23.2418C115.626 23.0362 115.583 22.8451 115.554 22.7617C115.524 22.6766 115.483 22.6183 115.464 22.5941C115.425 22.5422 115.386 22.5076 115.373 22.4965C115.34 22.4678 115.307 22.4445 115.289 22.4317C115.246 22.402 115.191 22.3675 115.132 22.3315C115.011 22.2576 114.836 22.1554 114.617 22.0299C114.175 21.7779 113.536 21.4216 112.746 20.9874C111.167 20.1184 108.977 18.9328 106.552 17.6359L105.986 18.694Z" fill="#E8E8E8" mask="url(#path-31-inside-11_1426_29277)"/>
<mask id="path-33-inside-12_1426_29277" fill="white">
<path d="M124.341 33.2834C124.311 33.3403 117.769 29.9026 109.734 25.6046C101.695 21.3065 95.2022 17.7741 95.2325 17.7173C95.2628 17.6604 101.805 21.0981 109.844 25.3999C117.879 29.6941 124.371 33.2265 124.341 33.2834Z"/>
</mask>
<path d="M124.341 33.2834C124.311 33.3403 117.769 29.9026 109.734 25.6046C101.695 21.3065 95.2022 17.7741 95.2325 17.7173C95.2628 17.6604 101.805 21.0981 109.844 25.3999C117.879 29.6941 124.371 33.2265 124.341 33.2834Z" fill="#D1CCCC"/>
<path d="M109.734 25.6046L110.017 25.0755L110.017 25.0754L109.734 25.6046ZM109.844 25.3999L109.56 25.9289L109.561 25.9291L109.844 25.3999ZM123.811 33.001C123.902 32.8317 124.044 32.7532 124.135 32.7202C124.221 32.6889 124.293 32.6848 124.328 32.6842C124.398 32.6829 124.451 32.6948 124.465 32.6978C124.486 32.7026 124.502 32.7074 124.509 32.7097C124.518 32.7124 124.524 32.7145 124.526 32.7154C124.533 32.7179 124.528 32.7165 124.506 32.7062C124.464 32.6876 124.396 32.6552 124.298 32.6075C124.106 32.5129 123.82 32.3685 123.45 32.1782C122.709 31.7981 121.639 31.2404 120.318 30.546C117.676 29.1573 114.033 27.224 110.017 25.0755L109.451 26.1336C113.469 28.2831 117.115 30.2177 119.76 31.6082C121.082 32.3032 122.156 32.863 122.902 33.2458C123.274 33.4369 123.567 33.5853 123.77 33.6846C123.87 33.7338 123.953 33.7737 124.015 33.8013C124.043 33.8141 124.078 33.8293 124.112 33.8417C124.125 33.8465 124.161 33.8595 124.204 33.8692C124.222 33.873 124.278 33.8853 124.35 33.884C124.386 33.8833 124.459 33.8792 124.546 33.8476C124.637 33.8144 124.78 33.7355 124.87 33.5658L123.811 33.001ZM110.017 25.0754C105.998 22.9269 102.366 20.97 99.7438 19.5434C98.4323 18.83 97.3743 18.2499 96.6469 17.845C96.2826 17.6422 96.0039 17.4849 95.8183 17.3772C95.7245 17.3228 95.6598 17.2841 95.6211 17.2599C95.5999 17.2465 95.5963 17.2437 95.602 17.2478C95.6042 17.2494 95.6092 17.2531 95.616 17.2585C95.6219 17.2633 95.6348 17.2738 95.6506 17.2889C95.6606 17.2985 95.7 17.3361 95.7378 17.395C95.7565 17.4241 95.7935 17.4867 95.8152 17.5754C95.8381 17.6685 95.8522 17.8304 95.7619 17.9996L94.7031 17.4349C94.6126 17.6046 94.6267 17.767 94.6497 17.8608C94.6716 17.9502 94.7089 18.0136 94.7282 18.0435C94.7671 18.1042 94.8084 18.1439 94.8211 18.1561C94.8536 18.1871 94.884 18.2094 94.8953 18.2176C94.9242 18.2387 94.9564 18.2594 94.983 18.2761C95.0401 18.312 95.1195 18.3592 95.2161 18.4152C95.4112 18.5284 95.6975 18.6899 96.0633 18.8935C96.7958 19.3012 97.8578 19.8835 99.1704 20.5976C101.796 22.0259 105.43 23.9842 109.451 26.1337L110.017 25.0754ZM95.7619 17.9996C95.6716 18.169 95.5292 18.2475 95.4388 18.2804C95.3529 18.3118 95.28 18.3159 95.2454 18.3165C95.1753 18.3178 95.122 18.3059 95.1085 18.3029C95.0871 18.2981 95.0712 18.2932 95.064 18.2909C95.0557 18.2883 95.0498 18.2862 95.0472 18.2852C95.0406 18.2828 95.045 18.2842 95.0679 18.2944C95.1095 18.3131 95.1776 18.3454 95.2749 18.3932C95.4674 18.4877 95.753 18.6322 96.1238 18.8225C96.8644 19.2027 97.9341 19.7605 99.2556 20.4552C101.898 21.8443 105.542 23.7785 109.56 25.9289L110.127 24.8709C106.106 22.7195 102.46 20.7839 99.814 19.393C98.4914 18.6977 97.4176 18.1378 96.6718 17.755C96.2995 17.5638 96.0062 17.4154 95.8038 17.316C95.7036 17.2669 95.6202 17.227 95.5587 17.1994C95.53 17.1866 95.495 17.1713 95.4614 17.159C95.4483 17.1541 95.4127 17.1412 95.3689 17.1315C95.3517 17.1276 95.2957 17.1154 95.2235 17.1167C95.1878 17.1173 95.1141 17.1215 95.0276 17.1531C94.9365 17.1863 94.7937 17.2651 94.7031 17.4349L95.7619 17.9996ZM109.561 25.9291C113.577 28.0757 117.208 30.0316 119.83 31.4578C121.141 32.1709 122.199 32.7509 122.927 33.1558C123.291 33.3585 123.57 33.5158 123.755 33.6234C123.849 33.6778 123.914 33.7165 123.952 33.7408C123.973 33.7541 123.977 33.757 123.971 33.7529C123.969 33.7513 123.964 33.7476 123.957 33.7421C123.951 33.7374 123.939 33.7269 123.923 33.7118C123.913 33.7022 123.873 33.6646 123.836 33.6057C123.817 33.5766 123.78 33.514 123.758 33.4253C123.735 33.3321 123.721 33.1703 123.811 33.001L124.87 33.5658C124.961 33.396 124.947 33.2337 124.924 33.1399C124.902 33.0505 124.864 32.9871 124.845 32.9572C124.806 32.8965 124.765 32.8568 124.752 32.8446C124.72 32.8136 124.689 32.7913 124.678 32.7831C124.649 32.762 124.617 32.7413 124.59 32.7245C124.533 32.6887 124.454 32.6415 124.357 32.5855C124.162 32.4723 123.876 32.3108 123.51 32.1072C122.778 31.6995 121.716 31.1174 120.403 30.4036C117.778 28.9757 114.145 27.0183 110.126 24.8707L109.561 25.9291Z" fill="#E8E8E8" mask="url(#path-33-inside-12_1426_29277)"/>
<mask id="path-35-inside-13_1426_29277" fill="white">
<path d="M122.043 37.5779C122.013 37.6347 115.471 34.1971 107.436 29.8991C99.3969 25.601 92.9044 22.0686 92.9347 22.0118C92.965 21.9549 99.5068 25.3926 107.546 29.6944C115.581 33.9886 122.073 37.521 122.043 37.5779Z"/>
</mask>
<path d="M122.043 37.5779C122.013 37.6347 115.471 34.1971 107.436 29.8991C99.3969 25.601 92.9044 22.0686 92.9347 22.0118C92.965 21.9549 99.5068 25.3926 107.546 29.6944C115.581 33.9886 122.073 37.521 122.043 37.5779Z" fill="#D1CCCC"/>
<path d="M107.436 29.8991L107.719 29.37L107.719 29.3699L107.436 29.8991ZM107.546 29.6944L107.263 30.2234L107.263 30.2236L107.546 29.6944ZM121.514 37.2955C121.604 37.1262 121.746 37.0477 121.837 37.0147C121.923 36.9834 121.995 36.9793 122.03 36.9787C122.1 36.9774 122.153 36.9893 122.167 36.9923C122.188 36.9971 122.204 37.0019 122.212 37.0042C122.22 37.0068 122.226 37.009 122.228 37.0099C122.235 37.0124 122.231 37.011 122.208 37.0007C122.166 36.9821 122.098 36.9497 122.001 36.902C121.808 36.8074 121.523 36.663 121.152 36.4727C120.411 36.0926 119.342 35.5349 118.02 34.8405C115.378 33.4518 111.735 31.5185 107.719 29.37L107.153 30.4281C111.171 32.5776 114.817 34.5122 117.462 35.9027C118.784 36.5977 119.858 37.1575 120.604 37.5403C120.976 37.7314 121.269 37.8798 121.472 37.9791C121.572 38.0283 121.655 38.0682 121.717 38.0958C121.745 38.1086 121.781 38.1238 121.814 38.1362C121.827 38.141 121.863 38.154 121.907 38.1637C121.924 38.1675 121.98 38.1798 122.052 38.1785C122.088 38.1778 122.161 38.1737 122.248 38.1421C122.339 38.1089 122.482 38.03 122.572 37.8602L121.514 37.2955ZM107.719 29.3699C103.7 27.2214 100.069 25.2645 97.446 23.8379C96.1344 23.1245 95.0765 22.5444 94.349 22.1395C93.9848 21.9367 93.706 21.7794 93.5204 21.6717C93.4267 21.6173 93.3619 21.5786 93.3233 21.5544C93.3021 21.541 93.2985 21.5382 93.3041 21.5423C93.3064 21.5439 93.3114 21.5476 93.3182 21.553C93.3241 21.5578 93.3369 21.5683 93.3527 21.5834C93.3628 21.593 93.4021 21.6306 93.44 21.6895C93.4587 21.7186 93.4957 21.7812 93.5174 21.8699C93.5402 21.963 93.5544 22.1249 93.4641 22.2941L92.4053 21.7294C92.3148 21.8991 92.3289 22.0615 92.3518 22.1553C92.3737 22.2446 92.4111 22.3081 92.4303 22.338C92.4693 22.3987 92.5106 22.4384 92.5233 22.4506C92.5557 22.4816 92.5862 22.5039 92.5974 22.5121C92.6264 22.5332 92.6585 22.5539 92.6852 22.5706C92.7422 22.6065 92.8217 22.6537 92.9182 22.7097C93.1133 22.8229 93.3996 22.9844 93.7654 23.188C94.498 23.5957 95.5599 24.178 96.8726 24.892C99.4984 26.3204 103.133 28.2787 107.153 30.4282L107.719 29.3699ZM93.4641 22.2941C93.3738 22.4635 93.2314 22.542 93.141 22.5749C93.055 22.6063 92.9822 22.6103 92.9476 22.611C92.8774 22.6123 92.8242 22.6004 92.8106 22.5974C92.7893 22.5926 92.7734 22.5877 92.7661 22.5854C92.7579 22.5828 92.752 22.5807 92.7494 22.5797C92.7428 22.5773 92.7472 22.5787 92.77 22.5889C92.8116 22.6076 92.8797 22.6399 92.977 22.6877C93.1696 22.7822 93.4552 22.9267 93.826 23.117C94.5665 23.4972 95.6363 24.0549 96.9578 24.7497C99.6002 26.1388 103.244 28.073 107.263 30.2234L107.829 29.1654C103.808 27.014 100.162 25.0784 97.5162 23.6875C96.1935 22.9922 95.1197 22.4323 94.374 22.0495C94.0016 21.8583 93.7083 21.7099 93.5059 21.6105C93.4057 21.5613 93.3223 21.5215 93.2609 21.4939C93.2322 21.4811 93.1971 21.4658 93.1635 21.4535C93.1504 21.4486 93.1149 21.4357 93.0711 21.426C93.0539 21.4221 92.9978 21.4099 92.9256 21.4112C92.8899 21.4118 92.8163 21.416 92.7297 21.4476C92.6387 21.4808 92.4958 21.5596 92.4053 21.7294L93.4641 22.2941ZM107.263 30.2236C111.28 32.3702 114.91 34.3261 117.532 35.7522C118.844 36.4654 119.901 37.0454 120.629 37.4503C120.993 37.653 121.272 37.8103 121.457 37.9179C121.551 37.9723 121.616 38.011 121.654 38.0353C121.676 38.0486 121.679 38.0515 121.674 38.0474C121.671 38.0458 121.666 38.042 121.659 38.0366C121.654 38.0319 121.641 38.0214 121.625 38.0063C121.615 37.9967 121.576 37.9591 121.538 37.9002C121.519 37.8711 121.482 37.8085 121.46 37.7198C121.437 37.6266 121.423 37.4648 121.514 37.2955L122.572 37.8602C122.663 37.6905 122.649 37.5282 122.626 37.4343C122.604 37.345 122.567 37.2816 122.547 37.2517C122.508 37.191 122.467 37.1513 122.454 37.1391C122.422 37.1081 122.392 37.0858 122.38 37.0775C122.351 37.0565 122.319 37.0358 122.293 37.019C122.235 36.9832 122.156 36.936 122.059 36.88C121.864 36.7668 121.578 36.6053 121.212 36.4017C120.48 35.994 119.418 35.4119 118.106 34.6981C115.48 33.2702 111.847 31.3128 107.828 29.1652L107.263 30.2236Z" fill="#E8E8E8" mask="url(#path-35-inside-13_1426_29277)"/>
<mask id="path-37-inside-14_1426_29277" fill="white">
<path d="M119.748 41.8721C119.717 41.9289 113.175 38.4913 105.14 34.1933C97.1015 29.8952 90.6089 26.3628 90.6393 26.306C90.6696 26.2491 97.2114 29.6868 105.25 33.9886C113.285 38.2828 119.778 41.8152 119.748 41.8721Z"/>
</mask>
<path d="M119.748 41.8721C119.717 41.9289 113.175 38.4913 105.14 34.1933C97.1015 29.8952 90.6089 26.3628 90.6393 26.306C90.6696 26.2491 97.2114 29.6868 105.25 33.9886C113.285 38.2828 119.778 41.8152 119.748 41.8721Z" fill="#D1CCCC"/>
<path d="M105.14 34.1933L105.423 33.6642L105.423 33.6641L105.14 34.1933ZM105.25 33.9886L104.967 34.5176L104.967 34.5178L105.25 33.9886ZM119.218 41.5897C119.308 41.4204 119.451 41.3419 119.541 41.3089C119.627 41.2776 119.7 41.2735 119.735 41.2729C119.805 41.2716 119.858 41.2835 119.872 41.2865C119.893 41.2912 119.909 41.2961 119.916 41.2984C119.924 41.301 119.93 41.3032 119.933 41.3041C119.939 41.3065 119.935 41.3052 119.912 41.2949C119.871 41.2763 119.803 41.2439 119.705 41.1962C119.513 41.1016 119.227 40.9572 118.856 40.7669C118.116 40.3868 117.046 39.8291 115.725 39.1346C113.083 37.7459 109.44 35.8127 105.423 33.6642L104.857 34.7223C108.876 36.8718 112.521 38.8064 115.167 40.1968C116.489 40.8919 117.563 41.4517 118.308 41.8344C118.681 42.0256 118.974 42.174 119.176 42.2733C119.277 42.3225 119.36 42.3624 119.421 42.3899C119.45 42.4028 119.485 42.418 119.519 42.4304C119.532 42.4352 119.567 42.4482 119.611 42.4579C119.628 42.4617 119.684 42.474 119.757 42.4727C119.792 42.472 119.866 42.4678 119.953 42.4363C120.044 42.403 120.186 42.3242 120.277 42.1544L119.218 41.5897ZM105.423 33.6641C101.405 31.5156 97.7731 29.5587 95.1506 28.1321C93.839 27.4187 92.7811 26.8386 92.0536 26.4337C91.6894 26.2309 91.4106 26.0736 91.225 25.9659C91.1313 25.9115 91.0665 25.8728 91.0279 25.8486C91.0066 25.8352 91.0031 25.8323 91.0087 25.8365C91.011 25.8381 91.016 25.8418 91.0228 25.8472C91.0287 25.852 91.0415 25.8625 91.0573 25.8776C91.0673 25.8872 91.1067 25.9247 91.1446 25.9837C91.1633 26.0127 91.2003 26.0754 91.222 26.1641C91.2448 26.2572 91.2589 26.4191 91.1687 26.5883L90.1099 26.0236C90.0193 26.1933 90.0335 26.3557 90.0564 26.4495C90.0783 26.5388 90.1157 26.6022 90.1349 26.6322C90.1739 26.6929 90.2152 26.7326 90.2279 26.7448C90.2603 26.7758 90.2907 26.7981 90.302 26.8063C90.331 26.8274 90.3631 26.8481 90.3897 26.8648C90.4468 26.9006 90.5263 26.9479 90.6228 27.0039C90.8179 27.1171 91.1042 27.2786 91.47 27.4822C92.2026 27.8899 93.2645 28.4722 94.5771 29.1862C97.203 30.6146 100.837 32.5729 104.857 34.7224L105.423 33.6641ZM91.1687 26.5883C91.0784 26.7577 90.9359 26.8361 90.8455 26.8691C90.7596 26.9005 90.6868 26.9045 90.6521 26.9052C90.582 26.9065 90.5288 26.8946 90.5152 26.8915C90.4939 26.8868 90.4779 26.8819 90.4707 26.8796C90.4625 26.877 90.4566 26.8749 90.454 26.8739C90.4474 26.8715 90.4517 26.8729 90.4746 26.8831C90.5162 26.9018 90.5843 26.9341 90.6816 26.9819C90.8742 27.0764 91.1597 27.2209 91.5305 27.4112C92.2711 27.7914 93.3409 28.3491 94.6624 29.0439C97.3048 30.433 100.949 32.3672 104.967 34.5176L105.533 33.4596C101.513 31.3082 97.8665 29.3726 95.2207 27.9817C93.8981 27.2864 92.8243 26.7265 92.0786 26.3437C91.7062 26.1525 91.4129 26.0041 91.2105 25.9047C91.1103 25.8555 91.0269 25.8157 90.9655 25.7881C90.9368 25.7752 90.9017 25.76 90.8681 25.7477C90.855 25.7428 90.8195 25.7299 90.7757 25.7201C90.7585 25.7163 90.7024 25.704 90.6302 25.7054C90.5945 25.706 90.5209 25.7102 90.4343 25.7418C90.3433 25.775 90.2004 25.8538 90.1099 26.0236L91.1687 26.5883ZM104.967 34.5178C108.984 36.6644 112.615 38.6203 115.237 40.0464C116.548 40.7596 117.606 41.3396 118.333 41.7445C118.698 41.9472 118.976 42.1045 119.162 42.2121C119.256 42.2665 119.32 42.3052 119.359 42.3295C119.38 42.3428 119.384 42.3457 119.378 42.3416C119.376 42.3399 119.371 42.3362 119.364 42.3308C119.358 42.3261 119.345 42.3156 119.33 42.3005C119.319 42.2909 119.28 42.2533 119.242 42.1944C119.224 42.1653 119.187 42.1027 119.165 42.014C119.142 41.9208 119.128 41.759 119.218 41.5897L120.277 42.1544C120.367 41.9847 120.353 41.8223 120.33 41.7285C120.309 41.6392 120.271 41.5758 120.252 41.5458C120.213 41.4852 120.172 41.4455 120.159 41.4333C120.127 41.4023 120.096 41.38 120.085 41.3717C120.056 41.3506 120.024 41.3299 119.997 41.3132C119.94 41.2774 119.861 41.2302 119.764 41.1742C119.569 41.061 119.283 40.8995 118.917 40.6959C118.184 40.2882 117.123 39.7061 115.81 38.9923C113.185 37.5644 109.552 35.607 105.533 33.4594L104.967 34.5178Z" fill="#E8E8E8" mask="url(#path-37-inside-14_1426_29277)"/>
<mask id="path-39-inside-15_1426_29277" fill="white">
<path d="M117.45 46.1669C117.419 46.2237 110.878 42.7861 102.843 38.4881C94.8036 34.19 88.3111 30.6576 88.3414 30.6008C88.3717 30.5439 94.9135 33.9816 102.952 38.2834C110.988 42.5776 117.48 46.11 117.45 46.1669Z"/>
</mask>
<path d="M117.45 46.1669C117.419 46.2237 110.878 42.7861 102.843 38.4881C94.8036 34.19 88.3111 30.6576 88.3414 30.6008C88.3717 30.5439 94.9135 33.9816 102.952 38.2834C110.988 42.5776 117.48 46.11 117.45 46.1669Z" fill="#D1CCCC"/>
<path d="M102.843 38.4881L103.126 37.959L103.125 37.9589L102.843 38.4881ZM102.952 38.2834L102.669 38.8124L102.67 38.8126L102.952 38.2834ZM116.92 45.8845C117.011 45.7152 117.153 45.6367 117.243 45.6037C117.329 45.5724 117.402 45.5683 117.437 45.5677C117.507 45.5664 117.56 45.5783 117.574 45.5813C117.595 45.5861 117.611 45.5909 117.618 45.5932C117.627 45.5958 117.632 45.598 117.635 45.5989C117.642 45.6013 117.637 45.6 117.614 45.5897C117.573 45.5711 117.505 45.5387 117.407 45.491C117.215 45.3964 116.929 45.252 116.558 45.0617C115.818 44.6816 114.748 44.1239 113.427 43.4294C110.785 42.0407 107.142 40.1075 103.126 37.959L102.56 39.0171C106.578 41.1666 110.223 43.1012 112.869 44.4917C114.191 45.1867 115.265 45.7465 116.01 46.1292C116.383 46.3204 116.676 46.4688 116.879 46.5681C116.979 46.6173 117.062 46.6572 117.124 46.6847C117.152 46.6976 117.187 46.7128 117.221 46.7252C117.234 46.73 117.27 46.743 117.313 46.7527C117.331 46.7565 117.387 46.7688 117.459 46.7675C117.494 46.7668 117.568 46.7626 117.655 46.7311C117.746 46.6978 117.889 46.619 117.979 46.4492L116.92 45.8845ZM103.125 37.9589C99.1068 35.8104 95.4753 33.8535 92.8527 32.4269C91.5412 31.7135 90.4832 31.1334 89.7557 30.7285C89.3915 30.5257 89.1127 30.3684 88.9272 30.2607C88.8334 30.2063 88.7687 30.1676 88.73 30.1434C88.7088 30.13 88.7052 30.1271 88.7109 30.1313C88.7131 30.1329 88.7181 30.1366 88.7249 30.142C88.7308 30.1468 88.7437 30.1573 88.7595 30.1724C88.7695 30.182 88.8089 30.2195 88.8467 30.2785C88.8654 30.3075 88.9024 30.3702 88.9241 30.4589C88.9469 30.552 88.9611 30.7139 88.8708 30.8831L87.812 30.3184C87.7215 30.4881 87.7356 30.6505 87.7586 30.7443C87.7805 30.8336 87.8178 30.897 87.8371 30.927C87.876 30.9876 87.9173 31.0274 87.93 31.0396C87.9624 31.0706 87.9929 31.0929 88.0042 31.1011C88.0331 31.1222 88.0653 31.1429 88.0919 31.1596C88.1489 31.1954 88.2284 31.2427 88.325 31.2987C88.5201 31.4119 88.8064 31.5734 89.1721 31.777C89.9047 32.1847 90.9666 32.767 92.2793 33.481C94.9051 34.9094 98.5393 36.8677 102.56 39.0172L103.125 37.9589ZM88.8708 30.8831C88.7805 31.0525 88.6381 31.1309 88.5477 31.1639C88.4617 31.1953 88.3889 31.1993 88.3543 31.2C88.2841 31.2013 88.2309 31.1894 88.2174 31.1863C88.196 31.1816 88.1801 31.1767 88.1729 31.1744C88.1646 31.1718 88.1587 31.1697 88.1561 31.1687C88.1495 31.1663 88.1539 31.1677 88.1767 31.1779C88.2184 31.1966 88.2865 31.2289 88.3838 31.2767C88.5763 31.3712 88.8619 31.5157 89.2327 31.706C89.9733 32.0862 91.043 32.6439 92.3645 33.3387C95.007 34.7278 98.6508 36.662 102.669 38.8124L103.236 37.7544C99.2152 35.603 95.5686 33.6674 92.9229 32.2765C91.6003 31.5812 90.5265 31.0213 89.7807 30.6385C89.4084 30.4473 89.1151 30.2989 88.9127 30.1995C88.8125 30.1503 88.7291 30.1105 88.6676 30.0829C88.6389 30.07 88.6039 30.0548 88.5702 30.0425C88.5571 30.0376 88.5216 30.0247 88.4778 30.0149C88.4606 30.0111 88.4045 29.9988 88.3323 30.0002C88.2967 30.0008 88.223 30.005 88.1364 30.0366C88.0454 30.0698 87.9026 30.1486 87.812 30.3184L88.8708 30.8831ZM102.67 38.8126C106.686 40.9592 110.317 42.9151 112.939 44.3412C114.25 45.0544 115.308 45.6344 116.035 46.0393C116.4 46.242 116.678 46.3993 116.864 46.5069C116.958 46.5613 117.022 46.6 117.061 46.6243C117.082 46.6376 117.086 46.6405 117.08 46.6364C117.078 46.6348 117.073 46.631 117.066 46.6256C117.06 46.6209 117.047 46.6104 117.032 46.5953C117.022 46.5857 116.982 46.5481 116.944 46.4892C116.926 46.4601 116.889 46.3975 116.867 46.3088C116.844 46.2156 116.83 46.0538 116.92 45.8845L117.979 46.4492C118.07 46.2795 118.056 46.1171 118.033 46.0233C118.011 45.934 117.973 45.8706 117.954 45.8407C117.915 45.78 117.874 45.7403 117.861 45.7281C117.829 45.6971 117.798 45.6748 117.787 45.6665C117.758 45.6454 117.726 45.6247 117.699 45.608C117.642 45.5722 117.563 45.525 117.466 45.469C117.271 45.3558 116.985 45.1943 116.619 44.9907C115.887 44.583 114.825 44.0009 113.512 43.2871C110.887 41.8592 107.254 39.9018 103.235 37.7542L102.67 38.8126Z" fill="#E8E8E8" mask="url(#path-39-inside-15_1426_29277)"/>
<path d="M218.816 139.634C218.816 139.688 169.829 139.733 109.414 139.733C48.9762 139.733 0 139.688 0 139.634C0 139.581 48.9762 139.536 109.414 139.536C169.829 139.536 218.816 139.578 218.816 139.634Z" fill="#263238"/>
<path d="M80.5865 61.8261L67.1845 130.731L65.4297 139.752L154.9 139.312C158.914 139.293 162.473 135.726 163.765 130.432L179.631 65.3775C180.612 61.3562 178.459 57.1756 175.412 57.1756L84.858 57.2704C82.8568 57.2742 81.1095 59.1389 80.5865 61.8261Z" fill="#45C27A"/>
<g opacity="0.5">
<path opacity="0.5" d="M80.5865 61.8261L67.1845 130.731L65.4297 139.752L154.9 139.312C158.914 139.293 162.473 135.726 163.765 130.432L179.631 65.3775C180.612 61.3562 178.459 57.1756 175.412 57.1756L84.858 57.2704C82.8568 57.2742 81.1095 59.1389 80.5865 61.8261Z" fill="black"/>
</g>
<path d="M146.319 126.066L136.847 49.7282C136.461 46.6013 133.967 44.2666 131.026 44.278L110.252 44.3462C108.713 44.35 107.239 45.0057 106.147 46.1655L96.2852 56.649L38.512 56.9522C34.9834 56.9712 32.2696 60.3103 32.7358 64.0663L41.5327 134.62C41.9231 137.743 44.4095 140.074 47.3468 140.066L148.032 139.869C159.247 140.1 160.316 136.792 160.316 136.792C147.464 139.634 146.319 126.073 146.319 126.066Z" fill="#45C27A"/>
</svg>
