<svg width="21" height="20" viewBox="0 0 21 20" fill="none" xmlns="http://www.w3.org/2000/svg">
<g clip-path="url(#clip0_732_23727)">
<path fill-rule="evenodd" clip-rule="evenodd" d="M5.25635 9.99992C5.25635 9.63173 5.55482 9.33325 5.92301 9.33325H15.2564C15.6245 9.33325 15.923 9.63173 15.923 9.99992C15.923 10.3681 15.6245 10.6666 15.2564 10.6666H5.92301C5.55482 10.6666 5.25635 10.3681 5.25635 9.99992Z" fill="#0E9549"/>
<path fill-rule="evenodd" clip-rule="evenodd" d="M11.0611 4.86201C11.3214 5.12236 11.3214 5.54447 11.0611 5.80482L6.86582 10.0001L11.0611 14.1953C11.3214 14.4557 11.3214 14.8778 11.0611 15.1382C10.8007 15.3985 10.3786 15.3985 10.1183 15.1382L5.45161 10.4715C5.19126 10.2111 5.19126 9.78903 5.45161 9.52868L10.1183 4.86201C10.3786 4.60166 10.8007 4.60166 11.0611 4.86201Z" fill="#0E9549"/>
</g>
<rect x="1.08984" y="0.5" width="19" height="19" rx="9.5" stroke="#0E9549"/>
<defs>
<clipPath id="clip0_732_23727">
<rect x="0.589844" width="20" height="20" rx="10" fill="white"/>
</clipPath>
</defs>
</svg>
