<svg width="33" height="32" viewBox="0 0 33 32" fill="none" xmlns="http://www.w3.org/2000/svg">
<g clip-path="url(#clip0_1471_16539)">
<path d="M20.268 16.3703C20.2617 15.3047 20.7445 14.5016 21.7195 13.9094C21.1742 13.1281 20.3492 12.6984 19.2617 12.6156C18.232 12.5344 17.1055 13.2156 16.693 13.2156C16.257 13.2156 15.2602 12.6438 14.4758 12.6438C12.857 12.6688 11.1367 13.9344 11.1367 16.5094C11.1367 17.2703 11.2758 18.0563 11.5539 18.8656C11.9258 19.9313 13.2664 22.5422 14.6648 22.5C15.3961 22.4828 15.9133 21.9813 16.8648 21.9813C17.7883 21.9813 18.2664 22.5 19.082 22.5C20.493 22.4797 21.7055 20.1063 22.0586 19.0375C20.1664 18.1453 20.268 16.425 20.268 16.3703ZM18.6258 11.6047C19.418 10.6641 19.3461 9.80781 19.3227 9.5C18.6227 9.54063 17.8133 9.97656 17.3523 10.5125C16.8445 11.0875 16.5461 11.7984 16.6102 12.6C17.3664 12.6578 18.057 12.2688 18.6258 11.6047Z" fill="white"/>
</g>
<rect x="1.08984" y="0.5" width="31" height="31" rx="15.5" stroke="white"/>
<defs>
<clipPath id="clip0_1471_16539">
<rect x="0.589844" width="32" height="32" rx="16" fill="white"/>
</clipPath>
</defs>
</svg>
