<svg width="201" height="47" viewBox="0 0 201 47" fill="none" xmlns="http://www.w3.org/2000/svg">
<path d="M22.8594 27.7344C21.7031 29.5156 20.3672 30.7969 18.8516 31.5781C17.3516 32.3438 15.4375 32.7266 13.1094 32.7266C9.34375 32.7266 6.32031 31.5703 4.03906 29.2578C1.77344 26.9453 0.640625 23.9062 0.640625 20.1406C0.640625 16.9688 1.44531 13.875 3.05469 10.8594C4.67969 7.84375 6.80469 5.42188 9.42969 3.59375C12.0703 1.76562 14.7188 0.851562 17.375 0.851562C19.3125 0.851562 20.8438 1.39062 21.9688 2.46875C23.1094 3.54688 23.6797 5.02344 23.6797 6.89844C23.6797 9.64844 22.6875 12.1172 20.7031 14.3047C18.7188 16.4766 16.5703 17.5625 14.2578 17.5625C13.0859 17.5625 12.125 17.2031 11.375 16.4844C10.6406 15.7656 10.2734 14.8281 10.2734 13.6719C10.2734 11.8281 11.3125 10.0938 13.3906 8.46875L13.8828 9.05469C12.7578 9.78906 12.1953 10.9453 12.1953 12.5234C12.1953 13.4922 12.5234 14.2891 13.1797 14.9141C13.8516 15.5234 14.6953 15.8281 15.7109 15.8281C17.2891 15.8281 18.6875 15.1484 19.9062 13.7891C21.1406 12.4141 21.7578 10.7578 21.7578 8.82031C21.7578 6.94531 21.1797 5.4375 20.0234 4.29688C18.8672 3.15625 17.3438 2.58594 15.4531 2.58594C12.2969 2.58594 9.5 4.0625 7.0625 7.01562C4.625 9.96875 3.40625 13.5156 3.40625 17.6562C3.40625 21.4688 4.49219 24.6484 6.66406 27.1953C8.85156 29.7266 11.6094 30.9922 14.9375 30.9922C16.5938 30.9922 17.9688 30.7031 19.0625 30.125C20.1719 29.5312 21.1797 28.5391 22.0859 27.1484L22.8594 27.7344ZM21.4062 28.1562C23.4375 25.2656 25.1016 23.3984 26.3984 22.5547C27.6953 21.7109 29.0547 21.2891 30.4766 21.2891C31.8359 21.2891 32.8984 21.6484 33.6641 22.3672C34.4453 23.0859 34.8359 24.0859 34.8359 25.3672C34.8359 27.1953 34.1016 28.8672 32.6328 30.3828C31.1641 31.8828 29.4531 32.6328 27.5 32.6328C26.2344 32.6328 25.2188 32.2578 24.4531 31.5078C23.7031 30.7422 23.3281 29.7734 23.3281 28.6016C23.3281 27.9766 23.375 27.4141 23.4688 26.9141C23.2344 27.1797 22.8047 27.7891 22.1797 28.7422L21.4062 28.1562ZM29.0234 31.0859C30.2109 31.0859 31.1562 30.6562 31.8594 29.7969C32.5625 28.9375 32.9141 27.7969 32.9141 26.375C32.9141 25.1406 32.5859 24.1797 31.9297 23.4922C31.2734 22.7891 30.4062 22.4375 29.3281 22.4375C28.1875 22.4375 27.2734 22.8516 26.5859 23.6797C25.9141 24.5078 25.5781 25.6641 25.5781 27.1484C25.5781 29.7734 26.7266 31.0859 29.0234 31.0859ZM37.4844 28.2969C36.2344 30.0781 35.0547 31.2578 33.9453 31.8359C32.8359 32.3984 31.7266 32.7422 30.6172 32.8672L30.4297 32.3281C33.0078 31.75 35.1016 30.2188 36.7109 27.7344L37.4844 28.2969ZM53.5391 28.2969C51.6484 31.0781 49.8438 32.4688 48.125 32.4688C47.5625 32.4688 47.1328 32.2891 46.8359 31.9297C46.5391 31.5547 46.3906 30.7109 46.3906 29.3984V24.0312C46.3906 23.2031 46.1328 22.7891 45.6172 22.7891C45.3672 22.7891 45.1016 22.8828 44.8203 23.0703C44.5547 23.2578 44.2656 23.5391 43.9531 23.9141C43.6406 24.2734 43.1953 24.8828 42.6172 25.7422C42.0547 26.5859 41.7734 27.0547 41.7734 27.1484V31.3672L39.4297 32.8672V24.9922C38.9453 26.2266 38.2109 27.4766 37.2266 28.7422L36.5 28.1562C38.0781 25.9375 39.0703 23.9375 39.4766 22.1562L41.7734 21.0547V25.4141C42.9141 23.7578 43.8359 22.6484 44.5391 22.0859C45.2422 21.5234 45.9531 21.2422 46.6719 21.2422C47.3281 21.2422 47.8359 21.4766 48.1953 21.9453C48.5547 22.4141 48.7344 23.5703 48.7344 25.4141V28.5547C48.7344 29.3984 48.7656 29.9766 48.8281 30.2891C48.9062 30.6016 49.1016 30.7578 49.4141 30.7578C50.1797 30.7578 51.3125 29.7344 52.8125 27.6875L53.5391 28.2969ZM70.8125 27.875C69.0625 30.6719 67.4766 32.1562 66.0547 32.3281V39.7344C66.0547 41.7188 65.4297 43.3203 64.1797 44.5391C62.9297 45.7734 61.3984 46.3906 59.5859 46.3906C58.3672 46.3906 57.25 46.1094 56.2344 45.5469C55.2188 45 54.5938 44.3281 54.3594 43.5312L56.3281 41.6562L56.6562 41.9844C56.5938 42.1875 56.5625 42.3984 56.5625 42.6172C56.5625 43.4141 56.875 44.1172 57.5 44.7266C58.1406 45.3359 58.9141 45.6406 59.8203 45.6406C61.0391 45.6406 61.9922 45.1641 62.6797 44.2109C63.3672 43.2734 63.7109 41.9531 63.7109 40.25V29.7031C62.1953 31.625 60.5625 32.5859 58.8125 32.5859C57.5156 32.5859 56.4531 32.1172 55.625 31.1797C54.8125 30.2422 54.4062 29.1875 54.4062 28.0156V27.0547L53.2578 28.6953L52.4844 28.1562C54.3594 25.5 55.8906 23.6953 57.0781 22.7422C58.2656 21.7734 59.4531 21.2891 60.6406 21.2891C61.9375 21.2891 62.9609 21.6562 63.7109 22.3906L66.0547 20.9609V30.9453C67.1484 30.8516 68.5 29.6328 70.1094 27.2891L70.8125 27.875ZM63.7109 28.1094V23.7031C62.9922 22.6094 62.0312 22.0625 60.8281 22.0625C59.7031 22.0625 58.7578 22.5156 57.9922 23.4219C57.2266 24.3281 56.8438 25.4297 56.8438 26.7266C56.8438 27.9453 57.125 28.8984 57.6875 29.5859C58.25 30.2734 59.0234 30.6172 60.0078 30.6172C61.0703 30.6172 61.9531 30.2656 62.6562 29.5625C63.3594 28.8438 63.7109 28.3594 63.7109 28.1094ZM82.0156 28.2969C80.25 31.0781 78.4766 32.4688 76.6953 32.4688C74.8672 32.4688 73.9531 31.4297 73.9531 29.3516C73.9531 27.6641 74.7578 25.8281 76.3672 23.8438C76.0859 23.9062 75.5859 23.9375 74.8672 23.9375C74.3984 23.9375 73.9062 23.8438 73.3906 23.6562C72.5938 25.3906 71.5391 27.0859 70.2266 28.7422L69.5 28.1562C70.9688 26.0312 72.25 23.6172 73.3438 20.9141C74.8438 21.6172 76.0234 21.9688 76.8828 21.9688C77.6953 21.9688 78.3984 21.6484 78.9922 21.0078L79.3906 21.2891C78.4375 22.4766 77.6719 23.6797 77.0938 24.8984C76.5156 26.1016 76.2266 27.4297 76.2266 28.8828C76.2266 29.3359 76.375 29.7656 76.6719 30.1719C76.9688 30.5625 77.2969 30.7578 77.6562 30.7578C78.25 30.7578 78.8203 30.5156 79.3672 30.0312C79.9141 29.5469 80.5625 28.7812 81.3125 27.7344L82.0156 28.2969ZM98.5859 28.2969C96.8047 31.0781 95.0625 32.4688 93.3594 32.4688C92.7188 32.4688 92.2578 32.2969 91.9766 31.9531C91.6953 31.6094 91.5469 30.8906 91.5312 29.7969C90.5938 30.9531 89.7969 31.7031 89.1406 32.0469C88.5 32.4062 87.7656 32.5859 86.9375 32.5859C85.7344 32.5859 84.7734 32.1719 84.0547 31.3438C83.3516 30.5156 83 29.4062 83 28.0156V27.0078C82.8281 27.2266 82.4297 27.7891 81.8047 28.6953L81.0312 28.1562C82.4062 26.0312 83.8516 24.3672 85.3672 23.1641C86.8984 21.9453 88.2344 21.3359 89.375 21.3359C90.1875 21.3359 90.9922 21.5781 91.7891 22.0625L93.8516 21.0078V28.9766C93.8516 29.8203 93.8906 30.3281 93.9688 30.5C94.0469 30.6719 94.2578 30.7578 94.6016 30.7578C94.8984 30.7578 95.3438 30.4922 95.9375 29.9609C96.5312 29.4297 97.1797 28.6719 97.8828 27.6875L98.5859 28.2969ZM91.4844 28.0156V23.3047C90.8594 22.6641 90.1094 22.3438 89.2344 22.3438C88.2969 22.3438 87.4531 22.7812 86.7031 23.6562C85.9531 24.5312 85.5781 25.6172 85.5781 26.9141C85.5781 28.0391 85.8438 28.9141 86.375 29.5391C86.9062 30.1484 87.6328 30.4531 88.5547 30.4531C89.2734 30.4531 89.9375 30.1016 90.5469 29.3984C91.1719 28.6797 91.4844 28.2188 91.4844 28.0156ZM108.43 28.25C106.664 31.0625 104.797 32.4688 102.828 32.4688C101.891 32.4688 101.305 32.25 101.07 31.8125C100.836 31.3594 100.719 30.6406 100.719 29.6562V23.9844C99.6719 25.7812 98.6484 27.3516 97.6484 28.6953L96.875 28.1562C97.4531 27.2969 97.9453 26.5469 98.3516 25.9062C98.7578 25.2656 99.25 24.4297 99.8281 23.3984C100.422 22.3516 100.719 21.7656 100.719 21.6406V12.0312L103.062 9.73438V18.6641L106.672 12.9922L107.586 13.6719L103.062 20.8203V28.0156C103.062 29.1094 103.109 29.8438 103.203 30.2188C103.297 30.5781 103.555 30.7578 103.977 30.7578C105.039 30.7578 106.305 29.7188 107.773 27.6406L108.43 28.25ZM125.023 28.2969C123.133 31.0781 121.328 32.4688 119.609 32.4688C119.031 32.4688 118.586 32.2812 118.273 31.9062C117.977 31.5156 117.828 30.6797 117.828 29.3984V27.4297C116.141 29.9141 114.953 31.4141 114.266 31.9297C113.578 32.4297 112.93 32.6797 112.32 32.6797C111.68 32.6797 111.18 32.4609 110.82 32.0234C110.477 31.5859 110.305 30.5703 110.305 28.9766V25.1328C109.633 26.6328 108.945 27.8203 108.242 28.6953L107.469 28.1562C108.859 26.1562 109.805 24.1406 110.305 22.1094L112.648 20.9141V29.3984C112.648 30.0078 112.68 30.4219 112.742 30.6406C112.82 30.8438 113.016 30.9453 113.328 30.9453C113.672 30.9453 114.117 30.6797 114.664 30.1484C115.227 29.6172 115.891 28.7656 116.656 27.5938C117.438 26.4219 117.828 25.7812 117.828 25.6719V22.1094L120.195 20.9141V28.25C120.195 29.2188 120.227 29.8828 120.289 30.2422C120.367 30.5859 120.57 30.7578 120.898 30.7578C121.664 30.7578 122.805 29.7344 124.32 27.6875L125.023 28.2969ZM124.016 28.1562C124.312 27.7344 124.578 27.3438 124.812 26.9844C125.062 26.6094 125.312 26.1875 125.562 25.7188C125.812 25.2344 126.086 24.6094 126.383 23.8438C126.695 23.0625 126.852 22.5469 126.852 22.2969V13.2266C126.852 10.9922 127.555 8.96875 128.961 7.15625C130.367 5.34375 131.836 4.4375 133.367 4.4375C134.18 4.4375 134.812 4.71875 135.266 5.28125C135.734 5.84375 135.969 6.59375 135.969 7.53125C135.969 8.78125 135.453 10.4688 134.422 12.5938C133.391 14.7031 131.648 17.6641 129.195 21.4766V28.25C129.195 29.2188 129.234 29.8828 129.312 30.2422C129.391 30.5859 129.594 30.7578 129.922 30.7578C130.625 30.7578 131.758 29.7344 133.32 27.6875L134.047 28.2969C132.188 31.0781 130.344 32.4688 128.516 32.4688C127.969 32.4688 127.555 32.2891 127.273 31.9297C126.992 31.5547 126.852 30.7109 126.852 29.3984V25.1328C126.367 26.3672 125.664 27.5703 124.742 28.7422L124.016 28.1562ZM129.195 19.7656C131.289 16.3281 132.664 13.8359 133.32 12.2891C133.992 10.7266 134.328 9.375 134.328 8.23438C134.328 6.48437 133.789 5.60938 132.711 5.60938C131.727 5.60938 130.891 6.16406 130.203 7.27344C129.531 8.38281 129.195 9.89062 129.195 11.7969V19.7656ZM150.617 28.2969C148.836 31.0781 147.094 32.4688 145.391 32.4688C144.75 32.4688 144.289 32.2969 144.008 31.9531C143.727 31.6094 143.578 30.8906 143.562 29.7969C142.625 30.9531 141.828 31.7031 141.172 32.0469C140.531 32.4062 139.797 32.5859 138.969 32.5859C137.766 32.5859 136.805 32.1719 136.086 31.3438C135.383 30.5156 135.031 29.4062 135.031 28.0156V27.0078C134.859 27.2266 134.461 27.7891 133.836 28.6953L133.062 28.1562C134.438 26.0312 135.883 24.3672 137.398 23.1641C138.93 21.9453 140.266 21.3359 141.406 21.3359C142.219 21.3359 143.023 21.5781 143.82 22.0625L145.883 21.0078V28.9766C145.883 29.8203 145.922 30.3281 146 30.5C146.078 30.6719 146.289 30.7578 146.633 30.7578C146.93 30.7578 147.375 30.4922 147.969 29.9609C148.562 29.4297 149.211 28.6719 149.914 27.6875L150.617 28.2969ZM143.516 28.0156V23.3047C142.891 22.6641 142.141 22.3438 141.266 22.3438C140.328 22.3438 139.484 22.7812 138.734 23.6562C137.984 24.5312 137.609 25.6172 137.609 26.9141C137.609 28.0391 137.875 28.9141 138.406 29.5391C138.938 30.1484 139.664 30.4531 140.586 30.4531C141.305 30.4531 141.969 30.1016 142.578 29.3984C143.203 28.6797 143.516 28.2188 143.516 28.0156ZM160.461 28.25C158.695 31.0625 156.828 32.4688 154.859 32.4688C153.922 32.4688 153.336 32.25 153.102 31.8125C152.867 31.3594 152.75 30.6406 152.75 29.6562V23.9844C151.703 25.7812 150.68 27.3516 149.68 28.6953L148.906 28.1562C149.484 27.2969 149.977 26.5469 150.383 25.9062C150.789 25.2656 151.281 24.4297 151.859 23.3984C152.453 22.3516 152.75 21.7656 152.75 21.6406V12.0312L155.094 9.73438V18.6641L158.703 12.9922L159.617 13.6719L155.094 20.8203V28.0156C155.094 29.1094 155.141 29.8438 155.234 30.2188C155.328 30.5781 155.586 30.7578 156.008 30.7578C157.07 30.7578 158.336 29.7188 159.805 27.6406L160.461 28.25ZM165.5 16.4844L163.859 18.5703L162.195 16.4844L163.859 14.4688L165.5 16.4844ZM169.531 28.2969C168.641 29.6406 167.727 30.6719 166.789 31.3906C165.852 32.1094 165.008 32.4688 164.258 32.4688C163.414 32.4688 162.883 32.2422 162.664 31.7891C162.445 31.3359 162.336 30.5391 162.336 29.3984V25.1328C161.852 26.3672 161.148 27.5703 160.227 28.7422L159.5 28.1562C160.953 26.1406 161.898 24.1875 162.336 22.2969L164.68 21.0547V28.4844C164.68 29.4062 164.719 30.0156 164.797 30.3125C164.891 30.6094 165.109 30.7578 165.453 30.7578C166.156 30.7578 167.289 29.7344 168.852 27.6875L169.531 28.2969ZM168.5 28.1562C170.531 25.2656 172.195 23.3984 173.492 22.5547C174.789 21.7109 176.148 21.2891 177.57 21.2891C178.93 21.2891 179.992 21.6484 180.758 22.3672C181.539 23.0859 181.93 24.0859 181.93 25.3672C181.93 27.1953 181.195 28.8672 179.727 30.3828C178.258 31.8828 176.547 32.6328 174.594 32.6328C173.328 32.6328 172.312 32.2578 171.547 31.5078C170.797 30.7422 170.422 29.7734 170.422 28.6016C170.422 27.9766 170.469 27.4141 170.562 26.9141C170.328 27.1797 169.898 27.7891 169.273 28.7422L168.5 28.1562ZM176.117 31.0859C177.305 31.0859 178.25 30.6562 178.953 29.7969C179.656 28.9375 180.008 27.7969 180.008 26.375C180.008 25.1406 179.68 24.1797 179.023 23.4922C178.367 22.7891 177.5 22.4375 176.422 22.4375C175.281 22.4375 174.367 22.8516 173.68 23.6797C173.008 24.5078 172.672 25.6641 172.672 27.1484C172.672 29.7734 173.82 31.0859 176.117 31.0859ZM184.578 28.2969C183.328 30.0781 182.148 31.2578 181.039 31.8359C179.93 32.3984 178.82 32.7422 177.711 32.8672L177.523 32.3281C180.102 31.75 182.195 30.2188 183.805 27.7344L184.578 28.2969ZM200.633 28.2969C198.742 31.0781 196.938 32.4688 195.219 32.4688C194.656 32.4688 194.227 32.2891 193.93 31.9297C193.633 31.5547 193.484 30.7109 193.484 29.3984V24.0312C193.484 23.2031 193.227 22.7891 192.711 22.7891C192.461 22.7891 192.195 22.8828 191.914 23.0703C191.648 23.2578 191.359 23.5391 191.047 23.9141C190.734 24.2734 190.289 24.8828 189.711 25.7422C189.148 26.5859 188.867 27.0547 188.867 27.1484V31.3672L186.523 32.8672V24.9922C186.039 26.2266 185.305 27.4766 184.32 28.7422L183.594 28.1562C185.172 25.9375 186.164 23.9375 186.57 22.1562L188.867 21.0547V25.4141C190.008 23.7578 190.93 22.6484 191.633 22.0859C192.336 21.5234 193.047 21.2422 193.766 21.2422C194.422 21.2422 194.93 21.4766 195.289 21.9453C195.648 22.4141 195.828 23.5703 195.828 25.4141V28.5547C195.828 29.3984 195.859 29.9766 195.922 30.2891C196 30.6016 196.195 30.7578 196.508 30.7578C197.273 30.7578 198.406 29.7344 199.906 27.6875L200.633 28.2969Z" fill="#C62828"/>
</svg>
