<svg width="17" height="16" viewBox="0 0 17 16" fill="none" xmlns="http://www.w3.org/2000/svg">
<path fill-rule="evenodd" clip-rule="evenodd" d="M3.25647 3.33333C2.89133 3.33333 2.5898 3.63486 2.5898 4V12C2.5898 12.3651 2.89133 12.6667 3.25647 12.6667H13.9231C14.2883 12.6667 14.5898 12.3651 14.5898 12V4C14.5898 3.63486 14.2883 3.33333 13.9231 3.33333H3.25647ZM1.25647 4C1.25647 2.89848 2.15495 2 3.25647 2H13.9231C15.0247 2 15.9231 2.89848 15.9231 4V12C15.9231 13.1015 15.0247 14 13.9231 14H3.25647C2.15495 14 1.25647 13.1015 1.25647 12V4Z" fill="#8C8C8C"/>
<path fill-rule="evenodd" clip-rule="evenodd" d="M1.37704 3.6177C1.58818 3.31607 2.00387 3.24271 2.3055 3.45385L8.58986 7.8529L14.8742 3.45385C15.1758 3.24271 15.5915 3.31607 15.8027 3.6177C16.0138 3.91933 15.9405 4.33502 15.6388 4.54616L8.97217 9.21283C8.74262 9.37351 8.4371 9.37351 8.20755 9.21283L1.54089 4.54616C1.23925 4.33502 1.1659 3.91933 1.37704 3.6177Z" fill="#8C8C8C"/>
</svg>
