<svg width="40" height="40" viewBox="0 0 40 40" fill="none" xmlns="http://www.w3.org/2000/svg">
<rect width="40" height="40" fill="#0E9549"/>
<rect width="40" height="40" fill="white" fill-opacity="0.85"/>
<g clip-path="url(#clip0_732_23737)">
<path d="M12.731 10.0145C13.8117 9.98548 14.8943 10.0108 15.9759 10.0005C16.2377 9.99444 16.4913 10.0915 16.6822 10.2707C16.8731 10.4499 16.9859 10.697 16.9963 10.9586C17.0068 11.2202 16.914 11.4755 16.7381 11.6693C16.5621 11.8632 16.317 11.9802 16.0556 11.995C15.0292 12.0119 14.0019 11.9885 12.9747 12.0025C12.7201 12.0082 12.4774 12.1116 12.297 12.2914C12.1166 12.4711 12.0122 12.7134 12.0055 12.9679C11.9915 13.999 12.0149 15.03 11.998 16.0535C11.9927 16.1847 11.9615 16.3135 11.9064 16.4326C11.8513 16.5517 11.7732 16.6588 11.6767 16.7478C11.5802 16.8367 11.4671 16.9058 11.3438 16.951C11.2206 16.9963 11.0897 17.0168 10.9586 17.0114C10.8274 17.0061 10.6986 16.975 10.5795 16.9198C10.4604 16.8647 10.3533 16.7866 10.2643 16.6901C10.0847 16.4952 9.98983 16.2368 10.0006 15.972C10.0053 14.9128 9.98939 13.8537 10.0072 12.7945C10.0803 11.3661 11.3054 10.1167 12.731 10.0145Z" fill="#26A05B"/>
<path d="M23.872 10.0129C24.8927 9.98853 25.9181 10.0063 26.9416 9.99978C27.3371 9.99246 27.7301 10.0634 28.098 10.2086C28.4659 10.3538 28.8015 10.5703 29.0854 10.8456C29.3693 11.121 29.5959 11.4498 29.7523 11.8131C29.9086 12.1764 29.9915 12.5671 29.9963 12.9626C29.9963 13.9936 30.0028 15.0246 29.9963 16.0556C29.9832 16.2918 29.8867 16.5157 29.724 16.6874C29.5613 16.859 29.3429 16.9673 29.1077 16.9929C28.5613 17.067 28.012 16.6077 28.0036 16.0556C27.9933 15.0246 28.0101 13.9992 27.9979 12.971C27.9898 12.7179 27.8857 12.4773 27.7068 12.2981C27.5279 12.1188 27.2875 12.0143 27.0344 12.0056C26.0034 11.9934 24.9723 12.0103 23.9413 11.999C23.6918 11.9865 23.4561 11.8808 23.2808 11.7028C23.1055 11.5248 23.0035 11.2875 22.9947 11.0378C22.986 10.7882 23.0713 10.5443 23.2337 10.3545C23.3962 10.1647 23.6239 10.0428 23.872 10.0129Z" fill="#0E9549"/>
<path d="M14.6747 15.0553C15.3176 14.8041 16.074 15.3814 15.9991 16.0675C15.9606 16.6234 16.149 17.3104 15.6766 17.7331C15.208 18.2018 14.3203 18.0143 14.0776 17.3966C13.937 16.9692 14.0307 16.5043 14.0017 16.061C13.9906 15.8432 14.0501 15.6277 14.1713 15.4465C14.2926 15.2653 14.4691 15.1281 14.6747 15.0553Z" fill="#26A05B"/>
<path d="M18.6235 15.0754C19.2327 14.7942 20.0088 15.2976 20.0004 15.9678C20.0069 16.9688 20.0004 17.9698 20.0004 18.9718C19.9949 19.142 20.0332 19.3108 20.1116 19.4619C20.1901 19.6131 20.306 19.7416 20.4484 19.835C20.784 20.0872 21.2629 19.9147 21.5882 20.195C22.0934 20.5436 22.129 21.3581 21.6556 21.749C21.2695 22.1033 20.6986 22.0096 20.2338 21.8999C19.0031 21.5915 18.0517 20.4274 18.0068 19.1574C17.9899 18.1264 18.0068 17.0897 18.0011 16.0558C17.9917 15.8483 18.0464 15.6429 18.1577 15.4675C18.2691 15.2922 18.4317 15.1552 18.6235 15.0754Z" fill="#26A05B"/>
<path d="M24.548 15.1063C25.1957 14.7371 26.0693 15.3238 25.9989 16.0586C25.9587 16.5948 26.1423 17.2349 25.7374 17.6736C25.3578 18.1169 24.593 18.1019 24.2331 17.6408C23.8788 17.2303 24.0334 16.651 23.995 16.1571C23.9711 15.9467 24.0111 15.7339 24.1097 15.5465C24.2084 15.3592 24.3611 15.2058 24.548 15.1063Z" fill="#26A05B"/>
<path d="M15.7377 22.0347C15.9375 21.9813 16.1489 21.9906 16.3432 22.0613C16.5375 22.1321 16.7054 22.2609 16.8241 22.4302C17.1873 22.905 17.6523 23.2924 18.1851 23.5636C18.7178 23.8348 19.3046 23.9831 19.9023 23.9975C20.4999 24.0119 21.0932 23.892 21.6383 23.6468C22.1835 23.4014 22.6667 23.037 23.0524 22.5802C23.2192 22.3768 23.387 22.1481 23.6494 22.0637C23.8948 21.9732 24.1658 21.982 24.4047 22.0883C24.6437 22.1946 24.8317 22.3899 24.9289 22.6327C24.9927 22.7892 25.0153 22.9594 24.9944 23.1272C24.9736 23.2949 24.91 23.4545 24.8098 23.5906C24.2714 24.3129 23.5771 24.9047 22.7787 25.322C21.9802 25.7392 21.098 25.9713 20.1975 26.0009C19.2971 26.0306 18.4015 25.857 17.5774 25.4931C16.7532 25.1292 16.0216 24.5843 15.4369 23.899C15.2391 23.6646 15.0188 23.4153 15.0019 23.0929C14.9813 22.8582 15.0436 22.6238 15.178 22.4304C15.3125 22.237 15.5106 22.097 15.7377 22.0347Z" fill="#26A05B"/>
<path d="M10.6678 23.0561C11.263 22.8189 11.9903 23.3007 11.9978 23.9418C12.0091 24.9682 11.9931 25.9955 12.0044 27.0227C12.011 27.2781 12.1151 27.5211 12.2953 27.7021C12.4756 27.883 12.7183 27.9881 12.9735 27.9957C14.0046 28.0069 15.0272 27.991 16.0535 28.0013C16.6065 28.0097 17.0667 28.5571 16.9908 29.1026C16.963 29.3526 16.8426 29.5831 16.6533 29.7488C16.4641 29.9144 16.2196 30.0033 15.9682 29.9977C14.909 29.9977 13.8499 30.0099 12.7908 29.9893C11.3426 29.919 10.0726 28.6611 10.007 27.2102C9.9892 26.1501 10.0061 25.09 9.99951 24.0309C9.9939 23.8187 10.0555 23.6101 10.1755 23.4351C10.2956 23.26 10.4679 23.1273 10.6678 23.0561Z" fill="#26A05B"/>
<path d="M28.6617 23.0571C29.2625 22.8143 29.988 23.2989 29.9936 23.9457C29.9983 25.0301 30.0058 26.1165 29.9936 27.2009C29.9233 28.6584 28.6495 29.9284 27.1911 29.9912C26.1385 30.0062 25.085 29.9912 24.0324 29.9969C23.7698 30.0048 23.5146 29.9089 23.3222 29.7299C23.1298 29.5509 23.0158 29.3033 23.0048 29.0408C22.9938 28.7783 23.0868 28.522 23.2635 28.3276C23.4403 28.1331 23.6866 28.0163 23.949 28.0023C24.98 27.9854 26.0045 28.0088 27.0327 27.9948C27.2865 27.9872 27.5277 27.8827 27.7069 27.7029C27.8861 27.523 27.9897 27.2813 27.9963 27.0275C28.0103 25.9965 27.9869 24.972 28.0037 23.9457C28.0135 23.7492 28.0813 23.56 28.1983 23.4019C28.3154 23.2437 28.4766 23.1238 28.6617 23.0571Z" fill="#26A05B"/>
</g>
<defs>
<clipPath id="clip0_732_23737">
<rect width="20" height="20" fill="white" transform="translate(10 10)"/>
</clipPath>
</defs>
</svg>
