<svg width="41" height="40" viewBox="0 0 41 40" fill="none" xmlns="http://www.w3.org/2000/svg">
<g clip-path="url(#clip0_732_23733)">
<rect width="40" height="40" transform="translate(0.589844)" fill="#0E9549"/>
<rect width="40" height="40" transform="translate(0.589844)" fill="white" fill-opacity="0.85"/>
<path d="M25.4317 13.7251C25.365 13.7251 25.2984 13.7084 25.24 13.6751C23.64 12.8501 22.2567 12.5001 20.5984 12.5001C18.9484 12.5001 17.3817 12.8917 15.9567 13.6751C15.7567 13.7834 15.5067 13.7084 15.39 13.5084C15.2817 13.3084 15.3567 13.0501 15.5567 12.9417C17.1067 12.1001 18.8067 11.6667 20.5984 11.6667C22.3734 11.6667 23.9234 12.0584 25.6234 12.9334C25.8317 13.0417 25.9067 13.2917 25.7984 13.4917C25.7234 13.6417 25.5817 13.7251 25.4317 13.7251ZM13.5067 18.1001C13.4234 18.1001 13.34 18.0751 13.265 18.0251C13.0734 17.8917 13.0317 17.6334 13.165 17.4417C13.99 16.2751 15.04 15.3584 16.29 14.7167C18.9067 13.3667 22.2567 13.3584 24.8817 14.7084C26.1317 15.3501 27.1817 16.2584 28.0067 17.4167C28.14 17.6001 28.0984 17.8667 27.9067 18.0001C27.715 18.1334 27.4567 18.0917 27.3234 17.9001C26.5734 16.8501 25.6234 16.0251 24.4984 15.4501C22.1067 14.2251 19.0484 14.2251 16.665 15.4584C15.5317 16.0417 14.5817 16.8751 13.8317 17.9251C13.765 18.0417 13.64 18.1001 13.5067 18.1001ZM18.715 28.1584C18.6067 28.1584 18.4984 28.1167 18.4234 28.0334C17.6984 27.3084 17.3067 26.8417 16.7484 25.8334C16.1734 24.8084 15.8734 23.5584 15.8734 22.2167C15.8734 19.7417 17.99 17.7251 20.59 17.7251C23.19 17.7251 25.3067 19.7417 25.3067 22.2167C25.3067 22.4501 25.1234 22.6334 24.89 22.6334C24.6567 22.6334 24.4734 22.4501 24.4734 22.2167C24.4734 20.2001 22.7317 18.5584 20.59 18.5584C18.4484 18.5584 16.7067 20.2001 16.7067 22.2167C16.7067 23.4167 16.9734 24.5251 17.4817 25.4251C18.015 26.3834 18.3817 26.7917 19.0234 27.4417C19.1817 27.6084 19.1817 27.8667 19.0234 28.0334C18.9317 28.1167 18.8234 28.1584 18.715 28.1584ZM24.69 26.6167C23.6984 26.6167 22.8234 26.3667 22.1067 25.8751C20.865 25.0334 20.1234 23.6667 20.1234 22.2167C20.1234 21.9834 20.3067 21.8001 20.54 21.8001C20.7734 21.8001 20.9567 21.9834 20.9567 22.2167C20.9567 23.3917 21.5567 24.5001 22.5734 25.1834C23.165 25.5834 23.8567 25.7751 24.69 25.7751C24.89 25.7751 25.2234 25.7501 25.5567 25.6917C25.7817 25.6501 25.9984 25.8001 26.04 26.0334C26.0817 26.2584 25.9317 26.4751 25.6984 26.5167C25.2234 26.6084 24.8067 26.6167 24.69 26.6167ZM23.015 28.3334C22.9817 28.3334 22.94 28.3251 22.9067 28.3167C21.5817 27.9501 20.715 27.4584 19.8067 26.5667C18.64 25.4084 17.9984 23.8667 17.9984 22.2167C17.9984 20.8667 19.1484 19.7667 20.565 19.7667C21.9817 19.7667 23.1317 20.8667 23.1317 22.2167C23.1317 23.1084 23.9067 23.8334 24.865 23.8334C25.8234 23.8334 26.5984 23.1084 26.5984 22.2167C26.5984 19.0751 23.89 16.5251 20.5567 16.5251C18.19 16.5251 16.0234 17.8417 15.0484 19.8834C14.7234 20.5584 14.5567 21.3501 14.5567 22.2167C14.5567 22.8667 14.615 23.8917 15.115 25.2251C15.1984 25.4417 15.09 25.6834 14.8734 25.7584C14.6567 25.8417 14.415 25.7251 14.34 25.5167C13.9317 24.4251 13.7317 23.3417 13.7317 22.2167C13.7317 21.2167 13.9234 20.3084 14.2984 19.5167C15.4067 17.1917 17.865 15.6834 20.5567 15.6834C24.3484 15.6834 27.4317 18.6084 27.4317 22.2084C27.4317 23.5584 26.2817 24.6584 24.865 24.6584C23.4484 24.6584 22.2984 23.5584 22.2984 22.2084C22.2984 21.3167 21.5234 20.5917 20.565 20.5917C19.6067 20.5917 18.8317 21.3167 18.8317 22.2084C18.8317 23.6334 19.3817 24.9667 20.39 25.9667C21.1817 26.7501 21.94 27.1834 23.115 27.5084C23.34 27.5667 23.465 27.8001 23.4067 28.0168C23.365 28.2084 23.19 28.3334 23.015 28.3334Z" fill="#0E9549"/>
</g>
<defs>
<clipPath id="clip0_732_23733">
<path d="M0.589844 20C0.589844 8.95431 9.54415 0 20.5898 0C31.6355 0 40.5898 8.95431 40.5898 20C40.5898 31.0457 31.6355 40 20.5898 40C9.54415 40 0.589844 31.0457 0.589844 20Z" fill="white"/>
</clipPath>
</defs>
</svg>
