<svg width="33" height="32" viewBox="0 0 33 32" fill="none" xmlns="http://www.w3.org/2000/svg">
<g clip-path="url(#clip0_3_9435)">
<path d="M14.9355 22.6667L14.9171 16.6061H12.5898V14.1818H14.9171V12.6667C14.9171 10.4173 16.2543 9.33334 18.1806 9.33334C19.1033 9.33334 19.8964 9.40489 20.1275 9.43688V11.7876L18.7915 11.7882C17.7439 11.7882 17.541 12.3068 17.541 13.0677V14.1818H20.5898L19.4262 16.6061H17.541V22.6667H14.9355Z" fill="white"/>
</g>
<path d="M16.5898 31C8.30557 31 1.58984 24.2843 1.58984 16H-0.410156C-0.410156 25.3888 7.201 33 16.5898 33V31ZM31.5898 16C31.5898 24.2843 24.8741 31 16.5898 31V33C25.9787 33 33.5898 25.3888 33.5898 16H31.5898ZM16.5898 1C24.8741 1 31.5898 7.71573 31.5898 16H33.5898C33.5898 6.61116 25.9787 -1 16.5898 -1V1ZM16.5898 -1C7.201 -1 -0.410156 6.61116 -0.410156 16H1.58984C1.58984 7.71573 8.30557 1 16.5898 1V-1Z" fill="white"/>
<defs>
<clipPath id="clip0_3_9435">
<path d="M0.589844 16C0.589844 7.16344 7.75329 0 16.5898 0C25.4264 0 32.5898 7.16344 32.5898 16C32.5898 24.8366 25.4264 32 16.5898 32C7.75329 32 0.589844 24.8366 0.589844 16Z" fill="white"/>
</clipPath>
</defs>
</svg>
