<svg width="33" height="32" viewBox="0 0 33 32" fill="none" xmlns="http://www.w3.org/2000/svg">
<g clip-path="url(#clip0_3_9436)">
<path d="M22.8938 14.7693C22.9758 15.2087 23.0204 15.668 23.0204 16.1473C23.0204 19.8967 20.5111 22.5627 16.7211 22.5627C15.8592 22.5629 15.0057 22.3934 14.2094 22.0636C13.413 21.7339 12.6895 21.2505 12.08 20.6411C11.4706 20.0316 10.9872 19.3081 10.6575 18.5117C10.3278 17.7154 10.1582 16.8619 10.1584 16C10.1582 15.1381 10.3278 14.2846 10.6575 13.4883C10.9872 12.6919 11.4706 11.9684 12.08 11.3589C12.6895 10.7495 13.413 10.2661 14.2094 9.93635C15.0057 9.60664 15.8592 9.43707 16.7211 9.43733C18.4931 9.43733 19.9738 10.0893 21.1098 11.148L19.2598 12.998V12.9933C18.5711 12.3373 17.6971 12.0007 16.7211 12.0007C14.5558 12.0007 12.7958 13.83 12.7958 15.996C12.7958 18.1613 14.5558 19.9947 16.7211 19.9947C18.6858 19.9947 20.0231 18.8713 20.2978 17.3287H16.7211V14.7693H22.8944H22.8938Z" fill="white"/>
</g>
<path d="M16.5898 31C8.30557 31 1.58984 24.2843 1.58984 16H-0.410156C-0.410156 25.3888 7.201 33 16.5898 33V31ZM31.5898 16C31.5898 24.2843 24.8741 31 16.5898 31V33C25.9787 33 33.5898 25.3888 33.5898 16H31.5898ZM16.5898 1C24.8741 1 31.5898 7.71573 31.5898 16H33.5898C33.5898 6.61116 25.9787 -1 16.5898 -1V1ZM16.5898 -1C7.201 -1 -0.410156 6.61116 -0.410156 16H1.58984C1.58984 7.71573 8.30557 1 16.5898 1V-1Z" fill="white"/>
<defs>
<clipPath id="clip0_3_9436">
<path d="M0.589844 16C0.589844 7.16344 7.75329 0 16.5898 0C25.4264 0 32.5898 7.16344 32.5898 16C32.5898 24.8366 25.4264 32 16.5898 32C7.75329 32 0.589844 24.8366 0.589844 16Z" fill="white"/>
</clipPath>
</defs>
</svg>
