<svg width="33" height="32" viewBox="0 0 33 32" fill="none" xmlns="http://www.w3.org/2000/svg">
<g clip-path="url(#clip0_3_9437)">
<path d="M16.5892 13.9177C15.4423 13.9177 14.5064 14.8536 14.5064 16.0005C14.5064 17.1473 15.4423 18.0833 16.5892 18.0833C17.7361 18.0833 18.672 17.1473 18.672 16.0005C18.672 14.8536 17.7361 13.9177 16.5892 13.9177ZM22.8361 16.0005C22.8361 15.138 22.8439 14.2833 22.7954 13.4223C22.747 12.4223 22.5189 11.5348 21.7876 10.8036C21.0548 10.0708 20.1689 9.84422 19.1689 9.79578C18.3064 9.74734 17.4517 9.75516 16.5907 9.75516C15.7282 9.75516 14.8736 9.74734 14.0126 9.79578C13.0126 9.84422 12.1251 10.0723 11.3939 10.8036C10.6611 11.5364 10.4345 12.4223 10.3861 13.4223C10.3376 14.2848 10.3454 15.1395 10.3454 16.0005C10.3454 16.8614 10.3376 17.7177 10.3861 18.5786C10.4345 19.5786 10.6626 20.4661 11.3939 21.1973C12.1267 21.9302 13.0126 22.1567 14.0126 22.2052C14.8751 22.2536 15.7298 22.2458 16.5907 22.2458C17.4532 22.2458 18.3079 22.2536 19.1689 22.2052C20.1689 22.1567 21.0564 21.9286 21.7876 21.1973C22.5204 20.4645 22.747 19.5786 22.7954 18.5786C22.8454 17.7177 22.8361 16.863 22.8361 16.0005ZM16.5892 19.2052C14.8157 19.2052 13.3845 17.7739 13.3845 16.0005C13.3845 14.227 14.8157 12.7958 16.5892 12.7958C18.3626 12.7958 19.7939 14.227 19.7939 16.0005C19.7939 17.7739 18.3626 19.2052 16.5892 19.2052ZM19.9251 13.413C19.5111 13.413 19.1767 13.0786 19.1767 12.6645C19.1767 12.2505 19.5111 11.9161 19.9251 11.9161C20.3392 11.9161 20.6736 12.2505 20.6736 12.6645C20.6737 12.7629 20.6544 12.8602 20.6168 12.9511C20.5793 13.042 20.5241 13.1245 20.4546 13.194C20.3851 13.2636 20.3025 13.3187 20.2117 13.3562C20.1208 13.3938 20.0234 13.4131 19.9251 13.413Z" fill="white"/>
</g>
<path d="M16.5898 31C8.30557 31 1.58984 24.2843 1.58984 16H-0.410156C-0.410156 25.3888 7.201 33 16.5898 33V31ZM31.5898 16C31.5898 24.2843 24.8741 31 16.5898 31V33C25.9787 33 33.5898 25.3888 33.5898 16H31.5898ZM16.5898 1C24.8741 1 31.5898 7.71573 31.5898 16H33.5898C33.5898 6.61116 25.9787 -1 16.5898 -1V1ZM16.5898 -1C7.201 -1 -0.410156 6.61116 -0.410156 16H1.58984C1.58984 7.71573 8.30557 1 16.5898 1V-1Z" fill="white"/>
<defs>
<clipPath id="clip0_3_9437">
<path d="M0.589844 16C0.589844 7.16344 7.75329 0 16.5898 0C25.4264 0 32.5898 7.16344 32.5898 16C32.5898 24.8366 25.4264 32 16.5898 32C7.75329 32 0.589844 24.8366 0.589844 16Z" fill="white"/>
</clipPath>
</defs>
</svg>
