<svg width="33" height="32" viewBox="0 0 33 32" fill="none" xmlns="http://www.w3.org/2000/svg">
<g clip-path="url(#clip0_3_9438)">
<path d="M22.3398 9.75H10.8398C10.5633 9.75 10.3398 9.97344 10.3398 10.25V21.75C10.3398 22.0266 10.5633 22.25 10.8398 22.25H22.3398C22.6164 22.25 22.8398 22.0266 22.8398 21.75V10.25C22.8398 9.97344 22.6164 9.75 22.3398 9.75ZM14.0477 20.4016H12.193V14.4359H14.0477V20.4016ZM13.1211 13.6203C12.9085 13.6203 12.7006 13.5573 12.5239 13.4391C12.3471 13.321 12.2093 13.1531 12.1279 12.9567C12.0466 12.7603 12.0253 12.5441 12.0667 12.3356C12.1082 12.1271 12.2106 11.9355 12.361 11.7852C12.5113 11.6348 12.7028 11.5324 12.9114 11.491C13.1199 11.4495 13.336 11.4708 13.5325 11.5521C13.7289 11.6335 13.8968 11.7713 14.0149 11.9481C14.133 12.1249 14.1961 12.3327 14.1961 12.5453C14.1945 13.1391 13.7133 13.6203 13.1211 13.6203ZM20.9914 20.4016H19.1383V17.5C19.1383 16.8078 19.1258 15.9187 18.1742 15.9187C17.2102 15.9187 17.0617 16.6719 17.0617 17.45V20.4016H15.2102V14.4359H16.9883V15.2516H17.0133C17.2602 14.7828 17.8648 14.2875 18.768 14.2875C20.6461 14.2875 20.9914 15.5234 20.9914 17.1297V20.4016Z" fill="white"/>
</g>
<path d="M16.5898 31C8.30557 31 1.58984 24.2843 1.58984 16H-0.410156C-0.410156 25.3888 7.201 33 16.5898 33V31ZM31.5898 16C31.5898 24.2843 24.8741 31 16.5898 31V33C25.9787 33 33.5898 25.3888 33.5898 16H31.5898ZM16.5898 1C24.8741 1 31.5898 7.71573 31.5898 16H33.5898C33.5898 6.61116 25.9787 -1 16.5898 -1V1ZM16.5898 -1C7.201 -1 -0.410156 6.61116 -0.410156 16H1.58984C1.58984 7.71573 8.30557 1 16.5898 1V-1Z" fill="white"/>
<defs>
<clipPath id="clip0_3_9438">
<path d="M0.589844 16C0.589844 7.16344 7.75329 0 16.5898 0C25.4264 0 32.5898 7.16344 32.5898 16C32.5898 24.8366 25.4264 32 16.5898 32C7.75329 32 0.589844 24.8366 0.589844 16Z" fill="white"/>
</clipPath>
</defs>
</svg>
