<svg width="17" height="16" viewBox="0 0 17 16" fill="none" xmlns="http://www.w3.org/2000/svg">
<path fill-rule="evenodd" clip-rule="evenodd" d="M3.56615 10.3096C4.19128 9.6845 5.03912 9.33331 5.92318 9.33331H11.2565C12.1406 9.33331 12.9884 9.6845 13.6135 10.3096C14.2387 10.9347 14.5898 11.7826 14.5898 12.6666V14C14.5898 14.3682 14.2914 14.6666 13.9232 14.6666C13.555 14.6666 13.2565 14.3682 13.2565 14V12.6666C13.2565 12.1362 13.0458 11.6275 12.6707 11.2524C12.2957 10.8774 11.7869 10.6666 11.2565 10.6666H5.92318C5.39274 10.6666 4.88404 10.8774 4.50896 11.2524C4.13389 11.6275 3.92318 12.1362 3.92318 12.6666V14C3.92318 14.3682 3.6247 14.6666 3.25651 14.6666C2.88832 14.6666 2.58984 14.3682 2.58984 14V12.6666C2.58984 11.7826 2.94103 10.9347 3.56615 10.3096Z" fill="#8C8C8C"/>
<path fill-rule="evenodd" clip-rule="evenodd" d="M8.5898 2.66665C7.48523 2.66665 6.5898 3.56208 6.5898 4.66665C6.5898 5.77122 7.48523 6.66665 8.5898 6.66665C9.69437 6.66665 10.5898 5.77122 10.5898 4.66665C10.5898 3.56208 9.69437 2.66665 8.5898 2.66665ZM5.25647 4.66665C5.25647 2.8257 6.74885 1.33331 8.5898 1.33331C10.4308 1.33331 11.9231 2.8257 11.9231 4.66665C11.9231 6.5076 10.4308 7.99998 8.5898 7.99998C6.74885 7.99998 5.25647 6.5076 5.25647 4.66665Z" fill="#8C8C8C"/>
</svg>
