<svg width="245" height="246" viewBox="0 0 245 246" fill="none" xmlns="http://www.w3.org/2000/svg">
<path d="M185.517 233.137C191.273 225.981 194.72 205.437 194.72 205.437C199.598 209.076 203.874 213.464 207.392 218.439C213.806 217.475 220.114 215.892 226.226 213.714C232.507 211.548 238.483 208.573 244 204.861C231.757 186.771 211.031 155.95 198.279 146.261C193.334 142.518 178.06 138.866 178.06 138.866C174.591 135.723 167.044 138.866 167.044 138.866C126.222 149.291 88.8705 135.791 88.8705 135.791C88.8705 135.791 83.5762 133.338 79.2395 135.791C75.0171 135.323 70.756 135.323 66.5336 135.791C57.1843 137.08 46.9789 147.798 42.7662 152.671L6.87853 194.391C6.87853 194.391 5.68453 210.808 8.26401 212.978C28.5396 230.424 58.4459 190.773 58.4459 190.773C58.6261 190.863 59.0992 225.302 75.0943 243.313C75.0943 243.313 86.4487 248.514 130.548 244.444C174.264 240.407 185.517 233.137 185.517 233.137Z" fill="#26A05B"/>
<path opacity="0.2" d="M32.5158 182.057C25.7573 182.656 22.2091 181.028 20.8573 178.134C30.6346 166.827 42.0452 153.509 42.7549 152.683L43.8813 151.395C48.9502 162.836 53.1629 180.259 32.5158 182.057Z" fill="black"/>
<path opacity="0.2" d="M62.5573 217.987C60.2661 209.082 58.8661 199.97 58.3784 190.785C58.3784 190.785 63.2896 184.317 64.6525 177.534C64.6525 177.534 71.0281 203.064 62.5573 217.987Z" fill="black"/>
<path opacity="0.2" d="M203.664 213.714C201.002 210.62 197.997 207.839 194.709 205.427C194.709 205.427 195.249 189.236 199.755 184.317C203.326 180.383 207.19 200.87 203.664 213.714Z" fill="black"/>
<path d="M185.517 233.137C191.273 225.981 194.72 205.438 194.72 205.438C199.598 209.078 203.874 213.466 207.392 218.439" stroke="#263238" stroke-linecap="round" stroke-linejoin="round"/>
<path d="M244 204.871C231.757 186.782 211.031 155.961 198.279 146.272C193.334 142.529 178.06 138.878 178.06 138.878C174.591 135.734 167.044 138.878 167.044 138.878C126.222 149.302 88.8705 135.802 88.8705 135.802C88.8705 135.802 83.5762 133.349 79.2395 135.802C75.0171 135.334 70.756 135.334 66.5335 135.802C57.1843 137.091 46.9789 147.81 42.7662 152.682L6.87853 194.391C6.87853 194.391 5.68453 210.808 8.26401 212.978C28.5396 230.424 58.4459 190.773 58.4459 190.773C58.6261 190.863 59.0992 225.302 75.0943 243.313" stroke="#263238" stroke-linecap="round" stroke-linejoin="round"/>
<path d="M168.553 128.918L168.013 129.144C168.203 129.097 168.386 129.021 168.553 128.918Z" fill="#263238"/>
<path d="M180.685 98.3907C184.976 99.0238 186.012 95.8693 186.012 95.8693C186.012 95.8693 180.685 98.3907 175.976 88.6899C173.284 83.1612 174.613 73.0084 176.246 65.2975C179.547 59.8365 184.334 52.2842 184.965 43.3296C186.091 27.9532 178.894 20.1519 170.592 22.4471C170.592 22.4471 169.984 9.45626 158.303 4.79812C146.622 0.139969 144.786 3.96146 133.522 1.13491C122.257 -1.69163 111.275 0.807034 107.242 8.12213C103.21 15.4372 101.835 28.722 94.9981 33.8663C88.1607 39.0105 76.0742 51.3909 79.8815 65.241C83.6888 79.0911 81.5374 83.8283 76.5022 90.3745C71.4672 96.9208 74.5311 109.799 84.1619 113.801C84.1619 113.801 80.0955 111.63 82.9679 107.978C82.9679 107.978 85.2208 116.661 92.7339 115.079C100.247 113.496 109.788 112.964 114.654 118.312C119.52 123.66 137.306 125.096 141.316 121.026C145.326 116.955 148.435 120.732 155.701 124.417C162.966 128.103 171.031 124.87 171.031 124.87C171.031 124.87 170.355 128.024 168.621 128.963C170.096 128.341 174.185 126.385 175.379 123.445C176.573 120.506 177.249 117.668 175.807 110.805C180.854 108.815 178.522 105.48 178.522 105.48C183.242 108.216 185.483 100.324 185.483 100.324C181 100.222 180.685 98.3907 180.685 98.3907Z" fill="#263238"/>
<path d="M171.133 140.292C171.133 140.292 139.334 154.493 129.129 155.069C118.923 155.646 84.1508 137.092 84.1508 137.092L110.644 129.834C114.249 122.926 114.339 114.819 113.483 105.311C113.201 102.36 112.852 99.5785 112.469 97.0797C111.568 91.0536 110.577 86.9043 110.577 86.9043L148.007 88.4644C147.227 90.8526 146.584 93.2837 146.081 95.7456C145.051 100.852 144.46 106.038 144.313 111.246C143.896 124.248 145.89 131.597 145.89 131.597L171.133 140.292Z" fill="white" stroke="#263238" stroke-linecap="round" stroke-linejoin="round"/>
<path d="M93.7253 141.976C93.7253 141.976 113.775 145.504 118.754 144.927C123.733 144.35 127.664 149.269 127.664 149.269" fill="white"/>
<path d="M93.7253 141.976C93.7253 141.976 113.775 145.504 118.754 144.927C123.733 144.35 127.664 149.269 127.664 149.269" stroke="#263238" stroke-linecap="round" stroke-linejoin="round"/>
<path d="M164.183 143.288C164.183 143.288 143.772 145.458 138.816 145.617C133.86 145.775 132.407 149.269 132.407 149.269" fill="white"/>
<path d="M164.183 143.288C164.183 143.288 143.772 145.458 138.816 145.617C133.86 145.775 132.407 149.269 132.407 149.269" stroke="#263238" stroke-linecap="round" stroke-linejoin="round"/>
<path d="M146.081 95.689C145.051 100.796 144.46 105.981 144.313 111.19C141.241 113.91 137.682 116.02 133.826 117.408C127.529 119.5 119.182 111.755 113.483 105.31C113.201 102.36 112.852 99.5782 112.469 97.0795L146.081 95.689Z" fill="#263238"/>
<path d="M101.881 55.2118C101.881 55.2118 98.7941 50.4518 96.0344 51.4128C93.2747 52.3739 93.2858 65.2742 93.5112 68.6322C93.7365 71.99 100.45 79.4747 103.255 77.4283" fill="white"/>
<path d="M101.881 55.2118C101.881 55.2118 98.7941 50.4518 96.0344 51.4128C93.2747 52.3739 93.2858 65.2742 93.5112 68.6322C93.7365 71.99 100.45 79.4747 103.255 77.4283" stroke="#263238" stroke-linecap="round" stroke-linejoin="round"/>
<path d="M169.657 65.2295C169.657 65.2295 173.982 61.5664 176.337 63.285C178.691 65.0034 174.974 77.3499 173.847 80.5042C172.721 83.6587 164.081 88.8821 161.986 86.1007" fill="white"/>
<path d="M169.657 65.2295C169.657 65.2295 173.982 61.5664 176.337 63.285C178.691 65.0034 174.974 77.3499 173.847 80.5042C172.721 83.6587 164.081 88.8821 161.986 86.1007" stroke="#263238" stroke-linecap="round" stroke-linejoin="round"/>
<path d="M127.788 114.614C116.4 112.929 105.136 93.6184 103.807 88.2141C102.297 82.1654 98.9744 52.3283 105.451 35.9795C112.739 17.607 127.98 9.85099 142.837 12.0444C157.694 14.2378 170.062 26.0302 171.763 45.7481C173.273 63.2726 161.513 90.8823 158.325 96.2416C155.476 101.058 139.751 116.378 127.788 114.614Z" fill="white" stroke="#263238" stroke-linecap="round" stroke-linejoin="round"/>
<path d="M153.504 66.7326C153.189 68.847 151.995 70.4184 150.846 70.2377C149.697 70.0568 148.999 68.2251 149.303 66.1108C149.607 63.9965 150.801 62.4251 151.961 62.606C153.121 62.7869 153.808 64.6296 153.504 66.7326Z" fill="#263238"/>
<path d="M116.456 61.2718C116.152 63.3748 116.839 65.2291 118 65.3987C119.16 65.5683 120.342 63.9967 120.658 61.8824C120.973 59.7682 120.275 57.9253 119.115 57.7557C117.954 57.5861 116.772 59.1577 116.456 61.2718Z" fill="#263238"/>
<path d="M141.823 89.8196C141.823 89.8196 135.955 101.397 128.441 99.5203C120.928 97.6435 120.996 87.0836 120.996 86.7783L122.055 87.1854C125.019 88.2997 128.092 89.0956 131.224 89.5595C134.255 89.9592 137.317 90.0802 140.37 89.9213L141.823 89.8196Z" fill="#757575"/>
<path d="M132.035 65.728C132.339 72.9979 126.121 74.2301 127.304 76.7515C128.153 78.3364 129.583 79.5283 131.291 80.0756" fill="white"/>
<path d="M132.035 65.728C132.339 72.9979 126.121 74.2301 127.304 76.7515C128.153 78.3364 129.583 79.5283 131.291 80.0756" stroke="#263238" stroke-linecap="round" stroke-linejoin="round"/>
<path d="M120.996 86.7456C120.996 86.7456 120.906 97.6108 128.441 99.5215C135.977 101.432 141.823 89.8321 141.823 89.8321" stroke="#263238" stroke-linecap="round" stroke-linejoin="round"/>
<path d="M109.766 51.6844C109.766 51.6844 116.524 43.1032 127 45.8278" stroke="#263238" stroke-linecap="round" stroke-linejoin="round"/>
<path d="M161.671 59.3623C161.671 59.3623 157.65 49.1869 146.847 48.7686" stroke="#263238" stroke-linecap="round" stroke-linejoin="round"/>
<path d="M193.357 52.5112L191.262 54.8404L189.64 56.6492L170.862 67.5937L171.64 62.3136L187.004 53.3366L190.338 52.9183L193.357 52.5112Z" fill="#26A05B" stroke="#263238" stroke-linecap="round" stroke-linejoin="round"/>
<path d="M188.851 57.1112C186.08 56.5798 187.004 53.3351 187.004 53.3351L193.357 52.521L188.851 57.1112Z" fill="white" stroke="#263238" stroke-linecap="round" stroke-linejoin="round"/>
<path d="M193.357 52.521L191.262 54.7821C191.065 54.7325 190.882 54.6401 190.725 54.5113C190.568 54.3828 190.441 54.2211 190.352 54.0379C190.264 53.8546 190.217 53.654 190.215 53.4505C190.212 53.247 190.255 53.0455 190.338 52.8602L193.357 52.521Z" fill="#263238"/>
<path d="M153.966 27.7379C153.966 27.7379 146.813 37.122 131.359 39.8241C111.973 43.216 101.272 60.0508 101.543 67.072C97.7324 57.2244 96.5897 46.5394 98.2309 36.1045C102.072 10.2811 126.076 2.89815 143.524 4.69585C160.972 6.49352 169.432 24.0519 169.432 24.0519C169.432 24.0519 182.543 34.2954 180.64 47.207C178.826 59.5646 175.83 59.9038 174.253 62.7079C172 66.5745 174.929 68.1913 167.269 74.5567C167.269 74.5567 170.299 57.3035 166.537 44.437C162.775 31.5706 153.966 27.7379 153.966 27.7379Z" fill="#263238"/>
<path d="M158.765 23.3633C158.765 23.3633 151.927 49.5598 113.077 53.6639C113.077 53.6639 139.255 48.9154 151.375 24.901L158.765 23.3633Z" fill="#263238"/>
<path d="M129.275 93.8681C129.275 93.8681 134.626 91.9575 136.676 93.8681C136.676 93.8681 133.161 99.5213 128.655 98.1306C124.15 96.7399 123.17 91.3469 123.17 91.3469C123.17 91.3469 125.614 90.1597 129.275 93.8681Z" fill="#BFBFBF"/>
<path d="M141.181 89.911L139.593 91.6068C133.595 92.3891 127.499 91.4237 122.032 88.8256L121.503 86.9487C124.641 88.1365 127.89 89.0039 131.201 89.5379C134.512 89.9408 137.85 90.0656 141.181 89.911Z" fill="white"/>
<path d="M119.318 86.0444C119.318 86.0444 131.528 91.6975 143.333 89.5945" stroke="#263238" stroke-linecap="round" stroke-linejoin="round"/>
<path d="M157.728 16.8955C157.728 16.8955 149.449 27.7834 129.275 29.4453C109.101 31.1074 103.255 39.4966 103.255 39.4966" stroke="#757575" stroke-linecap="round" stroke-linejoin="round"/>
<path d="M112.311 17.7671C110.43 18.1289 107.805 18.796 106.961 20.7067" stroke="#757575" stroke-linecap="round" stroke-linejoin="round"/>
<path d="M160.218 8.43799C148.052 17.5621 132.339 18.6136 116.378 17.3247" stroke="#757575" stroke-linecap="round" stroke-linejoin="round"/>
<path d="M83.1482 91.8999C80.8233 94.3262 79.5513 97.5789 79.6113 100.945" stroke="#757575" stroke-linecap="round" stroke-linejoin="round"/>
<path d="M97.6903 41.0122C92.0581 44.2346 87.5524 50.159 87.2032 56.8409C86.6851 68.147 94.739 78.3227 86.3923 88.1702" stroke="#757575" stroke-linecap="round" stroke-linejoin="round"/>
<path d="M95.3587 77.7788C95.3587 77.7788 101.599 84.4042 97.5438 91.1427C93.4888 97.8812 91.3935 104.71 99.7065 109.685" stroke="#757575" stroke-linecap="round" stroke-linejoin="round"/>
<path d="M140.877 42.9902C139.55 43.8271 138.173 44.5823 136.755 45.2513" stroke="#757575" stroke-linecap="round" stroke-linejoin="round"/>
<path d="M155.453 26.3252C153.031 31.9209 149.228 36.8043 144.403 40.5145" stroke="#757575" stroke-linecap="round" stroke-linejoin="round"/>
<path d="M160.218 27.2529C160.218 27.2529 168.655 31.8658 171.899 39.4975C175.143 47.1292 170.569 57.8699 172.698 61.5785" stroke="#757575" stroke-linecap="round" stroke-linejoin="round"/>
<path d="M173.34 101.704C174.502 102.438 175.777 102.973 177.114 103.287" stroke="#757575" stroke-linecap="round" stroke-linejoin="round"/>
<path d="M166.661 91.1426C167.176 93.8998 168.334 96.4957 170.04 98.7177" stroke="#757575" stroke-linecap="round" stroke-linejoin="round"/>
<path d="M163.327 97.2603C163.327 97.2603 162.549 105.875 168.012 111.574C173.475 117.272 171.887 120.822 171.887 120.822" stroke="#757575" stroke-linecap="round" stroke-linejoin="round"/>
<path d="M154.259 107.041C154.259 107.041 157.525 115.769 152.344 118.675" stroke="#757575" stroke-linecap="round" stroke-linejoin="round"/>
<path d="M166.661 24.9014C166.661 24.9014 178.984 27.4001 180.797 32.8157C182.611 38.2313 180.797 44.4612 180.797 44.4612" stroke="#757575" stroke-linecap="round" stroke-linejoin="round"/>
<path d="M8.26403 212.978C-2.17787 207.156 -0.161582 186.216 6.76588 160.065C10.1451 147.221 21.8825 114.841 21.6345 113.71C20.9849 111.527 20.0972 109.422 18.9875 107.435C18.9875 107.435 22.3667 103.975 23.7861 103.353C29.8911 100.742 41.9102 97.4515 47.4409 99.7468C49.1529 100.459 51.6535 104.495 51.3157 106.146C50.9778 107.797 46.0216 113.224 46.4947 118.425C46.9678 123.625 42.4734 140.788 42.5973 147.628C42.5973 149.03 42.6761 150.794 42.7662 152.716C42.7662 153.937 42.7662 175.329 34.5547 186.25" fill="#26A05B"/>
<path d="M8.26403 212.978C-2.17787 207.156 -0.161582 186.216 6.76588 160.065C10.1451 147.221 21.8825 114.841 21.6345 113.71C20.9849 111.527 20.0972 109.422 18.9875 107.435C18.9875 107.435 22.3667 103.975 23.7861 103.353C29.8911 100.742 41.9102 97.4515 47.4409 99.7468C49.1529 100.459 51.6535 104.495 51.3157 106.146C50.9778 107.797 46.0216 113.224 46.4947 118.425C46.9678 123.625 42.4734 140.788 42.5973 147.628C42.5973 149.03 42.6761 150.794 42.7662 152.716C42.7662 153.937 42.7662 175.329 34.5547 186.25" stroke="#263238" stroke-linecap="round" stroke-linejoin="round"/>
<path d="M42.203 50.5776C42.417 52.6578 46.9001 67.5368 48.2745 82.6532C51.1247 81.629 53.8054 80.1806 56.227 78.3569C59.0317 75.8921 64.9003 77.8594 64.6525 79.4876C64.4048 81.1155 59.0204 80.8441 54.4585 86.9947C49.8964 93.1454 48.9616 99.9743 42.9125 103.253C36.8637 106.532 27.4245 107.696 23.7635 103.321C20.1027 98.9454 16.0476 75.779 17.4669 73.3142C18.6872 71.5484 20.2132 70.0167 21.9726 68.7918C21.9726 68.7918 23.5157 64.2694 25.8587 63.9189C28.2017 63.5684 33.7435 63.4553 33.7435 63.4553C35.0391 62.4925 36.6455 62.049 38.2492 62.2116C38.2492 62.2116 36.4246 44.8 34.8699 38.9548C33.3155 33.1095 40.3557 33.0982 42.203 50.5776Z" fill="white" stroke="#263238" stroke-linecap="round" stroke-linejoin="round"/>
<path d="M38.2492 62.21C43.0253 64.3808 45.1429 73.5163 45.1429 74.172C44.1835 77.411 43.0324 80.59 41.6962 83.6917C40.5697 86.2922 37.9226 83.6917 37.9226 83.6917C37.9226 83.6917 37.1454 87.0837 35.3206 85.6025C33.0453 83.6917 33.0453 77.4846 33.0453 77.4846C33.0453 77.4846 32.7749 82.6289 31.4231 85.1276C30.0714 87.6264 27.4132 85.953 27.7397 78.5474C27.7397 78.5474 22.2317 77.1907 22.0401 75.8339" stroke="#263238" stroke-linecap="round" stroke-linejoin="round"/>
<path d="M33.0453 77.4852C31.7048 74.0028 26.5007 70.8032 26.5007 70.8032" stroke="#263238" stroke-linecap="round" stroke-linejoin="round"/>
<path d="M37.9226 83.6923C37.9226 83.6923 40.6372 75.778 39.9051 74.1498C39.1729 72.5217 34.5546 68.0332 34.5546 68.0332" stroke="#263238" stroke-linecap="round" stroke-linejoin="round"/>
<path d="M48.2745 82.6523C48.2745 82.6523 43.1829 83.7604 40.9301 90.2953" stroke="#263238" stroke-linecap="round" stroke-linejoin="round"/>
<path d="M21.5783 113.666C21.5783 113.666 29.8012 120.449 38.6434 114.796" stroke="#263238" stroke-linecap="round" stroke-linejoin="round"/>
<path d="M28.5396 133.802C26.9568 134.731 25.2604 135.449 23.4931 135.939" stroke="#263238" stroke-linecap="round" stroke-linejoin="round"/>
<path d="M48.2745 111.529C44.3028 118.978 38.9502 125.598 32.5045 131.032" stroke="#263238" stroke-linecap="round" stroke-linejoin="round"/>
<path d="M79.2283 135.803C79.2283 135.803 95.2798 150.93 104.674 155.023" stroke="#263238" stroke-linecap="round" stroke-linejoin="round"/>
<path d="M63.2444 152.164C63.9589 154.18 64.4316 156.276 64.6525 158.405" stroke="#263238" stroke-linecap="round" stroke-linejoin="round"/>
<path d="M57.6575 139.354C59.0992 142.078 60.4172 144.893 61.5887 147.754" stroke="#263238" stroke-linecap="round" stroke-linejoin="round"/>
<path d="M123.159 160.066C123.159 160.066 149.438 160.427 166.289 148.873" stroke="#263238" stroke-linecap="round" stroke-linejoin="round"/>
<path d="M178.06 138.879C175.798 140.418 173.729 142.225 171.899 144.261" stroke="#263238" stroke-linecap="round" stroke-linejoin="round"/>
<path d="M191.239 158.199C188.545 161.006 185.474 163.422 182.115 165.379" stroke="#263238" stroke-linecap="round" stroke-linejoin="round"/>
<path d="M196.973 151.191C196.11 152.482 195.181 153.727 194.19 154.922" stroke="#263238" stroke-linecap="round" stroke-linejoin="round"/>
<path d="M58.3896 190.773C58.3896 190.773 64.7877 182.451 64.6525 172.457" stroke="#263238" stroke-linecap="round" stroke-linejoin="round"/>
<path d="M194.72 205.436C194.72 205.436 193.334 188.67 205.059 176.414" stroke="#263238" stroke-linecap="round" stroke-linejoin="round"/>
<path d="M207.392 185.652C207.956 186.218 197.389 195.466 194.889 199.605" stroke="#263238" stroke-linecap="round" stroke-linejoin="round"/>
<path d="M91.9567 227.111C91.9567 227.111 130.401 242.443 150.316 242.127" stroke="#263238" stroke-linecap="round" stroke-linejoin="round"/>
<path d="M133.691 190.084H129.129C128.388 190.084 127.788 190.687 127.788 191.43V198.417C127.788 199.16 128.388 199.763 129.129 199.763H133.691C134.431 199.763 135.031 199.16 135.031 198.417V191.43C135.031 190.687 134.431 190.084 133.691 190.084Z" fill="#EC1E24"/>
<path d="M133.69 200.474H129.185C128.915 200.476 128.647 200.424 128.397 200.321C128.147 200.218 127.92 200.067 127.728 199.874C127.536 199.684 127.384 199.456 127.281 199.206C127.177 198.956 127.123 198.686 127.123 198.417V191.429C127.123 190.88 127.341 190.354 127.727 189.966C128.114 189.578 128.638 189.36 129.185 189.36H133.69C134.237 189.36 134.761 189.578 135.148 189.966C135.535 190.354 135.752 190.88 135.752 191.429V198.417C135.752 198.686 135.699 198.956 135.595 199.206C135.491 199.456 135.339 199.684 135.147 199.874C134.956 200.067 134.729 200.218 134.479 200.321C134.228 200.424 133.961 200.476 133.69 200.474ZM129.185 190.796C129.018 190.796 128.857 190.862 128.739 190.981C128.621 191.1 128.554 191.261 128.554 191.429V198.417C128.557 198.581 128.625 198.74 128.743 198.857C128.861 198.972 129.02 199.037 129.185 199.037H133.69C133.856 199.037 134.015 198.972 134.133 198.857C134.251 198.74 134.318 198.581 134.321 198.417V191.429C134.321 191.261 134.255 191.1 134.137 190.981C134.018 190.862 133.858 190.796 133.69 190.796H129.185Z" fill="#263238"/>
<path d="M145.89 131.585C145.89 131.585 166.3 135.802 131.415 189.009C131.415 189.009 90.7741 137.328 110.644 129.833" stroke="#263238" stroke-linecap="round" stroke-linejoin="round"/>
<path d="M132.17 188.478C132.17 189.258 131.821 189.891 131.393 189.891C130.965 189.891 130.615 189.258 130.615 188.478C130.615 187.698 130.965 187.064 131.393 187.064C131.821 187.064 132.17 187.709 132.17 188.478Z" fill="#263238"/>
</svg>
