<svg width="17" height="16" viewBox="0 0 17 16" fill="none" xmlns="http://www.w3.org/2000/svg">
<path d="M4.94984 3.33333C4.98984 3.92667 5.08984 4.50667 5.24984 5.06L4.44984 5.86C4.17651 5.06 4.00318 4.21333 3.94318 3.33333H4.94984ZM11.5232 11.3467C12.0898 11.5067 12.6698 11.6067 13.2565 11.6467V12.64C12.3765 12.58 11.5298 12.4067 10.7232 12.14L11.5232 11.3467ZM5.58984 2H3.25651C2.88984 2 2.58984 2.3 2.58984 2.66667C2.58984 8.92667 7.66318 14 13.9232 14C14.2898 14 14.5898 13.7 14.5898 13.3333V11.0067C14.5898 10.64 14.2898 10.34 13.9232 10.34C13.0965 10.34 12.2898 10.2067 11.5432 9.96C11.4765 9.93333 11.4032 9.92667 11.3365 9.92667C11.1632 9.92667 10.9965 9.99333 10.8632 10.12L9.39651 11.5867C7.50984 10.62 5.96318 9.08 5.00318 7.19333L6.46984 5.72667C6.65651 5.54 6.70984 5.28 6.63651 5.04667C6.38984 4.3 6.25651 3.5 6.25651 2.66667C6.25651 2.3 5.95651 2 5.58984 2Z" fill="#8C8C8C"/>
</svg>
