<svg width="17" height="16" viewBox="0 0 17 16" fill="none" xmlns="http://www.w3.org/2000/svg">
<path d="M12.5899 5.33332H11.9233V3.99999C11.9233 2.15999 10.4299 0.666656 8.58992 0.666656C6.74992 0.666656 5.25659 2.15999 5.25659 3.99999V5.33332H4.58993C3.85659 5.33332 3.25659 5.93332 3.25659 6.66666V13.3333C3.25659 14.0667 3.85659 14.6667 4.58993 14.6667H12.5899C13.3233 14.6667 13.9233 14.0667 13.9233 13.3333V6.66666C13.9233 5.93332 13.3233 5.33332 12.5899 5.33332ZM6.58992 3.99999C6.58992 2.89332 7.48326 1.99999 8.58992 1.99999C9.69659 1.99999 10.5899 2.89332 10.5899 3.99999V5.33332H6.58992V3.99999ZM12.5899 13.3333H4.58993V6.66666H12.5899V13.3333ZM8.58992 11.3333C9.32326 11.3333 9.92326 10.7333 9.92326 9.99999C9.92326 9.26666 9.32326 8.66666 8.58992 8.66666C7.85659 8.66666 7.25659 9.26666 7.25659 9.99999C7.25659 10.7333 7.85659 11.3333 8.58992 11.3333Z" fill="#8C8C8C"/>
</svg>
