<svg width="245" height="81" viewBox="0 0 245 81" fill="none" xmlns="http://www.w3.org/2000/svg">
<path d="M84.0762 55.525H82.2176V61.7968H80.6902V55.525H78.854V54.2549H84.0762V55.525Z" fill="white"/>
<path d="M87.2041 61.7967C87.1648 61.7124 87.1199 61.5663 87.0806 61.364C86.8167 61.7236 86.4629 61.9035 86.0137 61.9035C85.542 61.9035 85.1545 61.7461 84.8457 61.437C84.5369 61.1279 84.3853 60.7233 84.3853 60.2287C84.3853 59.6386 84.5706 59.189 84.9468 58.8631C85.323 58.5427 85.8621 58.3798 86.564 58.3685H87.0076V57.9189C87.0076 57.666 86.9627 57.4862 86.8785 57.385C86.7942 57.2839 86.6651 57.2277 86.5022 57.2277C86.1372 57.2277 85.9519 57.4412 85.9519 57.8683H84.4863C84.4863 57.3513 84.6829 56.9242 85.0703 56.587C85.4578 56.2498 85.9519 56.0812 86.5415 56.0812C87.1536 56.0812 87.6309 56.2442 87.9678 56.5589C88.3047 56.8792 88.4732 57.3344 88.4732 57.9302V60.5715C88.4788 61.0548 88.5518 61.4314 88.681 61.7068V61.7967H87.2041ZM87.2266 55.4462H85.9912L84.5649 53.8389H86.2046L87.2266 55.4462ZM86.3394 60.7514C86.5022 60.7514 86.6426 60.7177 86.7549 60.6558C86.8672 60.5884 86.9514 60.5097 87.0076 60.4198V59.2565H86.6538C86.4068 59.2565 86.2102 59.3352 86.0642 59.4925C85.9182 59.6499 85.8508 59.8634 85.8508 60.1276C85.8508 60.5434 86.0137 60.7514 86.3394 60.7514Z" fill="white"/>
<path d="M90.0623 54.7382C90.0623 54.5078 90.1353 54.3223 90.2813 54.1762C90.4273 54.0301 90.6182 53.957 90.8596 53.957C91.1011 53.957 91.292 54.0301 91.438 54.1762C91.584 54.3223 91.657 54.5078 91.657 54.7382C91.657 54.963 91.584 55.1485 91.4436 55.3002C91.2976 55.4463 91.1067 55.525 90.8596 55.525C90.6126 55.525 90.4216 55.4519 90.2756 55.3002C90.1353 55.1541 90.0623 54.963 90.0623 54.7382ZM91.6008 61.7968H90.1296V56.1882H91.6008V61.7968Z" fill="white"/>
<path d="M98.2666 60.6838C98.6934 60.6838 98.9068 60.4084 98.9124 59.8576H100.288C100.283 60.4702 100.092 60.9648 99.721 61.3413C99.3504 61.7178 98.8731 61.9089 98.2947 61.9089C97.5759 61.9089 97.0256 61.6841 96.6438 61.2345C96.262 60.7849 96.071 60.1218 96.0654 59.2507V58.8067C96.0654 57.9244 96.2507 57.2556 96.627 56.7892C97.0032 56.3283 97.5535 56.0923 98.2891 56.0923C98.9068 56.0923 99.3953 56.2833 99.7491 56.6655C100.103 57.0477 100.283 57.5872 100.294 58.2897H98.918C98.9124 57.9749 98.8618 57.7333 98.7608 57.5647C98.6597 57.3961 98.4969 57.3118 98.2666 57.3118C98.0083 57.3118 97.8286 57.4017 97.7163 57.5815C97.604 57.7614 97.5479 58.1154 97.5422 58.6381V59.2113C97.5422 59.6666 97.5647 59.9869 97.6096 60.1667C97.6546 60.3466 97.7276 60.4814 97.8342 60.5657C97.9297 60.6444 98.0757 60.6838 98.2666 60.6838Z" fill="white"/>
<path d="M103.079 56.6823C103.399 56.2833 103.786 56.0866 104.252 56.0866C104.763 56.0866 105.151 56.2664 105.415 56.6261C105.684 56.9858 105.813 57.5197 105.819 58.2334V61.7964H104.348V58.2446C104.348 57.9187 104.297 57.677 104.196 57.5309C104.095 57.3848 103.932 57.3117 103.702 57.3117C103.438 57.3117 103.23 57.4354 103.079 57.677V61.7908H101.613V53.833H103.079V56.6823Z" fill="white"/>
<path d="M108.975 61.7966H107.509V56.1879H108.975V61.7966ZM108.548 53.9175H110.193L108.756 55.5248H107.531L108.548 53.9175Z" fill="white"/>
<path d="M112.052 56.1934L112.091 56.7498C112.423 56.3115 112.855 56.0923 113.388 56.0923C114.354 56.0923 114.848 56.7667 114.877 58.1154V61.8021H113.405V58.2279C113.405 57.9131 113.355 57.6771 113.259 57.5366C113.164 57.3905 113.001 57.3231 112.76 57.3231C112.496 57.3231 112.288 57.4579 112.136 57.7333V61.8078H110.665V56.1991H112.052V56.1934Z" fill="white"/>
<path d="M117.886 56.6823C118.201 56.2833 118.594 56.0866 119.054 56.0866C119.565 56.0866 119.953 56.2664 120.217 56.6261C120.481 56.9858 120.615 57.5197 120.621 58.2334V61.7964H119.155V58.2446C119.155 57.9187 119.105 57.677 119.004 57.5309C118.903 57.3848 118.74 57.3117 118.51 57.3117C118.246 57.3117 118.038 57.4354 117.886 57.677V61.7908H116.421V53.833H117.886V56.6823Z" fill="white"/>
<path d="M129.83 55.525H127.966V61.7968H126.433V55.525H124.602V54.2549H129.83V55.525Z" fill="white"/>
<path d="M131.161 54.7382C131.161 54.5078 131.234 54.3223 131.38 54.1762C131.526 54.0301 131.717 53.957 131.958 53.957C132.2 53.957 132.391 54.0301 132.537 54.1762C132.683 54.3223 132.756 54.5078 132.756 54.7382C132.756 54.963 132.683 55.1485 132.542 55.3002C132.396 55.4463 132.205 55.525 131.958 55.525C131.717 55.525 131.52 55.4519 131.374 55.3002C131.234 55.1541 131.161 54.963 131.161 54.7382ZM132.699 61.7968H131.228V56.1882H132.699V61.7968Z" fill="white"/>
<path d="M136.625 61.9035C135.872 61.9035 135.282 61.6786 134.861 61.2291C134.44 60.7795 134.227 60.1388 134.227 59.3014V58.8575C134.227 57.9751 134.418 57.2895 134.805 56.8118C135.193 56.3285 135.743 56.0925 136.467 56.0925C137.175 56.0925 137.703 56.3172 138.056 56.7668C138.416 57.2164 138.596 57.8852 138.601 58.7675V59.4869H135.687C135.709 59.9028 135.799 60.2062 135.962 60.4029C136.125 60.594 136.372 60.6896 136.714 60.6896C137.203 60.6896 137.613 60.521 137.939 60.1838L138.517 61.0717C138.337 61.319 138.079 61.5213 137.736 61.6731C137.394 61.8248 137.023 61.9035 136.625 61.9035ZM138.068 55.2888V55.3506H136.922L136.276 54.6032L135.631 55.3506H134.513V55.2663L135.861 53.8389H136.698L138.068 55.2888ZM136.406 62.2912C136.658 62.2912 136.866 62.3587 137.018 62.4935C137.175 62.6284 137.253 62.8027 137.253 63.0106C137.253 63.2185 137.175 63.3871 137.018 63.5276C136.86 63.6625 136.658 63.7299 136.406 63.7299C136.158 63.7299 135.956 63.6625 135.799 63.5276C135.642 63.3927 135.563 63.2185 135.563 63.0106C135.563 62.8027 135.642 62.6284 135.799 62.4935C135.956 62.3587 136.158 62.2912 136.406 62.2912ZM135.704 58.4641H137.169V58.3292C137.164 57.992 137.107 57.7391 137.001 57.5649C136.9 57.3907 136.72 57.3064 136.462 57.3064C136.209 57.3064 136.018 57.3963 135.906 57.5817C135.793 57.7616 135.726 58.0594 135.704 58.4641Z" fill="white"/>
<path d="M141.308 56.1934L141.347 56.7498C141.678 56.3115 142.111 56.0923 142.644 56.0923C143.604 56.0923 144.104 56.7667 144.132 58.1154V61.8021H142.661V58.2279C142.661 57.9131 142.61 57.6771 142.515 57.5366C142.419 57.3905 142.257 57.3231 142.015 57.3231C141.751 57.3231 141.543 57.4579 141.392 57.7333V61.8077H139.932V56.1991H141.308V56.1934Z" fill="white"/>
<path d="M150.528 59.7288L151.236 56.1938H152.769L151.23 61.7969H149.832L148.288 56.1938H149.821L150.528 59.7288Z" fill="white"/>
<path d="M156.57 61.7967C156.531 61.7124 156.486 61.5663 156.447 61.364C156.183 61.7236 155.829 61.9035 155.38 61.9035C154.908 61.9035 154.521 61.7461 154.212 61.437C153.903 61.1279 153.746 60.7233 153.746 60.2287C153.746 59.6386 153.931 59.189 154.307 58.8631C154.683 58.5427 155.222 58.3798 155.924 58.3685H156.368V57.9189C156.368 57.666 156.323 57.4862 156.239 57.385C156.155 57.2839 156.025 57.2277 155.863 57.2277C155.498 57.2277 155.312 57.4412 155.312 57.8683H153.847C153.847 57.3513 154.043 56.9242 154.431 56.587C154.818 56.2498 155.312 56.0812 155.902 56.0812C156.514 56.0812 156.991 56.2442 157.328 56.5589C157.665 56.8792 157.834 57.3344 157.834 57.9302V60.5715C157.839 61.0548 157.912 61.4314 158.041 61.7068V61.7967H156.57ZM156.593 55.4462H155.357L153.925 53.8389H155.565L156.593 55.4462ZM155.705 60.7514C155.868 60.7514 156.003 60.7177 156.121 60.6558C156.233 60.5884 156.317 60.5097 156.374 60.4198V59.2565H156.02C155.773 59.2565 155.576 59.3352 155.43 59.4925C155.284 59.6499 155.217 59.8634 155.217 60.1276C155.217 60.5434 155.38 60.7514 155.705 60.7514Z" fill="white"/>
<path d="M167.745 61.7968H166.223L163.999 56.8513V61.7968H162.478V54.2549H163.999L166.229 59.206V54.2549H167.745V61.7968Z" fill="white"/>
<path d="M169.25 58.8238C169.25 57.9021 169.418 57.2165 169.749 56.7669C170.081 56.3117 170.547 56.0869 171.142 56.0869C171.647 56.0869 172.04 56.2892 172.315 56.6883L172.372 56.1881H173.691V61.7967C173.691 62.5105 173.489 63.0612 173.09 63.4378C172.692 63.8143 172.113 64.0054 171.366 64.0054C171.058 64.0054 170.738 63.9436 170.395 63.8199C170.058 63.6963 169.805 63.5389 169.637 63.3535L170.131 62.3363C170.266 62.4824 170.451 62.6004 170.67 62.6903C170.889 62.7803 171.103 62.8252 171.299 62.8252C171.625 62.8252 171.861 62.7465 172.007 62.5892C172.153 62.4318 172.226 62.1789 172.226 61.8305V61.3472C171.945 61.7125 171.58 61.8979 171.131 61.8979C170.535 61.8979 170.069 61.6675 169.744 61.201C169.418 60.7346 169.25 60.0827 169.244 59.2341V58.8238H169.25ZM170.715 59.1947C170.715 59.7118 170.782 60.0883 170.917 60.33C171.052 60.566 171.265 60.684 171.557 60.684C171.855 60.684 172.08 60.5772 172.226 60.358V57.6773C172.074 57.4413 171.855 57.3177 171.569 57.3177C171.277 57.3177 171.063 57.4357 170.923 57.6773C170.782 57.9134 170.715 58.2956 170.715 58.8294V59.1947Z" fill="white"/>
<path d="M177.953 61.7965C177.914 61.7122 177.869 61.5661 177.83 61.3638C177.571 61.7235 177.212 61.9033 176.763 61.9033C176.291 61.9033 175.904 61.7459 175.595 61.4368C175.286 61.1277 175.129 60.7231 175.129 60.2286C175.129 59.6385 175.314 59.1889 175.69 58.8629C176.066 58.5426 176.605 58.3796 177.307 58.3684H177.751V57.9188C177.751 57.6659 177.706 57.486 177.622 57.3849C177.538 57.2837 177.409 57.2275 177.246 57.2275C176.881 57.2275 176.695 57.4411 176.695 57.8682H175.23C175.23 57.3512 175.426 56.9241 175.814 56.5869C176.201 56.2497 176.695 56.0811 177.285 56.0811C177.897 56.0811 178.374 56.244 178.711 56.5587C179.048 56.8791 179.217 57.3343 179.217 57.93V60.5714C179.222 61.0547 179.295 61.4312 179.424 61.7066V61.7965H177.953ZM177.088 60.7512C177.251 60.7512 177.386 60.7175 177.504 60.6557C177.616 60.5882 177.7 60.5095 177.757 60.4196V59.2563H177.403C177.156 59.2563 176.959 59.335 176.813 59.4923C176.667 59.6497 176.6 59.8633 176.6 60.1274C176.6 60.5433 176.763 60.7512 177.088 60.7512Z" fill="white"/>
<path d="M182.53 59.3576L183.277 56.188H184.838L182.996 62.634C182.721 63.5838 182.199 64.0615 181.435 64.0615C181.261 64.0615 181.059 64.0278 180.834 63.966V62.8195L181.002 62.8251C181.227 62.8251 181.401 62.7802 181.519 62.6959C181.637 62.606 181.721 62.4542 181.783 62.235L181.895 61.8585L180.278 56.1936H181.85L182.53 59.3576Z" fill="white"/>
<path d="M190.998 60.6838C191.419 60.6838 191.638 60.4084 191.643 59.8576H193.019C193.014 60.4702 192.823 60.9647 192.452 61.3413C192.081 61.7178 191.604 61.9089 191.026 61.9089C190.301 61.9089 189.751 61.6841 189.375 61.2345C188.999 60.7849 188.802 60.1218 188.796 59.2507V58.8067C188.796 57.9244 188.982 57.2556 189.358 56.7892C189.734 56.3283 190.284 56.0923 191.02 56.0923C191.638 56.0923 192.126 56.2833 192.48 56.6655C192.834 57.0476 193.019 57.5872 193.025 58.2897H191.649C191.643 57.9749 191.593 57.7333 191.492 57.5647C191.391 57.3961 191.228 57.3118 190.992 57.3118C190.734 57.3118 190.554 57.4017 190.442 57.5815C190.329 57.7614 190.273 58.1154 190.268 58.6381V59.2113C190.268 59.6666 190.29 59.9869 190.335 60.1667C190.38 60.3466 190.453 60.4814 190.56 60.5657C190.661 60.6444 190.807 60.6838 190.998 60.6838Z" fill="white"/>
<path d="M195.81 56.6823C196.124 56.2833 196.517 56.0866 196.978 56.0866C197.489 56.0866 197.876 56.2664 198.14 56.6261C198.404 56.9858 198.539 57.5197 198.544 58.2334V61.7964H197.073V58.2446C197.073 57.9187 197.023 57.677 196.922 57.5309C196.821 57.3848 196.658 57.3117 196.428 57.3117C196.164 57.3117 195.956 57.4354 195.81 57.677V61.7908H194.344V53.833H195.81V56.6823Z" fill="white"/>
<path d="M199.96 58.8126C199.96 57.964 200.162 57.2952 200.561 56.8119C200.959 56.3286 201.515 56.0869 202.223 56.0869C202.936 56.0869 203.497 56.3286 203.896 56.8119C204.295 57.2952 204.497 57.964 204.497 58.8238V59.1835C204.497 60.0377 204.3 60.7065 203.902 61.1842C203.503 61.6619 202.947 61.9035 202.234 61.9035C201.515 61.9035 200.959 61.6619 200.561 61.1842C200.162 60.7009 199.96 60.0321 199.96 59.1779V58.8126ZM201.431 59.1835C201.431 60.1838 201.695 60.684 202.234 60.684C202.728 60.684 202.992 60.2681 203.031 59.4308L203.037 58.8126C203.037 58.3011 202.964 57.9246 202.824 57.6773C202.683 57.4301 202.481 57.3064 202.223 57.3064C201.976 57.3064 201.779 57.4301 201.639 57.6773C201.498 57.9246 201.431 58.3068 201.431 58.8126V59.1835Z" fill="white"/>
<path d="M210.286 56.1937L210.326 56.7107C210.651 56.2948 211.084 56.0869 211.623 56.0869C212.184 56.0869 212.577 56.3398 212.808 56.8456C213.128 56.3398 213.583 56.0869 214.178 56.0869C215.16 56.0869 215.66 56.7669 215.683 58.1213V61.7967H214.217V58.2169C214.217 57.8909 214.172 57.6605 214.082 57.52C213.992 57.3851 213.841 57.3121 213.628 57.3121C213.352 57.3121 213.15 57.4807 213.015 57.8122L213.027 57.9865V61.7911H211.561V58.2225C211.561 57.9021 211.516 57.6717 211.432 57.5256C211.348 57.3795 211.19 57.3121 210.971 57.3121C210.719 57.3121 210.517 57.4469 210.371 57.7223V61.7967H208.905V56.1881H210.286V56.1937Z" fill="white"/>
<path d="M217.137 58.8126C217.137 57.964 217.339 57.2952 217.738 56.8119C218.136 56.3286 218.692 56.0869 219.4 56.0869C220.113 56.0869 220.669 56.3286 221.073 56.8119C221.472 57.2952 221.674 57.964 221.674 58.8238V59.1835C221.674 60.0377 221.472 60.7065 221.079 61.1842C220.68 61.6619 220.124 61.9035 219.411 61.9035C218.692 61.9035 218.136 61.6619 217.738 61.1842C217.339 60.7009 217.137 60.0321 217.137 59.1779V58.8126ZM219.394 62.325C219.647 62.325 219.849 62.3924 220.006 62.5273C220.163 62.6622 220.242 62.8364 220.242 63.0444C220.242 63.2523 220.163 63.4209 220.006 63.5614C219.849 63.6963 219.647 63.7637 219.394 63.7637C219.147 63.7637 218.945 63.6963 218.788 63.5614C218.63 63.4265 218.552 63.2523 218.552 63.0444C218.552 62.8364 218.63 62.6678 218.788 62.5273C218.939 62.3924 219.147 62.325 219.394 62.325ZM218.608 59.1835C218.608 60.1838 218.877 60.684 219.411 60.684C219.905 60.684 220.169 60.2681 220.208 59.4308L220.214 58.8126C220.214 58.3011 220.141 57.9246 220.001 57.6773C219.86 57.4301 219.658 57.3064 219.4 57.3064C219.153 57.3064 218.956 57.4301 218.816 57.6773C218.675 57.9246 218.608 58.3068 218.608 58.8126V59.1835Z" fill="white"/>
<path d="M223.112 54.7382C223.112 54.5078 223.185 54.3223 223.331 54.1762C223.477 54.0301 223.667 53.957 223.909 53.957C224.15 53.957 224.347 54.0301 224.487 54.1762C224.633 54.3223 224.706 54.5078 224.706 54.7382C224.706 54.963 224.633 55.1485 224.493 55.3002C224.347 55.4463 224.156 55.525 223.909 55.525C223.662 55.525 223.471 55.4519 223.325 55.3002C223.185 55.1541 223.112 54.963 223.112 54.7382ZM224.65 61.7968H223.179V56.1882H224.65V61.7968Z" fill="white"/>
<path d="M230.63 56.1934L230.67 56.7498C231.001 56.3115 231.433 56.0923 231.967 56.0923C232.933 56.0923 233.427 56.7667 233.455 58.1154V61.8021H231.984V58.2279C231.984 57.9131 231.933 57.6771 231.838 57.5366C231.742 57.3905 231.579 57.3231 231.338 57.3231C231.074 57.3231 230.866 57.4579 230.715 57.7333V61.8077H229.243V56.1991H230.63V56.1934Z" fill="white"/>
<path d="M236.47 56.6828C236.79 56.2838 237.178 56.0871 237.638 56.0871C238.149 56.0871 238.537 56.2669 238.801 56.6266C239.065 56.9863 239.199 57.5202 239.205 58.2339V61.7969H237.734V58.2451C237.734 57.9192 237.683 57.6775 237.582 57.5314C237.481 57.3853 237.318 57.3122 237.088 57.3122C236.824 57.3122 236.616 57.4359 236.465 57.6775V61.7913H234.999V53.8335H236.465V56.6828H236.47Z" fill="white"/>
<path d="M243.45 61.7967C243.411 61.7124 243.366 61.5663 243.327 61.364C243.063 61.7236 242.709 61.9035 242.26 61.9035C241.788 61.9035 241.401 61.7461 241.092 61.437C240.783 61.1279 240.631 60.7233 240.631 60.2287C240.631 59.6386 240.817 59.189 241.193 58.8631C241.569 58.5427 242.108 58.3798 242.81 58.3685H243.254V57.9189C243.254 57.666 243.209 57.4862 243.125 57.385C243.04 57.2839 242.911 57.2277 242.748 57.2277C242.383 57.2277 242.198 57.4412 242.198 57.8683H240.732C240.732 57.3513 240.929 56.9242 241.316 56.587C241.704 56.2498 242.198 56.0812 242.788 56.0812C243.4 56.0812 243.877 56.2442 244.214 56.5589C244.551 56.8792 244.719 57.3344 244.719 57.9302V60.5715C244.725 61.0548 244.792 61.4314 244.927 61.7068V61.7967H243.45ZM243.478 55.4462H242.243L240.811 53.8389H242.451L243.478 55.4462ZM242.585 60.7514C242.748 60.7514 242.883 60.7177 243.001 60.6558C243.113 60.5884 243.198 60.5097 243.254 60.4198V59.2565H242.9C242.653 59.2565 242.456 59.3352 242.316 59.4925C242.17 59.6499 242.103 59.8634 242.103 60.1276C242.097 60.5434 242.26 60.7514 242.585 60.7514Z" fill="white"/>
<path d="M84.0762 55.525H82.2176V61.7968H80.6902V55.525H78.854V54.2549H84.0762V55.525Z" fill="white"/>
<path d="M87.2041 61.7967C87.1648 61.7124 87.1199 61.5663 87.0806 61.364C86.8167 61.7236 86.4629 61.9035 86.0137 61.9035C85.542 61.9035 85.1545 61.7461 84.8457 61.437C84.5369 61.1279 84.3853 60.7233 84.3853 60.2287C84.3853 59.6386 84.5706 59.189 84.9468 58.8631C85.323 58.5427 85.8621 58.3798 86.564 58.3685H87.0076V57.9189C87.0076 57.666 86.9627 57.4862 86.8785 57.385C86.7942 57.2839 86.6651 57.2277 86.5022 57.2277C86.1372 57.2277 85.9519 57.4412 85.9519 57.8683H84.4863C84.4863 57.3513 84.6829 56.9242 85.0703 56.587C85.4578 56.2498 85.9519 56.0812 86.5415 56.0812C87.1536 56.0812 87.6309 56.2442 87.9678 56.5589C88.3047 56.8792 88.4732 57.3344 88.4732 57.9302V60.5715C88.4788 61.0548 88.5518 61.4314 88.681 61.7068V61.7967H87.2041ZM87.2266 55.4462H85.9912L84.5649 53.8389H86.2046L87.2266 55.4462ZM86.3394 60.7514C86.5022 60.7514 86.6426 60.7177 86.7549 60.6558C86.8672 60.5884 86.9514 60.5097 87.0076 60.4198V59.2565H86.6538C86.4068 59.2565 86.2102 59.3352 86.0642 59.4925C85.9182 59.6499 85.8508 59.8634 85.8508 60.1276C85.8508 60.5434 86.0137 60.7514 86.3394 60.7514Z" fill="white"/>
<path d="M90.0623 54.7382C90.0623 54.5078 90.1353 54.3223 90.2813 54.1762C90.4273 54.0301 90.6182 53.957 90.8596 53.957C91.1011 53.957 91.292 54.0301 91.438 54.1762C91.584 54.3223 91.657 54.5078 91.657 54.7382C91.657 54.963 91.584 55.1485 91.4436 55.3002C91.2976 55.4463 91.1067 55.525 90.8596 55.525C90.6126 55.525 90.4216 55.4519 90.2756 55.3002C90.1353 55.1541 90.0623 54.963 90.0623 54.7382ZM91.6008 61.7968H90.1296V56.1882H91.6008V61.7968Z" fill="white"/>
<path d="M98.2666 60.6838C98.6934 60.6838 98.9068 60.4084 98.9124 59.8576H100.288C100.283 60.4702 100.092 60.9648 99.721 61.3413C99.3504 61.7178 98.8731 61.9089 98.2947 61.9089C97.5759 61.9089 97.0256 61.6841 96.6438 61.2345C96.262 60.7849 96.071 60.1218 96.0654 59.2507V58.8067C96.0654 57.9244 96.2507 57.2556 96.627 56.7892C97.0032 56.3283 97.5535 56.0923 98.2891 56.0923C98.9068 56.0923 99.3953 56.2833 99.7491 56.6655C100.103 57.0477 100.283 57.5872 100.294 58.2897H98.918C98.9124 57.9749 98.8618 57.7333 98.7608 57.5647C98.6597 57.3961 98.4969 57.3118 98.2666 57.3118C98.0083 57.3118 97.8286 57.4017 97.7163 57.5815C97.604 57.7614 97.5479 58.1154 97.5422 58.6381V59.2113C97.5422 59.6666 97.5647 59.9869 97.6096 60.1667C97.6546 60.3466 97.7276 60.4814 97.8342 60.5657C97.9297 60.6444 98.0757 60.6838 98.2666 60.6838Z" fill="white"/>
<path d="M103.079 56.6823C103.399 56.2833 103.786 56.0866 104.252 56.0866C104.763 56.0866 105.151 56.2664 105.415 56.6261C105.684 56.9858 105.813 57.5197 105.819 58.2334V61.7964H104.348V58.2446C104.348 57.9187 104.297 57.677 104.196 57.5309C104.095 57.3848 103.932 57.3117 103.702 57.3117C103.438 57.3117 103.23 57.4354 103.079 57.677V61.7908H101.613V53.833H103.079V56.6823Z" fill="white"/>
<path d="M108.975 61.7966H107.509V56.1879H108.975V61.7966ZM108.548 53.9175H110.193L108.756 55.5248H107.531L108.548 53.9175Z" fill="white"/>
<path d="M112.052 56.1934L112.091 56.7498C112.423 56.3115 112.855 56.0923 113.388 56.0923C114.354 56.0923 114.848 56.7667 114.877 58.1154V61.8021H113.405V58.2279C113.405 57.9131 113.355 57.6771 113.259 57.5366C113.164 57.3905 113.001 57.3231 112.76 57.3231C112.496 57.3231 112.288 57.4579 112.136 57.7333V61.8078H110.665V56.1991H112.052V56.1934Z" fill="white"/>
<path d="M117.886 56.6823C118.201 56.2833 118.594 56.0866 119.054 56.0866C119.565 56.0866 119.953 56.2664 120.217 56.6261C120.481 56.9858 120.615 57.5197 120.621 58.2334V61.7964H119.155V58.2446C119.155 57.9187 119.105 57.677 119.004 57.5309C118.903 57.3848 118.74 57.3117 118.51 57.3117C118.246 57.3117 118.038 57.4354 117.886 57.677V61.7908H116.421V53.833H117.886V56.6823Z" fill="white"/>
<path d="M129.83 55.525H127.966V61.7968H126.433V55.525H124.602V54.2549H129.83V55.525Z" fill="white"/>
<path d="M131.161 54.7382C131.161 54.5078 131.234 54.3223 131.38 54.1762C131.526 54.0301 131.717 53.957 131.958 53.957C132.2 53.957 132.391 54.0301 132.537 54.1762C132.683 54.3223 132.756 54.5078 132.756 54.7382C132.756 54.963 132.683 55.1485 132.542 55.3002C132.396 55.4463 132.205 55.525 131.958 55.525C131.717 55.525 131.52 55.4519 131.374 55.3002C131.234 55.1541 131.161 54.963 131.161 54.7382ZM132.699 61.7968H131.228V56.1882H132.699V61.7968Z" fill="white"/>
<path d="M136.625 61.9035C135.872 61.9035 135.282 61.6786 134.861 61.2291C134.44 60.7795 134.227 60.1388 134.227 59.3014V58.8575C134.227 57.9751 134.418 57.2895 134.805 56.8118C135.193 56.3285 135.743 56.0925 136.467 56.0925C137.175 56.0925 137.703 56.3172 138.056 56.7668C138.416 57.2164 138.596 57.8852 138.601 58.7675V59.4869H135.687C135.709 59.9028 135.799 60.2062 135.962 60.4029C136.125 60.594 136.372 60.6896 136.714 60.6896C137.203 60.6896 137.613 60.521 137.939 60.1838L138.517 61.0717C138.337 61.319 138.079 61.5213 137.736 61.6731C137.394 61.8248 137.023 61.9035 136.625 61.9035ZM138.068 55.2888V55.3506H136.922L136.276 54.6032L135.631 55.3506H134.513V55.2663L135.861 53.8389H136.698L138.068 55.2888ZM136.406 62.2912C136.658 62.2912 136.866 62.3587 137.018 62.4935C137.175 62.6284 137.253 62.8027 137.253 63.0106C137.253 63.2185 137.175 63.3871 137.018 63.5276C136.86 63.6625 136.658 63.7299 136.406 63.7299C136.158 63.7299 135.956 63.6625 135.799 63.5276C135.642 63.3927 135.563 63.2185 135.563 63.0106C135.563 62.8027 135.642 62.6284 135.799 62.4935C135.956 62.3587 136.158 62.2912 136.406 62.2912ZM135.704 58.4641H137.169V58.3292C137.164 57.992 137.107 57.7391 137.001 57.5649C136.9 57.3907 136.72 57.3064 136.462 57.3064C136.209 57.3064 136.018 57.3963 135.906 57.5817C135.793 57.7616 135.726 58.0594 135.704 58.4641Z" fill="white"/>
<path d="M141.308 56.1934L141.347 56.7498C141.678 56.3115 142.111 56.0923 142.644 56.0923C143.604 56.0923 144.104 56.7667 144.132 58.1154V61.8021H142.661V58.2279C142.661 57.9131 142.61 57.6771 142.515 57.5366C142.419 57.3905 142.257 57.3231 142.015 57.3231C141.751 57.3231 141.543 57.4579 141.392 57.7333V61.8077H139.932V56.1991H141.308V56.1934Z" fill="white"/>
<path d="M150.528 59.7288L151.236 56.1938H152.769L151.23 61.7969H149.832L148.288 56.1938H149.821L150.528 59.7288Z" fill="white"/>
<path d="M156.57 61.7967C156.531 61.7124 156.486 61.5663 156.447 61.364C156.183 61.7236 155.829 61.9035 155.38 61.9035C154.908 61.9035 154.521 61.7461 154.212 61.437C153.903 61.1279 153.746 60.7233 153.746 60.2287C153.746 59.6386 153.931 59.189 154.307 58.8631C154.683 58.5427 155.222 58.3798 155.924 58.3685H156.368V57.9189C156.368 57.666 156.323 57.4862 156.239 57.385C156.155 57.2839 156.025 57.2277 155.863 57.2277C155.498 57.2277 155.312 57.4412 155.312 57.8683H153.847C153.847 57.3513 154.043 56.9242 154.431 56.587C154.818 56.2498 155.312 56.0812 155.902 56.0812C156.514 56.0812 156.991 56.2442 157.328 56.5589C157.665 56.8792 157.834 57.3344 157.834 57.9302V60.5715C157.839 61.0548 157.912 61.4314 158.041 61.7068V61.7967H156.57ZM156.593 55.4462H155.357L153.925 53.8389H155.565L156.593 55.4462ZM155.705 60.7514C155.868 60.7514 156.003 60.7177 156.121 60.6558C156.233 60.5884 156.317 60.5097 156.374 60.4198V59.2565H156.02C155.773 59.2565 155.576 59.3352 155.43 59.4925C155.284 59.6499 155.217 59.8634 155.217 60.1276C155.217 60.5434 155.38 60.7514 155.705 60.7514Z" fill="white"/>
<path d="M167.745 61.7968H166.223L163.999 56.8513V61.7968H162.478V54.2549H163.999L166.229 59.206V54.2549H167.745V61.7968Z" fill="white"/>
<path d="M169.25 58.8238C169.25 57.9021 169.418 57.2165 169.749 56.7669C170.081 56.3117 170.547 56.0869 171.142 56.0869C171.647 56.0869 172.04 56.2892 172.315 56.6883L172.372 56.1881H173.691V61.7967C173.691 62.5105 173.489 63.0612 173.09 63.4378C172.692 63.8143 172.113 64.0054 171.366 64.0054C171.058 64.0054 170.738 63.9436 170.395 63.8199C170.058 63.6963 169.805 63.5389 169.637 63.3535L170.131 62.3363C170.266 62.4824 170.451 62.6004 170.67 62.6903C170.889 62.7803 171.103 62.8252 171.299 62.8252C171.625 62.8252 171.861 62.7465 172.007 62.5892C172.153 62.4318 172.226 62.1789 172.226 61.8305V61.3472C171.945 61.7125 171.58 61.8979 171.131 61.8979C170.535 61.8979 170.069 61.6675 169.744 61.201C169.418 60.7346 169.25 60.0827 169.244 59.2341V58.8238H169.25ZM170.715 59.1947C170.715 59.7118 170.782 60.0883 170.917 60.33C171.052 60.566 171.265 60.684 171.557 60.684C171.855 60.684 172.08 60.5772 172.226 60.358V57.6773C172.074 57.4413 171.855 57.3177 171.569 57.3177C171.277 57.3177 171.063 57.4357 170.923 57.6773C170.782 57.9134 170.715 58.2956 170.715 58.8294V59.1947Z" fill="white"/>
<path d="M177.953 61.7965C177.914 61.7122 177.869 61.5661 177.83 61.3638C177.571 61.7235 177.212 61.9033 176.763 61.9033C176.291 61.9033 175.904 61.7459 175.595 61.4368C175.286 61.1277 175.129 60.7231 175.129 60.2286C175.129 59.6385 175.314 59.1889 175.69 58.8629C176.066 58.5426 176.605 58.3796 177.307 58.3684H177.751V57.9188C177.751 57.6659 177.706 57.486 177.622 57.3849C177.538 57.2837 177.409 57.2275 177.246 57.2275C176.881 57.2275 176.695 57.4411 176.695 57.8682H175.23C175.23 57.3512 175.426 56.9241 175.814 56.5869C176.201 56.2497 176.695 56.0811 177.285 56.0811C177.897 56.0811 178.374 56.244 178.711 56.5587C179.048 56.8791 179.217 57.3343 179.217 57.93V60.5714C179.222 61.0547 179.295 61.4312 179.424 61.7066V61.7965H177.953ZM177.088 60.7512C177.251 60.7512 177.386 60.7175 177.504 60.6557C177.616 60.5882 177.7 60.5095 177.757 60.4196V59.2563H177.403C177.156 59.2563 176.959 59.335 176.813 59.4923C176.667 59.6497 176.6 59.8633 176.6 60.1274C176.6 60.5433 176.763 60.7512 177.088 60.7512Z" fill="white"/>
<path d="M182.53 59.3576L183.277 56.188H184.838L182.996 62.634C182.721 63.5838 182.199 64.0615 181.435 64.0615C181.261 64.0615 181.059 64.0278 180.834 63.966V62.8195L181.002 62.8251C181.227 62.8251 181.401 62.7802 181.519 62.6959C181.637 62.606 181.721 62.4542 181.783 62.235L181.895 61.8585L180.278 56.1936H181.85L182.53 59.3576Z" fill="white"/>
<path d="M190.998 60.6838C191.419 60.6838 191.638 60.4084 191.643 59.8576H193.019C193.014 60.4702 192.823 60.9647 192.452 61.3413C192.081 61.7178 191.604 61.9089 191.026 61.9089C190.301 61.9089 189.751 61.6841 189.375 61.2345C188.999 60.7849 188.802 60.1218 188.796 59.2507V58.8067C188.796 57.9244 188.982 57.2556 189.358 56.7892C189.734 56.3283 190.284 56.0923 191.02 56.0923C191.638 56.0923 192.126 56.2833 192.48 56.6655C192.834 57.0476 193.019 57.5872 193.025 58.2897H191.649C191.643 57.9749 191.593 57.7333 191.492 57.5647C191.391 57.3961 191.228 57.3118 190.992 57.3118C190.734 57.3118 190.554 57.4017 190.442 57.5815C190.329 57.7614 190.273 58.1154 190.268 58.6381V59.2113C190.268 59.6666 190.29 59.9869 190.335 60.1667C190.38 60.3466 190.453 60.4814 190.56 60.5657C190.661 60.6444 190.807 60.6838 190.998 60.6838Z" fill="white"/>
<path d="M195.81 56.6823C196.124 56.2833 196.517 56.0866 196.978 56.0866C197.489 56.0866 197.876 56.2664 198.14 56.6261C198.404 56.9858 198.539 57.5197 198.544 58.2334V61.7964H197.073V58.2446C197.073 57.9187 197.023 57.677 196.922 57.5309C196.821 57.3848 196.658 57.3117 196.428 57.3117C196.164 57.3117 195.956 57.4354 195.81 57.677V61.7908H194.344V53.833H195.81V56.6823Z" fill="white"/>
<path d="M199.96 58.8126C199.96 57.964 200.162 57.2952 200.561 56.8119C200.959 56.3286 201.515 56.0869 202.223 56.0869C202.936 56.0869 203.497 56.3286 203.896 56.8119C204.295 57.2952 204.497 57.964 204.497 58.8238V59.1835C204.497 60.0377 204.3 60.7065 203.902 61.1842C203.503 61.6619 202.947 61.9035 202.234 61.9035C201.515 61.9035 200.959 61.6619 200.561 61.1842C200.162 60.7009 199.96 60.0321 199.96 59.1779V58.8126ZM201.431 59.1835C201.431 60.1838 201.695 60.684 202.234 60.684C202.728 60.684 202.992 60.2681 203.031 59.4308L203.037 58.8126C203.037 58.3011 202.964 57.9246 202.824 57.6773C202.683 57.4301 202.481 57.3064 202.223 57.3064C201.976 57.3064 201.779 57.4301 201.639 57.6773C201.498 57.9246 201.431 58.3068 201.431 58.8126V59.1835Z" fill="white"/>
<path d="M210.286 56.1937L210.326 56.7107C210.651 56.2948 211.084 56.0869 211.623 56.0869C212.184 56.0869 212.577 56.3398 212.808 56.8456C213.128 56.3398 213.583 56.0869 214.178 56.0869C215.16 56.0869 215.66 56.7669 215.683 58.1213V61.7967H214.217V58.2169C214.217 57.8909 214.172 57.6605 214.082 57.52C213.992 57.3851 213.841 57.3121 213.628 57.3121C213.352 57.3121 213.15 57.4807 213.015 57.8122L213.027 57.9865V61.7911H211.561V58.2225C211.561 57.9021 211.516 57.6717 211.432 57.5256C211.348 57.3795 211.19 57.3121 210.971 57.3121C210.719 57.3121 210.517 57.4469 210.371 57.7223V61.7967H208.905V56.1881H210.286V56.1937Z" fill="white"/>
<path d="M217.137 58.8126C217.137 57.964 217.339 57.2952 217.738 56.8119C218.136 56.3286 218.692 56.0869 219.4 56.0869C220.113 56.0869 220.669 56.3286 221.073 56.8119C221.472 57.2952 221.674 57.964 221.674 58.8238V59.1835C221.674 60.0377 221.472 60.7065 221.079 61.1842C220.68 61.6619 220.124 61.9035 219.411 61.9035C218.692 61.9035 218.136 61.6619 217.738 61.1842C217.339 60.7009 217.137 60.0321 217.137 59.1779V58.8126ZM219.394 62.325C219.647 62.325 219.849 62.3924 220.006 62.5273C220.163 62.6622 220.242 62.8364 220.242 63.0444C220.242 63.2523 220.163 63.4209 220.006 63.5614C219.849 63.6963 219.647 63.7637 219.394 63.7637C219.147 63.7637 218.945 63.6963 218.788 63.5614C218.63 63.4265 218.552 63.2523 218.552 63.0444C218.552 62.8364 218.63 62.6678 218.788 62.5273C218.939 62.3924 219.147 62.325 219.394 62.325ZM218.608 59.1835C218.608 60.1838 218.877 60.684 219.411 60.684C219.905 60.684 220.169 60.2681 220.208 59.4308L220.214 58.8126C220.214 58.3011 220.141 57.9246 220.001 57.6773C219.86 57.4301 219.658 57.3064 219.4 57.3064C219.153 57.3064 218.956 57.4301 218.816 57.6773C218.675 57.9246 218.608 58.3068 218.608 58.8126V59.1835Z" fill="white"/>
<path d="M223.112 54.7382C223.112 54.5078 223.185 54.3223 223.331 54.1762C223.477 54.0301 223.667 53.957 223.909 53.957C224.15 53.957 224.347 54.0301 224.487 54.1762C224.633 54.3223 224.706 54.5078 224.706 54.7382C224.706 54.963 224.633 55.1485 224.493 55.3002C224.347 55.4463 224.156 55.525 223.909 55.525C223.662 55.525 223.471 55.4519 223.325 55.3002C223.185 55.1541 223.112 54.963 223.112 54.7382ZM224.65 61.7968H223.179V56.1882H224.65V61.7968Z" fill="white"/>
<path d="M230.63 56.1934L230.67 56.7498C231.001 56.3115 231.433 56.0923 231.967 56.0923C232.933 56.0923 233.427 56.7667 233.455 58.1154V61.8021H231.984V58.2279C231.984 57.9131 231.933 57.6771 231.838 57.5366C231.742 57.3905 231.579 57.3231 231.338 57.3231C231.074 57.3231 230.866 57.4579 230.715 57.7333V61.8077H229.243V56.1991H230.63V56.1934Z" fill="white"/>
<path d="M236.47 56.6828C236.79 56.2838 237.178 56.0871 237.638 56.0871C238.149 56.0871 238.537 56.2669 238.801 56.6266C239.065 56.9863 239.199 57.5202 239.205 58.2339V61.7969H237.734V58.2451C237.734 57.9192 237.683 57.6775 237.582 57.5314C237.481 57.3853 237.318 57.3122 237.088 57.3122C236.824 57.3122 236.616 57.4359 236.465 57.6775V61.7913H234.999V53.8335H236.465V56.6828H236.47Z" fill="white"/>
<path d="M243.45 61.7967C243.411 61.7124 243.366 61.5663 243.327 61.364C243.063 61.7236 242.709 61.9035 242.26 61.9035C241.788 61.9035 241.401 61.7461 241.092 61.437C240.783 61.1279 240.631 60.7233 240.631 60.2287C240.631 59.6386 240.817 59.189 241.193 58.8631C241.569 58.5427 242.108 58.3798 242.81 58.3685H243.254V57.9189C243.254 57.666 243.209 57.4862 243.125 57.385C243.04 57.2839 242.911 57.2277 242.748 57.2277C242.383 57.2277 242.198 57.4412 242.198 57.8683H240.732C240.732 57.3513 240.929 56.9242 241.316 56.587C241.704 56.2498 242.198 56.0812 242.788 56.0812C243.4 56.0812 243.877 56.2442 244.214 56.5589C244.551 56.8792 244.719 57.3344 244.719 57.9302V60.5715C244.725 61.0548 244.792 61.4314 244.927 61.7068V61.7967H243.45ZM243.478 55.4462H242.243L240.811 53.8389H242.451L243.478 55.4462ZM242.585 60.7514C242.748 60.7514 242.883 60.7177 243.001 60.6558C243.113 60.5884 243.198 60.5097 243.254 60.4198V59.2565H242.9C242.653 59.2565 242.456 59.3352 242.316 59.4925C242.17 59.6499 242.103 59.8634 242.103 60.1276C242.097 60.5434 242.26 60.7514 242.585 60.7514Z" fill="white"/>
<path d="M84.0762 55.525H82.2176V61.7968H80.6902V55.525H78.854V54.2549H84.0762V55.525Z" fill="white"/>
<path d="M87.2041 61.7967C87.1648 61.7124 87.1199 61.5663 87.0806 61.364C86.8167 61.7236 86.4629 61.9035 86.0137 61.9035C85.542 61.9035 85.1545 61.7461 84.8457 61.437C84.5369 61.1279 84.3853 60.7233 84.3853 60.2287C84.3853 59.6386 84.5706 59.189 84.9468 58.8631C85.323 58.5427 85.8621 58.3798 86.564 58.3685H87.0076V57.9189C87.0076 57.666 86.9627 57.4862 86.8785 57.385C86.7942 57.2839 86.6651 57.2277 86.5022 57.2277C86.1372 57.2277 85.9519 57.4412 85.9519 57.8683H84.4863C84.4863 57.3513 84.6829 56.9242 85.0703 56.587C85.4578 56.2498 85.9519 56.0812 86.5415 56.0812C87.1536 56.0812 87.6309 56.2442 87.9678 56.5589C88.3047 56.8792 88.4732 57.3344 88.4732 57.9302V60.5715C88.4788 61.0548 88.5518 61.4314 88.681 61.7068V61.7967H87.2041ZM87.2266 55.4462H85.9912L84.5649 53.8389H86.2046L87.2266 55.4462ZM86.3394 60.7514C86.5022 60.7514 86.6426 60.7177 86.7549 60.6558C86.8672 60.5884 86.9514 60.5097 87.0076 60.4198V59.2565H86.6538C86.4068 59.2565 86.2102 59.3352 86.0642 59.4925C85.9182 59.6499 85.8508 59.8634 85.8508 60.1276C85.8508 60.5434 86.0137 60.7514 86.3394 60.7514Z" fill="white"/>
<path d="M90.0623 54.7382C90.0623 54.5078 90.1353 54.3223 90.2813 54.1762C90.4273 54.0301 90.6182 53.957 90.8596 53.957C91.1011 53.957 91.292 54.0301 91.438 54.1762C91.584 54.3223 91.657 54.5078 91.657 54.7382C91.657 54.963 91.584 55.1485 91.4436 55.3002C91.2976 55.4463 91.1067 55.525 90.8596 55.525C90.6126 55.525 90.4216 55.4519 90.2756 55.3002C90.1353 55.1541 90.0623 54.963 90.0623 54.7382ZM91.6008 61.7968H90.1296V56.1882H91.6008V61.7968Z" fill="white"/>
<path d="M98.2666 60.6838C98.6934 60.6838 98.9068 60.4084 98.9124 59.8576H100.288C100.283 60.4702 100.092 60.9648 99.721 61.3413C99.3504 61.7178 98.8731 61.9089 98.2947 61.9089C97.5759 61.9089 97.0256 61.6841 96.6438 61.2345C96.262 60.7849 96.071 60.1218 96.0654 59.2507V58.8067C96.0654 57.9244 96.2507 57.2556 96.627 56.7892C97.0032 56.3283 97.5535 56.0923 98.2891 56.0923C98.9068 56.0923 99.3953 56.2833 99.7491 56.6655C100.103 57.0477 100.283 57.5872 100.294 58.2897H98.918C98.9124 57.9749 98.8618 57.7333 98.7608 57.5647C98.6597 57.3961 98.4969 57.3118 98.2666 57.3118C98.0083 57.3118 97.8286 57.4017 97.7163 57.5815C97.604 57.7614 97.5479 58.1154 97.5422 58.6381V59.2113C97.5422 59.6666 97.5647 59.9869 97.6096 60.1667C97.6546 60.3466 97.7276 60.4814 97.8342 60.5657C97.9297 60.6444 98.0757 60.6838 98.2666 60.6838Z" fill="white"/>
<path d="M103.079 56.6823C103.399 56.2833 103.786 56.0866 104.252 56.0866C104.763 56.0866 105.151 56.2664 105.415 56.6261C105.684 56.9858 105.813 57.5197 105.819 58.2334V61.7964H104.348V58.2446C104.348 57.9187 104.297 57.677 104.196 57.5309C104.095 57.3848 103.932 57.3117 103.702 57.3117C103.438 57.3117 103.23 57.4354 103.079 57.677V61.7908H101.613V53.833H103.079V56.6823Z" fill="white"/>
<path d="M108.975 61.7966H107.509V56.1879H108.975V61.7966ZM108.548 53.9175H110.193L108.756 55.5248H107.531L108.548 53.9175Z" fill="white"/>
<path d="M112.052 56.1934L112.091 56.7498C112.423 56.3115 112.855 56.0923 113.388 56.0923C114.354 56.0923 114.848 56.7667 114.877 58.1154V61.8021H113.405V58.2279C113.405 57.9131 113.355 57.6771 113.259 57.5366C113.164 57.3905 113.001 57.3231 112.76 57.3231C112.496 57.3231 112.288 57.4579 112.136 57.7333V61.8078H110.665V56.1991H112.052V56.1934Z" fill="white"/>
<path d="M117.886 56.6823C118.201 56.2833 118.594 56.0866 119.054 56.0866C119.565 56.0866 119.953 56.2664 120.217 56.6261C120.481 56.9858 120.615 57.5197 120.621 58.2334V61.7964H119.155V58.2446C119.155 57.9187 119.105 57.677 119.004 57.5309C118.903 57.3848 118.74 57.3117 118.51 57.3117C118.246 57.3117 118.038 57.4354 117.886 57.677V61.7908H116.421V53.833H117.886V56.6823Z" fill="white"/>
<path d="M129.83 55.525H127.966V61.7968H126.433V55.525H124.602V54.2549H129.83V55.525Z" fill="white"/>
<path d="M131.161 54.7382C131.161 54.5078 131.234 54.3223 131.38 54.1762C131.526 54.0301 131.717 53.957 131.958 53.957C132.2 53.957 132.391 54.0301 132.537 54.1762C132.683 54.3223 132.756 54.5078 132.756 54.7382C132.756 54.963 132.683 55.1485 132.542 55.3002C132.396 55.4463 132.205 55.525 131.958 55.525C131.717 55.525 131.52 55.4519 131.374 55.3002C131.234 55.1541 131.161 54.963 131.161 54.7382ZM132.699 61.7968H131.228V56.1882H132.699V61.7968Z" fill="white"/>
<path d="M136.625 61.9035C135.872 61.9035 135.282 61.6786 134.861 61.2291C134.44 60.7795 134.227 60.1388 134.227 59.3014V58.8575C134.227 57.9751 134.418 57.2895 134.805 56.8118C135.193 56.3285 135.743 56.0925 136.467 56.0925C137.175 56.0925 137.703 56.3172 138.056 56.7668C138.416 57.2164 138.596 57.8852 138.601 58.7675V59.4869H135.687C135.709 59.9028 135.799 60.2062 135.962 60.4029C136.125 60.594 136.372 60.6896 136.714 60.6896C137.203 60.6896 137.613 60.521 137.939 60.1838L138.517 61.0717C138.337 61.319 138.079 61.5213 137.736 61.6731C137.394 61.8248 137.023 61.9035 136.625 61.9035ZM138.068 55.2888V55.3506H136.922L136.276 54.6032L135.631 55.3506H134.513V55.2663L135.861 53.8389H136.698L138.068 55.2888ZM136.406 62.2912C136.658 62.2912 136.866 62.3587 137.018 62.4935C137.175 62.6284 137.253 62.8027 137.253 63.0106C137.253 63.2185 137.175 63.3871 137.018 63.5276C136.86 63.6625 136.658 63.7299 136.406 63.7299C136.158 63.7299 135.956 63.6625 135.799 63.5276C135.642 63.3927 135.563 63.2185 135.563 63.0106C135.563 62.8027 135.642 62.6284 135.799 62.4935C135.956 62.3587 136.158 62.2912 136.406 62.2912ZM135.704 58.4641H137.169V58.3292C137.164 57.992 137.107 57.7391 137.001 57.5649C136.9 57.3907 136.72 57.3064 136.462 57.3064C136.209 57.3064 136.018 57.3963 135.906 57.5817C135.793 57.7616 135.726 58.0594 135.704 58.4641Z" fill="white"/>
<path d="M141.308 56.1934L141.347 56.7498C141.678 56.3115 142.111 56.0923 142.644 56.0923C143.604 56.0923 144.104 56.7667 144.132 58.1154V61.8021H142.661V58.2279C142.661 57.9131 142.61 57.6771 142.515 57.5366C142.419 57.3905 142.257 57.3231 142.015 57.3231C141.751 57.3231 141.543 57.4579 141.392 57.7333V61.8077H139.932V56.1991H141.308V56.1934Z" fill="white"/>
<path d="M150.528 59.7288L151.236 56.1938H152.769L151.23 61.7969H149.832L148.288 56.1938H149.821L150.528 59.7288Z" fill="white"/>
<path d="M156.57 61.7967C156.531 61.7124 156.486 61.5663 156.447 61.364C156.183 61.7236 155.829 61.9035 155.38 61.9035C154.908 61.9035 154.521 61.7461 154.212 61.437C153.903 61.1279 153.746 60.7233 153.746 60.2287C153.746 59.6386 153.931 59.189 154.307 58.8631C154.683 58.5427 155.222 58.3798 155.924 58.3685H156.368V57.9189C156.368 57.666 156.323 57.4862 156.239 57.385C156.155 57.2839 156.025 57.2277 155.863 57.2277C155.498 57.2277 155.312 57.4412 155.312 57.8683H153.847C153.847 57.3513 154.043 56.9242 154.431 56.587C154.818 56.2498 155.312 56.0812 155.902 56.0812C156.514 56.0812 156.991 56.2442 157.328 56.5589C157.665 56.8792 157.834 57.3344 157.834 57.9302V60.5715C157.839 61.0548 157.912 61.4314 158.041 61.7068V61.7967H156.57ZM156.593 55.4462H155.357L153.925 53.8389H155.565L156.593 55.4462ZM155.705 60.7514C155.868 60.7514 156.003 60.7177 156.121 60.6558C156.233 60.5884 156.317 60.5097 156.374 60.4198V59.2565H156.02C155.773 59.2565 155.576 59.3352 155.43 59.4925C155.284 59.6499 155.217 59.8634 155.217 60.1276C155.217 60.5434 155.38 60.7514 155.705 60.7514Z" fill="white"/>
<path d="M167.745 61.7968H166.223L163.999 56.8513V61.7968H162.478V54.2549H163.999L166.229 59.206V54.2549H167.745V61.7968Z" fill="white"/>
<path d="M169.25 58.8238C169.25 57.9021 169.418 57.2165 169.749 56.7669C170.081 56.3117 170.547 56.0869 171.142 56.0869C171.647 56.0869 172.04 56.2892 172.315 56.6883L172.372 56.1881H173.691V61.7967C173.691 62.5105 173.489 63.0612 173.09 63.4378C172.692 63.8143 172.113 64.0054 171.366 64.0054C171.058 64.0054 170.738 63.9436 170.395 63.8199C170.058 63.6963 169.805 63.5389 169.637 63.3535L170.131 62.3363C170.266 62.4824 170.451 62.6004 170.67 62.6903C170.889 62.7803 171.103 62.8252 171.299 62.8252C171.625 62.8252 171.861 62.7465 172.007 62.5892C172.153 62.4318 172.226 62.1789 172.226 61.8305V61.3472C171.945 61.7125 171.58 61.8979 171.131 61.8979C170.535 61.8979 170.069 61.6675 169.744 61.201C169.418 60.7346 169.25 60.0827 169.244 59.2341V58.8238H169.25ZM170.715 59.1947C170.715 59.7118 170.782 60.0883 170.917 60.33C171.052 60.566 171.265 60.684 171.557 60.684C171.855 60.684 172.08 60.5772 172.226 60.358V57.6773C172.074 57.4413 171.855 57.3177 171.569 57.3177C171.277 57.3177 171.063 57.4357 170.923 57.6773C170.782 57.9134 170.715 58.2956 170.715 58.8294V59.1947Z" fill="white"/>
<path d="M177.953 61.7965C177.914 61.7122 177.869 61.5661 177.83 61.3638C177.571 61.7235 177.212 61.9033 176.763 61.9033C176.291 61.9033 175.904 61.7459 175.595 61.4368C175.286 61.1277 175.129 60.7231 175.129 60.2286C175.129 59.6385 175.314 59.1889 175.69 58.8629C176.066 58.5426 176.605 58.3796 177.307 58.3684H177.751V57.9188C177.751 57.6659 177.706 57.486 177.622 57.3849C177.538 57.2837 177.409 57.2275 177.246 57.2275C176.881 57.2275 176.695 57.4411 176.695 57.8682H175.23C175.23 57.3512 175.426 56.9241 175.814 56.5869C176.201 56.2497 176.695 56.0811 177.285 56.0811C177.897 56.0811 178.374 56.244 178.711 56.5587C179.048 56.8791 179.217 57.3343 179.217 57.93V60.5714C179.222 61.0547 179.295 61.4312 179.424 61.7066V61.7965H177.953ZM177.088 60.7512C177.251 60.7512 177.386 60.7175 177.504 60.6557C177.616 60.5882 177.7 60.5095 177.757 60.4196V59.2563H177.403C177.156 59.2563 176.959 59.335 176.813 59.4923C176.667 59.6497 176.6 59.8633 176.6 60.1274C176.6 60.5433 176.763 60.7512 177.088 60.7512Z" fill="white"/>
<path d="M182.53 59.3576L183.277 56.188H184.838L182.996 62.634C182.721 63.5838 182.199 64.0615 181.435 64.0615C181.261 64.0615 181.059 64.0278 180.834 63.966V62.8195L181.002 62.8251C181.227 62.8251 181.401 62.7802 181.519 62.6959C181.637 62.606 181.721 62.4542 181.783 62.235L181.895 61.8585L180.278 56.1936H181.85L182.53 59.3576Z" fill="white"/>
<path d="M190.998 60.6838C191.419 60.6838 191.638 60.4084 191.643 59.8576H193.019C193.014 60.4702 192.823 60.9647 192.452 61.3413C192.081 61.7178 191.604 61.9089 191.026 61.9089C190.301 61.9089 189.751 61.6841 189.375 61.2345C188.999 60.7849 188.802 60.1218 188.796 59.2507V58.8067C188.796 57.9244 188.982 57.2556 189.358 56.7892C189.734 56.3283 190.284 56.0923 191.02 56.0923C191.638 56.0923 192.126 56.2833 192.48 56.6655C192.834 57.0476 193.019 57.5872 193.025 58.2897H191.649C191.643 57.9749 191.593 57.7333 191.492 57.5647C191.391 57.3961 191.228 57.3118 190.992 57.3118C190.734 57.3118 190.554 57.4017 190.442 57.5815C190.329 57.7614 190.273 58.1154 190.268 58.6381V59.2113C190.268 59.6666 190.29 59.9869 190.335 60.1667C190.38 60.3466 190.453 60.4814 190.56 60.5657C190.661 60.6444 190.807 60.6838 190.998 60.6838Z" fill="white"/>
<path d="M195.81 56.6823C196.124 56.2833 196.517 56.0866 196.978 56.0866C197.489 56.0866 197.876 56.2664 198.14 56.6261C198.404 56.9858 198.539 57.5197 198.544 58.2334V61.7964H197.073V58.2446C197.073 57.9187 197.023 57.677 196.922 57.5309C196.821 57.3848 196.658 57.3117 196.428 57.3117C196.164 57.3117 195.956 57.4354 195.81 57.677V61.7908H194.344V53.833H195.81V56.6823Z" fill="white"/>
<path d="M199.96 58.8126C199.96 57.964 200.162 57.2952 200.561 56.8119C200.959 56.3286 201.515 56.0869 202.223 56.0869C202.936 56.0869 203.497 56.3286 203.896 56.8119C204.295 57.2952 204.497 57.964 204.497 58.8238V59.1835C204.497 60.0377 204.3 60.7065 203.902 61.1842C203.503 61.6619 202.947 61.9035 202.234 61.9035C201.515 61.9035 200.959 61.6619 200.561 61.1842C200.162 60.7009 199.96 60.0321 199.96 59.1779V58.8126ZM201.431 59.1835C201.431 60.1838 201.695 60.684 202.234 60.684C202.728 60.684 202.992 60.2681 203.031 59.4308L203.037 58.8126C203.037 58.3011 202.964 57.9246 202.824 57.6773C202.683 57.4301 202.481 57.3064 202.223 57.3064C201.976 57.3064 201.779 57.4301 201.639 57.6773C201.498 57.9246 201.431 58.3068 201.431 58.8126V59.1835Z" fill="white"/>
<path d="M210.286 56.1937L210.326 56.7107C210.651 56.2948 211.084 56.0869 211.623 56.0869C212.184 56.0869 212.577 56.3398 212.808 56.8456C213.128 56.3398 213.583 56.0869 214.178 56.0869C215.16 56.0869 215.66 56.7669 215.683 58.1213V61.7967H214.217V58.2169C214.217 57.8909 214.172 57.6605 214.082 57.52C213.992 57.3851 213.841 57.3121 213.628 57.3121C213.352 57.3121 213.15 57.4807 213.015 57.8122L213.027 57.9865V61.7911H211.561V58.2225C211.561 57.9021 211.516 57.6717 211.432 57.5256C211.348 57.3795 211.19 57.3121 210.971 57.3121C210.719 57.3121 210.517 57.4469 210.371 57.7223V61.7967H208.905V56.1881H210.286V56.1937Z" fill="white"/>
<path d="M217.137 58.8126C217.137 57.964 217.339 57.2952 217.738 56.8119C218.136 56.3286 218.692 56.0869 219.4 56.0869C220.113 56.0869 220.669 56.3286 221.073 56.8119C221.472 57.2952 221.674 57.964 221.674 58.8238V59.1835C221.674 60.0377 221.472 60.7065 221.079 61.1842C220.68 61.6619 220.124 61.9035 219.411 61.9035C218.692 61.9035 218.136 61.6619 217.738 61.1842C217.339 60.7009 217.137 60.0321 217.137 59.1779V58.8126ZM219.394 62.325C219.647 62.325 219.849 62.3924 220.006 62.5273C220.163 62.6622 220.242 62.8364 220.242 63.0444C220.242 63.2523 220.163 63.4209 220.006 63.5614C219.849 63.6963 219.647 63.7637 219.394 63.7637C219.147 63.7637 218.945 63.6963 218.788 63.5614C218.63 63.4265 218.552 63.2523 218.552 63.0444C218.552 62.8364 218.63 62.6678 218.788 62.5273C218.939 62.3924 219.147 62.325 219.394 62.325ZM218.608 59.1835C218.608 60.1838 218.877 60.684 219.411 60.684C219.905 60.684 220.169 60.2681 220.208 59.4308L220.214 58.8126C220.214 58.3011 220.141 57.9246 220.001 57.6773C219.86 57.4301 219.658 57.3064 219.4 57.3064C219.153 57.3064 218.956 57.4301 218.816 57.6773C218.675 57.9246 218.608 58.3068 218.608 58.8126V59.1835Z" fill="white"/>
<path d="M223.112 54.7382C223.112 54.5078 223.185 54.3223 223.331 54.1762C223.477 54.0301 223.667 53.957 223.909 53.957C224.15 53.957 224.347 54.0301 224.487 54.1762C224.633 54.3223 224.706 54.5078 224.706 54.7382C224.706 54.963 224.633 55.1485 224.493 55.3002C224.347 55.4463 224.156 55.525 223.909 55.525C223.662 55.525 223.471 55.4519 223.325 55.3002C223.185 55.1541 223.112 54.963 223.112 54.7382ZM224.65 61.7968H223.179V56.1882H224.65V61.7968Z" fill="white"/>
<path d="M230.63 56.1934L230.67 56.7498C231.001 56.3115 231.433 56.0923 231.967 56.0923C232.933 56.0923 233.427 56.7667 233.455 58.1154V61.8021H231.984V58.2279C231.984 57.9131 231.933 57.6771 231.838 57.5366C231.742 57.3905 231.579 57.3231 231.338 57.3231C231.074 57.3231 230.866 57.4579 230.715 57.7333V61.8077H229.243V56.1991H230.63V56.1934Z" fill="white"/>
<path d="M236.47 56.6828C236.79 56.2838 237.178 56.0871 237.638 56.0871C238.149 56.0871 238.537 56.2669 238.801 56.6266C239.065 56.9863 239.199 57.5202 239.205 58.2339V61.7969H237.734V58.2451C237.734 57.9192 237.683 57.6775 237.582 57.5314C237.481 57.3853 237.318 57.3122 237.088 57.3122C236.824 57.3122 236.616 57.4359 236.465 57.6775V61.7913H234.999V53.8335H236.465V56.6828H236.47Z" fill="white"/>
<path d="M243.45 61.7967C243.411 61.7124 243.366 61.5663 243.327 61.364C243.063 61.7236 242.709 61.9035 242.26 61.9035C241.788 61.9035 241.401 61.7461 241.092 61.437C240.783 61.1279 240.631 60.7233 240.631 60.2287C240.631 59.6386 240.817 59.189 241.193 58.8631C241.569 58.5427 242.108 58.3798 242.81 58.3685H243.254V57.9189C243.254 57.666 243.209 57.4862 243.125 57.385C243.04 57.2839 242.911 57.2277 242.748 57.2277C242.383 57.2277 242.198 57.4412 242.198 57.8683H240.732C240.732 57.3513 240.929 56.9242 241.316 56.587C241.704 56.2498 242.198 56.0812 242.788 56.0812C243.4 56.0812 243.877 56.2442 244.214 56.5589C244.551 56.8792 244.719 57.3344 244.719 57.9302V60.5715C244.725 61.0548 244.792 61.4314 244.927 61.7068V61.7967H243.45ZM243.478 55.4462H242.243L240.811 53.8389H242.451L243.478 55.4462ZM242.585 60.7514C242.748 60.7514 242.883 60.7177 243.001 60.6558C243.113 60.5884 243.198 60.5097 243.254 60.4198V59.2565H242.9C242.653 59.2565 242.456 59.3352 242.316 59.4925C242.17 59.6499 242.103 59.8634 242.103 60.1276C242.097 60.5434 242.26 60.7514 242.585 60.7514Z" fill="white"/>
<path d="M83.4979 24.4071H78.854V19.085H94.4646V24.4071H89.7533V43.127H83.4979V24.4071Z" fill="white"/>
<path d="M95.3745 19.085H101.433V23.5978H95.3745V19.085ZM95.3745 24.9128H101.433V43.1327H95.3745V24.9128Z" fill="white"/>
<path d="M109.474 35.0457V37.4342C109.474 39.0752 110.025 39.8901 111.125 39.8901C111.709 39.8901 112.142 39.6541 112.422 39.182C112.703 38.7099 112.844 37.8894 112.844 36.7261H118.296C118.251 39.019 117.667 40.7162 116.544 41.829C115.421 42.9417 113.63 43.4981 111.159 43.4981C108.267 43.4981 106.251 42.7956 105.117 41.3906C103.983 39.9856 103.416 37.5354 103.416 34.0341C103.416 30.5779 104.016 28.1163 105.218 26.6439C106.42 25.1771 108.396 24.4409 111.159 24.4409C113.669 24.4409 115.517 25.0985 116.696 26.4135C117.875 27.7286 118.459 29.9878 118.459 33.1967V35.0513H109.474V35.0457ZM112.804 30.9376C112.804 29.9484 112.681 29.2403 112.434 28.802C112.187 28.3636 111.749 28.1444 111.12 28.1444C110.513 28.1444 110.087 28.3636 109.839 28.802C109.592 29.2403 109.469 29.9541 109.469 30.9376V31.7468H112.799V30.9376H112.804Z" fill="white"/>
<path d="M120.138 24.913H125.995V27.1329H126.062C126.848 25.3401 128.319 24.4409 130.47 24.4409C131.953 24.4409 133.109 24.8118 133.952 25.5537C134.794 26.2955 135.215 27.5712 135.215 29.3921V43.1328H129.156V31.1118C129.156 30.3475 129.044 29.7967 128.819 29.4595C128.595 29.1223 128.213 28.9537 127.674 28.9537C127.135 28.9537 126.753 29.1223 126.528 29.4595C126.304 29.7967 126.191 30.3475 126.191 31.1118V43.1328H120.132V24.913H120.138Z" fill="white"/>
<path d="M137.899 19.085H144.901L148.939 33.9047H149.006V19.085H154.857V43.1327H147.995L143.823 28.2792H143.756V43.1327H137.899V19.085Z" fill="white"/>
<path d="M166.868 24.4636H172.523V42.8296C172.523 47.0951 169.985 49.225 164.92 49.225C163.505 49.225 162.32 49.0958 161.354 48.8373C160.388 48.5787 159.574 48.0561 158.9 47.2693C158.226 46.4825 157.878 45.426 157.856 44.1053H163.308C163.308 45.0494 163.814 45.5215 164.824 45.5215C165.386 45.5215 165.835 45.3754 166.172 45.0832C166.509 44.7909 166.677 44.184 166.677 43.2623V39.896H166.61C165.936 41.7168 164.572 42.6216 162.505 42.6216C158.962 42.6216 157.188 39.6262 157.188 33.6297C157.188 30.2859 157.659 27.9199 158.603 26.5261C159.546 25.1324 160.944 24.4355 162.808 24.4355C164.869 24.4355 166.206 25.4359 166.812 27.431H166.88V24.4636H166.868ZM163.235 33.5342C163.235 35.3494 163.37 36.569 163.639 37.1872C163.909 37.8054 164.358 38.1144 164.987 38.1144C165.594 38.1144 166.026 37.811 166.284 37.204C166.543 36.5971 166.672 35.3719 166.672 33.5342C166.672 31.7358 166.537 30.5275 166.267 29.8981C165.998 29.2687 165.571 28.954 164.987 28.954C164.381 28.954 163.937 29.2687 163.656 29.8981C163.376 30.5219 163.235 31.7358 163.235 33.5342Z" fill="white"/>
<path d="M183.894 43.1274C183.782 42.8352 183.658 42.1496 183.524 41.0761H183.456C182.782 42.6947 181.412 43.4983 179.351 43.4983C175.988 43.4983 174.303 41.7506 174.303 38.2437C174.303 36.5353 174.668 35.2483 175.398 34.3716C176.128 33.4949 177.442 32.8317 179.351 32.3821L181.738 31.8089C182.389 31.6515 182.85 31.4211 183.119 31.1177C183.389 30.8142 183.524 30.3814 183.524 29.8194C183.524 28.6955 183.007 28.1335 181.974 28.1335C181.367 28.1335 180.935 28.302 180.677 28.6392C180.418 28.9764 180.278 29.6171 180.255 30.5612H175.005C175.005 29.3249 175.23 28.2796 175.679 27.4141C176.128 26.5486 176.723 25.9136 177.476 25.5146C178.228 25.1099 178.958 24.8289 179.677 24.6716C180.396 24.5142 181.16 24.4355 181.968 24.4355C184.298 24.4355 186.084 24.8626 187.32 25.7169C188.555 26.5711 189.173 28.0941 189.173 30.2971V39.1879C189.173 41.0986 189.363 42.4081 189.745 43.1274H183.894ZM181.642 39.525C182.9 39.525 183.524 38.5247 183.524 36.5296V34.3435H183.456C183.344 34.5008 183.192 34.6132 183.001 34.6807C182.81 34.7481 182.552 34.8212 182.226 34.8999C181.901 34.9785 181.626 35.0741 181.401 35.1865C180.57 35.5686 180.154 36.3554 180.154 37.5469C180.154 38.1538 180.289 38.6371 180.559 38.9968C180.834 39.3452 181.193 39.525 181.642 39.525Z" fill="white"/>
<path d="M192.345 44.8471C192.727 44.937 193.176 44.982 193.693 44.982C194.367 44.982 194.872 44.819 195.209 44.4931C195.546 44.1671 195.709 43.5995 195.709 43.3297C195.709 43.1724 195.619 42.7565 195.439 42.0821L190.52 24.4636L196.815 24.4355L198.735 37.1984H198.803L200.617 24.4636L206.726 24.4693L201.734 43.6332C201.217 45.6732 200.516 47.3424 199.617 48.0954C198.719 48.8485 197.433 49.225 195.748 49.225C194.4 49.225 193.272 49.1801 192.351 49.0902V44.8471H192.345Z" fill="white"/>
<path d="M211.589 36.4619H205.934V43.1328H211.589V36.4619Z" fill="white"/>
<path d="M212.931 24.4746H219.13L220.905 38.013H220.972L222.713 24.4746L229.019 24.4802L224.471 43.1272H217.339L212.931 24.4746Z" fill="white"/>
<path d="M229.923 24.4746H235.78V27.1329H235.847C236.633 25.3345 238.104 24.4409 240.255 24.4409C241.737 24.4409 242.894 24.8118 243.737 25.5537C244.579 26.2955 245 27.5768 245 29.3921V43.1328H238.941V31.1118C238.941 30.3475 238.829 29.7967 238.604 29.4651C238.38 29.1279 237.998 28.9593 237.459 28.9593C236.92 28.9593 236.538 29.1279 236.313 29.4651C236.088 29.8023 235.976 30.3531 235.976 31.1118V43.1328H229.917V24.4746H229.923Z" fill="white"/>
<path d="M35.8971 81C34.8358 81 33.8419 80.483 33.2298 79.6119L21.7578 63.2129C21.6848 63.1118 21.6174 62.9994 21.5556 62.887L21.3591 62.5273L21.112 62.8533C20.4999 63.6457 19.5397 64.1178 18.5402 64.1178H3.24969C2.03116 64.1178 0.924949 63.4434 0.369034 62.3643C-0.192498 61.2853 -0.108268 59.9927 0.58803 58.9924L13.5201 40.4972L0.58803 22.0189C-0.108268 21.0241 -0.192498 19.7316 0.369034 18.6469C0.930565 17.5623 2.03678 16.8935 3.2553 16.8935H18.557C19.5509 16.8935 20.5055 17.3599 21.1176 18.1467L21.3703 18.4727L21.5668 18.1074C21.623 18.0062 21.6848 17.8994 21.769 17.7814L33.2355 1.38811C33.8419 0.517017 34.8358 0 35.8971 0C36.9584 0 37.9579 0.522642 38.5588 1.39373L50.0309 17.7871C50.0982 17.8882 50.1656 17.995 50.233 18.1074L50.4295 18.4615L50.6822 18.1411C51.3055 17.3431 52.2377 16.8879 53.2484 16.8879H68.5445C69.7631 16.8879 70.8693 17.5623 71.4308 18.6413C71.9923 19.7203 71.9081 21.0129 71.2118 22.0133L58.2741 40.4972L71.2343 58.9868C71.9362 59.9871 72.0204 61.2797 71.4589 62.3587C70.8974 63.4434 69.7968 64.1121 68.5782 64.1121H53.2821C52.277 64.1121 51.3111 63.6344 50.6935 62.8308L50.4352 62.488L50.2442 62.8701C50.1937 62.9769 50.1263 63.0837 50.0421 63.2073L38.57 79.6063C37.9579 80.4774 36.9584 81 35.8971 81Z" fill="white"/>
<path d="M27.6762 34.8212H23.1334C22.7179 34.8212 22.3304 34.6189 22.089 34.2761L15.6987 25.1437H12.5878L20.7637 36.8219C20.9996 37.1647 21.3927 37.367 21.8082 37.367H31.2419C31.6574 37.367 32.0505 37.5693 32.2864 37.9121L48.1665 60.611C48.4753 61.0494 48.4753 61.6339 48.1665 62.0722L36.6944 78.4712C36.189 79.1961 35.1165 79.1961 34.6055 78.4712L23.1334 62.0722C22.8246 61.6339 22.8246 61.0494 23.1334 60.611L29.2316 51.9002C29.737 51.1752 30.8095 51.1752 31.3149 51.8945L33.5891 55.1316C33.898 55.57 33.898 56.1544 33.5891 56.5984L30.7815 60.611C30.4726 61.0494 30.4726 61.6339 30.7815 62.0722L35.6499 69.0297L40.5184 62.0722C40.8273 61.6339 40.8273 61.0494 40.5184 60.611L29.0239 44.184C28.7824 43.8412 28.3949 43.6388 27.9794 43.6388H21.797C21.3814 43.6388 20.994 43.8412 20.7525 44.184L12.571 55.8734L15.6875 55.8622L22.0777 46.7354C22.3192 46.3982 22.7066 46.1959 23.1222 46.1959H26.6486C27.0641 46.1959 27.4516 46.3982 27.693 46.7411L28.1984 47.466C28.5016 47.9044 28.5016 48.4889 28.1984 48.9272L19.3318 61.6002C19.096 61.943 18.7029 62.1453 18.2874 62.1453H3.00251C1.97491 62.1453 1.36846 60.9819 1.95806 60.139L15.1709 41.2391C15.4797 40.8008 15.4797 40.2163 15.1709 39.778L1.96368 20.8838C1.37407 20.0408 1.97491 18.8774 3.00813 18.8774H18.3099C18.7254 18.8774 19.1128 19.0798 19.3543 19.4226L28.7263 32.8205C29.3102 33.6579 28.7094 34.8212 27.6762 34.8212Z" fill="#ED3938"/>
<path d="M43.6575 46.1844H48.1946C48.6102 46.1844 48.9976 46.3867 49.2391 46.7296L55.6293 55.8619H58.7402L50.5643 44.1838C50.3284 43.8409 49.9354 43.6386 49.5198 43.6386H40.0861C39.6706 43.6386 39.2775 43.4363 39.0417 43.0991L23.1335 20.3833C22.8246 19.945 22.8246 19.3605 23.1335 18.9222L34.6056 2.52322C35.1109 1.79825 36.1835 1.79825 36.6889 2.52322L48.1609 18.9222C48.4698 19.3605 48.4698 19.945 48.1609 20.3833L42.0683 29.0942C41.5573 29.8192 40.4848 29.8192 39.9794 29.0942L37.7108 25.8515C37.402 25.4132 37.402 24.8287 37.7108 24.3903L40.5073 20.389C40.8161 19.9506 40.8161 19.3661 40.5073 18.9278L35.6388 11.9647L30.7703 18.9222C30.4615 19.3605 30.4615 19.945 30.7703 20.3833L42.2929 36.8216C42.5344 37.1644 42.9218 37.3668 43.3374 37.3668H49.4805C49.8961 37.3668 50.2891 37.1644 50.525 36.8216L58.6953 25.1434H55.5844L49.1942 34.2758C48.9583 34.6186 48.5652 34.8209 48.1497 34.8209H44.6401C44.2246 34.8209 43.8315 34.6186 43.5957 34.2758L43.0791 33.5396C42.7702 33.1012 42.7702 32.5168 43.0791 32.0784L51.94 19.4167C52.1815 19.0795 52.569 18.8716 52.9845 18.8716H68.2806C69.3082 18.8716 69.9146 20.0349 69.325 20.8779L56.1066 39.7665C55.7978 40.2048 55.7978 40.7893 56.1066 41.2277L69.3531 60.1219C69.9483 60.9648 69.3419 62.1282 68.3143 62.1282H53.0182C52.6026 62.1282 52.2152 61.9258 51.9737 61.583L42.6018 48.1908C42.0234 47.3478 42.6242 46.1844 43.6575 46.1844Z" fill="#ED3938"/>
</svg>
