<svg width="14" height="18" viewBox="0 0 14 18" fill="none" xmlns="http://www.w3.org/2000/svg">
<path d="M9.30733 10.4048C8.616 10.8277 7.83867 11.0833 7 11.0833C6.16133 11.0833 5.384 10.8277 4.69266 10.4048C2.26267 10.5708 0.333332 12.6777 0.333332 15.25V16.4513L0.796665 16.6062C0.885999 16.6354 3.02533 17.3333 7 17.3333C10.9747 17.3333 13.114 16.6354 13.2033 16.6062L13.6667 16.4513V15.25C13.6667 12.6777 11.7373 10.5708 9.30733 10.4048Z" fill="white"/>
<path d="M7 9.6944C9.25266 9.6944 11 7.08121 11 4.83329C11 2.53538 9.206 0.666626 7 0.666626C4.794 0.666626 3 2.53538 3 4.83329C3 7.08121 4.74733 9.6944 7 9.6944Z" fill="white"/>
</svg>
