<svg width="14" height="18" viewBox="0 0 14 18" fill="none" xmlns="http://www.w3.org/2000/svg">
<path d="M8.41666 0.666626H1.74999C0.833328 0.666626 0.0916618 1.41663 0.0916618 2.33329L0.0833282 15.6666C0.0833282 16.5833 0.824995 17.3333 1.74166 17.3333H11.75C12.6667 17.3333 13.4167 16.5833 13.4167 15.6666V5.66663L8.41666 0.666626ZM9.24999 8.99996H5.91666V9.83329H8.41666C8.87499 9.83329 9.24999 10.2083 9.24999 10.6666V13.1666C9.24999 13.625 8.87499 14 8.41666 14H7.58333V14.8333H5.91666V14H4.24999V12.3333H7.58333V11.5H5.08333C4.62499 11.5 4.24999 11.125 4.24999 10.6666V8.16663C4.24999 7.70829 4.62499 7.33329 5.08333 7.33329H5.91666V6.49996H7.58333V7.33329H9.24999V8.99996ZM7.58333 5.66663V1.91663L11.3333 5.66663H7.58333Z" fill="#B8B8B8"/>
</svg>
