<svg width="17" height="18" viewBox="0 0 17 18" fill="none" xmlns="http://www.w3.org/2000/svg">
<path d="M8.14166 4.83329V5.59718C7.57192 5.62472 7.02322 5.821 6.56527 6.16107C6.38557 6.30175 6.24098 6.48223 6.14288 6.6883C6.04479 6.89436 5.99588 7.12039 6 7.34857C5.98657 7.76314 6.13272 8.16706 6.40833 8.47704C6.80569 8.85865 7.28295 9.1471 7.80555 9.32149L8.13958 9.45065V10.9951C7.77106 10.9666 7.4063 10.9014 7.05069 10.8007C6.69215 10.7081 6.34333 10.5814 6.00902 10.4222V11.7368C6.68424 12.0195 7.40894 12.1652 8.14097 12.1652V13.1666H8.82291V12.1458C9.40387 12.1222 9.96368 11.9213 10.4271 11.5701C10.6138 11.4161 10.7626 11.2211 10.8619 11.0004C10.9612 10.7797 11.0085 10.5391 11 10.2972C11.005 10.0297 10.9378 9.76582 10.8056 9.53329C10.6533 9.28918 10.4474 9.08302 10.2035 8.93051C9.76535 8.66917 9.30216 8.45235 8.82083 8.28329V6.81107C9.36994 6.85812 9.9086 6.98904 10.4181 7.19927L10.8861 6.03399C10.2336 5.75272 9.53383 5.59722 8.82361 5.57566V4.83329H8.14166ZM8.14166 8.00135C7.96341 7.93112 7.79763 7.83264 7.65069 7.70968C7.6009 7.66394 7.56154 7.60801 7.5353 7.5457C7.50906 7.48339 7.49654 7.41615 7.49861 7.34857C7.49861 7.06663 7.71296 6.89394 8.14166 6.83052V8.00135ZM8.82361 9.7194C9.0057 9.79594 9.17668 9.89661 9.33194 10.0187C9.38509 10.061 9.42796 10.1147 9.45731 10.176C9.48666 10.2372 9.50173 10.3043 9.50139 10.3722C9.50139 10.6875 9.27546 10.8833 8.82361 10.9597V9.7194Z" fill="white"/>
<path d="M8.5 0.66663C6.69597 0.66496 4.94059 1.25155 3.5 2.33746L2.25 0.66663L0.583331 5.38885L5.58333 5.11107L4.33333 3.44788C5.58432 2.51013 7.11526 2.02219 8.67817 2.0631C10.2411 2.10402 11.7444 2.67139 12.9446 3.67331C14.1448 4.67523 14.9716 6.05301 15.2911 7.58347C15.6105 9.11392 15.4039 10.7074 14.7047 12.1058C14.0055 13.5042 12.8547 14.6255 11.4387 15.2883C10.0226 15.951 8.42432 16.1162 6.90266 15.7572C5.381 15.3982 4.02511 14.5359 3.05464 13.3102C2.08416 12.0844 1.55594 10.5669 1.55555 9.00343C1.55555 8.81925 1.48239 8.64262 1.35215 8.51239C1.22192 8.38215 1.04529 8.30899 0.861108 8.30899C0.67693 8.30899 0.500296 8.38215 0.370062 8.51239C0.239829 8.64262 0.166664 8.81925 0.166664 9.00343C0.167351 10.6515 0.656676 12.2623 1.57277 13.6322C2.48887 15.0022 3.7906 16.0698 5.31337 16.6999C6.83615 17.3301 8.5116 17.4947 10.1279 17.1727C11.7442 16.8508 13.2287 16.0569 14.3938 14.8913C15.5589 13.7257 16.3522 12.2408 16.6735 10.6244C16.9947 9.00802 16.8295 7.33265 16.1987 5.81013C15.5678 4.28762 14.4997 2.98633 13.1294 2.07081C11.7591 1.15528 10.148 0.66663 8.5 0.66663Z" fill="white"/>
</svg>
