<svg width="18" height="18" viewBox="0 0 18 18" fill="none" xmlns="http://www.w3.org/2000/svg">
<path d="M8.89167 4.83329V5.59718C8.32192 5.62472 7.77322 5.821 7.31528 6.16107C7.13557 6.30175 6.99098 6.48223 6.89289 6.6883C6.7948 6.89436 6.74588 7.12039 6.75 7.34857C6.73657 7.76314 6.88273 8.16706 7.15833 8.47704C7.55569 8.85865 8.03296 9.1471 8.55556 9.32149L8.88958 9.45065V10.9951C8.52107 10.9666 8.15631 10.9014 7.80069 10.8007C7.44216 10.7081 7.09333 10.5814 6.75903 10.4222V11.7368C7.43424 12.0195 8.15895 12.1652 8.89097 12.1652V13.1666H9.57292V12.1458C10.1539 12.1222 10.7137 11.9213 11.1771 11.5701C11.3638 11.4161 11.5126 11.2211 11.6119 11.0004C11.7112 10.7797 11.7585 10.5391 11.75 10.2972C11.755 10.0297 11.6879 9.76582 11.5556 9.53329C11.4033 9.28918 11.1974 9.08302 10.9535 8.93051C10.5154 8.66917 10.0522 8.45235 9.57083 8.28329V6.81107C10.1199 6.85812 10.6586 6.98904 11.1681 7.19927L11.6361 6.03399C10.9836 5.75272 10.2838 5.59722 9.57361 5.57566V4.83329H8.89167ZM8.89167 8.00135C8.71341 7.93112 8.54763 7.83264 8.40069 7.70968C8.3509 7.66394 8.31155 7.60801 8.2853 7.5457C8.25906 7.48339 8.24655 7.41615 8.24861 7.34857C8.24861 7.06663 8.46296 6.89394 8.89167 6.83052V8.00135ZM9.57361 9.7194C9.7557 9.79594 9.92668 9.89661 10.0819 10.0187C10.1351 10.061 10.178 10.1147 10.2073 10.176C10.2367 10.2372 10.2517 10.3043 10.2514 10.3722C10.2514 10.6875 10.0255 10.8833 9.57361 10.9597V9.7194Z" fill="#B8B8B8"/>
<path d="M9.25 0.66663C7.44597 0.66496 5.69059 1.25155 4.25 2.33746L3 0.66663L1.33333 5.38885L6.33333 5.11107L5.08333 3.44788C6.33432 2.51013 7.86527 2.02219 9.42817 2.0631C10.9911 2.10402 12.4944 2.67139 13.6946 3.67331C14.8948 4.67523 15.7216 6.05301 16.0411 7.58347C16.3605 9.11392 16.1539 10.7074 15.4547 12.1058C14.7555 13.5042 13.6047 14.6255 12.1887 15.2883C10.7726 15.951 9.17433 16.1162 7.65266 15.7572C6.131 15.3982 4.77511 14.5359 3.80464 13.3102C2.83416 12.0844 2.30595 10.5669 2.30556 9.00343C2.30556 8.81925 2.23239 8.64262 2.10216 8.51239C1.97193 8.38215 1.79529 8.30899 1.61111 8.30899C1.42693 8.30899 1.2503 8.38215 1.12007 8.51239C0.989832 8.64262 0.916668 8.81925 0.916668 9.00343C0.917355 10.6515 1.40668 12.2623 2.32278 13.6322C3.23887 15.0022 4.5406 16.0698 6.06338 16.6999C7.58615 17.3301 9.2616 17.4947 10.8779 17.1727C12.4942 16.8508 13.9787 16.0569 15.1438 14.8913C16.3089 13.7257 17.1022 12.2408 17.4235 10.6244C17.7447 9.00802 17.5795 7.33265 16.9487 5.81013C16.3178 4.28762 15.2497 2.98633 13.8794 2.07081C12.5091 1.15528 10.898 0.66663 9.25 0.66663Z" fill="#B8B8B8"/>
</svg>
