<svg width="310" height="226" viewBox="0 0 310 226" fill="none" xmlns="http://www.w3.org/2000/svg">
<path d="M217.784 88.512C234.438 88.512 247.938 75.0117 247.938 58.3582C247.938 41.7048 234.438 28.2045 217.784 28.2045C201.131 28.2045 187.63 41.7048 187.63 58.3582C187.63 75.0117 201.131 88.512 217.784 88.512Z" fill="#F0EFFF"/>
<path d="M267.63 192.186C274.018 187.3 279.652 181.593 283.852 174.739C292.383 160.812 293.385 141.197 282.432 129.083C270.265 115.627 249.372 115.992 231.317 117.781C213.268 119.575 192.715 120.975 179.43 108.623C168.599 98.5502 166.29 82.489 165.181 67.7402C164.073 52.9915 163.13 37.1344 153.933 25.5503C141.551 9.96054 116.633 8.07927 99.8573 18.803C83.0863 29.5267 74.3314 50.0942 74.1321 70.0007C74.0494 78.5174 74.5598 88.7647 67.5258 93.5675C61.916 97.3981 54.2159 95.5169 48.1881 92.3814C42.1651 89.2508 36.4824 84.9341 29.7497 84.0251C20.7906 82.8195 11.8655 88.2494 6.89257 95.7988C1.91961 103.348 0.320291 112.643 0.043205 121.68C-0.73458 147.322 9.03148 172.921 25.9045 192.181H267.63V192.186Z" fill="#EBEBEB"/>
<path d="M217.857 188.9H134.887C131.825 188.9 129.341 191.384 129.341 194.446H217.857V188.9Z" fill="#20A459"/>
<path d="M244.759 151.712H187.329C185.735 151.712 184.296 152.665 183.669 154.128L167.831 191.233C167.18 192.755 168.298 194.446 169.951 194.446H229.276C230.871 194.446 232.31 193.494 232.937 192.03L248.031 156.665C249.032 154.317 247.311 151.712 244.759 151.712Z" fill="#1D9752"/>
<path d="M215.023 173.888C214.148 177.452 210.551 180.339 206.988 180.339C203.424 180.339 201.247 177.452 202.122 173.888C202.997 170.325 206.594 167.438 210.157 167.438C213.72 167.438 215.898 170.325 215.023 173.888Z" fill="white"/>
<path d="M267.004 61.5715H135.495C129.554 61.5715 124.737 66.3889 124.737 72.3293V128.281C124.737 134.221 129.554 139.039 135.495 139.039H186.085L195.146 148.1L204.207 139.039H267.004C272.944 139.039 277.761 134.221 277.761 128.281V72.3341C277.766 66.3889 272.949 61.5715 267.004 61.5715Z" fill="white" stroke="#32B369" stroke-width="1.0481" stroke-miterlimit="10"/>
<path d="M153.693 94.4563C159.413 92.0473 162.098 85.4571 159.689 79.7366C157.28 74.0161 150.689 71.3316 144.969 73.7406C139.248 76.1496 136.564 82.7398 138.973 88.4603C141.382 94.1808 147.972 96.8653 153.693 94.4563Z" fill="#7BEFAA"/>
<path d="M172.756 73.8849L174.817 80.0683L181.336 80.0197L176.09 83.894L178.156 90.0774L172.853 86.2857L167.608 90.16L169.572 83.9426L164.268 80.1509L170.787 80.1023L172.756 73.8849Z" fill="#FFC107"/>
<path d="M193.522 73.8849L195.584 80.0683L202.102 80.0197L196.857 83.894L198.923 90.0774L193.615 86.2857L188.37 90.16L190.338 83.9426L185.035 80.1509L191.554 80.1023L193.522 73.8849Z" fill="#FFC107"/>
<path d="M214.289 73.8849L216.351 80.0683L222.869 80.0197L217.624 83.894L219.69 90.0774L214.382 86.2857L209.137 90.16L211.105 83.9426L205.802 80.1509L212.321 80.1023L214.289 73.8849Z" fill="#FFC107"/>
<path d="M235.056 73.8849L237.117 80.0683L243.636 80.0197L238.391 83.894L240.457 90.0774L235.149 86.2857L229.903 90.16L231.872 83.9426L226.569 80.1509L233.087 80.1023L235.056 73.8849Z" fill="#FFC107"/>
<path d="M255.823 73.8849L257.884 80.0683L264.403 80.0197L259.158 83.894L261.224 90.0774L255.916 86.2857L250.67 90.16L252.639 83.9426L247.336 80.1509L253.854 80.1023L255.823 73.8849Z" fill="#FFC107"/>
<path d="M147.424 100.344H137.498V102.998H147.424V100.344Z" fill="#32B369"/>
<path d="M164.754 100.344H149.874V102.998H164.754V100.344Z" fill="#32B369"/>
<path d="M158.906 108.224H137.498V110.878H158.906V108.224Z" fill="#7BEFAA"/>
<path d="M217.721 108.224H167.632V110.878H217.721V108.224Z" fill="#7BEFAA"/>
<path d="M265.001 108.224H226.447V110.878H265.001V108.224Z" fill="#7BEFAA"/>
<path d="M185.36 116.668H137.498V119.322H185.36V116.668Z" fill="#7BEFAA"/>
<path d="M265.001 116.668H241.079V119.322H265.001V116.668Z" fill="#7BEFAA"/>
<path d="M235.455 116.668H193.522V119.322H235.455V116.668Z" fill="#7BEFAA"/>
<path d="M198.583 125.112H137.498V127.766H198.583V125.112Z" fill="#7BEFAA"/>
<path d="M293.439 19.0219H207.6C203.721 19.0219 200.576 22.167 200.576 26.0462V43.2207C200.576 47.0999 203.721 50.245 207.6 50.245H293.439C297.318 50.245 300.463 47.0999 300.463 43.2207V26.0462C300.463 22.167 297.318 19.0219 293.439 19.0219Z" fill="white" stroke="#32B369" stroke-width="1.0481" stroke-miterlimit="10"/>
<path d="M233.588 29.3225L234.935 33.3573L239.193 33.3281L235.766 35.8559L237.112 39.8907L233.651 37.4163L230.229 39.9441L231.512 35.8851L228.051 33.4107L232.305 33.3816L233.588 29.3225Z" fill="#FFC107"/>
<path d="M247.146 29.3225L248.492 33.3573L252.746 33.3281L249.324 35.8559L250.67 39.8907L247.209 37.4163L243.782 39.9441L245.065 35.8851L241.604 33.4107L245.862 33.3816L247.146 29.3225Z" fill="#FFC107"/>
<path d="M260.699 29.3225L262.045 33.3573L266.304 33.3281L262.877 35.8559L264.223 39.8907L260.762 37.4163L257.34 39.9441L258.623 35.8851L255.162 33.4107L259.415 33.3816L260.699 29.3225Z" fill="#FFC107"/>
<path d="M274.256 29.3225L275.598 33.3573L279.856 33.3281L276.434 35.8559L277.781 39.8907L274.315 37.4163L270.893 39.9441L272.176 35.8851L268.715 33.4107L272.968 33.3816L274.256 29.3225Z" fill="#FFC107"/>
<path d="M287.809 29.3225L289.156 33.3573L293.409 33.3281L289.987 35.8559L291.334 39.8907L287.873 37.4163L284.45 39.9441L285.734 35.8851L282.268 33.4107L286.526 33.3816L287.809 29.3225Z" fill="#E8ECFF"/>
<path d="M222.255 34.2437C222.807 30.83 220.486 27.6155 217.073 27.064C213.659 26.5124 210.444 28.8327 209.893 32.2463C209.341 35.66 211.662 38.8745 215.075 39.426C218.489 39.9776 221.703 37.6573 222.255 34.2437Z" fill="#7BEFAA"/>
<path d="M214.07 40.8046H208.538V42.2824H214.07V40.8046Z" fill="#32B369"/>
<path d="M223.729 40.8046H215.436V42.2824H223.729V40.8046Z" fill="#32B369"/>
<path d="M72.7909 47.5859H13.8494C11.1855 47.5859 9.0271 49.7443 9.0271 52.4082V64.2014C9.0271 66.8653 11.1855 69.0236 13.8494 69.0236H72.7909C75.4548 69.0236 77.6131 66.8653 77.6131 64.2014V52.4082C77.6131 49.7443 75.4548 47.5859 72.7909 47.5859Z" fill="white" stroke="#32B369" stroke-width="1.0481" stroke-miterlimit="10"/>
<path d="M31.6945 54.6589L32.623 57.4298L35.5445 57.4055L33.1917 59.1409L34.1153 61.9166L31.7382 60.2152L29.3903 61.9507L30.2702 59.1652L27.8931 57.4638L30.8146 57.4444L31.6945 54.6589Z" fill="#FFC107"/>
<path d="M41.0038 54.6589L41.9274 57.4298L44.849 57.4055L42.501 59.1409L43.4247 61.9166L41.0476 60.2152L38.6948 61.9507L39.5795 59.1652L37.2024 57.4638L40.1239 57.4444L41.0038 54.6589Z" fill="#FFC107"/>
<path d="M50.3129 54.6589L51.2365 57.4298L54.1581 57.4055L51.8052 59.1409L52.7289 61.9166L50.3518 60.2152L48.0038 61.9507L48.8837 59.1652L46.5066 57.4638L49.4281 57.4444L50.3129 54.6589Z" fill="#FFC107"/>
<path d="M59.6171 54.6589L60.5407 57.4298L63.4671 57.4055L61.1143 59.1409L62.038 61.9166L59.6608 60.2152L57.3081 61.9507L58.1928 59.1652L55.8157 57.4638L58.7372 57.4444L59.6171 54.6589Z" fill="#FFC107"/>
<path d="M68.9262 54.6589L69.8498 57.4298L72.7713 57.4055L70.4234 59.1409L71.347 61.9166L68.9699 60.2152L66.6171 61.9507L67.497 59.1652L65.1199 57.4638L68.0463 57.4444L68.9262 54.6589Z" fill="#E8ECFF"/>
<path d="M23.9222 58.0487C24.3073 55.7041 22.7188 53.4911 20.3742 53.106C18.0296 52.7208 15.8167 54.3093 15.4315 56.654C15.0464 58.9986 16.6348 61.2115 18.9795 61.5967C21.3241 61.9818 23.537 60.3933 23.9222 58.0487Z" fill="#7BEFAA"/>
<path d="M18.2924 62.5389H14.4958V63.5549H18.2924V62.5389Z" fill="#32B369"/>
<path d="M24.928 62.5389H19.2307V63.5549H24.928V62.5389Z" fill="#32B369"/>
<path d="M272.011 174.904C279.238 174.904 285.097 169.045 285.097 161.818C285.097 154.591 279.238 148.732 272.011 148.732C264.783 148.732 258.924 154.591 258.924 161.818C258.924 169.045 264.783 174.904 272.011 174.904Z" fill="#FF7AA9"/>
<path d="M275.938 156.884C273.765 156.884 272.01 158.649 272.01 160.822C272.01 158.649 270.26 156.884 268.083 156.884C265.91 156.884 264.145 158.649 264.145 160.822C264.145 165.727 272.01 169.839 272.01 169.839C272.01 169.839 279.876 165.727 279.876 160.822C279.876 158.649 278.111 156.884 275.938 156.884Z" fill="white"/>
<path d="M39.7607 111.226C40.9279 104.093 36.0919 97.3645 28.9593 96.1973C21.8266 95.0301 15.0983 99.866 13.9311 106.999C12.7638 114.131 17.5998 120.86 24.7324 122.027C31.8651 123.194 38.5934 118.358 39.7607 111.226Z" fill="#FF7AA9"/>
<path d="M30.7712 104.184C28.5983 104.184 26.8434 105.949 26.8434 108.122C26.8434 105.949 25.0934 104.184 22.9156 104.184C20.7378 104.184 18.978 105.949 18.978 108.122C18.978 113.027 26.8434 117.139 26.8434 117.139C26.8434 117.139 34.7087 113.027 34.7087 108.122C34.7087 105.944 32.9441 104.184 30.7712 104.184Z" fill="white"/>
<path d="M98.2486 17.1356L101.423 26.9114H111.704L103.387 32.9538L106.561 42.7296L98.2486 36.6872L89.9312 42.7296L93.1104 32.9538L84.793 26.9114H95.0743L98.2486 17.1356Z" fill="url(#paint0_linear_6_6676)"/>
<path d="M113.935 40.5615L116.361 48.0283H124.207L117.858 52.6415L120.284 60.1082L113.935 55.495L107.582 60.1082L110.008 52.6415L103.659 48.0283H111.51L113.935 40.5615Z" fill="url(#paint1_linear_6_6676)"/>
<path d="M103.678 63.2096L105.088 67.5457H109.653L105.963 70.2291L107.373 74.5701L103.678 71.8868L99.9888 74.5701L101.399 70.2291L97.7041 67.5457H102.269L103.678 63.2096Z" fill="url(#paint2_linear_6_6676)"/>
<path d="M297.846 114.577C304.45 107.973 304.45 97.265 297.846 90.6606C291.241 84.0561 280.533 84.0561 273.929 90.6606C267.324 97.265 267.324 107.973 273.929 114.577C280.533 121.182 291.241 121.182 297.846 114.577Z" fill="url(#paint3_linear_6_6676)"/>
<path d="M277.305 94.287V100.145L289.171 102.872L277.305 105.599V111.452L299.267 102.872L277.305 94.287Z" fill="white"/>
<path d="M185.793 24.8406C185.798 38.5053 174.69 49.6227 161.123 49.5936C147.346 49.5644 137.78 39.0303 136.492 27.9128C135.636 20.553 137.61 14.005 142.451 8.4536C147.337 2.85841 153.647 -0.0145282 161.079 5.52431e-05C174.569 0.024361 185.871 10.9571 185.793 24.8406Z" fill="url(#paint4_linear_6_6676)"/>
<path d="M164.516 34.1011C162.333 34.1011 160.151 34.106 157.968 34.1011C157.185 34.1011 156.894 33.8483 156.903 33.0608C156.932 29.658 156.748 26.2455 157 22.8475C157.161 20.66 158.026 18.7058 159.378 16.9704C160.291 15.7988 161.249 14.6613 162.314 13.621C162.659 13.2856 162.834 12.9065 162.824 12.4203C162.814 11.837 162.873 11.2537 162.858 10.6703C162.839 9.94115 163.082 9.33837 163.762 9.06128C164.477 8.77448 165.172 8.92031 165.751 9.4599C166.314 9.9849 166.533 10.6898 166.703 11.4044C167.151 13.2419 166.805 14.9822 166.047 16.6739C165.794 17.2377 165.566 17.8162 165.279 18.3655C165.094 18.7253 165.235 18.8517 165.556 18.9051C165.721 18.9294 165.892 18.9197 166.062 18.9197C168.021 18.9148 169.975 18.91 171.934 18.9051C172.999 18.9051 173.728 19.4155 173.98 20.3294C174.262 21.3503 173.854 22.5267 172.994 22.9836C172.605 23.1878 172.619 23.2802 172.955 23.5135C173.669 24.0142 174.146 24.651 174 25.6038C173.888 26.3232 173.533 26.8142 172.828 27.0427C172.697 27.0864 172.488 27.0719 172.464 27.2469C172.435 27.4316 172.649 27.4608 172.76 27.5434C173.699 28.2434 173.825 30.1149 172.444 30.6837C172.177 30.7955 172.06 30.8587 172.342 31.1261C172.95 31.7094 172.955 32.4532 172.673 33.1629C172.396 33.8532 171.778 34.0671 171.059 34.0671C168.876 34.0573 166.694 34.0622 164.511 34.0622C164.516 34.0816 164.516 34.0914 164.516 34.1011Z" fill="#FDFDFE"/>
<path d="M154.259 36.0504C152.455 36.0553 150.647 36.0601 148.844 36.0698C148.304 36.0747 148.056 35.7733 147.998 35.2823C147.969 35.0247 147.983 34.7573 147.983 34.4948C147.983 30.7128 147.983 26.9357 147.988 23.1537C147.988 22.2204 148.221 21.9919 149.164 21.9919C150.783 21.9871 152.397 21.9871 154.016 21.9919C154.662 21.9968 154.998 22.2787 154.998 22.8961C155.003 26.8628 154.988 30.8295 154.978 34.7962C154.978 34.8157 154.969 34.8302 154.964 34.8497C154.862 34.8837 154.876 34.9177 154.959 34.9566C154.988 35.3844 154.978 35.7927 154.487 35.9726C154.473 35.8559 154.434 35.7247 154.293 35.7636C154.137 35.8122 154.283 35.9532 154.259 36.0504Z" fill="#FDFDFE"/>
<path d="M96.7316 96.7273C97.4218 100.203 97.2323 103.791 97.4996 107.325C97.767 110.859 98.5739 114.534 100.898 117.212C102.866 119.482 105.822 120.912 107.227 123.571C108.296 125.593 108.277 128.077 107.48 130.221C106.682 132.364 105.171 134.182 103.421 135.651C97.3829 140.696 88.3412 141.508 81.1953 138.217C74.0494 134.926 68.9112 127.921 67.2195 120.236C65.5327 112.55 67.1174 104.33 70.9042 97.4321C73.0432 93.5384 75.989 89.9217 79.9606 87.9237C83.2419 86.2709 88.1759 85.6487 91.4912 87.6466C94.3301 89.3578 96.1239 93.6696 96.7316 96.7273Z" fill="#452828"/>
<path d="M153.627 175.745C153.627 175.745 152.344 178.507 149.077 176.859L146.938 180.893L152.266 183.713L156.135 176.402L154.604 169.202C154.604 169.202 153.16 169.771 153.199 171.317C153.243 172.872 153.627 175.745 153.627 175.745Z" fill="#915046"/>
<path d="M158.498 185.186C158.522 183.504 157.618 181.934 156.111 181.136L150.531 178.181L149.378 180.359L158.498 185.186Z" fill="#994F39"/>
<path d="M160.058 187.684C160.083 186.002 159.178 184.432 157.671 183.635L151.264 180.247L150.112 182.425L160.058 187.684Z" fill="#AB6955"/>
<path d="M152.558 162.348L154.42 167.929L160.302 167.88L155.572 171.375L157.429 176.956L152.645 173.534L147.915 177.029L149.69 171.419L144.906 168.002L150.783 167.958L152.558 162.348Z" fill="#FFC107"/>
<path d="M148.965 176.81L149.237 174.856L151.493 173.077C152.178 172.537 152.577 171.715 152.582 170.84V170.622L145.694 173.077L142.689 176.63L140.755 180.291L151.167 185.803L151.872 184.466C153.267 181.827 152.261 178.56 149.626 177.165L148.965 176.81Z" fill="#B57A68"/>
<path d="M158.479 189.668C158.503 187.986 157.599 186.416 156.092 185.618L149.685 182.23L148.533 184.408L158.479 189.668Z" fill="#B57A68"/>
<path d="M148.873 176.611C148.221 177.617 147.385 178.502 146.418 179.216" stroke="#A15545" stroke-width="1.8647" stroke-miterlimit="10" stroke-linecap="round" stroke-linejoin="round"/>
<path d="M111.636 176.577L143.341 177.087L143.219 181.438L105.492 187.203L111.636 176.577Z" fill="#B57A68"/>
<path d="M82.2842 135.855H91.5835C95.9732 135.855 99.8718 138.645 101.291 142.796L114.805 182.318C114.805 182.318 113.867 189.629 108.145 190.3C105.997 190.552 103.931 189.376 102.925 187.461L82.2793 148.29V135.855H82.2842Z" fill="#383757"/>
<path d="M105.851 175.93L136.443 176.961L126.37 189.677L107.042 190.834C104.485 190.985 102.526 188.598 103.178 186.124L104.442 181.302L105.851 175.93Z" fill="#383757"/>
<path d="M111.636 176.577C109.137 178.088 106.318 180.412 105.02 183.032" stroke="#474463" stroke-width="1.8647" stroke-miterlimit="10" stroke-linecap="round"/>
<path d="M111.636 176.577C108.394 176.703 104.398 177.14 102.03 179.357" stroke="#474463" stroke-width="1.8647" stroke-miterlimit="10" stroke-linecap="round"/>
<path d="M89.2163 221.649C84.2384 222.16 79.0564 222.028 74.0738 221.552C66.1258 220.789 59.1014 217.031 52.2423 213.22C51.2506 212.671 50.2541 212.107 49.2576 211.528C52.8743 205.807 57.4778 199.9 62.7667 196.157H89.192L97.7573 219.574C95.108 220.813 92.0211 221.362 89.2163 221.649Z" fill="white"/>
<path d="M58.591 194.928L50.9201 142.019L54.775 135.782H89.926L99.5851 161.808C99.5851 161.808 91.5059 186.848 91.5059 196.138L100.397 221.96L89.8968 226L81.8127 201.189L72.9265 225.825L45.2617 214.314L58.591 194.928Z" fill="#474463"/>
<path d="M50.9202 142.019L54.8188 135.704H59.8501L61.3328 148.294L56.4813 180.378L50.9202 142.019Z" fill="#383757"/>
<path d="M88.2878 135.957V165.731L63.3452 135.957H88.2878Z" fill="white"/>
<path d="M72.9995 143.117C71.2495 142.699 69.5432 142.111 67.8953 141.387L63.1313 135.699H88.283V140.069C84.7635 144.231 78.0988 144.333 72.9995 143.117Z" fill="#B57A68"/>
<path d="M63.1362 135.704V154.303H73.8016L67.8759 166.806L89.0559 166.655L63.1362 135.704Z" fill="#615F7F"/>
<path d="M88.2878 135.704H89.892L102.361 154.303H92.5122L103.139 166.806H89.0559H88.4288L88.2878 135.704Z" fill="#615F7F"/>
<path d="M88.3997 166.777C85.9983 178.118 84.2386 189.605 81.8372 200.951" stroke="#383757" stroke-width="1.8647" stroke-miterlimit="10"/>
<path d="M93.6351 203.313C91.5788 203.998 89.4059 204.334 87.2378 204.3" stroke="#383757" stroke-width="1.8647" stroke-miterlimit="10"/>
<path d="M70.4038 204.023C66.4566 203.819 62.553 202.803 59.0044 201.062" stroke="#383757" stroke-width="1.8647" stroke-miterlimit="10"/>
<path d="M61.3326 135.699H52.0333C47.6436 135.699 43.745 138.49 42.3255 142.641L28.8115 182.162C28.8115 182.162 28.9671 185.089 30.3233 187.587C32.4817 191.559 37.8241 192.57 39.9533 188.584L61.3375 148.139V135.699H61.3326Z" fill="#474463"/>
<path d="M74.2683 178.171L76.8204 180.383L82.9309 181.783L82.9017 181.564C82.7802 180.699 82.2747 179.941 81.5212 179.498L79.9899 178.268L80.4323 176.577L83.0038 174.443L79.8878 171.745L73.2329 176.125L74.2683 178.171Z" fill="#915046"/>
<path d="M80.2185 173.825L84.472 177.884L89.6491 175.094L87.1018 180.393L91.3554 184.457L85.5268 183.669L82.9796 188.973L81.9247 183.188L76.0962 182.4L81.2733 179.61L80.2185 173.825Z" fill="#FFC107"/>
<path d="M84.0538 175.979C84.0538 175.979 82.7413 173.932 80.335 175.585L78.2107 172.62L82.5566 169.586L86.4017 174.953L85.5413 179.882C85.5413 179.882 84.3357 179.586 84.1996 178.361C84.0635 177.131 84.0538 175.979 84.0538 175.979Z" fill="#915046"/>
<path d="M74.5405 178.633L72.0029 175.235L81.4336 167.948L82.3134 169.178C84.0537 171.604 83.9662 173.786 82.469 174.968L80.4273 176.577L74.5405 178.633Z" fill="#B57A68"/>
<path d="M88.3947 171.084C88.667 171.016 88.8954 171.293 88.7836 171.555C88.3364 172.6 87.4274 173.397 86.2899 173.679L80.5391 175.094L80.0579 173.14L88.3947 171.084Z" fill="#B57A68"/>
<path d="M87.6122 162.951C87.8844 162.732 88.283 162.922 88.2927 163.272C88.3365 164.672 87.7386 166.038 86.6108 166.942L80.9232 171.521L79.3677 169.586L87.6122 162.951Z" fill="#B57A68"/>
<path d="M88.8226 166.961C89.1337 166.806 89.4837 167.078 89.4205 167.418C89.1629 168.794 88.2879 169.999 86.9948 170.646L81.2976 173.48L80.1892 171.259L88.8226 166.961Z" fill="#B57A68"/>
<path d="M38.7769 174.165L69.9807 173.986L60.2681 187.524L36.0887 191.16C32.963 191.632 30.3088 188.89 30.863 185.774C31.7526 180.786 33.8477 174.569 38.7769 174.165Z" fill="#474463"/>
<path d="M47.2499 174.141L37.0366 174.35" stroke="#383757" stroke-width="1.8647" stroke-miterlimit="10" stroke-linecap="round"/>
<path d="M47.2547 174.117L36.5942 176.961" stroke="#383757" stroke-width="1.8647" stroke-miterlimit="10" stroke-linecap="round"/>
<path d="M69.2708 110.815L70.3694 138.261C70.4131 139.365 71.3222 140.24 72.4256 140.24H85.9348C87.6168 140.24 88.4286 138.203 87.2279 137.026C84.6369 134.494 82.0118 130.148 82.0118 122.934V111.369L69.2708 110.815Z" fill="#B57A68"/>
<path d="M75.5028 111.087L82.0119 111.369V122.934C82.0119 126.108 82.5223 128.724 83.3098 130.872C75.8333 128.33 73.3056 118.306 75.5028 111.087Z" fill="#915046"/>
<path d="M72.6057 121.096C71.6918 120.479 70.7974 119.73 69.9467 118.899C65.6105 114.684 63.0195 108.982 62.4119 102.964C61.848 97.3689 62.9709 91.8029 67.6133 88.1084C72.5863 84.1515 80.3398 83.8063 85.9399 86.5529C91.2969 89.1779 94.2427 94.1703 95.3365 99.8821C95.8809 102.716 96.0316 105.613 96.0705 108.496C96.1434 113.892 95.3073 124.256 89.1045 125.549C82.4058 126.93 77.5155 124.416 72.6057 121.096Z" fill="#B57A68"/>
<path d="M93.3821 97.4906C95.1613 100.033 95.6718 103.232 96.1336 106.299C97.2419 102.361 97.2468 98.1177 96.1384 94.1753C95.6183 92.3329 94.8454 90.5246 93.5669 89.0954C92.2884 87.6711 90.4557 86.6648 88.5404 86.694C85.546 86.7426 81.9487 90.8649 85.0404 93.3586C85.9835 94.1218 87.5877 93.9614 88.7106 94.2628C90.5967 94.7781 92.2544 95.8816 93.3821 97.4906Z" fill="#452828"/>
<path d="M86.212 99.7607C84.1898 101.598 81.6911 102.809 79.0224 103.373C76.2904 103.951 72.9751 103.791 70.9188 105.978C64.6722 112.628 69.9369 120.62 73.1209 127.328C74.7251 130.707 76.3828 134.63 75.5126 138.436C74.3994 143.307 69.6501 145.621 64.9834 145.64C57.3854 145.669 51.4985 140.026 49.9818 132.773C49.1943 129.015 49.7339 125.267 51.1923 121.753C52.5339 118.515 54.6971 115.657 55.7715 112.307C57.4923 106.941 55.0569 101.287 56.7972 95.8329C60.2583 84.9974 76.9175 74.3563 87.0773 83.189C92.935 88.2786 91.0294 95.3905 86.212 99.7607Z" fill="#452828"/>
<path d="M71.3174 102.147C69.9515 103.445 69.057 105.268 68.8626 107.145C68.639 109.288 69.2223 111.427 70.2869 113.314L71.6772 113.07C71.823 110.63 72.4404 108.2 73.2084 105.915C73.5584 104.865 73.9814 103.825 74.4869 102.818C74.0689 100.893 72.557 100.971 71.3174 102.147Z" fill="#452828"/>
<path d="M89.7024 107.597C90.1059 109.4 90.8399 111.126 91.8559 112.667C92.2107 113.207 92.6239 113.814 92.4684 114.441C92.3274 115.034 91.7441 115.389 91.2093 115.686" stroke="#915046" stroke-width="1.2164" stroke-miterlimit="10" stroke-linecap="round"/>
<path d="M89.6542 120.492C90.4499 120.197 90.8564 119.314 90.5621 118.518C90.2678 117.722 89.3841 117.316 88.5884 117.61C87.7927 117.904 87.3863 118.788 87.6806 119.584C87.9749 120.379 88.8585 120.786 89.6542 120.492Z" fill="#FF7A7A"/>
<path d="M91.4671 118.175C89.8677 119.128 87.8115 119.264 86.1003 118.53" stroke="#915046" stroke-width="1.2164" stroke-miterlimit="10" stroke-linecap="round"/>
<path d="M95.103 102.658C93.7224 101.885 92.2835 102.075 91.2043 103.168" stroke="#452828" stroke-width="1.8231" stroke-miterlimit="10" stroke-linecap="round"/>
<path d="M84.3454 104.058C82.4155 103.441 80.3592 103.781 78.7356 104.982" stroke="#452828" stroke-width="1.8231" stroke-miterlimit="10" stroke-linecap="round"/>
<path d="M84.0003 108.331C84.1316 109.08 83.6309 109.789 82.8871 109.921C82.1385 110.052 81.4288 109.551 81.2975 108.807C81.1663 108.059 81.667 107.349 82.4107 107.218C83.1545 107.082 83.8691 107.582 84.0003 108.331Z" fill="#452828"/>
<path d="M94.4481 107.591C94.5712 106.844 94.0654 106.139 93.3184 106.016C92.5714 105.893 91.866 106.399 91.7429 107.146C91.6198 107.893 92.1256 108.598 92.8726 108.721C93.6196 108.844 94.325 108.338 94.4481 107.591Z" fill="#452828"/>
<path d="M69.9712 110.023C69.033 109.225 67.6864 108.793 66.544 109.254C65.6253 109.624 64.9836 110.523 64.76 111.486C64.5364 112.448 64.6919 113.469 65.0274 114.402C66.0871 117.373 69.0475 119.565 72.1976 119.711C72.849 119.74 72.4892 114.524 72.3969 114.023C72.1101 112.531 71.1232 111.005 69.9712 110.023Z" fill="#B57A68"/>
<path d="M71.2833 118.316C71.4146 119.055 70.9187 119.755 70.1798 119.886C69.4409 120.017 68.7409 119.521 68.6097 118.782C68.4784 118.043 68.9743 117.343 69.7132 117.212C70.4521 117.081 71.1569 117.577 71.2833 118.316Z" fill="white"/>
<path d="M66.7871 111.364C67.3267 110.907 68.1336 110.854 68.7802 111.131C69.4267 111.408 69.9226 111.977 70.2239 112.613C70.5253 113.25 70.6566 113.955 70.7295 114.655C70.3844 114.329 69.801 114.291 69.417 114.568C69.033 114.85 68.8871 115.414 69.0913 115.846C69.2955 116.279 69.8253 116.522 70.2871 116.4" stroke="#915046" stroke-width="1.2164" stroke-miterlimit="10" stroke-linecap="round"/>
<defs>
<linearGradient id="paint0_linear_6_6676" x1="75.5469" y1="35.6921" x2="97.7533" y2="6.5169" gradientUnits="userSpaceOnUse">
<stop stop-color="#067938"/>
<stop offset="0.0001" stop-color="#007031"/>
<stop offset="0.619792" stop-color="#1F9C55"/>
<stop offset="1" stop-color="#4FB67B"/>
</linearGradient>
<linearGradient id="paint1_linear_6_6676" x1="96.5991" y1="54.7335" x2="113.56" y2="32.4555" gradientUnits="userSpaceOnUse">
<stop stop-color="#067938"/>
<stop offset="0.0001" stop-color="#007031"/>
<stop offset="0.619792" stop-color="#1F9C55"/>
<stop offset="1" stop-color="#4FB67B"/>
</linearGradient>
<linearGradient id="paint2_linear_6_6676" x1="93.5988" y1="71.4463" x2="103.455" y2="58.4935" gradientUnits="userSpaceOnUse">
<stop stop-color="#067938"/>
<stop offset="0.0001" stop-color="#007031"/>
<stop offset="0.619792" stop-color="#1F9C55"/>
<stop offset="1" stop-color="#4FB67B"/>
</linearGradient>
<linearGradient id="paint3_linear_6_6676" x1="271.094" y1="128.177" x2="265.853" y2="80.9243" gradientUnits="userSpaceOnUse">
<stop stop-color="#067938"/>
<stop offset="0.0001" stop-color="#007031"/>
<stop offset="0.619792" stop-color="#1F9C55"/>
<stop offset="1" stop-color="#4FB67B"/>
</linearGradient>
<linearGradient id="paint4_linear_6_6676" x1="119.292" y1="35.957" x2="162.868" y2="-18.3842" gradientUnits="userSpaceOnUse">
<stop stop-color="#067938"/>
<stop offset="0.0001" stop-color="#007031"/>
<stop offset="0.619792" stop-color="#1F9C55"/>
<stop offset="1" stop-color="#4FB67B"/>
</linearGradient>
</defs>
</svg>
