<svg width="226" height="265" viewBox="0 0 226 265" fill="none" xmlns="http://www.w3.org/2000/svg">
<path d="M152.542 61.6308H223.21C224.697 61.6308 225.904 60.4244 225.904 58.9373V18.8399C225.904 17.3528 224.697 16.1464 223.21 16.1464H152.542C151.055 16.1464 149.848 17.3528 149.848 18.8399V58.9373C149.847 60.4244 151.053 61.6308 152.542 61.6308Z" fill="#45C27A"/>
<path d="M149.848 32.5857L225.905 32.5857L225.905 24.7366L149.848 24.7366L149.848 32.5857Z" fill="#1D9752"/>
<path d="M208.484 52.905H219.666C220.377 52.905 220.953 53.4812 220.953 54.1919C220.953 54.9026 220.377 55.4787 219.666 55.4787H208.484C207.773 55.4787 207.197 54.9026 207.197 54.1919C207.195 53.4812 207.771 52.9034 208.484 52.905Z" fill="#7BEFAA"/>
<path d="M191.285 52.9034H202.468C203.179 52.9034 203.755 53.4796 203.755 54.1903C203.755 54.901 203.179 55.4771 202.468 55.4771H191.285C190.575 55.4771 189.999 54.901 189.999 54.1903C189.999 53.4812 190.575 52.9034 191.285 52.9034Z" fill="#7BEFAA"/>
<path d="M174.088 52.9034H185.271C185.982 52.9034 186.558 53.4796 186.558 54.1903C186.558 54.901 185.982 55.4771 185.271 55.4771H174.088C173.378 55.4771 172.802 54.901 172.802 54.1903C172.802 53.4812 173.378 52.9034 174.088 52.9034Z" fill="#D1F5FF"/>
<path d="M156.892 52.9034H168.074C168.785 52.9034 169.361 53.4796 169.361 54.1903C169.361 54.901 168.785 55.4771 168.074 55.4771H156.892C156.181 55.4771 155.605 54.901 155.605 54.1903C155.605 53.4812 156.181 52.9034 156.892 52.9034Z" fill="#D1F5FF"/>
<path d="M220.18 18.4541C220.965 18.4541 221.6 19.0893 221.6 19.8739V20.3729C221.6 21.1575 220.965 21.7927 220.18 21.7927C219.395 21.7927 218.76 21.1575 218.76 20.3729V19.8739C218.76 19.091 219.395 18.4541 220.18 18.4541Z" fill="#7BEFAA"/>
<path d="M217.121 20.1251C217.121 21.0476 216.372 21.7944 215.451 21.7944H209.533C208.61 21.7944 207.863 21.0459 207.863 20.1251C207.863 19.2026 208.612 18.4558 209.533 18.4558H215.451C216.372 18.4542 217.121 19.2026 217.121 20.1251Z" fill="#7BEFAA"/>
<path d="M217.897 36.8064H210.251C209.025 36.8064 208.032 37.7994 208.032 39.0256V45.6174C208.032 46.8435 209.025 47.8365 210.251 47.8365H217.897C219.121 47.8365 220.116 46.8435 220.116 45.6174V39.0256C220.116 37.8011 219.121 36.8064 217.897 36.8064Z" fill="#FFBD73"/>
<path d="M23.6686 85.1846C22.0798 87.1805 20.9571 89.3964 20.289 91.7025L22.2817 92.2836C21.6481 94.4567 21.4675 96.7186 21.7121 98.9262L19.6538 99.1593C19.9296 101.593 20.6698 103.975 21.8697 106.158L22.2767 105.938L23.69 105.162C24.7355 107.072 26.1767 108.814 27.9871 110.255L26.6921 111.882C28.688 113.471 30.9039 114.593 33.2149 115.255L33.796 113.262C35.9642 113.902 38.2261 114.083 40.4337 113.838L40.6668 115.897C43.101 115.621 45.4876 114.874 47.6706 113.674L47.664 113.669L47.3801 113.141L46.6743 111.854C48.5849 110.808 50.3214 109.374 51.7626 107.563L53.3892 108.858C54.978 106.862 56.1057 104.64 56.7672 102.329L54.7745 101.748C55.4147 99.5795 55.5903 97.3242 55.3457 95.1166L57.404 94.8835C57.1283 92.4493 56.3814 90.0628 55.1816 87.8797L53.3613 88.876C52.3157 86.9655 50.8811 85.2289 49.0707 83.7878L50.3658 82.1628C48.3698 80.5739 46.1474 79.4463 43.8363 78.7848L43.2553 80.7775C41.087 80.1373 38.8317 79.9617 36.6241 80.2063L36.391 78.1479C33.9503 78.4188 31.5703 79.1705 29.3872 80.3704L29.3954 80.3868L30.052 81.585L30.3835 82.1923C28.473 83.2379 26.7315 84.679 25.2952 86.4829L23.6686 85.1846ZM31.3487 91.302C34.5083 87.3364 40.2827 86.6815 44.2483 89.8412C48.2205 93.0058 48.8754 98.7802 45.7157 102.747C42.5511 106.72 36.7767 107.374 32.8046 104.21C28.839 101.05 28.1857 95.2742 31.3487 91.302Z" stroke="#1D9752" stroke-width="4.435" stroke-miterlimit="10"/>
<path d="M170.121 179.727C168.288 182.03 166.993 184.587 166.222 187.249L168.521 187.919C167.791 190.427 167.581 193.037 167.863 195.584L165.488 195.853C165.806 198.662 166.66 201.409 168.045 203.931L168.515 203.676L170.146 202.78C171.352 204.984 173.015 206.993 175.105 208.658L173.611 210.534C175.914 212.367 178.471 213.662 181.138 214.427L181.81 212.128C184.311 212.866 186.921 213.075 189.468 212.792L189.738 215.167C192.546 214.849 195.3 213.987 197.82 212.604L197.813 212.599L197.485 211.99L196.671 210.504C198.875 209.298 200.879 207.642 202.544 205.552L204.42 207.046C206.253 204.743 207.553 202.178 208.318 199.512L206.019 198.842C206.757 196.341 206.959 193.738 206.677 191.19L209.052 190.921C208.733 188.112 207.872 185.358 206.488 182.839L204.387 183.988C203.181 181.783 201.524 179.779 199.435 178.115L200.929 176.239C198.626 174.405 196.06 173.105 193.395 172.34L192.723 174.64C190.222 173.901 187.619 173.7 185.071 173.98L184.802 171.605C181.985 171.917 179.239 172.785 176.72 174.169L176.728 174.187L177.486 175.569L177.87 176.27C175.666 177.476 173.657 179.139 171.998 181.222L170.121 179.727ZM178.985 186.785C182.63 182.208 189.294 181.453 193.872 185.099C198.457 188.749 199.212 195.415 195.566 199.991C191.916 204.576 185.25 205.331 180.666 201.679C176.088 198.033 175.333 191.369 178.985 186.785Z" stroke="#1D9752" stroke-width="3.8256" stroke-miterlimit="10"/>
<path d="M148.069 18.3146C148.069 16.3186 149.688 14.7002 151.684 14.7002H165.036C165.064 14.4836 165.104 14.2686 165.104 14.0453C165.104 11.2927 162.952 9.02269 160.247 8.82244C160.293 8.47775 160.326 8.12978 160.326 7.77196C160.326 3.47974 156.846 0 152.554 0C149.333 0 146.571 1.95817 145.392 4.74853C144.432 3.89336 143.172 3.36976 141.786 3.36976C138.787 3.36976 136.355 5.80065 136.355 8.79946H135.342C132.458 8.79946 130.098 11.1598 130.098 14.042C130.098 16.926 132.457 19.2846 135.342 19.2846H148.068V18.3146H148.069Z" fill="url(#paint0_linear_6_5729)"/>
<path d="M71.6301 43.2554C73.4898 32.2401 90.4535 27.2667 90.1219 34.4559L167.891 34.9106C173.278 34.9418 177.645 39.7871 177.649 45.7388L177.81 250.268C177.815 256.434 173.371 261.474 167.881 261.522L88.492 262.203C87.9996 263.237 87.0772 264.179 85.6245 264.965C76.5198 265.159 72.1537 260.663 70.5583 255.58C70.0379 254.216 69.7556 252.708 69.7687 251.119C70.0872 248.458 71.054 45.8389 71.6301 43.2554Z" fill="#0E9549" fill-opacity="0.2"/>
<path d="M86.473 265L177.599 264.412C183.285 264.376 187.886 259.198 187.874 252.854L187.533 42.5136C187.523 36.3961 182.996 31.4277 177.42 31.4096L88.0635 31.1191C82.4434 31.101 77.8458 36.0629 77.7999 42.2083L76.1798 253.522C76.1306 259.895 80.7412 265.038 86.473 265Z" fill="white"/>
<path d="M85.216 263.47C85.5952 263.521 85.9825 263.546 86.3666 263.542L177.465 262.853C182.352 262.815 186.345 258.277 186.337 252.74L186.022 42.63C186.013 37.289 182.082 32.9311 177.289 32.9098L87.9407 32.5208C87.8012 32.5208 87.66 32.5224 87.5205 32.529C85.2718 32.634 83.1708 33.6582 81.6 35.4096C79.9948 37.2003 79.1019 39.5754 79.0822 42.0982L77.4834 253.625C77.4473 258.641 80.758 262.873 85.216 263.47Z" fill="#595959"/>
<path d="M82.2172 43.1635L80.6792 253.955L183.307 253.341L183.044 43.1635H82.2172Z" fill="url(#paint1_linear_6_5729)"/>
<path d="M117.599 151.017H142.965C145.112 151.017 146.866 149.261 146.866 147.116C146.866 144.969 145.11 143.214 142.965 143.214H117.599C115.452 143.214 113.697 144.97 113.697 147.116C113.697 149.261 115.454 151.017 117.599 151.017Z" fill="#FF9F34"/>
<path d="M98.3027 122.048H163.891C166.038 122.048 167.792 120.292 167.792 118.147C167.792 116 166.036 114.245 163.891 114.245H98.3027C96.1558 114.245 94.4011 116.002 94.4011 118.147C94.4011 120.292 96.1558 122.048 98.3027 122.048Z" fill="white"/>
<path d="M98.3027 134.617H163.891C166.038 134.617 167.792 132.86 167.792 130.715C167.792 128.568 166.036 126.813 163.891 126.813H98.3027C96.1558 126.813 94.4011 128.57 94.4011 130.715C94.4011 132.86 96.1558 134.617 98.3027 134.617Z" fill="white"/>
<path d="M153.018 132.433C153.777 132.433 154.392 131.818 154.392 131.06C154.392 130.301 153.777 129.686 153.018 129.686C152.26 129.686 151.645 130.301 151.645 131.06C151.645 131.818 152.26 132.433 153.018 132.433Z" fill="#1D9752"/>
<path d="M148.308 132.433C149.066 132.433 149.682 131.818 149.682 131.06C149.682 130.301 149.066 129.686 148.308 129.686C147.549 129.686 146.934 130.301 146.934 131.06C146.934 131.818 147.549 132.433 148.308 132.433Z" fill="#1D9752"/>
<path d="M143.597 132.433C144.355 132.433 144.971 131.818 144.971 131.06C144.971 130.301 144.355 129.686 143.597 129.686C142.838 129.686 142.223 130.301 142.223 131.06C142.223 131.818 142.838 132.433 143.597 132.433Z" fill="#1D9752"/>
<path d="M138.886 132.433C139.645 132.433 140.26 131.818 140.26 131.06C140.26 130.301 139.645 129.686 138.886 129.686C138.127 129.686 137.512 130.301 137.512 131.06C137.512 131.818 138.127 132.433 138.886 132.433Z" fill="#1D9752"/>
<path d="M134.175 132.433C134.934 132.433 135.549 131.818 135.549 131.06C135.549 130.301 134.934 129.686 134.175 129.686C133.416 129.686 132.801 130.301 132.801 131.06C132.801 131.818 133.416 132.433 134.175 132.433Z" fill="#1D9752"/>
<path d="M129.466 132.433C130.225 132.433 130.84 131.818 130.84 131.06C130.84 130.301 130.225 129.686 129.466 129.686C128.707 129.686 128.092 130.301 128.092 131.06C128.092 131.818 128.707 132.433 129.466 132.433Z" fill="#1D9752"/>
<path d="M124.755 132.433C125.514 132.433 126.129 131.818 126.129 131.06C126.129 130.301 125.514 129.686 124.755 129.686C123.996 129.686 123.381 130.301 123.381 131.06C123.381 131.818 123.996 132.433 124.755 132.433Z" fill="#1D9752"/>
<path d="M120.045 132.433C120.803 132.433 121.418 131.818 121.418 131.06C121.418 130.301 120.803 129.686 120.045 129.686C119.286 129.686 118.671 130.301 118.671 131.06C118.671 131.818 119.286 132.433 120.045 132.433Z" fill="#1D9752"/>
<path d="M115.334 132.433C116.093 132.433 116.708 131.818 116.708 131.06C116.708 130.301 116.093 129.686 115.334 129.686C114.575 129.686 113.96 130.301 113.96 131.06C113.96 131.818 114.575 132.433 115.334 132.433Z" fill="#1D9752"/>
<path d="M141.734 98.9077C147.622 93.0195 147.622 83.4729 141.734 77.5847C135.846 71.6966 126.299 71.6966 120.411 77.5847C114.523 83.4729 114.523 93.0195 120.411 98.9077C126.299 104.796 135.846 104.796 141.734 98.9077Z" fill="white"/>
<path d="M131.053 87.6399C129.581 87.6399 128.222 86.9227 127.354 85.8278C126.712 85.0351 126.334 84.0158 126.334 82.8832C126.334 80.2783 128.448 78.1265 131.052 78.1265C133.694 78.1265 135.808 80.2783 135.808 82.8832C135.808 84.0158 135.431 85.0351 134.789 85.8278C133.922 86.9227 132.563 87.6399 131.053 87.6399Z" fill="#1D9752"/>
<path d="M122.697 96.1144C122.697 99.1165 139.457 99.1165 139.457 96.1144L139.452 92.6166C138.791 87.8352 124.059 87.635 122.694 92.6166L122.697 96.1144Z" fill="#1D9752"/>
<path d="M160.395 129.994V132.762C160.395 133.239 163.942 133.239 163.942 132.762V129.994H163.708V129.786C163.708 128.939 163.019 128.251 162.174 128.251C161.327 128.251 160.639 128.941 160.639 129.786V129.994H160.395ZM163.162 129.994H161.176V129.786C161.176 129.225 161.514 128.772 162.174 128.772C162.834 128.772 163.162 129.254 163.162 129.786V129.994ZM161.686 130.978C161.686 130.712 161.911 130.485 162.179 130.485C162.445 130.485 162.671 130.71 162.671 130.978C162.671 131.161 162.568 131.306 162.425 131.388V132.187C162.425 132.332 162.323 132.433 162.179 132.433C162.034 132.433 161.911 132.332 161.911 132.187V131.388C161.79 131.306 161.686 131.163 161.686 130.978Z" fill="#4D4D4D"/>
<path d="M162.169 117.863C161.859 117.863 161.572 117.712 161.388 117.48C161.254 117.313 161.173 117.098 161.173 116.858C161.173 116.308 161.62 115.855 162.169 115.855C162.727 115.855 163.172 116.31 163.172 116.858C163.172 117.098 163.094 117.313 162.957 117.48C162.775 117.71 162.488 117.863 162.169 117.863Z" fill="#4D4D4D"/>
<path d="M160.406 119.65C160.406 120.284 163.962 120.284 163.962 119.65L163.942 118.912C163.803 117.902 160.694 117.86 160.406 118.912V119.65Z" fill="#4D4D4D"/>
<path d="M139.196 119.291H153.57C154.2 119.291 154.716 118.775 154.716 118.145C154.716 117.515 154.2 117 153.57 117H139.196C138.566 117 138.051 117.515 138.051 118.145C138.051 118.775 138.566 119.291 139.196 119.291Z" fill="#1D9752"/>
<path d="M120.238 119.291H134.612C135.242 119.291 135.758 118.775 135.758 118.145C135.758 117.515 135.242 117 134.612 117H120.238C119.608 117 119.093 117.515 119.093 118.145C119.094 118.775 119.61 119.291 120.238 119.291Z" fill="#1D9752"/>
<path d="M150.535 193.298V222.403C150.535 225.638 108.292 225.638 108.292 222.403V193.298H150.535Z" fill="white"/>
<path d="M129.413 209.178C132.293 209.178 134.628 206.99 134.628 204.292C134.628 201.593 132.293 199.405 129.413 199.405C126.533 199.405 124.199 201.593 124.199 204.292C124.199 206.99 126.533 209.178 129.413 209.178Z" fill="#1D9752"/>
<path d="M129.346 219.005H129.484C130.627 219.005 131.554 218.079 131.554 216.935V205.795H127.278V216.935C127.276 218.079 128.202 219.005 129.346 219.005Z" fill="#1D9752"/>
<path d="M111.995 191.225H116.271V189.265C116.271 182.474 122.167 176.951 129.413 176.951C136.662 176.951 142.558 182.476 142.558 189.265V191.225H146.834V189.265C146.834 180.267 139.019 172.944 129.413 172.944C119.81 172.944 111.995 180.265 111.995 189.265V191.225Z" fill="white"/>
<path d="M0 155.702C0 155.538 0.00164299 155.467 0.00164299 155.449C0.00164299 155.48 0 155.702 0 155.702Z" fill="#D9FFFF"/>
<path d="M0 155.702C0 155.538 0.00164299 155.467 0.00164299 155.449C0.00164299 155.48 0 155.702 0 155.702Z" fill="#D9FFFF"/>
<path d="M97.5247 156.138C97.5247 156.138 97.5263 155.917 97.5263 155.886C97.5247 155.902 97.5247 155.974 97.5247 156.138Z" fill="#D9FFFF"/>
<path d="M97.5247 156.138C97.5247 156.138 97.5263 155.917 97.5263 155.886C97.5247 155.902 97.5247 155.974 97.5247 156.138Z" fill="#D9FFFF"/>
<path d="M48.9429 132.786C38.1475 144.35 20.9212 153.827 2.48847 157.865C2.48355 159.096 2.45236 165.918 2.3112 197.355C2.12408 239.294 42.036 259.787 48.2322 262.933C54.2364 260.169 94.6522 239.708 94.8393 197.769C94.9805 166.33 95.01 159.51 95.0166 158.279C76.6216 154.075 59.6349 144.445 48.9429 132.786Z" fill="white"/>
<path d="M48.8462 137.335C37.7176 147.544 22.3001 155.567 5.34459 159.942L5.17716 197.349C5.10002 214.465 11.9003 229.948 25.3875 243.373C34.2494 252.192 43.5675 257.663 48.2963 260.123C48.4999 260.02 48.7231 259.903 48.943 259.79V137.423C48.9102 137.392 48.8774 137.364 48.8462 137.335Z" fill="url(#paint2_linear_6_5729)"/>
<path d="M48.9431 137.422V259.788C53.8591 257.231 62.7964 251.944 71.3546 243.578C84.9617 230.276 91.8998 214.852 91.9753 197.738L92.1427 160.33C75.2758 155.817 59.9716 147.688 48.9431 137.422Z" fill="url(#paint3_linear_6_5729)"/>
<path d="M82.9128 174.916C70.005 176.907 52.429 188.679 41.3415 202.834C39.7855 196.16 32.8046 190.067 29.1509 188.735L18.0847 199.858C24.9949 202.972 32.5453 211.796 33.5466 220.829L44.6013 222.542C49.2628 213.336 61.3007 191.312 85.2485 179.469C84.7889 177.665 83.0983 175.172 82.9128 174.916Z" fill="white"/>
<defs>
<linearGradient id="paint0_linear_6_5729" x1="147.601" y1="0" x2="147.601" y2="19.2846" gradientUnits="userSpaceOnUse">
<stop stop-color="#D6FFE8"/>
<stop offset="1" stop-color="white"/>
</linearGradient>
<linearGradient id="paint1_linear_6_5729" x1="45.4189" y1="195.994" x2="213.921" y2="93.487" gradientUnits="userSpaceOnUse">
<stop stop-color="#067938"/>
<stop offset="0.0001" stop-color="#007031"/>
<stop offset="0.619792" stop-color="#1F9C55"/>
<stop offset="1" stop-color="#4FB67B"/>
</linearGradient>
<linearGradient id="paint2_linear_6_5729" x1="-9.86056" y1="226.361" x2="72.2964" y2="189.77" gradientUnits="userSpaceOnUse">
<stop stop-color="#4FB67B"/>
<stop offset="0.619792" stop-color="#1F9C55"/>
<stop offset="1" stop-color="#067938"/>
<stop offset="1" stop-color="#007031"/>
</linearGradient>
<linearGradient id="paint3_linear_6_5729" x1="34.1008" y1="226.142" x2="115.45" y2="190.257" gradientUnits="userSpaceOnUse">
<stop stop-color="#4FB67B"/>
<stop offset="0.619792" stop-color="#1F9C55"/>
<stop offset="1" stop-color="#067938"/>
<stop offset="1" stop-color="#007031"/>
</linearGradient>
</defs>
</svg>
