<svg width="144" height="45" viewBox="0 0 144 45" fill="none" xmlns="http://www.w3.org/2000/svg">
<path d="M48.7495 31.275H47.6429V34.9399H46.7405V31.275H45.6536V30.5311H48.7495V31.275Z" fill="#0F9B55"/>
<path d="M50.5976 34.9399C50.574 34.8895 50.5465 34.8043 50.523 34.6842C50.366 34.8934 50.1581 34.998 49.8913 34.998C49.6127 34.998 49.3812 34.905 49.2007 34.7268C49.0163 34.5447 48.926 34.3084 48.926 34.0217C48.926 33.6769 49.0359 33.4134 49.2595 33.2236C49.4832 33.0377 49.801 32.9408 50.217 32.9369H50.4798V32.6735C50.4798 32.5263 50.4524 32.4217 50.4014 32.3636C50.3503 32.3055 50.2758 32.2744 50.1777 32.2744C49.9619 32.2744 49.852 32.3984 49.852 32.6503H48.9849C48.9849 32.3481 49.0987 32.0963 49.3302 31.9025C49.5617 31.705 49.852 31.6081 50.2013 31.6081C50.5662 31.6081 50.8448 31.7011 51.0449 31.887C51.245 32.073 51.3431 32.3403 51.3431 32.689V34.2309C51.347 34.5137 51.3862 34.7345 51.4647 34.8934V34.9437H50.5976V34.9399ZM50.6133 31.2284H49.8795L49.032 30.2909H50.0051L50.6133 31.2284ZM50.0875 34.3277C50.1856 34.3277 50.264 34.3084 50.3347 34.2696C50.4014 34.2309 50.4524 34.1844 50.4838 34.134V33.4522H50.2758C50.1267 33.4522 50.0129 33.4987 49.9266 33.5917C49.8403 33.6846 49.801 33.8086 49.801 33.9636C49.7971 34.2077 49.8952 34.3277 50.0875 34.3277Z" fill="#0F9B55"/>
<path d="M52.2927 30.8178C52.2927 30.686 52.3359 30.5776 52.4222 30.4924C52.5085 30.4071 52.6223 30.3645 52.7675 30.3645C52.9127 30.3645 53.0265 30.4071 53.1089 30.4924C53.1952 30.5776 53.2384 30.686 53.2384 30.8178C53.2384 30.9495 53.1952 31.058 53.1128 31.1432C53.0265 31.2284 52.9127 31.2749 52.7675 31.2749C52.6223 31.2749 52.5085 31.2323 52.4222 31.1432C52.332 31.058 52.2927 30.9456 52.2927 30.8178ZM53.2031 34.9399H52.332V31.6662H53.2031V34.9399Z" fill="#0F9B55"/>
<path d="M57.1464 34.289C57.3976 34.289 57.5271 34.1263 57.531 33.8047H58.3471C58.3432 34.1611 58.2333 34.4517 58.0136 34.6686C57.7939 34.8895 57.5114 34.998 57.1661 34.998C56.7384 34.998 56.4127 34.8662 56.189 34.6028C55.9654 34.3394 55.8516 33.9558 55.8438 33.4444V33.1849C55.8438 32.6696 55.9536 32.2783 56.1773 32.0071C56.4009 31.7359 56.7266 31.6003 57.1621 31.6003C57.5271 31.6003 57.8174 31.7127 58.0254 31.9335C58.2334 32.1543 58.3432 32.472 58.3471 32.8827H57.531C57.5271 32.7006 57.4996 32.5573 57.4368 32.4604C57.378 32.3597 57.2799 32.3132 57.1425 32.3132C56.9934 32.3132 56.8836 32.3674 56.8168 32.472C56.7501 32.5766 56.7187 32.782 56.7109 33.088V33.4212C56.7109 33.6885 56.7266 33.8745 56.7502 33.9791C56.7776 34.0837 56.8208 34.1611 56.8835 34.2115C56.9463 34.2619 57.0326 34.289 57.1464 34.289Z" fill="#0F9B55"/>
<path d="M59.9951 31.9529C60.1834 31.7204 60.4149 31.6042 60.6896 31.6042C60.9917 31.6042 61.2193 31.7088 61.3802 31.918C61.5372 32.1272 61.6156 32.441 61.6195 32.8555V34.9359H60.7485V32.8633C60.7485 32.6735 60.7171 32.534 60.6582 32.4488C60.5993 32.3635 60.5013 32.3209 60.3678 32.3209C60.2109 32.3209 60.0893 32.3907 59.999 32.534V34.9359H59.1318V30.287H59.999V31.9529H59.9951Z" fill="#0F9B55"/>
<path d="M63.4834 34.9398H62.6162V31.6662H63.4834V34.9398ZM63.2323 30.3335H64.2054L63.3539 31.2711H62.6319L63.2323 30.3335Z" fill="#0F9B55"/>
<path d="M65.3079 31.6624L65.3314 31.9878C65.5276 31.7321 65.7826 31.6042 66.1005 31.6042C66.6694 31.6042 66.9637 31.9994 66.9794 32.7859V34.936H66.1083V32.8479C66.1083 32.6619 66.0809 32.5263 66.022 32.4449C65.9671 32.3597 65.869 32.321 65.7277 32.321C65.5708 32.321 65.4491 32.4023 65.3589 32.5611V34.9399H64.4878V31.6662H65.3079V31.6624Z" fill="#0F9B55"/>
<path d="M68.761 31.9529C68.9493 31.7204 69.1808 31.6042 69.4516 31.6042C69.7537 31.6042 69.9852 31.7088 70.1422 31.918C70.2991 32.1272 70.3776 32.441 70.3815 32.8555V34.9359H69.5104V32.8633C69.5104 32.6735 69.479 32.534 69.4202 32.4488C69.3613 32.3635 69.2632 32.3209 69.1259 32.3209C68.969 32.3209 68.8473 32.3907 68.7571 32.534V34.9359H67.8899V30.287H68.7571V31.9529H68.761Z" fill="#0F9B55"/>
<path d="M75.8317 31.275H74.7252V34.9399H73.8227V31.275H72.7358V30.5311H75.8317V31.275Z" fill="#EE3C39"/>
<path d="M76.6204 30.8178C76.6204 30.686 76.6635 30.5776 76.7499 30.4924C76.8362 30.4071 76.95 30.3645 77.0912 30.3645C77.2325 30.3645 77.3502 30.4071 77.4365 30.4924C77.5228 30.5776 77.566 30.686 77.566 30.8178C77.566 30.9495 77.5228 31.058 77.4365 31.1432C77.3502 31.2284 77.2364 31.2749 77.0912 31.2749C76.946 31.2749 76.8322 31.2323 76.7459 31.1432C76.6596 31.058 76.6204 30.9456 76.6204 30.8178ZM77.5307 34.9399H76.6596V31.6662H77.5307V34.9399Z" fill="#EE3C39"/>
<path d="M79.8535 34.9979C79.4062 34.9979 79.0609 34.8662 78.8098 34.6067C78.5587 34.3432 78.437 33.9674 78.437 33.4793V33.2197C78.437 32.7044 78.5508 32.3054 78.7823 32.0265C79.0099 31.7476 79.3395 31.6042 79.7672 31.6042C80.1831 31.6042 80.497 31.7359 80.7089 31.9994C80.9208 32.2628 81.0267 32.6502 81.0307 33.1693V33.5878H79.3042C79.316 33.8318 79.3709 34.01 79.4651 34.1224C79.5592 34.2347 79.7083 34.2929 79.9084 34.2929C80.1988 34.2929 80.4421 34.196 80.6344 33.9984L80.9757 34.5176C80.8698 34.6609 80.7128 34.781 80.5127 34.8701C80.3087 34.9553 80.0889 34.9979 79.8535 34.9979ZM80.7089 31.1354V31.1703H80.0301L79.6456 30.7325L79.261 31.1703H78.5979V31.1199L79.3944 30.287H79.8928L80.7089 31.1354ZM79.724 35.2265C79.8731 35.2265 79.9948 35.2652 80.089 35.3466C80.1831 35.428 80.2263 35.5248 80.2263 35.6488C80.2263 35.7689 80.1792 35.8696 80.089 35.951C79.9948 36.0323 79.8731 36.0711 79.724 36.0711C79.5789 36.0711 79.4572 36.0323 79.363 35.951C79.2689 35.8735 79.2218 35.7728 79.2218 35.6488C79.2218 35.5287 79.2689 35.428 79.363 35.3466C79.4572 35.2652 79.5789 35.2265 79.724 35.2265ZM79.3081 32.9911H80.1753V32.9137C80.1713 32.72 80.1399 32.5689 80.0772 32.4681C80.0144 32.3674 79.9084 32.3171 79.7593 32.3171C79.6063 32.3171 79.5004 32.3713 79.4298 32.4759C79.3591 32.5805 79.3199 32.7548 79.3081 32.9911Z" fill="#EE3C39"/>
<path d="M82.6277 31.6624L82.6512 31.9878C82.8474 31.7321 83.1025 31.6042 83.4203 31.6042C83.9893 31.6042 84.2835 31.9994 84.2992 32.7859V34.936H83.4282V32.8479C83.4282 32.6619 83.4007 32.5263 83.3418 32.4449C83.2869 32.3597 83.1888 32.321 83.0475 32.321C82.8906 32.321 82.7689 32.4023 82.6787 32.5611V34.9399H81.8076V31.6662H82.6277V31.6624Z" fill="#EE3C39"/>
<path d="M88.0858 33.7272L88.5056 31.6624H89.4081L88.4978 34.9399H87.6699L86.7556 31.6624H87.6659L88.0858 33.7272Z" fill="#EE3C39"/>
<path d="M91.6603 34.9399C91.6368 34.8895 91.6132 34.8043 91.5858 34.6842C91.4327 34.8934 91.2209 34.998 90.954 34.998C90.6754 34.998 90.4479 34.905 90.2634 34.7268C90.079 34.5447 89.9888 34.3084 89.9888 34.0217C89.9888 33.6769 90.0987 33.4134 90.3223 33.2236C90.546 33.0377 90.8638 32.9408 91.2797 32.9369H91.5426V32.6735C91.5426 32.5263 91.5151 32.4217 91.4641 32.3636C91.4131 32.3055 91.3386 32.2744 91.2405 32.2744C91.0247 32.2744 90.9148 32.3984 90.9148 32.6503H90.0476C90.0476 32.3481 90.1614 32.0963 90.3929 31.9025C90.6244 31.705 90.9148 31.6081 91.264 31.6081C91.6289 31.6081 91.9075 31.7011 92.1076 31.887C92.3078 32.073 92.4059 32.3403 92.4059 32.689V34.2309C92.4098 34.5137 92.449 34.7345 92.5275 34.8934V34.9437H91.6603V34.9399ZM91.676 31.2284H90.9423L90.0947 30.2909H91.0678L91.676 31.2284ZM91.1463 34.3277C91.2405 34.3277 91.3229 34.3084 91.3935 34.2696C91.4602 34.2309 91.5112 34.1844 91.5426 34.134V33.4522H91.3346C91.1855 33.4522 91.0718 33.4987 90.9854 33.5917C90.8991 33.6846 90.8599 33.8086 90.8599 33.9636C90.8599 34.2077 90.954 34.3277 91.1463 34.3277Z" fill="#EE3C39"/>
<path d="M98.2757 34.9399H97.3771L96.0587 32.0498V34.9399H95.1562V30.5311H96.0587L97.3811 33.4251V30.5311H98.2757V34.9399Z" fill="#EE3C39"/>
<path d="M99.1665 33.2004C99.1665 32.6619 99.2646 32.2629 99.4608 31.9994C99.657 31.736 99.9316 31.6042 100.285 31.6042C100.587 31.6042 100.818 31.7205 100.979 31.9568L101.015 31.6662H101.795V34.9399C101.795 35.3583 101.678 35.676 101.438 35.8968C101.199 36.1176 100.862 36.2261 100.418 36.2261C100.238 36.2261 100.045 36.1912 99.8453 36.1176C99.6452 36.044 99.4961 35.9549 99.398 35.8426L99.6884 35.2498C99.7708 35.335 99.8767 35.4048 100.006 35.459C100.136 35.5133 100.261 35.5404 100.379 35.5404C100.571 35.5404 100.712 35.4939 100.799 35.4048C100.885 35.3118 100.928 35.1646 100.928 34.9592V34.6764C100.763 34.8895 100.548 34.998 100.281 34.998C99.9277 34.998 99.6531 34.8624 99.4608 34.5912C99.2685 34.32 99.1704 33.9365 99.1665 33.4445V33.2004V33.2004ZM100.034 33.4173C100.034 33.7195 100.073 33.9404 100.155 34.0798C100.234 34.2193 100.359 34.289 100.536 34.289C100.712 34.289 100.846 34.227 100.932 34.0992V32.534C100.842 32.3946 100.712 32.3248 100.544 32.3248C100.371 32.3248 100.246 32.3946 100.159 32.534C100.077 32.6735 100.038 32.8982 100.038 33.2043V33.4173H100.034Z" fill="#EE3C39"/>
<path d="M104.319 34.9399C104.295 34.8895 104.271 34.8043 104.244 34.6842C104.087 34.8934 103.879 34.998 103.612 34.998C103.334 34.998 103.106 34.905 102.922 34.7268C102.737 34.5447 102.647 34.3084 102.647 34.0217C102.647 33.6769 102.757 33.4135 102.98 33.2237C103.2 33.0377 103.522 32.9409 103.938 32.937H104.201V32.6735C104.201 32.5263 104.173 32.4217 104.122 32.3636C104.071 32.3055 103.997 32.2745 103.899 32.2745C103.683 32.2745 103.573 32.3985 103.573 32.6503H102.706C102.706 32.3481 102.82 32.0963 103.051 31.9026C103.283 31.705 103.573 31.6082 103.922 31.6082C104.287 31.6082 104.57 31.7011 104.766 31.8871C104.966 32.073 105.064 32.3404 105.064 32.689V34.2309C105.068 34.5137 105.107 34.7346 105.186 34.8934V34.9438H104.319V34.9399ZM103.805 34.3278C103.899 34.3278 103.981 34.3084 104.048 34.2697C104.114 34.2309 104.165 34.1844 104.197 34.1341V33.4522H103.989C103.844 33.4522 103.726 33.4987 103.64 33.5917C103.553 33.6847 103.514 33.8087 103.514 33.9636C103.518 34.2077 103.612 34.3278 103.805 34.3278Z" fill="#EE3C39"/>
<path d="M107.03 33.5141L107.473 31.6661H108.399L107.308 35.4318C107.144 35.9858 106.838 36.2647 106.386 36.2647C106.28 36.2647 106.163 36.2454 106.029 36.2066V35.5364L106.131 35.5403C106.265 35.5403 106.367 35.5132 106.437 35.4628C106.504 35.4124 106.559 35.3233 106.59 35.1955L106.657 34.9747L105.7 31.6661H106.634L107.03 33.5141Z" fill="#EE3C39"/>
<path d="M112.041 34.289C112.292 34.289 112.421 34.1263 112.425 33.8047H113.241C113.238 34.1611 113.128 34.4517 112.908 34.6686C112.688 34.8895 112.406 34.998 112.06 34.998C111.633 34.998 111.307 34.8662 111.083 34.6028C110.86 34.3394 110.742 33.9558 110.738 33.4444V33.1849C110.738 32.6696 110.848 32.2783 111.072 32.0071C111.295 31.7359 111.621 31.6003 112.056 31.6003C112.421 31.6003 112.712 31.7127 112.92 31.9335C113.132 32.1543 113.238 32.472 113.241 32.8827H112.425C112.421 32.7006 112.394 32.5573 112.335 32.4604C112.276 32.3597 112.178 32.3132 112.041 32.3132C111.888 32.3132 111.782 32.3674 111.715 32.472C111.648 32.5766 111.613 32.782 111.609 33.088V33.4212C111.609 33.6885 111.621 33.8745 111.648 33.9791C111.676 34.0837 111.719 34.1611 111.782 34.2115C111.841 34.2619 111.927 34.289 112.041 34.289Z" fill="#0F9B55"/>
<path d="M114.889 31.9529C115.077 31.7204 115.309 31.6042 115.584 31.6042C115.886 31.6042 116.117 31.7088 116.274 31.918C116.431 32.1272 116.51 32.441 116.514 32.8555V34.9359H115.642V32.8633C115.642 32.6735 115.611 32.534 115.552 32.4488C115.493 32.3635 115.395 32.3209 115.262 32.3209C115.105 32.3209 114.983 32.3907 114.893 32.534V34.9359H114.026V30.287H114.893V31.9529H114.889Z" fill="#0F9B55"/>
<path d="M117.345 33.1965C117.345 32.7007 117.463 32.3132 117.703 32.0304C117.938 31.7476 118.268 31.6082 118.687 31.6082C119.111 31.6082 119.441 31.7515 119.676 32.0304C119.912 32.3132 120.033 32.7045 120.033 33.2043V33.4135C120.033 33.9133 119.916 34.3007 119.68 34.5835C119.445 34.8624 119.115 35.0058 118.691 35.0058C118.268 35.0058 117.938 34.8663 117.699 34.5835C117.459 34.3007 117.345 33.9094 117.345 33.4096V33.1965ZM118.217 33.4096C118.217 33.9946 118.373 34.289 118.691 34.289C118.986 34.289 119.143 34.045 119.162 33.5568L119.166 33.1965C119.166 32.8982 119.123 32.6774 119.041 32.5341C118.958 32.3907 118.84 32.3171 118.687 32.3171C118.538 32.3171 118.425 32.3907 118.342 32.5341C118.26 32.6774 118.22 32.8982 118.22 33.1965V33.4096H118.217Z" fill="#0F9B55"/>
<path d="M123.459 31.6623L123.482 31.9645C123.675 31.7243 123.934 31.6003 124.252 31.6003C124.581 31.6003 124.817 31.7476 124.954 32.042C125.146 31.7476 125.413 31.6003 125.766 31.6003C126.347 31.6003 126.645 31.9955 126.657 32.7897V34.936H125.79V32.8439C125.79 32.6541 125.762 32.5185 125.711 32.4372C125.656 32.3558 125.57 32.3171 125.44 32.3171C125.28 32.3171 125.158 32.4139 125.079 32.6115L125.087 32.7161V34.936H124.22V32.8517C124.22 32.6657 124.193 32.5263 124.142 32.4449C124.091 32.3597 124 32.3209 123.871 32.3209C123.722 32.3209 123.604 32.4023 123.514 32.5611V34.9398H122.647V31.6662H123.459V31.6623Z" fill="#0F9B55"/>
<path d="M127.512 33.1965C127.512 32.7007 127.63 32.3132 127.869 32.0304C128.105 31.7476 128.434 31.6082 128.854 31.6082C129.278 31.6082 129.608 31.7515 129.843 32.0304C130.078 32.3132 130.2 32.7045 130.2 33.2043V33.4135C130.2 33.9133 130.082 34.3007 129.847 34.5835C129.611 34.8624 129.282 35.0058 128.858 35.0058C128.434 35.0058 128.101 34.8663 127.865 34.5835C127.63 34.3007 127.512 33.9094 127.512 33.4096V33.1965ZM128.85 35.246C128.999 35.246 129.121 35.2847 129.215 35.3661C129.309 35.4474 129.352 35.5481 129.352 35.6682C129.352 35.7883 129.305 35.8891 129.215 35.9704C129.121 36.0479 129.003 36.0905 128.85 36.0905C128.701 36.0905 128.583 36.0518 128.489 35.9704C128.395 35.8891 128.348 35.7922 128.348 35.6682C128.348 35.5481 128.395 35.4474 128.489 35.3661C128.583 35.2847 128.701 35.246 128.85 35.246ZM128.383 33.4096C128.383 33.9946 128.54 34.289 128.858 34.289C129.152 34.289 129.309 34.045 129.329 33.5568L129.333 33.1965C129.333 32.8982 129.29 32.6774 129.207 32.5341C129.125 32.3907 129.003 32.3171 128.854 32.3171C128.705 32.3171 128.591 32.3907 128.509 32.5341C128.426 32.6774 128.387 32.8982 128.387 33.1965V33.4096H128.383Z" fill="#0F9B55"/>
<path d="M131.052 30.8178C131.052 30.686 131.095 30.5776 131.181 30.4924C131.267 30.4071 131.381 30.3645 131.526 30.3645C131.668 30.3645 131.785 30.4071 131.872 30.4924C131.958 30.5776 132.001 30.686 132.001 30.8178C132.001 30.9495 131.958 31.058 131.876 31.1432C131.789 31.2284 131.675 31.2749 131.53 31.2749C131.385 31.2749 131.271 31.2323 131.185 31.1432C131.095 31.058 131.052 30.9456 131.052 30.8178ZM131.962 34.9399H131.091V31.6662H131.962V34.9399Z" fill="#0F9B55"/>
<path d="M135.501 31.6624L135.525 31.9878C135.721 31.7321 135.976 31.6042 136.294 31.6042C136.863 31.6042 137.157 31.9994 137.173 32.7859V34.936H136.302V32.8479C136.302 32.6619 136.274 32.5263 136.215 32.4449C136.156 32.3597 136.062 32.321 135.921 32.321C135.764 32.321 135.642 32.4023 135.552 32.5611V34.9399H134.681V31.6662H135.501V31.6624Z" fill="#0F9B55"/>
<path d="M138.958 31.9529C139.146 31.7204 139.378 31.6042 139.652 31.6042C139.955 31.6042 140.186 31.7088 140.343 31.918C140.5 32.1272 140.578 32.441 140.582 32.8555V34.9359H139.711V32.8633C139.711 32.6735 139.68 32.534 139.621 32.4488C139.562 32.3635 139.464 32.3209 139.327 32.3209C139.17 32.3209 139.048 32.3907 138.958 32.534V34.9359H138.091V30.287H138.958V31.9529V31.9529Z" fill="#0F9B55"/>
<path d="M143.09 34.9399C143.066 34.8895 143.039 34.8043 143.015 34.6842C142.862 34.8934 142.65 34.998 142.383 34.998C142.105 34.998 141.877 34.905 141.693 34.7268C141.508 34.5447 141.418 34.3084 141.418 34.0217C141.418 33.6769 141.528 33.4134 141.752 33.2236C141.971 33.0377 142.293 32.9408 142.709 32.9369H142.972V32.6735C142.972 32.5263 142.945 32.4217 142.894 32.3636C142.843 32.3016 142.768 32.2744 142.67 32.2744C142.454 32.2744 142.344 32.3984 142.344 32.6503H141.477C141.477 32.3481 141.591 32.0963 141.822 31.9025C142.054 31.705 142.344 31.6081 142.693 31.6081C143.058 31.6081 143.337 31.7011 143.537 31.887C143.737 32.073 143.835 32.3403 143.835 32.689V34.2309C143.839 34.5137 143.878 34.7345 143.957 34.8934V34.9437H143.09V34.9399ZM143.105 31.2284H142.372L141.524 30.2909H142.497L143.105 31.2284ZM142.58 34.3277C142.678 34.3277 142.756 34.3084 142.827 34.2696C142.894 34.2309 142.945 34.1844 142.976 34.134V33.4522H142.768C142.619 33.4522 142.505 33.4987 142.419 33.5917C142.332 33.6846 142.293 33.8086 142.293 33.9636C142.289 34.2077 142.387 34.3277 142.58 34.3277Z" fill="#0F9B55"/>
<path d="M48.7495 31.275H47.6429V34.9399H46.7405V31.275H45.6536V30.5311H48.7495V31.275Z" fill="#0F9B55"/>
<path d="M50.5976 34.9399C50.574 34.8895 50.5465 34.8043 50.523 34.6842C50.366 34.8934 50.1581 34.998 49.8913 34.998C49.6127 34.998 49.3812 34.905 49.2007 34.7268C49.0163 34.5447 48.926 34.3084 48.926 34.0217C48.926 33.6769 49.0359 33.4134 49.2595 33.2236C49.4832 33.0377 49.801 32.9408 50.217 32.9369H50.4798V32.6735C50.4798 32.5263 50.4524 32.4217 50.4014 32.3636C50.3503 32.3055 50.2758 32.2744 50.1777 32.2744C49.9619 32.2744 49.852 32.3984 49.852 32.6503H48.9849C48.9849 32.3481 49.0987 32.0963 49.3302 31.9025C49.5617 31.705 49.852 31.6081 50.2013 31.6081C50.5662 31.6081 50.8448 31.7011 51.0449 31.887C51.245 32.073 51.3431 32.3403 51.3431 32.689V34.2309C51.347 34.5137 51.3862 34.7345 51.4647 34.8934V34.9437H50.5976V34.9399ZM50.6133 31.2284H49.8795L49.032 30.2909H50.0051L50.6133 31.2284ZM50.0875 34.3277C50.1856 34.3277 50.264 34.3084 50.3347 34.2696C50.4014 34.2309 50.4524 34.1844 50.4838 34.134V33.4522H50.2758C50.1267 33.4522 50.0129 33.4987 49.9266 33.5917C49.8403 33.6846 49.801 33.8086 49.801 33.9636C49.7971 34.2077 49.8952 34.3277 50.0875 34.3277Z" fill="#0F9B55"/>
<path d="M52.2927 30.8178C52.2927 30.686 52.3359 30.5776 52.4222 30.4924C52.5085 30.4071 52.6223 30.3645 52.7675 30.3645C52.9127 30.3645 53.0265 30.4071 53.1089 30.4924C53.1952 30.5776 53.2384 30.686 53.2384 30.8178C53.2384 30.9495 53.1952 31.058 53.1128 31.1432C53.0265 31.2284 52.9127 31.2749 52.7675 31.2749C52.6223 31.2749 52.5085 31.2323 52.4222 31.1432C52.332 31.058 52.2927 30.9456 52.2927 30.8178ZM53.2031 34.9399H52.332V31.6662H53.2031V34.9399Z" fill="#0F9B55"/>
<path d="M57.1464 34.289C57.3976 34.289 57.5271 34.1263 57.531 33.8047H58.3471C58.3432 34.1611 58.2333 34.4517 58.0136 34.6686C57.7939 34.8895 57.5114 34.998 57.1661 34.998C56.7384 34.998 56.4127 34.8662 56.189 34.6028C55.9654 34.3394 55.8516 33.9558 55.8438 33.4444V33.1849C55.8438 32.6696 55.9536 32.2783 56.1773 32.0071C56.4009 31.7359 56.7266 31.6003 57.1621 31.6003C57.5271 31.6003 57.8174 31.7127 58.0254 31.9335C58.2334 32.1543 58.3432 32.472 58.3471 32.8827H57.531C57.5271 32.7006 57.4996 32.5573 57.4368 32.4604C57.378 32.3597 57.2799 32.3132 57.1425 32.3132C56.9934 32.3132 56.8836 32.3674 56.8168 32.472C56.7501 32.5766 56.7187 32.782 56.7109 33.088V33.4212C56.7109 33.6885 56.7266 33.8745 56.7502 33.9791C56.7776 34.0837 56.8208 34.1611 56.8835 34.2115C56.9463 34.2619 57.0326 34.289 57.1464 34.289Z" fill="#0F9B55"/>
<path d="M59.9951 31.9529C60.1834 31.7204 60.4149 31.6042 60.6896 31.6042C60.9917 31.6042 61.2193 31.7088 61.3802 31.918C61.5372 32.1272 61.6156 32.441 61.6195 32.8555V34.9359H60.7485V32.8633C60.7485 32.6735 60.7171 32.534 60.6582 32.4488C60.5993 32.3635 60.5013 32.3209 60.3678 32.3209C60.2109 32.3209 60.0893 32.3907 59.999 32.534V34.9359H59.1318V30.287H59.999V31.9529H59.9951Z" fill="#0F9B55"/>
<path d="M63.4834 34.9398H62.6162V31.6662H63.4834V34.9398ZM63.2323 30.3335H64.2054L63.3539 31.2711H62.6319L63.2323 30.3335Z" fill="#0F9B55"/>
<path d="M65.3079 31.6624L65.3314 31.9878C65.5276 31.7321 65.7826 31.6042 66.1005 31.6042C66.6694 31.6042 66.9637 31.9994 66.9794 32.7859V34.936H66.1083V32.8479C66.1083 32.6619 66.0809 32.5263 66.022 32.4449C65.9671 32.3597 65.869 32.321 65.7277 32.321C65.5708 32.321 65.4491 32.4023 65.3589 32.5611V34.9399H64.4878V31.6662H65.3079V31.6624Z" fill="#0F9B55"/>
<path d="M68.761 31.9529C68.9493 31.7204 69.1808 31.6042 69.4516 31.6042C69.7537 31.6042 69.9852 31.7088 70.1422 31.918C70.2991 32.1272 70.3776 32.441 70.3815 32.8555V34.9359H69.5104V32.8633C69.5104 32.6735 69.479 32.534 69.4202 32.4488C69.3613 32.3635 69.2632 32.3209 69.1259 32.3209C68.969 32.3209 68.8473 32.3907 68.7571 32.534V34.9359H67.8899V30.287H68.7571V31.9529H68.761Z" fill="#0F9B55"/>
<path d="M75.8317 31.275H74.7252V34.9399H73.8227V31.275H72.7358V30.5311H75.8317V31.275Z" fill="#EE3C39"/>
<path d="M76.6204 30.8178C76.6204 30.686 76.6635 30.5776 76.7499 30.4924C76.8362 30.4071 76.95 30.3645 77.0912 30.3645C77.2325 30.3645 77.3502 30.4071 77.4365 30.4924C77.5228 30.5776 77.566 30.686 77.566 30.8178C77.566 30.9495 77.5228 31.058 77.4365 31.1432C77.3502 31.2284 77.2364 31.2749 77.0912 31.2749C76.946 31.2749 76.8322 31.2323 76.7459 31.1432C76.6596 31.058 76.6204 30.9456 76.6204 30.8178ZM77.5307 34.9399H76.6596V31.6662H77.5307V34.9399Z" fill="#EE3C39"/>
<path d="M79.8535 34.9979C79.4062 34.9979 79.0609 34.8662 78.8098 34.6067C78.5587 34.3432 78.437 33.9674 78.437 33.4793V33.2197C78.437 32.7044 78.5508 32.3054 78.7823 32.0265C79.0099 31.7476 79.3395 31.6042 79.7672 31.6042C80.1831 31.6042 80.497 31.7359 80.7089 31.9994C80.9208 32.2628 81.0267 32.6502 81.0307 33.1693V33.5878H79.3042C79.316 33.8318 79.3709 34.01 79.4651 34.1224C79.5592 34.2347 79.7083 34.2929 79.9084 34.2929C80.1988 34.2929 80.4421 34.196 80.6344 33.9984L80.9757 34.5176C80.8698 34.6609 80.7128 34.781 80.5127 34.8701C80.3087 34.9553 80.0889 34.9979 79.8535 34.9979ZM80.7089 31.1354V31.1703H80.0301L79.6456 30.7325L79.261 31.1703H78.5979V31.1199L79.3944 30.287H79.8928L80.7089 31.1354ZM79.724 35.2265C79.8731 35.2265 79.9948 35.2652 80.089 35.3466C80.1831 35.428 80.2263 35.5248 80.2263 35.6488C80.2263 35.7689 80.1792 35.8696 80.089 35.951C79.9948 36.0323 79.8731 36.0711 79.724 36.0711C79.5789 36.0711 79.4572 36.0323 79.363 35.951C79.2689 35.8735 79.2218 35.7728 79.2218 35.6488C79.2218 35.5287 79.2689 35.428 79.363 35.3466C79.4572 35.2652 79.5789 35.2265 79.724 35.2265ZM79.3081 32.9911H80.1753V32.9137C80.1713 32.72 80.1399 32.5689 80.0772 32.4681C80.0144 32.3674 79.9084 32.3171 79.7593 32.3171C79.6063 32.3171 79.5004 32.3713 79.4298 32.4759C79.3591 32.5805 79.3199 32.7548 79.3081 32.9911Z" fill="#EE3C39"/>
<path d="M82.6277 31.6624L82.6512 31.9878C82.8474 31.7321 83.1025 31.6042 83.4203 31.6042C83.9893 31.6042 84.2835 31.9994 84.2992 32.7859V34.936H83.4282V32.8479C83.4282 32.6619 83.4007 32.5263 83.3418 32.4449C83.2869 32.3597 83.1888 32.321 83.0475 32.321C82.8906 32.321 82.7689 32.4023 82.6787 32.5611V34.9399H81.8076V31.6662H82.6277V31.6624Z" fill="#EE3C39"/>
<path d="M88.0858 33.7272L88.5056 31.6624H89.4081L88.4978 34.9399H87.6699L86.7556 31.6624H87.6659L88.0858 33.7272Z" fill="#EE3C39"/>
<path d="M91.6603 34.9399C91.6368 34.8895 91.6132 34.8043 91.5858 34.6842C91.4327 34.8934 91.2209 34.998 90.954 34.998C90.6754 34.998 90.4479 34.905 90.2634 34.7268C90.079 34.5447 89.9888 34.3084 89.9888 34.0217C89.9888 33.6769 90.0987 33.4134 90.3223 33.2236C90.546 33.0377 90.8638 32.9408 91.2797 32.9369H91.5426V32.6735C91.5426 32.5263 91.5151 32.4217 91.4641 32.3636C91.4131 32.3055 91.3386 32.2744 91.2405 32.2744C91.0247 32.2744 90.9148 32.3984 90.9148 32.6503H90.0476C90.0476 32.3481 90.1614 32.0963 90.3929 31.9025C90.6244 31.705 90.9148 31.6081 91.264 31.6081C91.6289 31.6081 91.9075 31.7011 92.1076 31.887C92.3078 32.073 92.4059 32.3403 92.4059 32.689V34.2309C92.4098 34.5137 92.449 34.7345 92.5275 34.8934V34.9437H91.6603V34.9399ZM91.676 31.2284H90.9423L90.0947 30.2909H91.0678L91.676 31.2284ZM91.1463 34.3277C91.2405 34.3277 91.3229 34.3084 91.3935 34.2696C91.4602 34.2309 91.5112 34.1844 91.5426 34.134V33.4522H91.3346C91.1855 33.4522 91.0718 33.4987 90.9854 33.5917C90.8991 33.6846 90.8599 33.8086 90.8599 33.9636C90.8599 34.2077 90.954 34.3277 91.1463 34.3277Z" fill="#EE3C39"/>
<path d="M98.2757 34.9399H97.3771L96.0587 32.0498V34.9399H95.1562V30.5311H96.0587L97.3811 33.4251V30.5311H98.2757V34.9399Z" fill="#EE3C39"/>
<path d="M99.1665 33.2004C99.1665 32.6619 99.2646 32.2629 99.4608 31.9994C99.657 31.736 99.9316 31.6042 100.285 31.6042C100.587 31.6042 100.818 31.7205 100.979 31.9568L101.015 31.6662H101.795V34.9399C101.795 35.3583 101.678 35.676 101.438 35.8968C101.199 36.1176 100.862 36.2261 100.418 36.2261C100.238 36.2261 100.045 36.1912 99.8453 36.1176C99.6452 36.044 99.4961 35.9549 99.398 35.8426L99.6884 35.2498C99.7708 35.335 99.8767 35.4048 100.006 35.459C100.136 35.5133 100.261 35.5404 100.379 35.5404C100.571 35.5404 100.712 35.4939 100.799 35.4048C100.885 35.3118 100.928 35.1646 100.928 34.9592V34.6764C100.763 34.8895 100.548 34.998 100.281 34.998C99.9277 34.998 99.6531 34.8624 99.4608 34.5912C99.2685 34.32 99.1704 33.9365 99.1665 33.4445V33.2004V33.2004ZM100.034 33.4173C100.034 33.7195 100.073 33.9404 100.155 34.0798C100.234 34.2193 100.359 34.289 100.536 34.289C100.712 34.289 100.846 34.227 100.932 34.0992V32.534C100.842 32.3946 100.712 32.3248 100.544 32.3248C100.371 32.3248 100.246 32.3946 100.159 32.534C100.077 32.6735 100.038 32.8982 100.038 33.2043V33.4173H100.034Z" fill="#EE3C39"/>
<path d="M104.319 34.9399C104.295 34.8895 104.271 34.8043 104.244 34.6842C104.087 34.8934 103.879 34.998 103.612 34.998C103.334 34.998 103.106 34.905 102.922 34.7268C102.737 34.5447 102.647 34.3084 102.647 34.0217C102.647 33.6769 102.757 33.4135 102.98 33.2237C103.2 33.0377 103.522 32.9409 103.938 32.937H104.201V32.6735C104.201 32.5263 104.173 32.4217 104.122 32.3636C104.071 32.3055 103.997 32.2745 103.899 32.2745C103.683 32.2745 103.573 32.3985 103.573 32.6503H102.706C102.706 32.3481 102.82 32.0963 103.051 31.9026C103.283 31.705 103.573 31.6082 103.922 31.6082C104.287 31.6082 104.57 31.7011 104.766 31.8871C104.966 32.073 105.064 32.3404 105.064 32.689V34.2309C105.068 34.5137 105.107 34.7346 105.186 34.8934V34.9438H104.319V34.9399ZM103.805 34.3278C103.899 34.3278 103.981 34.3084 104.048 34.2697C104.114 34.2309 104.165 34.1844 104.197 34.1341V33.4522H103.989C103.844 33.4522 103.726 33.4987 103.64 33.5917C103.553 33.6847 103.514 33.8087 103.514 33.9636C103.518 34.2077 103.612 34.3278 103.805 34.3278Z" fill="#EE3C39"/>
<path d="M107.03 33.5141L107.473 31.6661H108.399L107.308 35.4318C107.144 35.9858 106.838 36.2647 106.386 36.2647C106.28 36.2647 106.163 36.2454 106.029 36.2066V35.5364L106.131 35.5403C106.265 35.5403 106.367 35.5132 106.437 35.4628C106.504 35.4124 106.559 35.3233 106.59 35.1955L106.657 34.9747L105.7 31.6661H106.634L107.03 33.5141Z" fill="#EE3C39"/>
<path d="M112.041 34.289C112.292 34.289 112.421 34.1263 112.425 33.8047H113.241C113.238 34.1611 113.128 34.4517 112.908 34.6686C112.688 34.8895 112.406 34.998 112.06 34.998C111.633 34.998 111.307 34.8662 111.083 34.6028C110.86 34.3394 110.742 33.9558 110.738 33.4444V33.1849C110.738 32.6696 110.848 32.2783 111.072 32.0071C111.295 31.7359 111.621 31.6003 112.056 31.6003C112.421 31.6003 112.712 31.7127 112.92 31.9335C113.132 32.1543 113.238 32.472 113.241 32.8827H112.425C112.421 32.7006 112.394 32.5573 112.335 32.4604C112.276 32.3597 112.178 32.3132 112.041 32.3132C111.888 32.3132 111.782 32.3674 111.715 32.472C111.648 32.5766 111.613 32.782 111.609 33.088V33.4212C111.609 33.6885 111.621 33.8745 111.648 33.9791C111.676 34.0837 111.719 34.1611 111.782 34.2115C111.841 34.2619 111.927 34.289 112.041 34.289Z" fill="#0F9B55"/>
<path d="M114.889 31.9529C115.077 31.7204 115.309 31.6042 115.584 31.6042C115.886 31.6042 116.117 31.7088 116.274 31.918C116.431 32.1272 116.51 32.441 116.514 32.8555V34.9359H115.642V32.8633C115.642 32.6735 115.611 32.534 115.552 32.4488C115.493 32.3635 115.395 32.3209 115.262 32.3209C115.105 32.3209 114.983 32.3907 114.893 32.534V34.9359H114.026V30.287H114.893V31.9529H114.889Z" fill="#0F9B55"/>
<path d="M117.345 33.1965C117.345 32.7007 117.463 32.3132 117.703 32.0304C117.938 31.7476 118.268 31.6082 118.687 31.6082C119.111 31.6082 119.441 31.7515 119.676 32.0304C119.912 32.3132 120.033 32.7045 120.033 33.2043V33.4135C120.033 33.9133 119.916 34.3007 119.68 34.5835C119.445 34.8624 119.115 35.0058 118.691 35.0058C118.268 35.0058 117.938 34.8663 117.699 34.5835C117.459 34.3007 117.345 33.9094 117.345 33.4096V33.1965ZM118.217 33.4096C118.217 33.9946 118.373 34.289 118.691 34.289C118.986 34.289 119.143 34.045 119.162 33.5568L119.166 33.1965C119.166 32.8982 119.123 32.6774 119.041 32.5341C118.958 32.3907 118.84 32.3171 118.687 32.3171C118.538 32.3171 118.425 32.3907 118.342 32.5341C118.26 32.6774 118.22 32.8982 118.22 33.1965V33.4096H118.217Z" fill="#0F9B55"/>
<path d="M123.459 31.6623L123.482 31.9645C123.675 31.7243 123.934 31.6003 124.252 31.6003C124.581 31.6003 124.817 31.7476 124.954 32.042C125.146 31.7476 125.413 31.6003 125.766 31.6003C126.347 31.6003 126.645 31.9955 126.657 32.7897V34.936H125.79V32.8439C125.79 32.6541 125.762 32.5185 125.711 32.4372C125.656 32.3558 125.57 32.3171 125.44 32.3171C125.28 32.3171 125.158 32.4139 125.079 32.6115L125.087 32.7161V34.936H124.22V32.8517C124.22 32.6657 124.193 32.5263 124.142 32.4449C124.091 32.3597 124 32.3209 123.871 32.3209C123.722 32.3209 123.604 32.4023 123.514 32.5611V34.9398H122.647V31.6662H123.459V31.6623Z" fill="#0F9B55"/>
<path d="M127.512 33.1965C127.512 32.7007 127.63 32.3132 127.869 32.0304C128.105 31.7476 128.434 31.6082 128.854 31.6082C129.278 31.6082 129.608 31.7515 129.843 32.0304C130.078 32.3132 130.2 32.7045 130.2 33.2043V33.4135C130.2 33.9133 130.082 34.3007 129.847 34.5835C129.611 34.8624 129.282 35.0058 128.858 35.0058C128.434 35.0058 128.101 34.8663 127.865 34.5835C127.63 34.3007 127.512 33.9094 127.512 33.4096V33.1965ZM128.85 35.246C128.999 35.246 129.121 35.2847 129.215 35.3661C129.309 35.4474 129.352 35.5481 129.352 35.6682C129.352 35.7883 129.305 35.8891 129.215 35.9704C129.121 36.0479 129.003 36.0905 128.85 36.0905C128.701 36.0905 128.583 36.0518 128.489 35.9704C128.395 35.8891 128.348 35.7922 128.348 35.6682C128.348 35.5481 128.395 35.4474 128.489 35.3661C128.583 35.2847 128.701 35.246 128.85 35.246ZM128.383 33.4096C128.383 33.9946 128.54 34.289 128.858 34.289C129.152 34.289 129.309 34.045 129.329 33.5568L129.333 33.1965C129.333 32.8982 129.29 32.6774 129.207 32.5341C129.125 32.3907 129.003 32.3171 128.854 32.3171C128.705 32.3171 128.591 32.3907 128.509 32.5341C128.426 32.6774 128.387 32.8982 128.387 33.1965V33.4096H128.383Z" fill="#0F9B55"/>
<path d="M131.052 30.8178C131.052 30.686 131.095 30.5776 131.181 30.4924C131.267 30.4071 131.381 30.3645 131.526 30.3645C131.668 30.3645 131.785 30.4071 131.872 30.4924C131.958 30.5776 132.001 30.686 132.001 30.8178C132.001 30.9495 131.958 31.058 131.876 31.1432C131.789 31.2284 131.675 31.2749 131.53 31.2749C131.385 31.2749 131.271 31.2323 131.185 31.1432C131.095 31.058 131.052 30.9456 131.052 30.8178ZM131.962 34.9399H131.091V31.6662H131.962V34.9399Z" fill="#0F9B55"/>
<path d="M135.501 31.6624L135.525 31.9878C135.721 31.7321 135.976 31.6042 136.294 31.6042C136.863 31.6042 137.157 31.9994 137.173 32.7859V34.936H136.302V32.8479C136.302 32.6619 136.274 32.5263 136.215 32.4449C136.156 32.3597 136.062 32.321 135.921 32.321C135.764 32.321 135.642 32.4023 135.552 32.5611V34.9399H134.681V31.6662H135.501V31.6624Z" fill="#0F9B55"/>
<path d="M138.958 31.9529C139.146 31.7204 139.378 31.6042 139.652 31.6042C139.955 31.6042 140.186 31.7088 140.343 31.918C140.5 32.1272 140.578 32.441 140.582 32.8555V34.9359H139.711V32.8633C139.711 32.6735 139.68 32.534 139.621 32.4488C139.562 32.3635 139.464 32.3209 139.327 32.3209C139.17 32.3209 139.048 32.3907 138.958 32.534V34.9359H138.091V30.287H138.958V31.9529V31.9529Z" fill="#0F9B55"/>
<path d="M143.09 34.9399C143.066 34.8895 143.039 34.8043 143.015 34.6842C142.862 34.8934 142.65 34.998 142.383 34.998C142.105 34.998 141.877 34.905 141.693 34.7268C141.508 34.5447 141.418 34.3084 141.418 34.0217C141.418 33.6769 141.528 33.4134 141.752 33.2236C141.971 33.0377 142.293 32.9408 142.709 32.9369H142.972V32.6735C142.972 32.5263 142.945 32.4217 142.894 32.3636C142.843 32.3016 142.768 32.2744 142.67 32.2744C142.454 32.2744 142.344 32.3984 142.344 32.6503H141.477C141.477 32.3481 141.591 32.0963 141.822 31.9025C142.054 31.705 142.344 31.6081 142.693 31.6081C143.058 31.6081 143.337 31.7011 143.537 31.887C143.737 32.073 143.835 32.3403 143.835 32.689V34.2309C143.839 34.5137 143.878 34.7345 143.957 34.8934V34.9437H143.09V34.9399ZM143.105 31.2284H142.372L141.524 30.2909H142.497L143.105 31.2284ZM142.58 34.3277C142.678 34.3277 142.756 34.3084 142.827 34.2696C142.894 34.2309 142.945 34.1844 142.976 34.134V33.4522H142.768C142.619 33.4522 142.505 33.4987 142.419 33.5917C142.332 33.6846 142.293 33.8086 142.293 33.9636C142.289 34.2077 142.387 34.3277 142.58 34.3277Z" fill="#0F9B55"/>
<path d="M48.7495 31.275H47.6429V34.9399H46.7405V31.275H45.6536V30.5311H48.7495V31.275Z" fill="#0F9B55"/>
<path d="M50.5976 34.9399C50.574 34.8895 50.5465 34.8043 50.523 34.6842C50.366 34.8934 50.1581 34.998 49.8913 34.998C49.6127 34.998 49.3812 34.905 49.2007 34.7268C49.0163 34.5447 48.926 34.3084 48.926 34.0217C48.926 33.6769 49.0359 33.4134 49.2595 33.2236C49.4832 33.0377 49.801 32.9408 50.217 32.9369H50.4798V32.6735C50.4798 32.5263 50.4524 32.4217 50.4014 32.3636C50.3503 32.3055 50.2758 32.2744 50.1777 32.2744C49.9619 32.2744 49.852 32.3984 49.852 32.6503H48.9849C48.9849 32.3481 49.0987 32.0963 49.3302 31.9025C49.5617 31.705 49.852 31.6081 50.2013 31.6081C50.5662 31.6081 50.8448 31.7011 51.0449 31.887C51.245 32.073 51.3431 32.3403 51.3431 32.689V34.2309C51.347 34.5137 51.3862 34.7345 51.4647 34.8934V34.9437H50.5976V34.9399ZM50.6133 31.2284H49.8795L49.032 30.2909H50.0051L50.6133 31.2284ZM50.0875 34.3277C50.1856 34.3277 50.264 34.3084 50.3347 34.2696C50.4014 34.2309 50.4524 34.1844 50.4838 34.134V33.4522H50.2758C50.1267 33.4522 50.0129 33.4987 49.9266 33.5917C49.8403 33.6846 49.801 33.8086 49.801 33.9636C49.7971 34.2077 49.8952 34.3277 50.0875 34.3277Z" fill="#0F9B55"/>
<path d="M52.2927 30.8178C52.2927 30.686 52.3359 30.5776 52.4222 30.4924C52.5085 30.4071 52.6223 30.3645 52.7675 30.3645C52.9127 30.3645 53.0265 30.4071 53.1089 30.4924C53.1952 30.5776 53.2384 30.686 53.2384 30.8178C53.2384 30.9495 53.1952 31.058 53.1128 31.1432C53.0265 31.2284 52.9127 31.2749 52.7675 31.2749C52.6223 31.2749 52.5085 31.2323 52.4222 31.1432C52.332 31.058 52.2927 30.9456 52.2927 30.8178ZM53.2031 34.9399H52.332V31.6662H53.2031V34.9399Z" fill="#0F9B55"/>
<path d="M57.1464 34.289C57.3976 34.289 57.5271 34.1263 57.531 33.8047H58.3471C58.3432 34.1611 58.2333 34.4517 58.0136 34.6686C57.7939 34.8895 57.5114 34.998 57.1661 34.998C56.7384 34.998 56.4127 34.8662 56.189 34.6028C55.9654 34.3394 55.8516 33.9558 55.8438 33.4444V33.1849C55.8438 32.6696 55.9536 32.2783 56.1773 32.0071C56.4009 31.7359 56.7266 31.6003 57.1621 31.6003C57.5271 31.6003 57.8174 31.7127 58.0254 31.9335C58.2334 32.1543 58.3432 32.472 58.3471 32.8827H57.531C57.5271 32.7006 57.4996 32.5573 57.4368 32.4604C57.378 32.3597 57.2799 32.3132 57.1425 32.3132C56.9934 32.3132 56.8836 32.3674 56.8168 32.472C56.7501 32.5766 56.7187 32.782 56.7109 33.088V33.4212C56.7109 33.6885 56.7266 33.8745 56.7502 33.9791C56.7776 34.0837 56.8208 34.1611 56.8835 34.2115C56.9463 34.2619 57.0326 34.289 57.1464 34.289Z" fill="#0F9B55"/>
<path d="M59.9951 31.9529C60.1834 31.7204 60.4149 31.6042 60.6896 31.6042C60.9917 31.6042 61.2193 31.7088 61.3802 31.918C61.5372 32.1272 61.6156 32.441 61.6195 32.8555V34.9359H60.7485V32.8633C60.7485 32.6735 60.7171 32.534 60.6582 32.4488C60.5993 32.3635 60.5013 32.3209 60.3678 32.3209C60.2109 32.3209 60.0893 32.3907 59.999 32.534V34.9359H59.1318V30.287H59.999V31.9529H59.9951Z" fill="#0F9B55"/>
<path d="M63.4834 34.9398H62.6162V31.6662H63.4834V34.9398ZM63.2323 30.3335H64.2054L63.3539 31.2711H62.6319L63.2323 30.3335Z" fill="#0F9B55"/>
<path d="M65.3079 31.6624L65.3314 31.9878C65.5276 31.7321 65.7826 31.6042 66.1005 31.6042C66.6694 31.6042 66.9637 31.9994 66.9794 32.7859V34.936H66.1083V32.8479C66.1083 32.6619 66.0809 32.5263 66.022 32.4449C65.9671 32.3597 65.869 32.321 65.7277 32.321C65.5708 32.321 65.4491 32.4023 65.3589 32.5611V34.9399H64.4878V31.6662H65.3079V31.6624Z" fill="#0F9B55"/>
<path d="M68.761 31.9529C68.9493 31.7204 69.1808 31.6042 69.4516 31.6042C69.7537 31.6042 69.9852 31.7088 70.1422 31.918C70.2991 32.1272 70.3776 32.441 70.3815 32.8555V34.9359H69.5104V32.8633C69.5104 32.6735 69.479 32.534 69.4202 32.4488C69.3613 32.3635 69.2632 32.3209 69.1259 32.3209C68.969 32.3209 68.8473 32.3907 68.7571 32.534V34.9359H67.8899V30.287H68.7571V31.9529H68.761Z" fill="#0F9B55"/>
<path d="M75.8317 31.275H74.7252V34.9399H73.8227V31.275H72.7358V30.5311H75.8317V31.275Z" fill="#EE3C39"/>
<path d="M76.6204 30.8178C76.6204 30.686 76.6635 30.5776 76.7499 30.4924C76.8362 30.4071 76.95 30.3645 77.0912 30.3645C77.2325 30.3645 77.3502 30.4071 77.4365 30.4924C77.5228 30.5776 77.566 30.686 77.566 30.8178C77.566 30.9495 77.5228 31.058 77.4365 31.1432C77.3502 31.2284 77.2364 31.2749 77.0912 31.2749C76.946 31.2749 76.8322 31.2323 76.7459 31.1432C76.6596 31.058 76.6204 30.9456 76.6204 30.8178ZM77.5307 34.9399H76.6596V31.6662H77.5307V34.9399Z" fill="#EE3C39"/>
<path d="M79.8535 34.9979C79.4062 34.9979 79.0609 34.8662 78.8098 34.6067C78.5587 34.3432 78.437 33.9674 78.437 33.4793V33.2197C78.437 32.7044 78.5508 32.3054 78.7823 32.0265C79.0099 31.7476 79.3395 31.6042 79.7672 31.6042C80.1831 31.6042 80.497 31.7359 80.7089 31.9994C80.9208 32.2628 81.0267 32.6502 81.0307 33.1693V33.5878H79.3042C79.316 33.8318 79.3709 34.01 79.4651 34.1224C79.5592 34.2347 79.7083 34.2929 79.9084 34.2929C80.1988 34.2929 80.4421 34.196 80.6344 33.9984L80.9757 34.5176C80.8698 34.6609 80.7128 34.781 80.5127 34.8701C80.3087 34.9553 80.0889 34.9979 79.8535 34.9979ZM80.7089 31.1354V31.1703H80.0301L79.6456 30.7325L79.261 31.1703H78.5979V31.1199L79.3944 30.287H79.8928L80.7089 31.1354ZM79.724 35.2265C79.8731 35.2265 79.9948 35.2652 80.089 35.3466C80.1831 35.428 80.2263 35.5248 80.2263 35.6488C80.2263 35.7689 80.1792 35.8696 80.089 35.951C79.9948 36.0323 79.8731 36.0711 79.724 36.0711C79.5789 36.0711 79.4572 36.0323 79.363 35.951C79.2689 35.8735 79.2218 35.7728 79.2218 35.6488C79.2218 35.5287 79.2689 35.428 79.363 35.3466C79.4572 35.2652 79.5789 35.2265 79.724 35.2265ZM79.3081 32.9911H80.1753V32.9137C80.1713 32.72 80.1399 32.5689 80.0772 32.4681C80.0144 32.3674 79.9084 32.3171 79.7593 32.3171C79.6063 32.3171 79.5004 32.3713 79.4298 32.4759C79.3591 32.5805 79.3199 32.7548 79.3081 32.9911Z" fill="#EE3C39"/>
<path d="M82.6277 31.6624L82.6512 31.9878C82.8474 31.7321 83.1025 31.6042 83.4203 31.6042C83.9893 31.6042 84.2835 31.9994 84.2992 32.7859V34.936H83.4282V32.8479C83.4282 32.6619 83.4007 32.5263 83.3418 32.4449C83.2869 32.3597 83.1888 32.321 83.0475 32.321C82.8906 32.321 82.7689 32.4023 82.6787 32.5611V34.9399H81.8076V31.6662H82.6277V31.6624Z" fill="#EE3C39"/>
<path d="M88.0858 33.7272L88.5056 31.6624H89.4081L88.4978 34.9399H87.6699L86.7556 31.6624H87.6659L88.0858 33.7272Z" fill="#EE3C39"/>
<path d="M91.6603 34.9399C91.6368 34.8895 91.6132 34.8043 91.5858 34.6842C91.4327 34.8934 91.2209 34.998 90.954 34.998C90.6754 34.998 90.4479 34.905 90.2634 34.7268C90.079 34.5447 89.9888 34.3084 89.9888 34.0217C89.9888 33.6769 90.0987 33.4134 90.3223 33.2236C90.546 33.0377 90.8638 32.9408 91.2797 32.9369H91.5426V32.6735C91.5426 32.5263 91.5151 32.4217 91.4641 32.3636C91.4131 32.3055 91.3386 32.2744 91.2405 32.2744C91.0247 32.2744 90.9148 32.3984 90.9148 32.6503H90.0476C90.0476 32.3481 90.1614 32.0963 90.3929 31.9025C90.6244 31.705 90.9148 31.6081 91.264 31.6081C91.6289 31.6081 91.9075 31.7011 92.1076 31.887C92.3078 32.073 92.4059 32.3403 92.4059 32.689V34.2309C92.4098 34.5137 92.449 34.7345 92.5275 34.8934V34.9437H91.6603V34.9399ZM91.676 31.2284H90.9423L90.0947 30.2909H91.0678L91.676 31.2284ZM91.1463 34.3277C91.2405 34.3277 91.3229 34.3084 91.3935 34.2696C91.4602 34.2309 91.5112 34.1844 91.5426 34.134V33.4522H91.3346C91.1855 33.4522 91.0718 33.4987 90.9854 33.5917C90.8991 33.6846 90.8599 33.8086 90.8599 33.9636C90.8599 34.2077 90.954 34.3277 91.1463 34.3277Z" fill="#EE3C39"/>
<path d="M98.2757 34.9399H97.3771L96.0587 32.0498V34.9399H95.1562V30.5311H96.0587L97.3811 33.4251V30.5311H98.2757V34.9399Z" fill="#EE3C39"/>
<path d="M99.1665 33.2004C99.1665 32.6619 99.2646 32.2629 99.4608 31.9994C99.657 31.736 99.9316 31.6042 100.285 31.6042C100.587 31.6042 100.818 31.7205 100.979 31.9568L101.015 31.6662H101.795V34.9399C101.795 35.3583 101.678 35.676 101.438 35.8968C101.199 36.1176 100.862 36.2261 100.418 36.2261C100.238 36.2261 100.045 36.1912 99.8453 36.1176C99.6452 36.044 99.4961 35.9549 99.398 35.8426L99.6884 35.2498C99.7708 35.335 99.8767 35.4048 100.006 35.459C100.136 35.5133 100.261 35.5404 100.379 35.5404C100.571 35.5404 100.712 35.4939 100.799 35.4048C100.885 35.3118 100.928 35.1646 100.928 34.9592V34.6764C100.763 34.8895 100.548 34.998 100.281 34.998C99.9277 34.998 99.6531 34.8624 99.4608 34.5912C99.2685 34.32 99.1704 33.9365 99.1665 33.4445V33.2004V33.2004ZM100.034 33.4173C100.034 33.7195 100.073 33.9404 100.155 34.0798C100.234 34.2193 100.359 34.289 100.536 34.289C100.712 34.289 100.846 34.227 100.932 34.0992V32.534C100.842 32.3946 100.712 32.3248 100.544 32.3248C100.371 32.3248 100.246 32.3946 100.159 32.534C100.077 32.6735 100.038 32.8982 100.038 33.2043V33.4173H100.034Z" fill="#EE3C39"/>
<path d="M104.319 34.9399C104.295 34.8895 104.271 34.8043 104.244 34.6842C104.087 34.8934 103.879 34.998 103.612 34.998C103.334 34.998 103.106 34.905 102.922 34.7268C102.737 34.5447 102.647 34.3084 102.647 34.0217C102.647 33.6769 102.757 33.4135 102.98 33.2237C103.2 33.0377 103.522 32.9409 103.938 32.937H104.201V32.6735C104.201 32.5263 104.173 32.4217 104.122 32.3636C104.071 32.3055 103.997 32.2745 103.899 32.2745C103.683 32.2745 103.573 32.3985 103.573 32.6503H102.706C102.706 32.3481 102.82 32.0963 103.051 31.9026C103.283 31.705 103.573 31.6082 103.922 31.6082C104.287 31.6082 104.57 31.7011 104.766 31.8871C104.966 32.073 105.064 32.3404 105.064 32.689V34.2309C105.068 34.5137 105.107 34.7346 105.186 34.8934V34.9438H104.319V34.9399ZM103.805 34.3278C103.899 34.3278 103.981 34.3084 104.048 34.2697C104.114 34.2309 104.165 34.1844 104.197 34.1341V33.4522H103.989C103.844 33.4522 103.726 33.4987 103.64 33.5917C103.553 33.6847 103.514 33.8087 103.514 33.9636C103.518 34.2077 103.612 34.3278 103.805 34.3278Z" fill="#EE3C39"/>
<path d="M107.03 33.5141L107.473 31.6661H108.399L107.308 35.4318C107.144 35.9858 106.838 36.2647 106.386 36.2647C106.28 36.2647 106.163 36.2454 106.029 36.2066V35.5364L106.131 35.5403C106.265 35.5403 106.367 35.5132 106.437 35.4628C106.504 35.4124 106.559 35.3233 106.59 35.1955L106.657 34.9747L105.7 31.6661H106.634L107.03 33.5141Z" fill="#EE3C39"/>
<path d="M112.041 34.289C112.292 34.289 112.421 34.1263 112.425 33.8047H113.241C113.238 34.1611 113.128 34.4517 112.908 34.6686C112.688 34.8895 112.406 34.998 112.06 34.998C111.633 34.998 111.307 34.8662 111.083 34.6028C110.86 34.3394 110.742 33.9558 110.738 33.4444V33.1849C110.738 32.6696 110.848 32.2783 111.072 32.0071C111.295 31.7359 111.621 31.6003 112.056 31.6003C112.421 31.6003 112.712 31.7127 112.92 31.9335C113.132 32.1543 113.238 32.472 113.241 32.8827H112.425C112.421 32.7006 112.394 32.5573 112.335 32.4604C112.276 32.3597 112.178 32.3132 112.041 32.3132C111.888 32.3132 111.782 32.3674 111.715 32.472C111.648 32.5766 111.613 32.782 111.609 33.088V33.4212C111.609 33.6885 111.621 33.8745 111.648 33.9791C111.676 34.0837 111.719 34.1611 111.782 34.2115C111.841 34.2619 111.927 34.289 112.041 34.289Z" fill="#0F9B55"/>
<path d="M114.889 31.9529C115.077 31.7204 115.309 31.6042 115.584 31.6042C115.886 31.6042 116.117 31.7088 116.274 31.918C116.431 32.1272 116.51 32.441 116.514 32.8555V34.9359H115.642V32.8633C115.642 32.6735 115.611 32.534 115.552 32.4488C115.493 32.3635 115.395 32.3209 115.262 32.3209C115.105 32.3209 114.983 32.3907 114.893 32.534V34.9359H114.026V30.287H114.893V31.9529H114.889Z" fill="#0F9B55"/>
<path d="M117.345 33.1965C117.345 32.7007 117.463 32.3132 117.703 32.0304C117.938 31.7476 118.268 31.6082 118.687 31.6082C119.111 31.6082 119.441 31.7515 119.676 32.0304C119.912 32.3132 120.033 32.7045 120.033 33.2043V33.4135C120.033 33.9133 119.916 34.3007 119.68 34.5835C119.445 34.8624 119.115 35.0058 118.691 35.0058C118.268 35.0058 117.938 34.8663 117.699 34.5835C117.459 34.3007 117.345 33.9094 117.345 33.4096V33.1965ZM118.217 33.4096C118.217 33.9946 118.373 34.289 118.691 34.289C118.986 34.289 119.143 34.045 119.162 33.5568L119.166 33.1965C119.166 32.8982 119.123 32.6774 119.041 32.5341C118.958 32.3907 118.84 32.3171 118.687 32.3171C118.538 32.3171 118.425 32.3907 118.342 32.5341C118.26 32.6774 118.22 32.8982 118.22 33.1965V33.4096H118.217Z" fill="#0F9B55"/>
<path d="M123.459 31.6623L123.482 31.9645C123.675 31.7243 123.934 31.6003 124.252 31.6003C124.581 31.6003 124.817 31.7476 124.954 32.042C125.146 31.7476 125.413 31.6003 125.766 31.6003C126.347 31.6003 126.645 31.9955 126.657 32.7897V34.936H125.79V32.8439C125.79 32.6541 125.762 32.5185 125.711 32.4372C125.656 32.3558 125.57 32.3171 125.44 32.3171C125.28 32.3171 125.158 32.4139 125.079 32.6115L125.087 32.7161V34.936H124.22V32.8517C124.22 32.6657 124.193 32.5263 124.142 32.4449C124.091 32.3597 124 32.3209 123.871 32.3209C123.722 32.3209 123.604 32.4023 123.514 32.5611V34.9398H122.647V31.6662H123.459V31.6623Z" fill="#0F9B55"/>
<path d="M127.512 33.1965C127.512 32.7007 127.63 32.3132 127.869 32.0304C128.105 31.7476 128.434 31.6082 128.854 31.6082C129.278 31.6082 129.608 31.7515 129.843 32.0304C130.078 32.3132 130.2 32.7045 130.2 33.2043V33.4135C130.2 33.9133 130.082 34.3007 129.847 34.5835C129.611 34.8624 129.282 35.0058 128.858 35.0058C128.434 35.0058 128.101 34.8663 127.865 34.5835C127.63 34.3007 127.512 33.9094 127.512 33.4096V33.1965ZM128.85 35.246C128.999 35.246 129.121 35.2847 129.215 35.3661C129.309 35.4474 129.352 35.5481 129.352 35.6682C129.352 35.7883 129.305 35.8891 129.215 35.9704C129.121 36.0479 129.003 36.0905 128.85 36.0905C128.701 36.0905 128.583 36.0518 128.489 35.9704C128.395 35.8891 128.348 35.7922 128.348 35.6682C128.348 35.5481 128.395 35.4474 128.489 35.3661C128.583 35.2847 128.701 35.246 128.85 35.246ZM128.383 33.4096C128.383 33.9946 128.54 34.289 128.858 34.289C129.152 34.289 129.309 34.045 129.329 33.5568L129.333 33.1965C129.333 32.8982 129.29 32.6774 129.207 32.5341C129.125 32.3907 129.003 32.3171 128.854 32.3171C128.705 32.3171 128.591 32.3907 128.509 32.5341C128.426 32.6774 128.387 32.8982 128.387 33.1965V33.4096H128.383Z" fill="#0F9B55"/>
<path d="M131.052 30.8178C131.052 30.686 131.095 30.5776 131.181 30.4924C131.267 30.4071 131.381 30.3645 131.526 30.3645C131.668 30.3645 131.785 30.4071 131.872 30.4924C131.958 30.5776 132.001 30.686 132.001 30.8178C132.001 30.9495 131.958 31.058 131.876 31.1432C131.789 31.2284 131.675 31.2749 131.53 31.2749C131.385 31.2749 131.271 31.2323 131.185 31.1432C131.095 31.058 131.052 30.9456 131.052 30.8178ZM131.962 34.9399H131.091V31.6662H131.962V34.9399Z" fill="#0F9B55"/>
<path d="M135.501 31.6624L135.525 31.9878C135.721 31.7321 135.976 31.6042 136.294 31.6042C136.863 31.6042 137.157 31.9994 137.173 32.7859V34.936H136.302V32.8479C136.302 32.6619 136.274 32.5263 136.215 32.4449C136.156 32.3597 136.062 32.321 135.921 32.321C135.764 32.321 135.642 32.4023 135.552 32.5611V34.9399H134.681V31.6662H135.501V31.6624Z" fill="#0F9B55"/>
<path d="M138.958 31.9529C139.146 31.7204 139.378 31.6042 139.652 31.6042C139.955 31.6042 140.186 31.7088 140.343 31.918C140.5 32.1272 140.578 32.441 140.582 32.8555V34.9359H139.711V32.8633C139.711 32.6735 139.68 32.534 139.621 32.4488C139.562 32.3635 139.464 32.3209 139.327 32.3209C139.17 32.3209 139.048 32.3907 138.958 32.534V34.9359H138.091V30.287H138.958V31.9529V31.9529Z" fill="#0F9B55"/>
<path d="M143.09 34.9399C143.066 34.8895 143.039 34.8043 143.015 34.6842C142.862 34.8934 142.65 34.998 142.383 34.998C142.105 34.998 141.877 34.905 141.693 34.7268C141.508 34.5447 141.418 34.3084 141.418 34.0217C141.418 33.6769 141.528 33.4134 141.752 33.2236C141.971 33.0377 142.293 32.9408 142.709 32.9369H142.972V32.6735C142.972 32.5263 142.945 32.4217 142.894 32.3636C142.843 32.3016 142.768 32.2744 142.67 32.2744C142.454 32.2744 142.344 32.3984 142.344 32.6503H141.477C141.477 32.3481 141.591 32.0963 141.822 31.9025C142.054 31.705 142.344 31.6081 142.693 31.6081C143.058 31.6081 143.337 31.7011 143.537 31.887C143.737 32.073 143.835 32.3403 143.835 32.689V34.2309C143.839 34.5137 143.878 34.7345 143.957 34.8934V34.9437H143.09V34.9399ZM143.105 31.2284H142.372L141.524 30.2909H142.497L143.105 31.2284ZM142.58 34.3277C142.678 34.3277 142.756 34.3084 142.827 34.2696C142.894 34.2309 142.945 34.1844 142.976 34.134V33.4522H142.768C142.619 33.4522 142.505 33.4987 142.419 33.5917C142.332 33.6846 142.293 33.8086 142.293 33.9636C142.289 34.2077 142.387 34.3277 142.58 34.3277Z" fill="#0F9B55"/>
<path d="M48.4042 13.1013H45.6536V9.99426H54.8981V13.1013H52.1082V24.0341H48.4042V13.1013Z" fill="#1D9752"/>
<path d="M55.4358 9.99426H59.0222V12.6287H55.4358V9.99426ZM55.4358 13.3958H59.0222V24.0341H55.4358V13.3958Z" fill="#1D9752"/>
<path d="M63.7817 19.3155V20.7102C63.7817 21.6671 64.1073 22.1475 64.7587 22.1475C65.104 22.1475 65.359 22.008 65.5238 21.7329C65.6886 21.4579 65.775 20.9775 65.775 20.2956H69.0003C68.9729 21.6322 68.6276 22.624 67.9644 23.2748C67.3013 23.9257 66.238 24.2472 64.7783 24.2472C63.0636 24.2472 61.8747 23.8366 61.2037 23.0191C60.5327 22.2017 60.1992 20.7683 60.1992 18.7227C60.1992 16.7043 60.5524 15.267 61.2665 14.4069C61.9767 13.5469 63.1499 13.1207 64.7822 13.1207C66.2694 13.1207 67.3602 13.5043 68.0586 14.2713C68.7531 15.0384 69.1024 16.3595 69.1024 18.2346V19.3155H63.7817V19.3155ZM65.7514 16.9174C65.7514 16.3401 65.6768 15.9256 65.5317 15.6699C65.3865 15.4142 65.1275 15.2864 64.7548 15.2864C64.3977 15.2864 64.1426 15.4142 63.9975 15.6699C63.8523 15.9256 63.7777 16.344 63.7777 16.9174V17.39H65.7514V16.9174V16.9174Z" fill="#1D9752"/>
<path d="M70.095 13.3958H73.5597V14.6936H73.599C74.062 13.6437 74.9331 13.1207 76.2083 13.1207C77.0833 13.1207 77.7739 13.3377 78.2683 13.7716C78.7666 14.2055 79.0138 14.9493 79.0138 16.0147V24.038H75.4275V17.0181C75.4275 16.5726 75.3607 16.251 75.2273 16.0534C75.0939 15.8559 74.8703 15.759 74.5525 15.759C74.2346 15.759 74.007 15.8559 73.8736 16.0534C73.7402 16.251 73.6735 16.5726 73.6735 17.0181V24.038H70.0872V13.3958H70.095Z" fill="#1D9752"/>
<path d="M80.6108 9.99426H84.7544L87.144 18.6452H87.1832V9.99426H90.6479V24.0341H86.5829L84.1148 15.3638H84.0756V24.0341H80.6108V9.99426Z" fill="#1D9752"/>
<path d="M97.7579 13.1323H101.105V23.8559C101.105 26.347 99.606 27.5906 96.6043 27.5906C95.7685 27.5906 95.0622 27.517 94.4933 27.3659C93.9204 27.2148 93.4377 26.9087 93.0375 26.4516C92.6412 25.9905 92.4332 25.3746 92.4215 24.6036H95.6468C95.6468 25.1537 95.9451 25.4288 96.5415 25.4288C96.875 25.4288 97.1379 25.3436 97.338 25.1731C97.5381 25.0026 97.6362 24.6462 97.6362 24.1116V22.1435H97.597C97.1968 23.205 96.3885 23.7358 95.1681 23.7358C93.0689 23.7358 92.0212 21.9847 92.0212 18.4825C92.0212 16.5299 92.2998 15.1468 92.857 14.3333C93.4142 13.5197 94.2461 13.1129 95.3447 13.1129C96.565 13.1129 97.3576 13.6979 97.7147 14.864H97.754V13.1323H97.7579ZM95.6076 18.4321C95.6076 19.4936 95.6861 20.2065 95.847 20.5668C96.0078 20.9271 96.2707 21.1091 96.6435 21.1091C97.0006 21.1091 97.2595 20.9309 97.4087 20.5784C97.5617 20.2258 97.6401 19.5091 97.6401 18.436C97.6401 17.3861 97.5617 16.681 97.4008 16.313C97.2438 15.9449 96.9888 15.7628 96.6435 15.7628C96.2864 15.7628 96.0235 15.9488 95.8548 16.313C95.69 16.6732 95.6076 17.3822 95.6076 18.4321Z" fill="#1D9752"/>
<path d="M107.838 24.0341C107.771 23.8636 107.697 23.4646 107.618 22.8331H107.579C107.179 23.7784 106.371 24.2472 105.15 24.2472C103.157 24.2472 102.164 23.2244 102.164 21.1789C102.164 20.1832 102.38 19.4278 102.812 18.9164C103.243 18.405 104.024 18.0176 105.154 17.758L106.567 17.4248C106.951 17.3318 107.226 17.2001 107.383 17.0219C107.544 16.8437 107.622 16.5919 107.622 16.2626C107.622 15.6079 107.316 15.2786 106.704 15.2786C106.347 15.2786 106.088 15.3754 105.939 15.573C105.786 15.7706 105.704 16.1425 105.688 16.6926H102.58C102.58 15.972 102.714 15.3599 102.977 14.8524C103.239 14.3488 103.596 13.9768 104.044 13.7405C104.487 13.5042 104.923 13.3415 105.347 13.2485C105.77 13.1555 106.222 13.1129 106.7 13.1129C108.081 13.1129 109.137 13.3609 109.867 13.8606C110.597 14.3604 110.961 15.2514 110.961 16.5338V21.7251C110.961 22.8409 111.075 23.608 111.299 24.0264H107.838V24.0341ZM106.5 21.9304C107.242 21.9304 107.614 21.3455 107.614 20.1793V18.9009H107.575C107.509 18.9939 107.418 19.0597 107.308 19.0985C107.195 19.1372 107.042 19.1798 106.849 19.2263C106.657 19.2728 106.492 19.327 106.363 19.3929C105.872 19.6137 105.625 20.0747 105.625 20.7682C105.625 21.1208 105.704 21.4036 105.864 21.6128C106.025 21.8258 106.237 21.9304 106.5 21.9304Z" fill="#1D9752"/>
<path d="M112.837 25.0375C113.061 25.0918 113.327 25.115 113.633 25.115C114.034 25.115 114.332 25.0182 114.528 24.8283C114.724 24.6385 114.822 24.3092 114.822 24.1504C114.822 24.0574 114.767 23.8172 114.661 23.422L111.75 13.1323L115.474 13.1168L116.612 20.5707H116.651L117.722 13.1323L121.336 13.1362L118.381 24.3286C118.075 25.5218 117.659 26.4942 117.13 26.9359C116.596 27.3736 115.835 27.5945 114.838 27.5945C114.042 27.5945 113.371 27.5673 112.825 27.517V25.0375H112.837Z" fill="#1D9752"/>
<path d="M124.228 20.1406H120.881V24.0341H124.228V20.1406Z" fill="#EE3C39"/>
<path d="M125.024 13.1401H128.693L129.745 21.0472H129.784L130.812 13.1401L134.547 13.144L131.856 24.0342H127.634L125.024 13.1401Z" fill="#EE3C39"/>
<path d="M135.081 13.1401H138.546V14.6936H138.585C139.048 13.6437 139.919 13.1207 141.195 13.1207C142.07 13.1207 142.76 13.3377 143.255 13.7716C143.753 14.2055 144 14.9532 144 16.0147V24.038H140.414V17.0181C140.414 16.5726 140.347 16.251 140.214 16.0534C140.08 15.8559 139.857 15.759 139.539 15.759C139.221 15.759 138.993 15.8597 138.864 16.0534C138.73 16.251 138.664 16.5726 138.664 17.0181V24.038H135.077V13.1401H135.081Z" fill="#EE3C39"/>
<path d="M15.3618 19.1838H12.6739C12.4267 19.1838 12.1992 19.0676 12.0579 18.8661L8.27535 13.5353H6.43115L11.2692 20.3577C11.4105 20.5552 11.642 20.6753 11.8853 20.6753H17.4688C17.716 20.6753 17.9475 20.7954 18.0888 20.993L27.4903 34.2503C27.6708 34.506 27.6708 34.8469 27.4903 35.1065L20.6981 44.6833C20.396 45.1056 19.7643 45.1056 19.4621 44.6833L12.67 35.1065C12.4895 34.8508 12.4895 34.5099 12.67 34.2542L16.2799 29.1674C16.5781 28.7452 17.2138 28.7452 17.5159 29.1636L18.8618 31.0541C19.0462 31.3098 19.0462 31.6546 18.8618 31.9103L17.1981 34.2542C17.0176 34.5099 17.0176 34.8508 17.1981 35.1065L20.0821 39.1704L22.9622 35.1065C23.1427 34.8508 23.1427 34.5099 22.9622 34.2542L16.1583 24.6618C16.017 24.4642 15.7855 24.3441 15.5383 24.3441H11.8774C11.6302 24.3441 11.4026 24.4642 11.2614 24.6618L6.41939 31.488L8.26359 31.4803L12.0461 26.1495C12.1874 25.9519 12.4189 25.8318 12.6661 25.8318H14.7536C15.0008 25.8318 15.2284 25.9519 15.3735 26.1495L15.6717 26.5718C15.8522 26.8275 15.8522 27.1684 15.6717 27.4241L10.4217 34.8275C10.2804 35.0251 10.0489 35.1452 9.80564 35.1452H0.753404C0.145213 35.1452 -0.211857 34.4672 0.137363 33.9752L7.96145 22.9378C8.14194 22.6821 8.14194 22.3412 7.96145 22.0855L0.14129 11.0558C-0.207929 10.5638 0.149141 9.88586 0.757332 9.88586H9.81347C10.0607 9.88586 10.2883 10.006 10.4295 10.2035L15.9778 18.0293C16.327 18.5058 15.9699 19.1838 15.3618 19.1838Z" fill="#EE3C39"/>
<path d="M24.8182 25.8201H27.506C27.7532 25.8201 27.9847 25.9402 28.122 26.1378L31.9046 31.4686H33.7487L28.9107 24.6463C28.7694 24.4487 28.5379 24.3286 28.2947 24.3286H22.7111C22.4639 24.3286 22.2324 24.2124 22.0911 24.0109L12.674 10.7498C12.4895 10.4941 12.4895 10.1531 12.674 9.89357L19.4661 0.316711C19.7682 -0.10557 20.3999 -0.10557 20.7021 0.316711L27.4942 9.89357C27.6786 10.1493 27.6786 10.4902 27.4942 10.7459L23.8882 15.8326C23.5861 16.2549 22.9504 16.2549 22.6522 15.8326L21.3103 13.9382C21.1298 13.6825 21.1298 13.3416 21.3103 13.082L22.9661 10.7459C23.1466 10.4902 23.1466 10.1493 22.9661 9.89357L20.086 5.82573L17.206 9.88971C17.0255 10.1454 17.0255 10.4863 17.206 10.7459L24.0255 20.346C24.1668 20.5436 24.3983 20.6637 24.6455 20.6637H28.2829C28.5301 20.6637 28.7616 20.5436 28.8989 20.346L33.737 13.5236H31.8967L28.1142 18.8583C27.9729 19.0559 27.7414 19.176 27.4981 19.176H25.4185C25.1713 19.176 24.9398 19.0559 24.8025 18.8583L24.4964 18.4283C24.3159 18.1726 24.3159 17.8317 24.4964 17.576L29.7386 10.1803C29.8799 9.98269 30.1114 9.86258 30.3586 9.86258H39.4147C40.0229 9.86258 40.3839 10.5406 40.0347 11.0364L32.2067 22.0661C32.0262 22.3218 32.0262 22.6627 32.2067 22.9223L40.0386 33.9597C40.3878 34.4556 40.0308 35.1336 39.4226 35.1336H30.3664C30.1192 35.1336 29.8917 35.0135 29.7465 34.8159L24.1982 26.994C23.8529 26.4981 24.21 25.8201 24.8182 25.8201Z" fill="#EE3C39"/>
</svg>
